<svg width="96" height="96" viewBox="0 0 96 96" xmlns="http://www.w3.org/2000/svg">
  <defs>
    <linearGradient id="whatsGradient" x1="0%" y1="0%" x2="100%" y2="100%">
      <stop offset="0%" stop-color="#1DD85D" />
      <stop offset="100%" stop-color="#0EA84B" />
    </linearGradient>
  </defs>
  <rect width="96" height="96" rx="30" fill="url(#whatsGradient)" />
  <path d="M48 25a23 23 0 0 0-20.1 34.5L25 71l11.9-2.6A23 23 0 1 0 48 25Zm13.5 33.3c-.6 1.7-3.6 3.2-5 3.3-1.3.2-3 .3-4.8-.3-1.1-.4-2.5-.8-4.2-1.6-7.4-3.2-12.3-10.5-12.7-11-.4-.6-3-3.9-3-7.4s1.9-5.2 2.6-5.9c.6-.7 1.5-.9 2-.9h1.4c.4 0 1 .1 1.5 1.2.6 1.5 2.2 5.3 2.4 5.7.2.4.3.9.1 1.5-.2.5-.3.9-.6 1.4-.3.4-.7.8-1 .9-.4.2-.8.6-.3 1.3.5.7 2.2 3.7 4.8 5.9 3.3 3 6 .4 6.8-.2.7-.6 1.5-.7 2.4-.4 1 .3 6.3 3 7.4 3.5 1.1.4 1.8.6 2 .9.2.2.2 1.7-.4 3.4Z" fill="#fff" />
</svg>
