<svg xmlns="http://www.w3.org/2000/svg" xmlns:xlink="http://www.w3.org/1999/xlink" width="500" zoomAndPan="magnify" viewBox="0 0 375 374.999991" height="500" preserveAspectRatio="xMidYMid meet" version="1.0"><defs><g/><clipPath id="f31ade9219"><path d="M 43.316406 0 L 331.683594 0 L 331.683594 288.367188 L 43.316406 288.367188 Z M 43.316406 0 " clip-rule="nonzero"/></clipPath><clipPath id="e81978098e"><path d="M 60.566406 0 L 314.433594 0 C 323.960938 0 331.683594 7.722656 331.683594 17.25 L 331.683594 271.117188 C 331.683594 280.644531 323.960938 288.367188 314.433594 288.367188 L 60.566406 288.367188 C 51.039062 288.367188 43.316406 280.644531 43.316406 271.117188 L 43.316406 17.25 C 43.316406 7.722656 51.039062 0 60.566406 0 Z M 60.566406 0 " clip-rule="nonzero"/></clipPath></defs><g clip-path="url(#f31ade9219)"><g clip-path="url(#e81978098e)"><path stroke-linecap="butt" transform="matrix(0.576736, 0, 0, 0.576736, 43.315907, 0)" fill="none" stroke-linejoin="miter" d="M 29.910546 0 L 470.089469 0 C 486.608878 0 499.999149 13.390271 499.999149 29.90968 L 499.999149 470.088604 C 499.999149 486.608013 486.608878 499.998284 470.089469 499.998284 L 29.910546 499.998284 C 13.391137 499.998284 0.000865204 486.608013 0.000865204 470.088604 L 0.000865204 29.90968 C 0.000865204 13.390271 13.391137 0 29.910546 0 Z M 29.910546 0 " stroke="#000000" stroke-width="28.609259" stroke-opacity="1" stroke-miterlimit="4"/></g></g><path fill="#000000" d="M 185.488281 34.589844 C 183.234375 34.585938 180.984375 34.660156 178.734375 34.804688 C 176.484375 34.949219 174.238281 35.171875 172.003906 35.464844 C 169.769531 35.757812 167.546875 36.128906 165.332031 36.570312 C 163.121094 37.011719 160.929688 37.523438 158.75 38.109375 C 156.574219 38.695312 154.417969 39.355469 152.285156 40.082031 C 150.148438 40.8125 148.042969 41.609375 145.960938 42.480469 C 143.878906 43.347656 141.832031 44.28125 139.8125 45.285156 C 137.792969 46.289062 135.808594 47.359375 133.859375 48.496094 C 131.910156 49.628906 130.003906 50.828125 128.132812 52.089844 C 126.265625 53.347656 124.4375 54.671875 122.65625 56.050781 C 120.875 57.433594 119.140625 58.875 117.453125 60.371094 C 115.765625 61.867188 114.128906 63.417969 112.546875 65.019531 C 110.960938 66.625 109.433594 68.28125 107.957031 69.984375 C 106.480469 71.691406 105.066406 73.445312 103.707031 75.242188 C 102.347656 77.042969 101.050781 78.886719 99.8125 80.769531 C 98.574219 82.65625 97.402344 84.578125 96.289062 86.542969 C 95.179688 88.503906 94.136719 90.5 93.15625 92.535156 C 92.179688 94.566406 91.269531 96.628906 90.429688 98.71875 C 89.585938 100.8125 88.816406 102.929688 88.113281 105.070312 C 87.410156 107.214844 86.78125 109.378906 86.222656 111.5625 C 85.664062 113.746094 85.175781 115.949219 84.761719 118.164062 C 84.351562 120.378906 84.011719 122.609375 83.746094 124.847656 C 83.476562 127.085938 83.285156 129.332031 83.167969 131.585938 C 83.050781 133.835938 83.007812 136.089844 83.039062 138.34375 C 83.070312 140.597656 83.175781 142.851562 83.355469 145.097656 C 83.535156 147.34375 83.789062 149.585938 84.117188 151.816406 C 84.445312 154.046875 84.847656 156.265625 85.324219 158.46875 C 85.796875 160.671875 86.34375 162.859375 86.964844 165.027344 C 87.582031 167.195312 88.273438 169.339844 89.035156 171.464844 C 89.796875 173.585938 90.625 175.679688 91.527344 177.75 C 92.425781 179.816406 93.390625 181.851562 94.425781 183.855469 C 95.460938 185.859375 96.558594 187.828125 97.722656 189.757812 L 83.277344 233.089844 C 83.15625 233.457031 83.078125 233.832031 83.046875 234.214844 C 83.011719 234.601562 83.027344 234.984375 83.085938 235.367188 C 83.144531 235.75 83.246094 236.121094 83.390625 236.476562 C 83.539062 236.835938 83.722656 237.171875 83.949219 237.484375 C 84.175781 237.796875 84.4375 238.082031 84.730469 238.332031 C 85.023438 238.585938 85.339844 238.796875 85.683594 238.976562 C 86.027344 239.152344 86.390625 239.285156 86.765625 239.375 C 87.140625 239.464844 87.523438 239.511719 87.910156 239.511719 C 88.4375 239.511719 88.953125 239.429688 89.453125 239.257812 L 132.78125 224.816406 C 134.46875 225.828125 136.179688 226.792969 137.917969 227.703125 C 139.660156 228.617188 141.425781 229.480469 143.214844 230.292969 C 145.003906 231.105469 146.816406 231.863281 148.648438 232.570312 C 150.484375 233.277344 152.335938 233.933594 154.207031 234.535156 C 156.078125 235.136719 157.964844 235.683594 159.867188 236.175781 C 161.769531 236.667969 163.683594 237.105469 165.613281 237.484375 C 167.539062 237.867188 169.476562 238.195312 171.421875 238.464844 C 173.371094 238.734375 175.324219 238.949219 177.28125 239.109375 C 179.238281 239.265625 181.203125 239.367188 183.167969 239.414062 C 185.132812 239.457031 187.097656 239.449219 189.058594 239.378906 C 191.023438 239.3125 192.984375 239.1875 194.941406 239.007812 C 196.898438 238.828125 198.847656 238.589844 200.792969 238.296875 C 202.734375 238.003906 204.667969 237.65625 206.589844 237.25 C 208.515625 236.847656 210.425781 236.386719 212.320312 235.875 C 214.21875 235.359375 216.097656 234.792969 217.960938 234.167969 C 219.828125 233.546875 221.671875 232.871094 223.496094 232.140625 C 225.320312 231.414062 227.125 230.632812 228.90625 229.800781 C 230.683594 228.96875 232.441406 228.085938 234.167969 227.152344 C 235.898438 226.21875 237.601562 225.238281 239.273438 224.207031 C 240.945312 223.175781 242.585938 222.097656 244.199219 220.96875 C 245.808594 219.84375 247.386719 218.671875 248.929688 217.457031 C 250.472656 216.242188 251.980469 214.980469 253.453125 213.675781 C 254.921875 212.375 256.355469 211.027344 257.75 209.644531 C 259.140625 208.257812 260.496094 206.832031 261.804688 205.371094 C 263.117188 203.90625 264.386719 202.40625 265.609375 200.871094 C 266.835938 199.332031 268.015625 197.761719 269.152344 196.15625 C 270.285156 194.554688 271.375 192.917969 272.414062 191.25 C 273.453125 189.582031 274.445312 187.886719 275.390625 186.164062 C 276.332031 184.4375 277.226562 182.6875 278.066406 180.914062 C 278.910156 179.136719 279.699219 177.339844 280.4375 175.519531 C 281.175781 173.699219 281.863281 171.855469 282.496094 169.996094 C 283.128906 168.136719 283.707031 166.257812 284.230469 164.363281 C 284.757812 162.46875 285.226562 160.5625 285.640625 158.640625 C 286.058594 156.722656 286.417969 154.789062 286.71875 152.847656 C 287.023438 150.90625 287.273438 148.957031 287.464844 147.003906 C 287.65625 145.046875 287.789062 143.085938 287.867188 141.121094 C 287.949219 139.160156 287.96875 137.195312 287.9375 135.230469 C 287.902344 133.265625 287.8125 131.304688 287.664062 129.34375 C 287.515625 127.382812 287.3125 125.429688 287.054688 123.480469 C 286.792969 121.535156 286.476562 119.59375 286.105469 117.664062 C 285.734375 115.734375 285.308594 113.816406 284.828125 111.910156 C 284.347656 110.007812 283.808594 108.117188 283.21875 106.242188 C 282.628906 104.367188 281.984375 102.511719 281.289062 100.675781 C 280.589844 98.835938 279.839844 97.023438 279.039062 95.226562 C 278.238281 93.433594 277.382812 91.664062 276.480469 89.917969 C 275.578125 88.171875 274.625 86.457031 273.621094 84.765625 C 272.621094 83.074219 271.570312 81.414062 270.472656 79.785156 C 269.371094 78.15625 268.230469 76.558594 267.039062 74.992188 C 265.847656 73.429688 264.613281 71.902344 263.335938 70.410156 C 262.058594 68.914062 260.738281 67.460938 259.378906 66.042969 C 258.015625 64.625 256.613281 63.25 255.171875 61.914062 C 253.730469 60.578125 252.253906 59.285156 250.738281 58.03125 C 249.222656 56.78125 247.671875 55.574219 246.089844 54.414062 C 244.503906 53.25 242.886719 52.136719 241.238281 51.066406 C 239.589844 49.996094 237.910156 48.976562 236.203125 48.003906 C 234.492188 47.03125 232.757812 46.109375 231 45.238281 C 229.238281 44.363281 227.453125 43.542969 225.644531 42.773438 C 223.835938 42.003906 222.007812 41.285156 220.160156 40.621094 C 218.308594 39.957031 216.441406 39.347656 214.558594 38.789062 C 212.671875 38.234375 210.773438 37.730469 208.859375 37.28125 C 206.945312 36.835938 205.019531 36.441406 203.085938 36.105469 C 201.148438 35.769531 199.203125 35.488281 197.253906 35.261719 C 195.300781 35.039062 193.34375 34.871094 191.382812 34.757812 C 189.417969 34.644531 187.457031 34.589844 185.488281 34.589844 Z M 185.488281 229.753906 C 181.132812 229.75 176.792969 229.441406 172.476562 228.824219 C 168.164062 228.207031 163.914062 227.289062 159.726562 226.070312 C 155.542969 224.851562 151.460938 223.34375 147.492188 221.546875 C 143.519531 219.75 139.691406 217.683594 136.011719 215.34375 C 135.214844 214.839844 134.347656 214.585938 133.402344 214.585938 C 132.875 214.585938 132.359375 214.671875 131.859375 214.839844 L 95.617188 226.917969 L 107.699219 190.683594 C 107.929688 189.988281 108 189.277344 107.914062 188.546875 C 107.824219 187.820312 107.585938 187.148438 107.195312 186.527344 C 106.289062 185.089844 105.425781 183.632812 104.601562 182.148438 C 103.773438 180.664062 102.992188 179.160156 102.25 177.632812 C 101.507812 176.109375 100.804688 174.5625 100.148438 172.996094 C 99.492188 171.433594 98.878906 169.851562 98.308594 168.25 C 97.738281 166.652344 97.210938 165.039062 96.726562 163.414062 C 96.246094 161.785156 95.808594 160.144531 95.417969 158.492188 C 95.027344 156.84375 94.679688 155.179688 94.378906 153.511719 C 94.078125 151.839844 93.824219 150.164062 93.617188 148.476562 C 93.410156 146.792969 93.246094 145.105469 93.132812 143.410156 C 93.015625 141.71875 92.949219 140.023438 92.925781 138.324219 C 92.902344 136.628906 92.929688 134.929688 93 133.234375 C 93.070312 131.539062 93.1875 129.847656 93.351562 128.15625 C 93.515625 126.46875 93.726562 124.785156 93.984375 123.105469 C 94.238281 121.429688 94.542969 119.757812 94.890625 118.097656 C 95.238281 116.4375 95.632812 114.785156 96.074219 113.144531 C 96.511719 111.507812 96.996094 109.878906 97.523438 108.265625 C 98.050781 106.652344 98.625 105.058594 99.242188 103.476562 C 99.859375 101.894531 100.515625 100.332031 101.21875 98.785156 C 101.921875 97.238281 102.667969 95.714844 103.453125 94.210938 C 104.238281 92.707031 105.066406 91.226562 105.933594 89.765625 C 106.800781 88.308594 107.707031 86.871094 108.652344 85.464844 C 109.601562 84.054688 110.585938 82.671875 111.605469 81.316406 C 112.628906 79.964844 113.6875 78.636719 114.785156 77.339844 C 115.878906 76.042969 117.007812 74.777344 118.171875 73.542969 C 119.339844 72.308594 120.535156 71.105469 121.765625 69.9375 C 123 68.769531 124.261719 67.636719 125.554688 66.535156 C 126.847656 65.4375 128.167969 64.375 129.519531 63.347656 C 130.871094 62.320312 132.25 61.332031 133.65625 60.378906 C 135.0625 59.429688 136.496094 58.519531 137.949219 57.644531 C 139.40625 56.773438 140.886719 55.941406 142.386719 55.152344 C 143.890625 54.359375 145.410156 53.609375 146.953125 52.902344 C 148.496094 52.195312 150.058594 51.53125 151.640625 50.910156 C 153.21875 50.289062 154.8125 49.710938 156.425781 49.175781 C 158.035156 48.644531 159.660156 48.15625 161.300781 47.710938 C 162.9375 47.265625 164.585938 46.867188 166.246094 46.511719 C 167.90625 46.160156 169.574219 45.851562 171.253906 45.589844 C 172.929688 45.328125 174.613281 45.109375 176.300781 44.941406 C 177.988281 44.773438 179.683594 44.648438 181.378906 44.574219 C 183.074219 44.496094 184.769531 44.464844 186.46875 44.484375 C 188.164062 44.5 189.859375 44.5625 191.554688 44.671875 C 193.25 44.78125 194.9375 44.9375 196.621094 45.140625 C 198.308594 45.34375 199.988281 45.59375 201.65625 45.886719 C 203.328125 46.183594 204.992188 46.523438 206.644531 46.910156 C 208.296875 47.296875 209.9375 47.730469 211.566406 48.207031 C 213.195312 48.683594 214.8125 49.203125 216.410156 49.769531 C 218.011719 50.332031 219.597656 50.941406 221.164062 51.59375 C 222.730469 52.246094 224.277344 52.941406 225.808594 53.679688 C 227.335938 54.417969 228.84375 55.195312 230.328125 56.015625 C 231.816406 56.835938 233.277344 57.699219 234.714844 58.597656 C 236.15625 59.5 237.566406 60.4375 238.953125 61.417969 C 240.339844 62.394531 241.699219 63.410156 243.03125 64.464844 C 244.363281 65.519531 245.664062 66.605469 246.933594 67.730469 C 248.207031 68.855469 249.445312 70.015625 250.652344 71.207031 C 251.863281 72.402344 253.035156 73.625 254.175781 74.882812 C 255.316406 76.140625 256.421875 77.429688 257.492188 78.746094 C 258.558594 80.0625 259.59375 81.410156 260.585938 82.785156 C 261.582031 84.160156 262.539062 85.5625 263.457031 86.988281 C 264.378906 88.417969 265.253906 89.867188 266.09375 91.34375 C 266.933594 92.820312 267.730469 94.316406 268.488281 95.835938 C 269.242188 97.355469 269.957031 98.894531 270.628906 100.453125 C 271.300781 102.011719 271.929688 103.589844 272.515625 105.183594 C 273.101562 106.777344 273.640625 108.382812 274.136719 110.007812 C 274.632812 111.628906 275.085938 113.265625 275.492188 114.914062 C 275.898438 116.5625 276.261719 118.21875 276.578125 119.886719 C 276.890625 121.554688 277.160156 123.230469 277.386719 124.914062 C 277.609375 126.59375 277.785156 128.28125 277.917969 129.976562 C 278.046875 131.667969 278.132812 133.363281 278.167969 135.058594 C 278.207031 136.757812 278.199219 138.453125 278.144531 140.148438 C 278.085938 141.847656 277.984375 143.539062 277.835938 145.230469 C 277.6875 146.921875 277.492188 148.605469 277.25 150.285156 C 277.011719 151.96875 276.722656 153.640625 276.390625 155.304688 C 276.054688 156.96875 275.675781 158.621094 275.253906 160.265625 C 274.828125 161.910156 274.359375 163.539062 273.847656 165.15625 C 273.332031 166.773438 272.773438 168.378906 272.171875 169.964844 C 271.570312 171.550781 270.925781 173.121094 270.238281 174.671875 C 269.550781 176.222656 268.820312 177.757812 268.046875 179.269531 C 267.273438 180.777344 266.460938 182.269531 265.605469 183.734375 C 264.753906 185.203125 263.859375 186.644531 262.925781 188.0625 C 261.992188 189.480469 261.019531 190.871094 260.011719 192.234375 C 259 193.597656 257.953125 194.933594 256.871094 196.242188 C 255.789062 197.546875 254.667969 198.824219 253.515625 200.070312 C 252.363281 201.3125 251.175781 202.527344 249.953125 203.707031 C 248.734375 204.886719 247.484375 206.03125 246.199219 207.144531 C 244.917969 208.253906 243.605469 209.328125 242.261719 210.367188 C 240.917969 211.40625 239.550781 212.410156 238.152344 213.375 C 236.753906 214.335938 235.332031 215.261719 233.882812 216.148438 C 232.4375 217.03125 230.964844 217.878906 229.472656 218.683594 C 227.976562 219.488281 226.460938 220.25 224.925781 220.972656 C 223.386719 221.691406 221.832031 222.371094 220.257812 223.007812 C 218.683594 223.644531 217.09375 224.234375 215.488281 224.785156 C 213.882812 225.332031 212.261719 225.835938 210.628906 226.296875 C 208.992188 226.753906 207.347656 227.167969 205.691406 227.539062 C 204.035156 227.90625 202.371094 228.230469 200.695312 228.507812 C 199.019531 228.785156 197.339844 229.015625 195.652344 229.203125 C 193.964844 229.386719 192.273438 229.523438 190.578125 229.617188 C 188.882812 229.707031 187.1875 229.753906 185.488281 229.753906 Z M 146.457031 137.050781 C 146.457031 137.691406 146.394531 138.324219 146.269531 138.953125 C 146.144531 139.582031 145.960938 140.191406 145.714844 140.785156 C 145.46875 141.375 145.167969 141.9375 144.8125 142.472656 C 144.457031 143.003906 144.050781 143.496094 143.597656 143.949219 C 143.144531 144.402344 142.652344 144.808594 142.121094 145.164062 C 141.589844 145.519531 141.027344 145.820312 140.433594 146.066406 C 139.839844 146.3125 139.230469 146.496094 138.601562 146.621094 C 137.976562 146.746094 137.339844 146.808594 136.699219 146.808594 C 136.058594 146.808594 135.425781 146.746094 134.796875 146.621094 C 134.167969 146.496094 133.558594 146.3125 132.964844 146.066406 C 132.375 145.820312 131.8125 145.519531 131.277344 145.164062 C 130.746094 144.808594 130.253906 144.402344 129.800781 143.949219 C 129.347656 143.496094 128.941406 143.003906 128.585938 142.472656 C 128.230469 141.9375 127.929688 141.375 127.683594 140.785156 C 127.4375 140.191406 127.253906 139.582031 127.128906 138.953125 C 127.003906 138.324219 126.941406 137.691406 126.941406 137.050781 C 126.941406 136.410156 127.003906 135.773438 127.128906 135.148438 C 127.253906 134.519531 127.4375 133.910156 127.683594 133.316406 C 127.929688 132.722656 128.230469 132.160156 128.585938 131.628906 C 128.941406 131.097656 129.347656 130.605469 129.800781 130.152344 C 130.253906 129.699219 130.746094 129.292969 131.277344 128.9375 C 131.8125 128.582031 132.375 128.28125 132.964844 128.035156 C 133.558594 127.789062 134.167969 127.605469 134.796875 127.480469 C 135.425781 127.355469 136.058594 127.292969 136.699219 127.292969 C 137.339844 127.292969 137.976562 127.355469 138.601562 127.480469 C 139.230469 127.605469 139.839844 127.789062 140.433594 128.035156 C 141.027344 128.28125 141.589844 128.582031 142.121094 128.9375 C 142.652344 129.292969 143.144531 129.699219 143.597656 130.152344 C 144.050781 130.605469 144.457031 131.097656 144.8125 131.628906 C 145.167969 132.160156 145.46875 132.722656 145.714844 133.316406 C 145.960938 133.910156 146.144531 134.519531 146.269531 135.148438 C 146.394531 135.773438 146.457031 136.410156 146.457031 137.050781 Z M 195.25 137.050781 C 195.25 137.691406 195.1875 138.324219 195.0625 138.953125 C 194.9375 139.582031 194.75 140.191406 194.503906 140.785156 C 194.261719 141.375 193.960938 141.9375 193.605469 142.472656 C 193.246094 143.003906 192.84375 143.496094 192.390625 143.949219 C 191.9375 144.402344 191.445312 144.808594 190.910156 145.164062 C 190.378906 145.519531 189.816406 145.820312 189.222656 146.066406 C 188.632812 146.3125 188.023438 146.496094 187.394531 146.621094 C 186.765625 146.746094 186.132812 146.808594 185.488281 146.808594 C 184.847656 146.808594 184.214844 146.746094 183.585938 146.621094 C 182.957031 146.496094 182.347656 146.3125 181.757812 146.066406 C 181.164062 145.820312 180.601562 145.519531 180.070312 145.164062 C 179.535156 144.808594 179.042969 144.402344 178.589844 143.949219 C 178.136719 143.496094 177.734375 143.003906 177.375 142.472656 C 177.019531 141.9375 176.71875 141.375 176.476562 140.785156 C 176.230469 140.191406 176.042969 139.582031 175.917969 138.953125 C 175.792969 138.324219 175.730469 137.691406 175.730469 137.050781 C 175.730469 136.410156 175.792969 135.773438 175.917969 135.148438 C 176.042969 134.519531 176.230469 133.910156 176.476562 133.316406 C 176.71875 132.722656 177.019531 132.160156 177.375 131.628906 C 177.734375 131.097656 178.136719 130.605469 178.589844 130.152344 C 179.042969 129.699219 179.535156 129.292969 180.070312 128.9375 C 180.601562 128.582031 181.164062 128.28125 181.757812 128.035156 C 182.347656 127.789062 182.957031 127.605469 183.585938 127.480469 C 184.214844 127.355469 184.847656 127.292969 185.488281 127.292969 C 186.132812 127.292969 186.765625 127.355469 187.394531 127.480469 C 188.023438 127.605469 188.632812 127.789062 189.222656 128.035156 C 189.816406 128.28125 190.378906 128.582031 190.910156 128.9375 C 191.445312 129.292969 191.9375 129.699219 192.390625 130.152344 C 192.84375 130.605469 193.246094 131.097656 193.605469 131.628906 C 193.960938 132.160156 194.261719 132.722656 194.503906 133.316406 C 194.75 133.910156 194.9375 134.519531 195.0625 135.148438 C 195.1875 135.773438 195.25 136.410156 195.25 137.050781 Z M 244.039062 137.050781 C 244.039062 137.691406 243.976562 138.324219 243.851562 138.953125 C 243.726562 139.582031 243.542969 140.191406 243.296875 140.785156 C 243.050781 141.375 242.75 141.9375 242.394531 142.472656 C 242.039062 143.003906 241.632812 143.496094 241.179688 143.949219 C 240.726562 144.402344 240.234375 144.808594 239.703125 145.164062 C 239.167969 145.519531 238.605469 145.820312 238.015625 146.066406 C 237.421875 146.3125 236.8125 146.496094 236.183594 146.621094 C 235.554688 146.746094 234.921875 146.808594 234.28125 146.808594 C 233.640625 146.808594 233.003906 146.746094 232.378906 146.621094 C 231.75 146.496094 231.140625 146.3125 230.546875 146.066406 C 229.953125 145.820312 229.390625 145.519531 228.859375 145.164062 C 228.328125 144.808594 227.835938 144.402344 227.382812 143.949219 C 226.929688 143.496094 226.523438 143.003906 226.167969 142.472656 C 225.8125 141.9375 225.511719 141.375 225.265625 140.785156 C 225.019531 140.191406 224.835938 139.582031 224.710938 138.953125 C 224.585938 138.324219 224.523438 137.691406 224.523438 137.050781 C 224.523438 136.410156 224.585938 135.773438 224.710938 135.148438 C 224.835938 134.519531 225.019531 133.910156 225.265625 133.316406 C 225.511719 132.722656 225.8125 132.160156 226.167969 131.628906 C 226.523438 131.097656 226.929688 130.605469 227.382812 130.152344 C 227.835938 129.699219 228.328125 129.292969 228.859375 128.9375 C 229.390625 128.582031 229.953125 128.28125 230.546875 128.035156 C 231.140625 127.789062 231.75 127.605469 232.378906 127.480469 C 233.003906 127.355469 233.640625 127.292969 234.28125 127.292969 C 234.921875 127.292969 235.554688 127.355469 236.183594 127.480469 C 236.8125 127.605469 237.421875 127.789062 238.015625 128.035156 C 238.605469 128.28125 239.167969 128.582031 239.703125 128.9375 C 240.234375 129.292969 240.726562 129.699219 241.179688 130.152344 C 241.632812 130.605469 242.039062 131.097656 242.394531 131.628906 C 242.75 132.160156 243.050781 132.722656 243.296875 133.316406 C 243.542969 133.910156 243.726562 134.519531 243.851562 135.148438 C 243.976562 135.773438 244.039062 136.410156 244.039062 137.050781 Z M 244.039062 137.050781 " fill-opacity="1" fill-rule="nonzero"/><path stroke-linecap="butt" transform="matrix(0.576736, -0.000000000000000858, 0.000000000000000858, 0.576736, 43.315907, 137.839971)" fill="none" stroke-linejoin="miter" d="M 0.000865204 5.499477 L 77.6807 5.499477 " stroke="#000000" stroke-width="11" stroke-opacity="1" stroke-miterlimit="4"/><path stroke-linecap="butt" transform="matrix(0.576736, 0, 0, 0.576736, 285.107067, 137.839971)" fill="none" stroke-linejoin="miter" d="M -0.00277047 5.499477 L 80.758792 5.499477 " stroke="#000000" stroke-width="11" stroke-opacity="1" stroke-miterlimit="4"/><g fill="#000000" fill-opacity="1"><g transform="translate(80.408202, 345.774587)"><g><path d="M 15.40625 -5.296875 C 16.664062 -5.296875 17.703125 -5.488281 18.515625 -5.875 C 19.335938 -6.257812 19.972656 -6.773438 20.421875 -7.421875 C 20.867188 -8.078125 21.175781 -8.828125 21.34375 -9.671875 C 21.507812 -10.523438 21.59375 -11.398438 21.59375 -12.296875 L 21.59375 -13.203125 L 28.203125 -13.203125 L 28.203125 -12.296875 C 28.203125 -8.128906 27.109375 -4.921875 24.921875 -2.671875 C 22.742188 -0.421875 19.570312 0.703125 15.40625 0.703125 C 11.40625 0.703125 8.238281 -0.507812 5.90625 -2.9375 C 3.570312 -5.375 2.40625 -8.925781 2.40625 -13.59375 L 2.40625 -21.40625 C 2.40625 -23.632812 2.703125 -25.640625 3.296875 -27.421875 C 3.898438 -29.203125 4.765625 -30.703125 5.890625 -31.921875 C 7.023438 -33.140625 8.394531 -34.070312 10 -34.71875 C 11.601562 -35.375 13.40625 -35.703125 15.40625 -35.703125 C 17.46875 -35.703125 19.296875 -35.398438 20.890625 -34.796875 C 22.492188 -34.203125 23.835938 -33.335938 24.921875 -32.203125 C 26.003906 -31.066406 26.820312 -29.695312 27.375 -28.09375 C 27.925781 -26.5 28.203125 -24.703125 28.203125 -22.703125 L 28.203125 -21.796875 L 21.59375 -21.796875 L 21.59375 -22.703125 C 21.59375 -23.535156 21.492188 -24.367188 21.296875 -25.203125 C 21.097656 -26.035156 20.765625 -26.785156 20.296875 -27.453125 C 19.828125 -28.117188 19.191406 -28.660156 18.390625 -29.078125 C 17.597656 -29.492188 16.601562 -29.703125 15.40625 -29.703125 C 14.300781 -29.703125 13.347656 -29.492188 12.546875 -29.078125 C 11.742188 -28.660156 11.078125 -28.09375 10.546875 -27.375 C 10.015625 -26.65625 9.625 -25.820312 9.375 -24.875 C 9.125 -23.925781 9 -22.9375 9 -21.90625 L 9 -13.09375 C 9 -11.96875 9.113281 -10.925781 9.34375 -9.96875 C 9.582031 -9.019531 9.953125 -8.195312 10.453125 -7.5 C 10.953125 -6.800781 11.609375 -6.257812 12.421875 -5.875 C 13.242188 -5.488281 14.238281 -5.296875 15.40625 -5.296875 Z M 15.40625 -5.296875 "/></g></g></g><g fill="#000000" fill-opacity="1"><g transform="translate(111.003464, 345.774587)"><g><path d="M 2.40625 -21.40625 C 2.40625 -25.9375 3.546875 -29.453125 5.828125 -31.953125 C 8.109375 -34.453125 11.265625 -35.703125 15.296875 -35.703125 C 19.328125 -35.703125 22.484375 -34.453125 24.765625 -31.953125 C 27.054688 -29.453125 28.203125 -25.9375 28.203125 -21.40625 L 28.203125 -13.59375 C 28.203125 -8.925781 27.054688 -5.375 24.765625 -2.9375 C 22.484375 -0.507812 19.328125 0.703125 15.296875 0.703125 C 11.265625 0.703125 8.109375 -0.507812 5.828125 -2.9375 C 3.546875 -5.375 2.40625 -8.925781 2.40625 -13.59375 Z M 15.296875 -5.296875 C 16.492188 -5.296875 17.492188 -5.488281 18.296875 -5.875 C 19.097656 -6.257812 19.75 -6.800781 20.25 -7.5 C 20.75 -8.195312 21.097656 -9.03125 21.296875 -10 C 21.492188 -10.96875 21.59375 -12.035156 21.59375 -13.203125 L 21.59375 -21.796875 C 21.59375 -22.898438 21.476562 -23.929688 21.25 -24.890625 C 21.019531 -25.859375 20.65625 -26.691406 20.15625 -27.390625 C 19.65625 -28.097656 19.003906 -28.660156 18.203125 -29.078125 C 17.398438 -29.492188 16.429688 -29.703125 15.296875 -29.703125 C 14.160156 -29.703125 13.191406 -29.492188 12.390625 -29.078125 C 11.597656 -28.660156 10.953125 -28.097656 10.453125 -27.390625 C 9.953125 -26.691406 9.582031 -25.859375 9.34375 -24.890625 C 9.113281 -23.929688 9 -22.898438 9 -21.796875 L 9 -13.203125 C 9 -12.035156 9.097656 -10.96875 9.296875 -10 C 9.492188 -9.03125 9.84375 -8.195312 10.34375 -7.5 C 10.84375 -6.800781 11.492188 -6.257812 12.296875 -5.875 C 13.097656 -5.488281 14.097656 -5.296875 15.296875 -5.296875 Z M 15.296875 -5.296875 "/></g></g></g><g fill="#000000" fill-opacity="1"><g transform="translate(141.598727, 345.774587)"><g><path d="M 20.046875 -3.296875 L 20.953125 -3.296875 L 20.953125 -35 L 27.546875 -35 L 27.546875 0 L 14.65625 0 L 10.546875 -31.703125 L 9.65625 -31.703125 L 9.65625 0 L 3.046875 0 L 3.046875 -35 L 15.953125 -35 Z M 20.046875 -3.296875 "/></g></g></g><g fill="#000000" fill-opacity="1"><g transform="translate(172.193989, 345.774587)"><g><path d="M 2.703125 -35 L 27.90625 -35 L 27.90625 -28.703125 L 18.59375 -28.703125 L 18.59375 0 L 12 0 L 12 -28.703125 L 2.703125 -28.703125 Z M 2.703125 -35 "/></g></g></g><g fill="#000000" fill-opacity="1"><g transform="translate(202.789252, 345.774587)"><g><path d="M 21.25 -7.5 L 9.34375 -7.5 L 7.65625 0 L 0.75 0 L 9.09375 -35 L 21.5 -35 L 29.84375 0 L 22.953125 0 Z M 10.75 -13.796875 L 19.796875 -13.796875 L 15.75 -31.703125 L 14.84375 -31.703125 Z M 10.75 -13.796875 "/></g></g></g><g fill="#000000" fill-opacity="1"><g transform="translate(233.384514, 345.774587)"><g><path d="M 15.40625 -5.296875 C 16.664062 -5.296875 17.703125 -5.488281 18.515625 -5.875 C 19.335938 -6.257812 19.972656 -6.773438 20.421875 -7.421875 C 20.867188 -8.078125 21.175781 -8.828125 21.34375 -9.671875 C 21.507812 -10.523438 21.59375 -11.398438 21.59375 -12.296875 L 21.59375 -13.203125 L 28.203125 -13.203125 L 28.203125 -12.296875 C 28.203125 -8.128906 27.109375 -4.921875 24.921875 -2.671875 C 22.742188 -0.421875 19.570312 0.703125 15.40625 0.703125 C 11.40625 0.703125 8.238281 -0.507812 5.90625 -2.9375 C 3.570312 -5.375 2.40625 -8.925781 2.40625 -13.59375 L 2.40625 -21.40625 C 2.40625 -23.632812 2.703125 -25.640625 3.296875 -27.421875 C 3.898438 -29.203125 4.765625 -30.703125 5.890625 -31.921875 C 7.023438 -33.140625 8.394531 -34.070312 10 -34.71875 C 11.601562 -35.375 13.40625 -35.703125 15.40625 -35.703125 C 17.46875 -35.703125 19.296875 -35.398438 20.890625 -34.796875 C 22.492188 -34.203125 23.835938 -33.335938 24.921875 -32.203125 C 26.003906 -31.066406 26.820312 -29.695312 27.375 -28.09375 C 27.925781 -26.5 28.203125 -24.703125 28.203125 -22.703125 L 28.203125 -21.796875 L 21.59375 -21.796875 L 21.59375 -22.703125 C 21.59375 -23.535156 21.492188 -24.367188 21.296875 -25.203125 C 21.097656 -26.035156 20.765625 -26.785156 20.296875 -27.453125 C 19.828125 -28.117188 19.191406 -28.660156 18.390625 -29.078125 C 17.597656 -29.492188 16.601562 -29.703125 15.40625 -29.703125 C 14.300781 -29.703125 13.347656 -29.492188 12.546875 -29.078125 C 11.742188 -28.660156 11.078125 -28.09375 10.546875 -27.375 C 10.015625 -26.65625 9.625 -25.820312 9.375 -24.875 C 9.125 -23.925781 9 -22.9375 9 -21.90625 L 9 -13.09375 C 9 -11.96875 9.113281 -10.925781 9.34375 -9.96875 C 9.582031 -9.019531 9.953125 -8.195312 10.453125 -7.5 C 10.953125 -6.800781 11.609375 -6.257812 12.421875 -5.875 C 13.242188 -5.488281 14.238281 -5.296875 15.40625 -5.296875 Z M 15.40625 -5.296875 "/></g></g></g><g fill="#000000" fill-opacity="1"><g transform="translate(263.979777, 345.774587)"><g><path d="M 2.703125 -35 L 27.90625 -35 L 27.90625 -28.703125 L 18.59375 -28.703125 L 18.59375 0 L 12 0 L 12 -28.703125 L 2.703125 -28.703125 Z M 2.703125 -35 "/></g></g></g></svg>