<svg xmlns="http://www.w3.org/2000/svg" xmlns:xlink="http://www.w3.org/1999/xlink" width="500" zoomAndPan="magnify" viewBox="0 0 375 374.999991" height="500" preserveAspectRatio="xMidYMid meet" version="1.0"><defs><g/><clipPath id="fc9a87ff35"><path d="M 43.367188 0 L 331.632812 0 L 331.632812 288.265625 L 43.367188 288.265625 Z M 43.367188 0 " clip-rule="nonzero"/></clipPath><clipPath id="4f538e399c"><path d="M 60.617188 0 L 314.382812 0 C 323.910156 0 331.632812 7.722656 331.632812 17.25 L 331.632812 271.015625 C 331.632812 280.542969 323.910156 288.265625 314.382812 288.265625 L 60.617188 288.265625 C 51.089844 288.265625 43.367188 280.542969 43.367188 271.015625 L 43.367188 17.25 C 43.367188 7.722656 51.089844 0 60.617188 0 Z M 60.617188 0 " clip-rule="nonzero"/></clipPath><clipPath id="a0ff6da673"><path d="M 114.84375 25.511719 L 260.128906 25.511719 L 260.128906 215 L 114.84375 215 Z M 114.84375 25.511719 " clip-rule="nonzero"/></clipPath><clipPath id="6669dc5910"><path d="M 162 252 L 213 252 L 213 262.464844 L 162 262.464844 Z M 162 252 " clip-rule="nonzero"/></clipPath></defs><g clip-path="url(#fc9a87ff35)"><g clip-path="url(#4f538e399c)"><path stroke-linecap="butt" transform="matrix(0.576529, 0, 0, 0.576529, 43.367848, 0)" fill="none" stroke-linejoin="miter" d="M 29.919313 -0 L 470.080705 -0 C 486.606068 -0 500.001165 13.395097 500.001165 29.920459 L 500.001165 470.081851 C 500.001165 486.607213 486.606068 500.00231 470.080705 500.00231 L 29.919313 500.00231 C 13.393951 500.00231 -0.00114574 486.607213 -0.00114574 470.081851 L -0.00114574 29.920459 C -0.00114574 13.395097 13.393951 -0 29.919313 -0 Z M 29.919313 -0 " stroke="#000000" stroke-width="28.619568" stroke-opacity="1" stroke-miterlimit="4"/></g></g><g clip-path="url(#a0ff6da673)"><path fill="#000000" d="M 187.535156 33.21875 C 151.773438 33.21875 122.683594 62.308594 122.683594 98.066406 C 122.683594 113.285156 128.941406 127.050781 135.0625 138.511719 C 137.253906 142.605469 139.628906 146.667969 142.121094 150.585938 C 143 151.964844 143.992188 153.363281 145.042969 154.839844 C 150.171875 162.039062 156.554688 171.003906 156.941406 188.339844 L 156.941406 195.007812 C 156.941406 201.242188 162.011719 206.3125 168.25 206.3125 L 206.820312 206.3125 C 213.058594 206.3125 218.128906 201.242188 218.128906 195.007812 L 218.128906 187.53125 L 218.132812 187.398438 C 218.71875 170.6875 224.964844 161.910156 229.988281 154.855469 C 231.042969 153.375 232.039062 151.972656 232.925781 150.585938 C 239.15625 140.816406 243.503906 132.714844 246.601562 125.101562 C 248.746094 119.816406 250.261719 114.882812 251.222656 110.011719 C 251.996094 106.175781 252.386719 102.160156 252.386719 98.066406 C 252.386719 62.308594 223.289062 33.21875 187.535156 33.21875 Z M 206.820312 214.054688 L 168.25 214.054688 C 157.742188 214.054688 149.199219 205.511719 149.199219 195.007812 L 149.199219 188.429688 C 148.867188 173.554688 143.71875 166.320312 138.742188 159.328125 C 137.632812 157.769531 136.582031 156.296875 135.589844 154.75 C 132.992188 150.664062 130.515625 146.429688 128.234375 142.164062 C 121.664062 129.851562 114.941406 114.992188 114.941406 98.066406 C 114.941406 58.035156 147.507812 25.476562 187.535156 25.476562 C 227.558594 25.476562 260.125 58.035156 260.125 98.066406 C 260.125 102.671875 259.683594 107.195312 258.816406 111.523438 C 257.753906 116.875 256.105469 122.273438 253.773438 128.015625 C 250.492188 136.078125 245.941406 144.574219 239.449219 154.746094 C 238.460938 156.304688 237.410156 157.78125 236.296875 159.34375 C 231.425781 166.1875 226.386719 173.261719 225.871094 187.601562 L 225.871094 195.007812 C 225.871094 205.511719 217.328125 214.054688 206.820312 214.054688 " fill-opacity="1" fill-rule="nonzero"/></g><g clip-path="url(#6669dc5910)"><path fill="#000000" d="M 162.683594 252.886719 L 177.5625 260.0625 C 183.074219 262.71875 191.996094 262.71875 197.503906 260.0625 L 212.386719 252.886719 L 162.683594 252.886719 " fill-opacity="1" fill-rule="nonzero"/></g><path fill="#000000" d="M 215.417969 250.34375 C 215.417969 252.476562 213.6875 254.214844 211.539062 254.214844 L 163.527344 254.214844 C 161.386719 254.214844 159.652344 252.476562 159.652344 250.34375 C 159.652344 248.195312 161.386719 246.464844 163.527344 246.464844 L 211.539062 246.464844 C 213.6875 246.464844 215.417969 248.195312 215.417969 250.34375 " fill-opacity="1" fill-rule="nonzero"/><path fill="#000000" d="M 218.632812 239.183594 C 218.632812 241.328125 216.898438 243.0625 214.757812 243.0625 L 160.3125 243.0625 C 158.171875 243.0625 156.433594 241.328125 156.433594 239.183594 C 156.433594 237.039062 158.171875 235.304688 160.3125 235.304688 L 214.757812 235.304688 C 216.898438 235.304688 218.632812 237.039062 218.632812 239.183594 " fill-opacity="1" fill-rule="nonzero"/><path fill="#000000" d="M 218.632812 228.027344 C 218.632812 230.167969 216.898438 231.910156 214.757812 231.910156 L 160.3125 231.910156 C 158.171875 231.910156 156.433594 230.167969 156.433594 228.027344 C 156.433594 225.890625 158.171875 224.152344 160.3125 224.152344 L 214.757812 224.152344 C 216.898438 224.152344 218.632812 225.890625 218.632812 228.027344 " fill-opacity="1" fill-rule="nonzero"/><path fill="#000000" d="M 222.011719 216.875 C 222.011719 219.015625 220.273438 220.75 218.132812 220.75 L 156.933594 220.75 C 154.796875 220.75 153.058594 219.015625 153.058594 216.875 C 153.058594 214.738281 154.796875 213 156.933594 213 L 218.132812 213 C 220.273438 213 222.011719 214.738281 222.011719 216.875 " fill-opacity="1" fill-rule="nonzero"/><path stroke-linecap="butt" transform="matrix(0.00000000100623, 0.576529, -0.576529, 0.00000000100623, 190.958416, 258.378439)" fill="none" stroke-linejoin="miter" d="M 0.000810386 5.998689 L 41.283726 5.99869 " stroke="#000000" stroke-width="12" stroke-opacity="1" stroke-miterlimit="4"/><path stroke-linecap="butt" transform="matrix(0.00000000100623, 0.576529, -0.576529, 0.00000000100623, 190.958416, 1.710849)" fill="none" stroke-linejoin="miter" d="M 0.000152649 5.998689 L 41.283069 5.99869 " stroke="#000000" stroke-width="12" stroke-opacity="1" stroke-miterlimit="4"/><g fill="#000000" fill-opacity="1"><g transform="translate(65.109374, 345.774587)"><g><path d="M 15.40625 -5.296875 C 16.664062 -5.296875 17.703125 -5.488281 18.515625 -5.875 C 19.335938 -6.257812 19.972656 -6.773438 20.421875 -7.421875 C 20.867188 -8.078125 21.175781 -8.828125 21.34375 -9.671875 C 21.507812 -10.523438 21.59375 -11.398438 21.59375 -12.296875 L 21.59375 -13.203125 L 28.203125 -13.203125 L 28.203125 -12.296875 C 28.203125 -8.128906 27.109375 -4.921875 24.921875 -2.671875 C 22.742188 -0.421875 19.570312 0.703125 15.40625 0.703125 C 11.40625 0.703125 8.238281 -0.507812 5.90625 -2.9375 C 3.570312 -5.375 2.40625 -8.925781 2.40625 -13.59375 L 2.40625 -21.40625 C 2.40625 -23.632812 2.703125 -25.640625 3.296875 -27.421875 C 3.898438 -29.203125 4.765625 -30.703125 5.890625 -31.921875 C 7.023438 -33.140625 8.394531 -34.070312 10 -34.71875 C 11.601562 -35.375 13.40625 -35.703125 15.40625 -35.703125 C 17.46875 -35.703125 19.296875 -35.398438 20.890625 -34.796875 C 22.492188 -34.203125 23.835938 -33.335938 24.921875 -32.203125 C 26.003906 -31.066406 26.820312 -29.695312 27.375 -28.09375 C 27.925781 -26.5 28.203125 -24.703125 28.203125 -22.703125 L 28.203125 -21.796875 L 21.59375 -21.796875 L 21.59375 -22.703125 C 21.59375 -23.535156 21.492188 -24.367188 21.296875 -25.203125 C 21.097656 -26.035156 20.765625 -26.785156 20.296875 -27.453125 C 19.828125 -28.117188 19.191406 -28.660156 18.390625 -29.078125 C 17.597656 -29.492188 16.601562 -29.703125 15.40625 -29.703125 C 14.300781 -29.703125 13.347656 -29.492188 12.546875 -29.078125 C 11.742188 -28.660156 11.078125 -28.09375 10.546875 -27.375 C 10.015625 -26.65625 9.625 -25.820312 9.375 -24.875 C 9.125 -23.925781 9 -22.9375 9 -21.90625 L 9 -13.09375 C 9 -11.96875 9.113281 -10.925781 9.34375 -9.96875 C 9.582031 -9.019531 9.953125 -8.195312 10.453125 -7.5 C 10.953125 -6.800781 11.609375 -6.257812 12.421875 -5.875 C 13.242188 -5.488281 14.238281 -5.296875 15.40625 -5.296875 Z M 15.40625 -5.296875 "/></g></g></g><g fill="#000000" fill-opacity="1"><g transform="translate(95.704637, 345.774587)"><g><path d="M 27.15625 0 L 20.546875 0 L 20.546875 -10.5 C 20.546875 -11.300781 20.335938 -11.953125 19.921875 -12.453125 C 19.503906 -12.953125 18.8125 -13.203125 17.84375 -13.203125 L 10.25 -13.203125 L 10.25 0 L 3.65625 0 L 3.65625 -35 L 17.046875 -35 C 18.847656 -35 20.429688 -34.75 21.796875 -34.25 C 23.160156 -33.75 24.300781 -33.054688 25.21875 -32.171875 C 26.132812 -31.285156 26.832031 -30.257812 27.3125 -29.09375 C 27.800781 -27.925781 28.046875 -26.675781 28.046875 -25.34375 L 28.046875 -24.15625 C 28.046875 -22.71875 27.660156 -21.375 26.890625 -20.125 C 26.128906 -18.875 24.945312 -17.914062 23.34375 -17.25 L 23.34375 -16.34375 C 24.507812 -16.21875 25.4375 -15.769531 26.125 -15 C 26.8125 -14.226562 27.15625 -13.257812 27.15625 -12.09375 Z M 10.25 -19.5 L 16.546875 -19.5 C 18.148438 -19.5 19.367188 -19.875 20.203125 -20.625 C 21.035156 -21.375 21.453125 -22.429688 21.453125 -23.796875 L 21.453125 -24.40625 C 21.453125 -25.570312 21.035156 -26.578125 20.203125 -27.421875 C 19.367188 -28.273438 18.148438 -28.703125 16.546875 -28.703125 L 10.25 -28.703125 Z M 10.25 -19.5 "/></g></g></g><g fill="#000000" fill-opacity="1"><g transform="translate(126.299899, 345.774587)"><g><path d="M 4.09375 -35 L 26.203125 -35 L 26.203125 -28.703125 L 10.703125 -28.703125 L 10.703125 -20.703125 L 25.59375 -20.703125 L 25.59375 -14.40625 L 10.703125 -14.40625 L 10.703125 -6.296875 L 26.796875 -6.296875 L 26.796875 0 L 4.09375 0 Z M 4.09375 -35 "/></g></g></g><g fill="#000000" fill-opacity="1"><g transform="translate(156.895162, 345.774587)"><g><path d="M 21.25 -7.5 L 9.34375 -7.5 L 7.65625 0 L 0.75 0 L 9.09375 -35 L 21.5 -35 L 29.84375 0 L 22.953125 0 Z M 10.75 -13.796875 L 19.796875 -13.796875 L 15.75 -31.703125 L 14.84375 -31.703125 Z M 10.75 -13.796875 "/></g></g></g><g fill="#000000" fill-opacity="1"><g transform="translate(187.490424, 345.774587)"><g><path d="M 2.703125 -35 L 27.90625 -35 L 27.90625 -28.703125 L 18.59375 -28.703125 L 18.59375 0 L 12 0 L 12 -28.703125 L 2.703125 -28.703125 Z M 2.703125 -35 "/></g></g></g><g fill="#000000" fill-opacity="1"><g transform="translate(218.085687, 345.774587)"><g><path d="M 3.59375 -35 L 27 -35 L 27 -28.703125 L 18.59375 -28.703125 L 18.59375 -6.296875 L 27 -6.296875 L 27 0 L 3.59375 0 L 3.59375 -6.296875 L 12 -6.296875 L 12 -28.703125 L 3.59375 -28.703125 Z M 3.59375 -35 "/></g></g></g><g fill="#000000" fill-opacity="1"><g transform="translate(248.680949, 345.774587)"><g><path d="M 1.203125 -35 L 8 -35 L 14.84375 -3.296875 L 15.75 -3.296875 L 22.59375 -35 L 29.40625 -35 L 21.5 0 L 9.09375 0 Z M 1.203125 -35 "/></g></g></g><g fill="#000000" fill-opacity="1"><g transform="translate(279.2762, 345.774587)"><g><path d="M 4.09375 -35 L 26.203125 -35 L 26.203125 -28.703125 L 10.703125 -28.703125 L 10.703125 -20.703125 L 25.59375 -20.703125 L 25.59375 -14.40625 L 10.703125 -14.40625 L 10.703125 -6.296875 L 26.796875 -6.296875 L 26.796875 0 L 4.09375 0 Z M 4.09375 -35 "/></g></g></g></svg>