<svg xmlns="http://www.w3.org/2000/svg" xmlns:xlink="http://www.w3.org/1999/xlink" width="500" zoomAndPan="magnify" viewBox="0 0 375 374.999991" height="500" preserveAspectRatio="xMidYMid meet" version="1.0"><defs><g/><clipPath id="6c6e1d3cb6"><path d="M 43.316406 0 L 331.316406 0 L 331.316406 288 L 43.316406 288 Z M 43.316406 0 " clip-rule="nonzero"/></clipPath><clipPath id="4fa71d5d7c"><path d="M 60.566406 0 L 314.429688 0 C 323.957031 0 331.679688 7.722656 331.679688 17.25 L 331.679688 271.113281 C 331.679688 280.640625 323.957031 288.363281 314.429688 288.363281 L 60.566406 288.363281 C 51.039062 288.363281 43.316406 280.640625 43.316406 271.113281 L 43.316406 17.25 C 43.316406 7.722656 51.039062 0 60.566406 0 Z M 60.566406 0 " clip-rule="nonzero"/></clipPath><clipPath id="1d1641ed74"><path d="M 88.5 31.683594 L 286.5 31.683594 L 286.5 256.683594 L 88.5 256.683594 Z M 88.5 31.683594 " clip-rule="nonzero"/></clipPath></defs><g clip-path="url(#6c6e1d3cb6)"><g clip-path="url(#4fa71d5d7c)"><path stroke-linecap="butt" transform="matrix(0.75, 0, 0, 0.75, 43.315907, 0)" fill="none" stroke-linejoin="miter" d="M 23.000667 0 L 361.485064 0 C 374.18819 0 384.485066 10.296876 384.485066 23.000002 L 384.485066 361.484399 C 384.485066 374.187525 374.18819 384.4844 361.485064 384.4844 L 23.000667 384.4844 C 10.297541 384.4844 0.000665326 374.187525 0.000665326 361.484399 L 0.000665326 23.000002 C 0.000665326 10.296876 10.297541 0 23.000667 0 Z M 23.000667 0 " stroke="#000000" stroke-width="22" stroke-opacity="1" stroke-miterlimit="4"/></g></g><g clip-path="url(#1d1641ed74)"><path fill="#000000" d="M 267.027344 31.683594 L 142.886719 31.683594 C 132.179688 31.683594 123.492188 40.375 123.492188 51.082031 L 123.492188 140.304688 L 92.457031 140.304688 C 90.324219 140.304688 88.578125 142.050781 88.578125 144.183594 L 88.578125 235.347656 C 88.578125 247.101562 98.160156 256.683594 109.914062 256.683594 L 267.027344 256.683594 C 277.734375 256.683594 286.421875 247.996094 286.421875 237.289062 L 286.421875 51.082031 C 286.421875 40.375 277.734375 31.683594 267.027344 31.683594 Z M 96.335938 235.347656 L 96.335938 148.0625 L 123.492188 148.0625 L 123.492188 235.347656 C 123.492188 242.835938 117.402344 248.925781 109.914062 248.925781 C 102.425781 248.925781 96.335938 242.835938 96.335938 235.347656 Z M 278.664062 237.289062 C 278.664062 243.6875 273.425781 248.925781 267.027344 248.925781 L 131.25 248.925781 L 131.25 51.082031 C 131.25 44.679688 136.488281 39.441406 142.886719 39.441406 L 267.027344 39.441406 C 273.425781 39.441406 278.664062 44.679688 278.664062 51.082031 Z M 278.664062 237.289062 " fill-opacity="1" fill-rule="nonzero"/></g><path fill="#000000" d="M 167.445312 106.710938 C 177.027344 106.710938 186.179688 102.597656 192.542969 95.421875 C 192.851562 95.070312 193.085938 94.683594 193.242188 94.296875 C 193.550781 93.558594 193.589844 92.707031 193.398438 91.929688 C 191.457031 83.898438 185.988281 77.539062 178.886719 74.164062 C 181.410156 71.410156 183 67.761719 183 63.726562 C 183 55.152344 176.015625 48.171875 167.445312 48.171875 C 158.871094 48.171875 151.886719 55.152344 151.886719 63.726562 C 151.886719 67.761719 153.476562 71.410156 156 74.164062 C 148.976562 77.5 143.546875 83.746094 141.570312 91.660156 C 141.296875 92.511719 141.335938 93.441406 141.683594 94.296875 C 141.878906 94.761719 142.152344 95.1875 142.539062 95.578125 C 148.824219 102.675781 157.902344 106.710938 167.445312 106.710938 Z M 159.648438 63.726562 C 159.648438 59.421875 163.136719 55.929688 167.445312 55.929688 C 171.75 55.929688 175.242188 59.421875 175.242188 63.726562 C 175.242188 68.035156 171.75 71.523438 167.484375 71.523438 C 167.484375 71.523438 167.445312 71.523438 167.445312 71.523438 C 167.445312 71.523438 167.40625 71.523438 167.40625 71.523438 C 163.136719 71.523438 159.648438 68.035156 159.648438 63.726562 Z M 167.40625 79.285156 C 167.40625 79.285156 167.445312 79.320312 167.40625 79.285156 C 167.445312 79.285156 167.445312 79.285156 167.484375 79.285156 C 175.550781 79.285156 182.613281 84.328125 185.289062 91.773438 C 180.515625 96.351562 174.117188 98.914062 167.445312 98.914062 C 160.773438 98.914062 154.371094 96.3125 149.636719 91.773438 C 152.316406 84.363281 159.335938 79.320312 167.40625 79.285156 Z M 167.40625 79.285156 " fill-opacity="1" fill-rule="nonzero"/><path fill="#000000" d="M 208.992188 67.605469 L 228.929688 67.605469 C 231.066406 67.605469 232.808594 65.859375 232.808594 63.726562 C 232.808594 61.59375 231.066406 59.847656 228.929688 59.847656 L 208.992188 59.847656 C 206.859375 59.847656 205.113281 61.59375 205.113281 63.726562 C 205.113281 65.859375 206.820312 67.605469 208.992188 67.605469 Z M 208.992188 67.605469 " fill-opacity="1" fill-rule="nonzero"/><path fill="#000000" d="M 208.992188 89.71875 L 263.03125 89.71875 C 265.164062 89.71875 266.910156 87.972656 266.910156 85.839844 C 266.910156 83.707031 265.164062 81.960938 263.03125 81.960938 L 208.992188 81.960938 C 206.859375 81.960938 205.113281 83.707031 205.113281 85.839844 C 205.113281 87.972656 206.820312 89.71875 208.992188 89.71875 Z M 208.992188 89.71875 " fill-opacity="1" fill-rule="nonzero"/><path fill="#000000" d="M 263.84375 119.785156 L 146.070312 119.785156 C 143.933594 119.785156 142.191406 121.527344 142.191406 123.664062 C 142.191406 125.796875 143.933594 127.542969 146.070312 127.542969 L 263.804688 127.542969 C 265.941406 127.542969 267.683594 125.796875 267.683594 123.664062 C 267.683594 121.527344 265.976562 119.785156 263.84375 119.785156 Z M 263.84375 119.785156 " fill-opacity="1" fill-rule="nonzero"/><path fill="#000000" d="M 263.84375 144.726562 L 146.070312 144.726562 C 143.933594 144.726562 142.191406 146.472656 142.191406 148.605469 C 142.191406 150.738281 143.933594 152.484375 146.070312 152.484375 L 263.804688 152.484375 C 265.941406 152.484375 267.683594 150.738281 267.683594 148.605469 C 267.683594 146.472656 265.976562 144.726562 263.84375 144.726562 Z M 263.84375 144.726562 " fill-opacity="1" fill-rule="nonzero"/><path fill="#000000" d="M 263.84375 169.671875 L 146.070312 169.671875 C 143.933594 169.671875 142.191406 171.417969 142.191406 173.550781 C 142.191406 175.683594 143.933594 177.429688 146.070312 177.429688 L 263.804688 177.429688 C 265.941406 177.429688 267.683594 175.683594 267.683594 173.550781 C 267.683594 171.417969 265.976562 169.671875 263.84375 169.671875 Z M 263.84375 169.671875 " fill-opacity="1" fill-rule="nonzero"/><path fill="#000000" d="M 263.84375 194.613281 L 146.070312 194.613281 C 143.933594 194.613281 142.191406 196.359375 142.191406 198.496094 C 142.191406 200.628906 143.933594 202.375 146.070312 202.375 L 263.804688 202.375 C 265.941406 202.375 267.683594 200.628906 267.683594 198.496094 C 267.683594 196.359375 265.976562 194.613281 263.84375 194.613281 Z M 263.84375 194.613281 " fill-opacity="1" fill-rule="nonzero"/><path fill="#000000" d="M 263.84375 219.558594 L 146.070312 219.558594 C 143.933594 219.558594 142.191406 221.304688 142.191406 223.4375 C 142.191406 225.570312 143.933594 227.316406 146.070312 227.316406 L 263.804688 227.316406 C 265.941406 227.316406 267.683594 225.570312 267.683594 223.4375 C 267.683594 221.304688 265.976562 219.558594 263.84375 219.558594 Z M 263.84375 219.558594 " fill-opacity="1" fill-rule="nonzero"/><g fill="#000000" fill-opacity="1"><g transform="translate(156.896478, 345.774587)"><g><path d="M 15.40625 -5.296875 C 16.664062 -5.296875 17.703125 -5.488281 18.515625 -5.875 C 19.335938 -6.257812 19.972656 -6.773438 20.421875 -7.421875 C 20.867188 -8.078125 21.175781 -8.828125 21.34375 -9.671875 C 21.507812 -10.523438 21.59375 -11.398438 21.59375 -12.296875 L 21.59375 -13.203125 L 28.203125 -13.203125 L 28.203125 -12.296875 C 28.203125 -8.128906 27.109375 -4.921875 24.921875 -2.671875 C 22.742188 -0.421875 19.570312 0.703125 15.40625 0.703125 C 11.40625 0.703125 8.238281 -0.507812 5.90625 -2.9375 C 3.570312 -5.375 2.40625 -8.925781 2.40625 -13.59375 L 2.40625 -21.40625 C 2.40625 -23.632812 2.703125 -25.640625 3.296875 -27.421875 C 3.898438 -29.203125 4.765625 -30.703125 5.890625 -31.921875 C 7.023438 -33.140625 8.394531 -34.070312 10 -34.71875 C 11.601562 -35.375 13.40625 -35.703125 15.40625 -35.703125 C 17.46875 -35.703125 19.296875 -35.398438 20.890625 -34.796875 C 22.492188 -34.203125 23.835938 -33.335938 24.921875 -32.203125 C 26.003906 -31.066406 26.820312 -29.695312 27.375 -28.09375 C 27.925781 -26.5 28.203125 -24.703125 28.203125 -22.703125 L 28.203125 -21.796875 L 21.59375 -21.796875 L 21.59375 -22.703125 C 21.59375 -23.535156 21.492188 -24.367188 21.296875 -25.203125 C 21.097656 -26.035156 20.765625 -26.785156 20.296875 -27.453125 C 19.828125 -28.117188 19.191406 -28.660156 18.390625 -29.078125 C 17.597656 -29.492188 16.601562 -29.703125 15.40625 -29.703125 C 14.300781 -29.703125 13.347656 -29.492188 12.546875 -29.078125 C 11.742188 -28.660156 11.078125 -28.09375 10.546875 -27.375 C 10.015625 -26.65625 9.625 -25.820312 9.375 -24.875 C 9.125 -23.925781 9 -22.9375 9 -21.90625 L 9 -13.09375 C 9 -11.96875 9.113281 -10.925781 9.34375 -9.96875 C 9.582031 -9.019531 9.953125 -8.195312 10.453125 -7.5 C 10.953125 -6.800781 11.609375 -6.257812 12.421875 -5.875 C 13.242188 -5.488281 14.238281 -5.296875 15.40625 -5.296875 Z M 15.40625 -5.296875 "/></g></g></g><g fill="#000000" fill-opacity="1"><g transform="translate(187.491741, 345.774587)"><g><path d="M 1.203125 -35 L 8 -35 L 14.84375 -3.296875 L 15.75 -3.296875 L 22.59375 -35 L 29.40625 -35 L 21.5 0 L 9.09375 0 Z M 1.203125 -35 "/></g></g></g><path stroke-linecap="butt" transform="matrix(0, 0.75, -0.75, 0, 190.874567, 1.710511)" fill="none" stroke-linejoin="miter" d="M 0.00056855 4.499423 L 47.719322 4.499423 " stroke="#000000" stroke-width="9" stroke-opacity="1" stroke-miterlimit="4"/><path stroke-linecap="butt" transform="matrix(0.000000001309, 0.75, -0.75, 0.000000001309, 190.869234, 252.339828)" fill="none" stroke-linejoin="miter" d="M 0.0000206859 4.497521 L 45.765649 4.497521 " stroke="#000000" stroke-width="9" stroke-opacity="1" stroke-miterlimit="4"/></svg>