<svg xmlns="http://www.w3.org/2000/svg" xmlns:xlink="http://www.w3.org/1999/xlink" width="500" zoomAndPan="magnify" viewBox="0 0 375 374.999991" height="500" preserveAspectRatio="xMidYMid meet" version="1.0"><defs><g/><clipPath id="3448aae72c"><path d="M 43.648438 0 L 331.300781 0 L 331.300781 287.652344 L 43.648438 287.652344 Z M 43.648438 0 " clip-rule="nonzero"/></clipPath><clipPath id="35b68adabe"><path d="M 60.898438 0 L 314.101562 0 C 323.625 0 331.351562 7.722656 331.351562 17.25 L 331.351562 270.449219 C 331.351562 279.976562 323.625 287.699219 314.101562 287.699219 L 60.898438 287.699219 C 51.371094 287.699219 43.648438 279.976562 43.648438 270.449219 L 43.648438 17.25 C 43.648438 7.722656 51.371094 0 60.898438 0 Z M 60.898438 0 " clip-rule="nonzero"/></clipPath><clipPath id="6f239f58c7"><path d="M 81.355469 42 L 293.644531 42 L 293.644531 251.925781 L 81.355469 251.925781 Z M 81.355469 42 " clip-rule="nonzero"/></clipPath></defs><g clip-path="url(#3448aae72c)"><g clip-path="url(#35b68adabe)"><path stroke-linecap="butt" transform="matrix(1.061442, 0, 0, 1.061442, 43.649416, 0)" fill="none" stroke-linejoin="miter" d="M 16.250554 0 L 254.796897 0 C 263.769065 0 271.048372 7.275627 271.048372 16.251476 L 271.048372 254.794138 C 271.048372 263.769987 263.769065 271.045614 254.796897 271.045614 L 16.250554 271.045614 C 7.274705 271.045614 -0.000921891 263.769987 -0.000921891 254.794138 L -0.000921891 16.251476 C -0.000921891 7.275627 7.274705 0 16.250554 0 Z M 16.250554 0 " stroke="#000000" stroke-width="15.544888" stroke-opacity="1" stroke-miterlimit="4"/></g></g><g clip-path="url(#6f239f58c7)"><path fill="#000000" d="M 251.386719 212.648438 C 250.953125 211.597656 250.714844 210.441406 250.714844 209.234375 C 250.714844 208.027344 250.953125 206.871094 251.386719 205.820312 C 251.835938 204.769531 252.476562 203.804688 253.269531 203.007812 L 253.320312 202.941406 C 253.769531 202.492188 254.289062 202.0625 254.84375 201.734375 C 255.136719 201.542969 255.445312 201.371094 255.792969 201.214844 L 255.792969 187.042969 L 241.089844 187.042969 C 240.640625 190.144531 239.15625 192.9375 237.011719 195.09375 C 234.335938 197.765625 230.621094 199.421875 226.527344 199.421875 L 217.664062 199.421875 L 217.664062 238.085938 L 243.664062 238.085938 C 243.804688 237.863281 243.941406 237.636719 244.097656 237.414062 C 244.40625 236.964844 244.753906 236.550781 245.132812 236.171875 C 245.945312 235.359375 246.929688 234.6875 248.035156 234.238281 C 249.089844 233.808594 250.246094 233.566406 251.457031 233.566406 C 252.648438 233.566406 253.824219 233.808594 254.875 234.238281 C 255.980469 234.6875 256.949219 235.359375 257.777344 236.171875 C 258.589844 236.980469 259.265625 237.964844 259.714844 239.070312 C 260.144531 240.121094 260.386719 241.277344 260.386719 242.484375 C 260.386719 243.671875 260.144531 244.8125 259.714844 245.898438 C 259.265625 247 258.589844 247.984375 257.777344 248.792969 C 256.96875 249.605469 255.980469 250.277344 254.875 250.726562 C 253.824219 251.15625 252.664062 251.398438 251.457031 251.398438 C 250.28125 251.398438 249.160156 251.175781 248.105469 250.742188 L 248.035156 250.726562 C 246.929688 250.277344 245.960938 249.605469 245.132812 248.792969 C 244.632812 248.292969 244.183594 247.707031 243.804688 247.105469 C 243.59375 246.757812 243.40625 246.378906 243.25 246.019531 L 213.691406 246.019531 C 212.585938 246.019531 211.601562 245.570312 210.875 244.84375 C 210.132812 244.105469 209.683594 243.121094 209.683594 242.015625 L 209.683594 199.421875 L 190.332031 199.421875 L 190.332031 234.5 C 190.628906 234.652344 190.921875 234.808594 191.214844 235 C 191.75 235.328125 192.25 235.742188 192.683594 236.171875 C 193.511719 237 194.167969 237.964844 194.617188 239.070312 C 195.050781 240.121094 195.292969 241.277344 195.292969 242.484375 C 195.292969 243.65625 195.066406 244.777344 194.636719 245.828125 L 194.617188 245.898438 C 194.167969 247 193.496094 247.96875 192.683594 248.792969 C 191.871094 249.605469 190.886719 250.277344 189.78125 250.726562 C 188.726562 251.15625 187.570312 251.398438 186.359375 251.398438 C 185.167969 251.398438 184.011719 251.15625 182.9375 250.726562 C 181.832031 250.277344 180.847656 249.605469 180.035156 248.792969 C 179.226562 247.984375 178.550781 247 178.101562 245.898438 C 177.667969 244.84375 177.429688 243.691406 177.429688 242.484375 C 177.429688 241.308594 177.652344 240.191406 178.085938 239.136719 L 178.101562 239.070312 C 178.550781 237.964844 179.226562 237 180.035156 236.171875 C 180.46875 235.742188 180.933594 235.359375 181.453125 235.035156 L 181.523438 234.980469 C 181.800781 234.828125 182.09375 234.671875 182.386719 234.515625 L 182.386719 199.421875 L 156.574219 199.421875 L 156.574219 217.597656 C 156.574219 218.703125 156.125 219.683594 155.402344 220.410156 C 154.675781 221.132812 153.691406 221.582031 152.585938 221.582031 L 134.273438 221.582031 C 134.132812 221.859375 133.980469 222.117188 133.804688 222.394531 C 133.496094 222.859375 133.132812 223.308594 132.71875 223.71875 L 132.648438 223.789062 C 131.835938 224.601562 130.851562 225.273438 129.746094 225.722656 C 128.691406 226.152344 127.535156 226.394531 126.324219 226.394531 C 125.152344 226.394531 124.027344 226.167969 122.972656 225.738281 L 122.90625 225.722656 C 121.800781 225.273438 120.832031 224.601562 120.003906 223.789062 C 119.191406 222.980469 118.515625 221.996094 118.066406 220.890625 C 117.636719 219.839844 117.394531 218.683594 117.394531 217.476562 C 117.394531 216.289062 117.636719 215.132812 118.066406 214.0625 C 118.515625 212.960938 119.191406 211.976562 120.003906 211.167969 C 120.847656 210.375 121.851562 209.699219 122.957031 209.253906 C 124.011719 208.820312 125.167969 208.578125 126.378906 208.578125 C 127.585938 208.578125 128.742188 208.820312 129.796875 209.253906 C 130.851562 209.699219 131.820312 210.339844 132.613281 211.148438 L 132.683594 211.199219 C 133.132812 211.648438 133.5625 212.167969 133.890625 212.71875 C 134.066406 213.011719 134.253906 213.320312 134.410156 213.667969 L 148.613281 213.667969 L 148.613281 199.09375 C 145.796875 198.472656 143.273438 197.058594 141.320312 195.113281 C 138.710938 192.507812 137.105469 188.957031 137.105469 185.058594 L 137.105469 175.589844 L 94.710938 175.589844 L 94.710938 201.542969 C 94.933594 201.683594 95.160156 201.820312 95.382812 201.976562 C 95.832031 202.285156 96.230469 202.628906 96.628906 203.007812 C 97.441406 203.820312 98.113281 204.804688 98.5625 205.90625 C 98.996094 206.957031 99.238281 208.113281 99.238281 209.320312 C 99.238281 210.511719 98.996094 211.683594 98.5625 212.734375 C 98.113281 213.839844 97.441406 214.804688 96.628906 215.632812 C 95.816406 216.445312 94.832031 217.117188 93.726562 217.5625 C 92.671875 217.996094 91.515625 218.238281 90.304688 218.238281 C 89.113281 218.238281 87.972656 217.996094 86.882812 217.5625 C 85.777344 217.117188 84.792969 216.445312 83.980469 215.632812 C 83.167969 214.824219 82.496094 213.839844 82.046875 212.734375 C 81.597656 211.648438 81.355469 210.492188 81.355469 209.285156 C 81.355469 208.113281 81.582031 206.992188 82.011719 205.941406 L 82.03125 205.871094 C 82.480469 204.769531 83.152344 203.804688 83.964844 202.976562 C 84.464844 202.476562 85.054688 202.027344 85.65625 201.648438 C 85.984375 201.441406 86.382812 201.25 86.746094 201.09375 L 86.746094 171.605469 C 86.746094 170.503906 87.195312 169.519531 87.921875 168.796875 C 88.664062 168.054688 89.648438 167.605469 90.753906 167.605469 L 137.105469 167.605469 L 137.105469 148.292969 L 98.304688 148.292969 C 98.148438 148.585938 97.992188 148.878906 97.800781 149.171875 C 97.472656 149.707031 97.058594 150.207031 96.628906 150.636719 C 95.796875 151.464844 94.832031 152.121094 93.726562 152.570312 C 92.671875 153 91.515625 153.242188 90.304688 153.242188 C 89.128906 153.242188 88.007812 153.015625 86.953125 152.585938 L 86.882812 152.570312 C 85.777344 152.121094 84.8125 151.449219 83.980469 150.636719 C 83.167969 149.828125 82.496094 148.84375 82.046875 147.738281 C 81.613281 146.6875 81.375 145.53125 81.375 144.324219 C 81.375 143.136719 81.613281 141.980469 82.046875 140.910156 C 82.496094 139.808594 83.167969 138.824219 83.980469 138.015625 C 84.792969 137.203125 85.777344 136.53125 86.882812 136.082031 C 87.957031 135.632812 89.09375 135.394531 90.320312 135.394531 C 91.496094 135.394531 92.621094 135.617188 93.671875 136.046875 L 93.742188 136.066406 C 94.847656 136.515625 95.816406 137.1875 96.644531 137.996094 C 97.078125 138.429688 97.457031 138.894531 97.800781 139.410156 L 97.855469 139.480469 C 98.011719 139.757812 98.164062 140.050781 98.320312 140.34375 L 137.105469 140.34375 L 137.105469 116.355469 C 137.105469 115.769531 137.140625 115.183594 137.210938 114.597656 L 115.234375 114.597656 C 114.128906 114.597656 113.144531 114.148438 112.417969 113.421875 C 111.691406 112.699219 111.242188 111.714844 111.242188 110.613281 L 111.242188 92.332031 C 110.96875 92.195312 110.707031 92.039062 110.429688 91.867188 C 109.964844 91.558594 109.515625 91.195312 109.101562 90.78125 L 109.03125 90.710938 C 108.21875 89.902344 107.546875 88.917969 107.097656 87.816406 C 106.664062 86.761719 106.421875 85.605469 106.421875 84.398438 C 106.421875 83.226562 106.648438 82.105469 107.078125 81.054688 L 107.097656 80.984375 C 107.546875 79.882812 108.21875 78.917969 109.03125 78.089844 C 109.84375 77.277344 110.828125 76.605469 111.933594 76.15625 C 112.988281 75.726562 114.144531 75.484375 115.355469 75.484375 C 116.546875 75.484375 117.703125 75.726562 118.777344 76.15625 C 119.882812 76.605469 120.867188 77.277344 121.679688 78.089844 C 122.472656 78.933594 123.148438 79.933594 123.597656 81.039062 C 124.027344 82.089844 124.269531 83.246094 124.269531 84.453125 C 124.269531 85.660156 124.027344 86.8125 123.597656 87.867188 C 123.148438 88.917969 122.507812 89.882812 121.710938 90.675781 L 121.660156 90.746094 C 121.210938 91.195312 120.695312 91.625 120.125 91.953125 C 119.828125 92.125 119.519531 92.316406 119.171875 92.472656 L 119.171875 106.644531 L 140.855469 106.644531 L 140.855469 106.75 C 140.992188 106.59375 141.148438 106.4375 141.285156 106.300781 C 143.964844 103.628906 147.679688 101.972656 151.773438 101.972656 L 160.082031 101.972656 L 160.082031 55.601562 L 134.117188 55.601562 C 133.980469 55.824219 133.839844 56.050781 133.683594 56.273438 C 133.375 56.722656 133.027344 57.117188 132.648438 57.515625 C 131.835938 58.324219 130.851562 59 129.746094 59.445312 C 128.691406 59.878906 127.535156 60.121094 126.324219 60.121094 C 125.132812 60.121094 123.957031 59.878906 122.90625 59.445312 C 121.800781 59 120.832031 58.324219 120.003906 57.515625 C 119.191406 56.703125 118.515625 55.722656 118.066406 54.617188 C 117.636719 53.550781 117.394531 52.410156 117.394531 51.1875 C 117.394531 49.996094 117.636719 48.859375 118.066406 47.773438 C 118.515625 46.667969 119.191406 45.6875 120.003906 44.875 C 120.8125 44.066406 121.800781 43.390625 122.90625 42.945312 C 123.957031 42.511719 125.117188 42.269531 126.324219 42.269531 C 127.5 42.269531 128.625 42.496094 129.675781 42.925781 L 129.746094 42.945312 C 130.851562 43.390625 131.820312 44.066406 132.648438 44.875 C 133.148438 45.375 133.597656 45.960938 133.980469 46.566406 C 134.1875 46.894531 134.375 47.289062 134.550781 47.652344 L 164.074219 47.652344 C 165.179688 47.652344 166.164062 48.101562 166.890625 48.824219 C 167.632812 49.566406 168.082031 50.546875 168.082031 51.652344 L 168.082031 101.972656 L 187.429688 101.972656 L 187.429688 59.1875 C 187.136719 59.03125 186.84375 58.878906 186.550781 58.6875 C 186.015625 58.359375 185.511719 57.945312 185.082031 57.515625 C 184.253906 56.6875 183.59375 55.722656 183.144531 54.617188 C 182.714844 53.566406 182.472656 52.410156 182.472656 51.203125 C 182.472656 50.03125 182.699219 48.910156 183.128906 47.859375 L 183.144531 47.789062 C 183.59375 46.6875 184.269531 45.71875 185.082031 44.890625 C 185.894531 44.082031 186.878906 43.410156 187.984375 42.960938 C 189.039062 42.53125 190.195312 42.289062 191.40625 42.289062 C 192.597656 42.289062 193.753906 42.53125 194.824219 42.960938 C 195.929688 43.410156 196.914062 44.082031 197.726562 44.890625 C 198.539062 45.703125 199.214844 46.6875 199.664062 47.789062 C 200.09375 48.839844 200.335938 49.996094 200.335938 51.203125 C 200.335938 52.375 200.113281 53.496094 199.679688 54.550781 L 199.664062 54.617188 C 199.214844 55.722656 198.539062 56.6875 197.726562 57.515625 C 197.296875 57.945312 196.828125 58.324219 196.3125 58.671875 L 196.242188 58.722656 C 195.964844 58.878906 195.671875 59.03125 195.378906 59.1875 L 195.378906 101.957031 L 221.171875 101.957031 L 221.171875 76.089844 C 221.171875 74.984375 221.621094 74 222.347656 73.277344 C 223.070312 72.554688 224.054688 72.105469 225.160156 72.105469 L 243.492188 72.105469 C 243.628906 71.828125 243.785156 71.570312 243.957031 71.292969 C 244.269531 70.828125 244.632812 70.378906 245.046875 69.964844 L 245.117188 69.898438 C 245.925781 69.085938 246.914062 68.414062 248.019531 67.964844 C 249.070312 67.535156 250.230469 67.292969 251.4375 67.292969 C 252.613281 67.292969 253.738281 67.515625 254.789062 67.949219 L 254.859375 67.964844 C 255.964844 68.414062 256.933594 69.085938 257.761719 69.898438 C 258.574219 70.707031 259.246094 71.691406 259.695312 72.792969 C 260.128906 73.847656 260.371094 75 260.371094 76.207031 C 260.371094 77.398438 260.128906 78.554688 259.695312 79.625 C 259.246094 80.726562 258.574219 81.710938 257.761719 82.519531 C 256.898438 83.3125 255.914062 83.984375 254.808594 84.433594 C 253.753906 84.867188 252.597656 85.105469 251.386719 85.105469 C 250.175781 85.105469 249.019531 84.867188 247.964844 84.433594 C 246.914062 83.984375 245.945312 83.347656 245.148438 82.554688 L 245.082031 82.503906 C 244.632812 82.054688 244.199219 81.539062 243.871094 80.984375 C 243.683594 80.691406 243.507812 80.382812 243.355469 80.039062 L 229.152344 80.039062 L 229.152344 102.179688 C 232.210938 102.714844 234.941406 104.195312 237.03125 106.285156 C 239.640625 108.886719 241.246094 112.441406 241.246094 116.335938 L 241.246094 118.113281 L 280.289062 118.113281 L 280.289062 92.160156 C 280.066406 92.023438 279.839844 91.882812 279.617188 91.730469 C 279.167969 91.417969 278.769531 91.074219 278.390625 90.695312 C 277.578125 89.882812 276.902344 88.902344 276.453125 87.796875 C 276.023438 86.746094 275.78125 85.589844 275.78125 84.382812 C 275.78125 83.191406 276.023438 82.019531 276.453125 80.96875 C 276.902344 79.863281 277.578125 78.898438 278.390625 78.070312 C 279.203125 77.261719 280.1875 76.589844 281.292969 76.140625 C 282.34375 75.707031 283.503906 75.46875 284.710938 75.46875 C 285.90625 75.46875 287.0625 75.707031 288.132812 76.140625 C 289.238281 76.589844 290.222656 77.261719 291.035156 78.070312 C 291.847656 78.882812 292.519531 79.863281 292.96875 80.96875 C 293.402344 82.019531 293.644531 83.175781 293.644531 84.382812 C 293.644531 85.554688 293.417969 86.675781 292.988281 87.726562 L 292.96875 87.796875 C 292.519531 88.902344 291.847656 89.867188 291.035156 90.695312 C 290.535156 91.195312 289.945312 91.644531 289.34375 92.023438 C 288.996094 92.230469 288.617188 92.417969 288.253906 92.589844 L 288.253906 122.0625 C 288.253906 123.167969 287.804688 124.148438 287.078125 124.875 C 286.335938 125.613281 285.351562 126.0625 284.246094 126.0625 L 241.246094 126.0625 L 241.246094 145.378906 L 276.695312 145.378906 C 276.851562 145.085938 277.007812 144.792969 277.199219 144.5 C 277.542969 143.964844 277.941406 143.464844 278.371094 143.03125 C 279.203125 142.203125 280.167969 141.550781 281.273438 141.101562 C 282.328125 140.667969 283.484375 140.429688 284.695312 140.429688 C 285.871094 140.429688 286.992188 140.652344 288.046875 141.082031 L 288.117188 141.101562 C 289.222656 141.550781 290.1875 142.222656 291.019531 143.03125 C 291.832031 143.84375 292.503906 144.824219 292.953125 145.929688 C 293.386719 146.980469 293.628906 148.136719 293.628906 149.34375 C 293.628906 150.535156 293.386719 151.6875 292.953125 152.757812 C 292.503906 153.863281 291.832031 154.84375 291.019531 155.65625 C 290.207031 156.464844 289.222656 157.136719 288.117188 157.585938 C 287.0625 158.019531 285.90625 158.257812 284.695312 158.257812 C 283.519531 158.257812 282.398438 158.035156 281.34375 157.605469 L 281.273438 157.585938 C 280.167969 157.136719 279.203125 156.464844 278.371094 155.65625 C 277.941406 155.222656 277.558594 154.757812 277.214844 154.242188 L 277.164062 154.171875 C 277.007812 153.898438 276.851562 153.601562 276.695312 153.308594 L 241.246094 153.308594 L 241.246094 179.058594 L 259.765625 179.058594 C 260.871094 179.058594 261.855469 179.503906 262.582031 180.230469 C 263.308594 180.953125 263.757812 181.9375 263.757812 183.039062 L 263.757812 201.335938 C 264.03125 201.476562 264.292969 201.628906 264.570312 201.820312 C 265.035156 202.128906 265.484375 202.492188 265.898438 202.90625 L 265.96875 202.976562 C 266.78125 203.785156 267.453125 204.769531 267.902344 205.871094 C 268.335938 206.925781 268.578125 208.078125 268.578125 209.285156 C 268.578125 210.460938 268.351562 211.582031 267.921875 212.632812 L 267.902344 212.703125 C 267.453125 213.804688 266.78125 214.769531 265.96875 215.597656 C 265.15625 216.410156 264.171875 217.082031 263.066406 217.53125 C 262.011719 217.960938 260.855469 218.203125 259.644531 218.203125 C 258.453125 218.203125 257.296875 217.960938 256.222656 217.53125 C 255.117188 217.082031 254.132812 216.410156 253.320312 215.597656 C 252.527344 214.753906 251.835938 213.753906 251.386719 212.648438 Z M 173.765625 132.183594 L 204.585938 132.183594 C 206.988281 132.183594 208.941406 134.132812 208.941406 136.53125 L 208.941406 164.863281 C 208.941406 167.261719 206.988281 169.210938 204.585938 169.210938 L 173.765625 169.210938 C 171.363281 169.210938 169.410156 167.261719 169.410156 164.863281 L 169.410156 136.53125 C 169.410156 134.132812 171.363281 132.183594 173.765625 132.183594 Z M 226.542969 109.664062 L 151.789062 109.664062 C 150.078125 109.664062 148.507812 110.371094 147.367188 111.527344 C 146.140625 112.75 145.382812 114.457031 145.382812 116.355469 L 145.382812 185.039062 C 145.382812 186.9375 146.140625 188.644531 147.367188 189.871094 C 148.523438 191.023438 150.078125 191.730469 151.789062 191.730469 L 226.542969 191.730469 C 228.253906 191.730469 229.828125 191.023438 230.964844 189.871094 C 232.191406 188.644531 232.953125 186.9375 232.953125 185.039062 L 232.953125 116.355469 C 232.953125 114.457031 232.191406 112.75 230.964844 111.527344 C 229.828125 110.371094 228.253906 109.664062 226.542969 109.664062 Z M 226.542969 109.664062 " fill-opacity="1" fill-rule="nonzero"/></g><path stroke-linecap="butt" transform="matrix(1.061442, 0.000000000000000998, -0.000000000000000998, 1.061442, 43.649416, 140.666242)" fill="none" stroke-linejoin="miter" d="M -0.000921891 3.000937 L 60.478415 3.000937 " stroke="#000000" stroke-width="6" stroke-opacity="1" stroke-miterlimit="4"/><path stroke-linecap="butt" transform="matrix(1.061442, 0.000000000000000998, -0.000000000000000998, 1.061442, 267.157429, 147.034913)" fill="none" stroke-linejoin="miter" d="M -0.00111109 2.999539 L 60.478226 2.999539 " stroke="#000000" stroke-width="6" stroke-opacity="1" stroke-miterlimit="4"/><g fill="#000000" fill-opacity="1"><g transform="translate(49.810549, 345.774587)"><g><path d="M 2.703125 -35 L 27.90625 -35 L 27.90625 -28.703125 L 18.59375 -28.703125 L 18.59375 0 L 12 0 L 12 -28.703125 L 2.703125 -28.703125 Z M 2.703125 -35 "/></g></g></g><g fill="#000000" fill-opacity="1"><g transform="translate(80.405811, 345.774587)"><g><path d="M 4.09375 -35 L 26.203125 -35 L 26.203125 -28.703125 L 10.703125 -28.703125 L 10.703125 -20.703125 L 25.59375 -20.703125 L 25.59375 -14.40625 L 10.703125 -14.40625 L 10.703125 -6.296875 L 26.796875 -6.296875 L 26.796875 0 L 4.09375 0 Z M 4.09375 -35 "/></g></g></g><g fill="#000000" fill-opacity="1"><g transform="translate(111.001074, 345.774587)"><g><path d="M 15.40625 -5.296875 C 16.664062 -5.296875 17.703125 -5.488281 18.515625 -5.875 C 19.335938 -6.257812 19.972656 -6.773438 20.421875 -7.421875 C 20.867188 -8.078125 21.175781 -8.828125 21.34375 -9.671875 C 21.507812 -10.523438 21.59375 -11.398438 21.59375 -12.296875 L 21.59375 -13.203125 L 28.203125 -13.203125 L 28.203125 -12.296875 C 28.203125 -8.128906 27.109375 -4.921875 24.921875 -2.671875 C 22.742188 -0.421875 19.570312 0.703125 15.40625 0.703125 C 11.40625 0.703125 8.238281 -0.507812 5.90625 -2.9375 C 3.570312 -5.375 2.40625 -8.925781 2.40625 -13.59375 L 2.40625 -21.40625 C 2.40625 -23.632812 2.703125 -25.640625 3.296875 -27.421875 C 3.898438 -29.203125 4.765625 -30.703125 5.890625 -31.921875 C 7.023438 -33.140625 8.394531 -34.070312 10 -34.71875 C 11.601562 -35.375 13.40625 -35.703125 15.40625 -35.703125 C 17.46875 -35.703125 19.296875 -35.398438 20.890625 -34.796875 C 22.492188 -34.203125 23.835938 -33.335938 24.921875 -32.203125 C 26.003906 -31.066406 26.820312 -29.695312 27.375 -28.09375 C 27.925781 -26.5 28.203125 -24.703125 28.203125 -22.703125 L 28.203125 -21.796875 L 21.59375 -21.796875 L 21.59375 -22.703125 C 21.59375 -23.535156 21.492188 -24.367188 21.296875 -25.203125 C 21.097656 -26.035156 20.765625 -26.785156 20.296875 -27.453125 C 19.828125 -28.117188 19.191406 -28.660156 18.390625 -29.078125 C 17.597656 -29.492188 16.601562 -29.703125 15.40625 -29.703125 C 14.300781 -29.703125 13.347656 -29.492188 12.546875 -29.078125 C 11.742188 -28.660156 11.078125 -28.09375 10.546875 -27.375 C 10.015625 -26.65625 9.625 -25.820312 9.375 -24.875 C 9.125 -23.925781 9 -22.9375 9 -21.90625 L 9 -13.09375 C 9 -11.96875 9.113281 -10.925781 9.34375 -9.96875 C 9.582031 -9.019531 9.953125 -8.195312 10.453125 -7.5 C 10.953125 -6.800781 11.609375 -6.257812 12.421875 -5.875 C 13.242188 -5.488281 14.238281 -5.296875 15.40625 -5.296875 Z M 15.40625 -5.296875 "/></g></g></g><g fill="#000000" fill-opacity="1"><g transform="translate(141.596336, 345.774587)"><g><path d="M 3.046875 -35 L 9.65625 -35 L 9.65625 -20.703125 L 20.953125 -20.703125 L 20.953125 -35 L 27.546875 -35 L 27.546875 0 L 20.953125 0 L 20.953125 -14.40625 L 9.65625 -14.40625 L 9.65625 0 L 3.046875 0 Z M 3.046875 -35 "/></g></g></g><g fill="#000000" fill-opacity="1"><g transform="translate(172.191599, 345.774587)"><g><path d="M 20.046875 -3.296875 L 20.953125 -3.296875 L 20.953125 -35 L 27.546875 -35 L 27.546875 0 L 14.65625 0 L 10.546875 -31.703125 L 9.65625 -31.703125 L 9.65625 0 L 3.046875 0 L 3.046875 -35 L 15.953125 -35 Z M 20.046875 -3.296875 "/></g></g></g><g fill="#000000" fill-opacity="1"><g transform="translate(202.786861, 345.774587)"><g><path d="M 3.59375 -35 L 27 -35 L 27 -28.703125 L 18.59375 -28.703125 L 18.59375 -6.296875 L 27 -6.296875 L 27 0 L 3.59375 0 L 3.59375 -6.296875 L 12 -6.296875 L 12 -28.703125 L 3.59375 -28.703125 Z M 3.59375 -35 "/></g></g></g><g fill="#000000" fill-opacity="1"><g transform="translate(233.382124, 345.774587)"><g><path d="M 15.40625 -5.296875 C 16.664062 -5.296875 17.703125 -5.488281 18.515625 -5.875 C 19.335938 -6.257812 19.972656 -6.773438 20.421875 -7.421875 C 20.867188 -8.078125 21.175781 -8.828125 21.34375 -9.671875 C 21.507812 -10.523438 21.59375 -11.398438 21.59375 -12.296875 L 21.59375 -13.203125 L 28.203125 -13.203125 L 28.203125 -12.296875 C 28.203125 -8.128906 27.109375 -4.921875 24.921875 -2.671875 C 22.742188 -0.421875 19.570312 0.703125 15.40625 0.703125 C 11.40625 0.703125 8.238281 -0.507812 5.90625 -2.9375 C 3.570312 -5.375 2.40625 -8.925781 2.40625 -13.59375 L 2.40625 -21.40625 C 2.40625 -23.632812 2.703125 -25.640625 3.296875 -27.421875 C 3.898438 -29.203125 4.765625 -30.703125 5.890625 -31.921875 C 7.023438 -33.140625 8.394531 -34.070312 10 -34.71875 C 11.601562 -35.375 13.40625 -35.703125 15.40625 -35.703125 C 17.46875 -35.703125 19.296875 -35.398438 20.890625 -34.796875 C 22.492188 -34.203125 23.835938 -33.335938 24.921875 -32.203125 C 26.003906 -31.066406 26.820312 -29.695312 27.375 -28.09375 C 27.925781 -26.5 28.203125 -24.703125 28.203125 -22.703125 L 28.203125 -21.796875 L 21.59375 -21.796875 L 21.59375 -22.703125 C 21.59375 -23.535156 21.492188 -24.367188 21.296875 -25.203125 C 21.097656 -26.035156 20.765625 -26.785156 20.296875 -27.453125 C 19.828125 -28.117188 19.191406 -28.660156 18.390625 -29.078125 C 17.597656 -29.492188 16.601562 -29.703125 15.40625 -29.703125 C 14.300781 -29.703125 13.347656 -29.492188 12.546875 -29.078125 C 11.742188 -28.660156 11.078125 -28.09375 10.546875 -27.375 C 10.015625 -26.65625 9.625 -25.820312 9.375 -24.875 C 9.125 -23.925781 9 -22.9375 9 -21.90625 L 9 -13.09375 C 9 -11.96875 9.113281 -10.925781 9.34375 -9.96875 C 9.582031 -9.019531 9.953125 -8.195312 10.453125 -7.5 C 10.953125 -6.800781 11.609375 -6.257812 12.421875 -5.875 C 13.242188 -5.488281 14.238281 -5.296875 15.40625 -5.296875 Z M 15.40625 -5.296875 "/></g></g></g><g fill="#000000" fill-opacity="1"><g transform="translate(263.977375, 345.774587)"><g><path d="M 21.25 -7.5 L 9.34375 -7.5 L 7.65625 0 L 0.75 0 L 9.09375 -35 L 21.5 -35 L 29.84375 0 L 22.953125 0 Z M 10.75 -13.796875 L 19.796875 -13.796875 L 15.75 -31.703125 L 14.84375 -31.703125 Z M 10.75 -13.796875 "/></g></g></g><g fill="#000000" fill-opacity="1"><g transform="translate(294.572649, 345.774587)"><g><path d="M 4.09375 -35 L 10.703125 -35 L 10.703125 -6.296875 L 26.59375 -6.296875 L 26.59375 0 L 4.09375 0 Z M 4.09375 -35 "/></g></g></g></svg>