<?xml version="1.0" encoding="UTF-8" standalone="no"?>
<!-- Created with Inkscape (http://www.inkscape.org/) -->

<svg
   version="1.1"
   id="svg1"
   width="1986.9091"
   height="1489.4545"
   viewBox="0 0 1986.9091 1489.4545"
   sodipodi:docname="superQlogo.svg"
   inkscape:version="1.3.1 (91b66b0, 2023-11-16)"
   xml:space="preserve"
   xmlns:inkscape="http://www.inkscape.org/namespaces/inkscape"
   xmlns:sodipodi="http://sodipodi.sourceforge.net/DTD/sodipodi-0.dtd"
   xmlns:xlink="http://www.w3.org/1999/xlink"
   xmlns="http://www.w3.org/2000/svg"
   xmlns:svg="http://www.w3.org/2000/svg"><defs
     id="defs1"><linearGradient
       id="linearGradient2"
       inkscape:collect="always"><stop
         style="stop-color:#171717;stop-opacity:1;"
         offset="0"
         id="stop2" /><stop
         style="stop-color:#011fe3;stop-opacity:1;"
         offset="0.55117273"
         id="stop1" /><stop
         style="stop-color:#3d74ff;stop-opacity:1;"
         offset="0.69882727"
         id="stop4" /><stop
         style="stop-color:#89abec;stop-opacity:1;"
         offset="1"
         id="stop3" /></linearGradient><linearGradient
       inkscape:collect="always"
       xlink:href="#linearGradient2"
       id="linearGradient3"
       x1="285.8071"
       y1="1470.2577"
       x2="1646.139"
       y2="30.229599"
       gradientUnits="userSpaceOnUse" /><clipPath
       clipPathUnits="userSpaceOnUse"
       id="clipPath10"><path
         id="path11"
         style="fill:#ff0000;fill-opacity:1;fill-rule:nonzero;stroke:none"
         d="M 289.96875,21.132812 V 1478.1699 H 1649.2266 V 21.132812 Z M 926.625,568.38672 c 4.9643,0.0725 10.43438,4.14764 13.39453,13.35351 2.54428,7.91255 5.21889,15.78248 7.93164,23.64063 10.79499,-1.42468 21.60314,-2.76991 32.4375,-3.85938 0.30842,-0.0835 0.59524,-0.12449 0.83789,-0.084 1.50785,-0.15048 3.01515,-0.31066 4.52344,-0.45508 1.07016,7.97065 4.51718,15.97673 3.21094,23.91211 -0.4064,2.46884 -4.92054,0.9168 -7.37696,1.39258 -6.61508,1.28128 -16.18034,3.11996 -22.52539,4.78906 -0.80121,0.21076 -1.23647,0.44677 -1.97461,0.65039 0.0322,0.0938 0.0654,0.18741 0.0977,0.28125 5.55391,16.83838 2.87549,8.61455 8.04883,24.66602 7.30183,22.6557 -15.58591,30.03102 -22.88672,7.375 -5.0927,-15.80379 -2.46133,-7.72502 -7.9043,-24.23438 -0.0337,-0.0983 -0.0678,-0.19661 -0.10156,-0.29492 -2.59294,1.24651 -5.27738,2.46815 -7.83008,3.94531 -0.21659,0.56905 -1.44162,1.71749 -4.1289,3.75782 -0.53383,0.40531 -1.32174,1.82585 -1.60157,1.21679 -0.32419,-0.7056 0.65709,-1.46933 1.25977,-1.95898 1.37662,-1.11845 2.8946,-2.10358 4.4707,-3.01563 1.3114,-3.44538 -35.69162,15.16267 -27.09375,-3.36914 1.23246,-2.65642 2.0182,-5.5695 3.69727,-7.96875 0.68774,-0.98273 1.44842,-1.89513 2.25976,-2.7539 -19.99742,-6.13716 -14.34815,-27.14091 8.01368,-22.73633 3.24561,0.63928 6.52846,0.58933 9.80468,0.63672 -1.93757,-5.68395 -3.852,-11.37476 -5.68359,-17.0918 -4.31204,-13.45934 1.86364,-21.90082 9.11914,-21.79492 z" /></clipPath></defs><sodipodi:namedview
     id="namedview1"
     pagecolor="#ffffff"
     bordercolor="#000000"
     borderopacity="0.25"
     inkscape:showpageshadow="2"
     inkscape:pageopacity="0.0"
     inkscape:pagecheckerboard="0"
     inkscape:deskcolor="#d1d1d1"
     inkscape:zoom="0.11856758"
     inkscape:cx="-274.10529"
     inkscape:cy="501.82352"
     inkscape:window-width="1920"
     inkscape:window-height="1080"
     inkscape:window-x="0"
     inkscape:window-y="0"
     inkscape:window-maximized="0"
     inkscape:current-layer="g1" /><g
     inkscape:groupmode="layer"
     inkscape:label="Image"
     id="g1"><path
       id="path1"
       clip-path="url(#clipPath10)"
       style="fill:url(#linearGradient3);fill-opacity:1"
       d="m 969.60547,21.132812 c -22.41332,1.19e-4 -52.33376,1.055212 -53.94727,1.902344 -0.6737,0.353728 -3.94726,0.660071 -7.27343,0.681641 -5.6873,0.03688 -11.87986,0.646828 -22.04883,2.171875 -2.4,0.359928 -7.96341,1.127617 -12.36328,1.705078 -11.90907,1.562986 -19.41578,2.642697 -21.45508,3.087891 -6.2682,1.368339 -8.81156,1.859119 -12.45703,2.396484 -4.2629,0.628352 -9.26973,1.720947 -15.6543,3.419922 -2.0616,0.548579 -4.57885,0.998047 -5.59375,0.998047 -1.0148,0 -2.01968,0.283538 -2.23438,0.630859 -0.21457,0.347321 -2.43273,0.864202 -4.92773,1.146485 -2.4951,0.282269 -4.87516,0.733074 -5.28906,1.001953 -0.7957,0.516875 -7.14014,2.110986 -11.11524,2.792968 -1.29987,0.223037 -2.36328,0.650664 -2.36328,0.951172 0,0.300521 -1.61253,0.737463 -3.58203,0.970703 -1.9695,0.233253 -4.1776,0.740127 -4.9082,1.125 -0.7305,0.384887 -3.45677,1.257701 -6.05664,1.939454 -2.6,0.68174 -5.38164,1.489419 -6.18164,1.794921 -0.8,0.305515 -3.90821,1.297583 -6.90821,2.205079 -2.99987,0.907484 -5.76648,1.930625 -6.14648,2.273437 -0.38,0.342812 -1.42391,0.623047 -2.32031,0.623047 -0.8964,0 -1.80483,0.283413 -2.01953,0.630859 -0.2148,0.347459 -1.77194,0.852962 -3.46094,1.123047 -1.689,0.270085 -3.41614,0.737187 -3.83594,1.03711 -0.4199,0.29991 -2.56172,1.152745 -4.76172,1.894531 -2.2,0.741774 -4.32851,1.588268 -4.72851,1.882812 -0.4,0.294557 -1.86115,0.77912 -3.24805,1.076172 -1.3869,0.297051 -3.02352,0.791546 -3.63672,1.099609 -0.6131,0.308075 -2.58672,1.118657 -4.38672,1.800782 -1.8,0.682112 -3.84251,1.53364 -4.53711,1.892578 -0.6945,0.358937 -1.62531,0.652344 -2.07031,0.652344 -0.4449,0 -1.84116,0.453325 -3.10156,1.005859 -1.2605,0.552534 -3.6013,1.54998 -5.20117,2.216797 -1.6,0.666818 -3.47728,1.523675 -4.17188,1.904297 -0.6946,0.38061 -1.57172,0.691406 -1.94922,0.691406 -0.8744,0 -9.42706,3.818757 -24.22656,10.816406 -3.49177,1.650998 -6.68357,3.001953 -7.0918,3.001953 -0.40822,0 -0.74218,0.328516 -0.74218,0.728516 -10e-6,0.4 -0.38917,0.726562 -0.86524,0.726562 -0.83791,0 -10.03638,4.343018 -10.77148,5.085938 -0.2,0.202132 -4.45521,2.43371 -9.45508,4.958984 -5,2.525306 -10.07149,5.206886 -11.27149,5.958986 -1.2,0.75209 -4.22851,2.44273 -6.72851,3.75586 -2.5,1.31312 -4.54492,2.63976 -4.54492,2.94922 0,0.30947 -0.31524,0.56445 -0.70118,0.56445 -0.38593,0 -3.57785,1.73702 -7.09179,3.86133 -3.51406,2.12431 -6.87852,4.08622 -7.47852,4.35937 -1.3797,0.6281 -3.88803,2.19641 -4.36523,2.73047 -0.2,0.22383 -2.98177,2.01288 -6.18164,3.97461 -3.2,1.96172 -5.98164,3.76615 -6.18164,4.00977 -0.2,0.24362 -0.85508,0.6614 -1.45508,0.92968 -1.31091,0.58614 -3.8573,2.16395 -4.36328,2.70313 -0.2,0.21313 -2.16341,1.51697 -4.36328,2.89648 -2.2,1.37965 -4.10885,2.75919 -4.24219,3.06641 -0.13333,0.30723 -0.54549,0.55859 -0.91602,0.55859 -0.37053,0 -3.18183,1.88177 -6.24804,4.18164 -3.06635,2.3 -7.89092,5.77772 -10.72071,7.72852 -2.82965,1.95081 -5.73168,4.16096 -6.44726,4.91016 -0.71558,0.74919 -1.55234,1.36132 -1.86133,1.36132 -0.309,0 -1.19724,0.57571 -1.97266,1.2793 -0.77543,0.70359 -2.88164,2.41276 -4.68164,3.79883 -1.8,1.38608 -3.43672,2.7012 -3.63672,2.92187 -0.2,0.22067 -1.83672,1.53083 -3.63672,2.91016 -1.79987,1.37933 -3.43671,2.68753 -3.63671,2.9082 -0.2,0.22067 -1.83672,1.53083 -3.63672,2.91016 -1.8,1.37933 -3.43672,2.70206 -3.63672,2.94141 -0.2,0.23936 -2.2196,1.93481 -4.48828,3.76757 -4.01258,3.24164 -7.04294,5.90361 -11.82032,10.38086 -1.28027,1.2 -5.22834,4.80013 -8.77343,8 -8.16112,7.36654 -30.91521,30.12061 -38.55274,38.55274 -3.19987,3.53279 -6.8,7.49099 -8,8.79492 -1.2,1.30393 -3.32851,3.71868 -4.72851,5.36719 -3.58544,4.22176 -6.30151,7.33373 -8.38672,9.60351 -0.98705,1.07449 -1.79492,2.27384 -1.79492,2.66602 0,0.39217 -0.24493,0.82175 -0.54493,0.95508 -0.3,0.13333 -2.17494,2.20547 -4.16601,4.60547 -1.99108,2.39987 -3.80759,4.52851 -4.03711,4.72851 -0.22952,0.2 -1.54638,1.99635 -2.92578,3.99219 -1.37941,1.99584 -3.56981,4.77748 -4.86914,6.18164 -1.29934,1.40417 -2.54972,3.12617 -2.77735,3.82617 -0.22762,0.7 -0.71874,1.27149 -1.09179,1.27149 -0.37304,0 -0.67774,0.49179 -0.67774,1.09179 0,0.6 -0.30665,1.08985 -0.67969,1.08985 -0.37292,0 -0.85949,0.57343 -1.08203,1.27343 -0.22254,0.7 -1.14453,2.1019 -2.04882,3.11524 -3.18748,3.57125 -6.3711,7.89923 -6.3711,8.66015 0,0.42346 -0.2585,0.76954 -0.57226,0.76954 -0.31375,0 -1.18725,1.06523 -1.94336,2.36523 -0.75612,1.29999 -1.56481,2.52656 -1.79493,2.72656 -0.23,0.2 -0.74453,0.89801 -1.14453,1.55078 -1.60876,2.62557 -9.78469,14.86424 -10.41797,15.59571 -0.37277,0.43072 -0.90183,1.494 -1.17773,2.36328 -0.2759,0.86927 -0.80859,1.58008 -1.18164,1.58008 -0.37304,0 -0.67773,0.49179 -0.67773,1.09179 0,0.6 -0.3047,1.0918 -0.67774,1.0918 -0.37305,0 -0.9024,0.73477 -1.17578,1.63477 -0.27339,0.89987 -1.2769,2.67981 -2.23047,3.95312 -0.95358,1.27331 -1.73437,2.66315 -1.73437,3.08984 0,0.42669 -0.32657,0.7754 -0.72657,0.7754 -0.4,0 -0.72851,0.30407 -0.72851,0.67578 0,0.37172 -1.25781,2.58187 -2.79688,4.91015 -2.55756,3.86924 -4.97697,8.02386 -8.58203,14.74414 -0.74122,1.38175 -1.68099,2.88612 -2.08984,3.3418 -0.40885,0.45567 -2.53737,4.39719 -4.72852,8.75977 -2.19116,4.36245 -4.18555,8.09687 -4.43164,8.29687 -0.24608,0.2 -0.69804,1.18164 -1.00586,2.18164 -0.30783,1 -0.78532,1.98164 -1.06054,2.18164 -0.72825,0.5292 -5.1211,9.7809 -5.1211,10.78516 0,0.46839 -0.251,0.85156 -0.55664,0.85156 -0.58407,0 -3.08008,5.3069 -3.08008,6.54883 0,0.39726 -0.32851,0.72266 -0.72851,0.72266 -0.4,0 -0.73224,0.41015 -0.74024,0.91015 -0.008,0.5 -1.47782,3.85313 -3.26758,7.45313 -1.78963,3.59987 -3.25676,7.11836 -3.25976,7.81836 -0.003,0.69987 -0.33242,1.27343 -0.73242,1.27343 -0.4,0 -0.72657,0.46367 -0.72656,1.03125 -10e-6,0.56759 -0.46044,1.95938 -1.02344,3.0918 -0.563,1.13242 -1.35958,2.87695 -1.76953,3.87695 -1.49148,3.63822 -3.04823,7.32676 -4.11524,9.7461 -0.6,1.36046 -1.0918,2.99717 -1.09179,3.63672 -10e-6,0.63942 -0.28672,1.1621 -0.63672,1.16211 -0.35,0 -0.82289,0.93412 -1.05078,2.07421 -0.22802,1.14009 -1.25146,3.90049 -2.27344,6.13477 -1.02198,2.23429 -1.85742,4.67234 -1.85742,5.41797 0,0.74563 -0.26078,1.66687 -0.58008,2.04687 -0.3193,0.38 -1.20045,2.48946 -1.95703,4.68946 -0.75658,2.19987 -1.80257,4.81836 -2.32422,5.81836 -0.52165,0.99987 -0.94917,2.49054 -0.95117,3.31054 -0.002,0.82 -0.277,1.80164 -0.60938,2.18164 -0.33239,0.38 -1.20748,2.81797 -1.94531,5.41797 -0.73783,2.6 -1.57482,5.05508 -1.85938,5.45508 -0.28457,0.4 -0.75804,2.18608 -1.05273,3.9707 -0.29468,1.78462 -0.79378,3.7479 -1.10742,4.36328 -0.91315,1.7917 -2.88672,8.80067 -2.88672,10.25196 0,0.73046 -0.28874,1.50592 -0.64258,1.72461 -0.35385,0.21868 -0.87091,1.9234 -1.15039,3.78711 -0.27948,1.86358 -0.77961,3.91347 -1.10938,4.55468 -1.04427,2.03078 -2.91406,8.89966 -2.91406,10.70313 0,0.95406 -0.29769,1.73437 -0.66015,1.73437 -0.36247,0 -0.88955,1.71849 -1.17188,3.81836 -0.28232,2.1 -0.7634,4.14493 -1.06836,4.54493 -0.30496,0.39987 -0.74724,1.71015 -0.98437,2.91015 -0.23713,1.2 -0.96172,4.63672 -1.60938,7.63672 -0.64766,3 -1.55798,7.80041 -2.02344,10.66797 -0.46547,2.86756 -1.09257,5.4587 -1.39257,5.75781 -0.3,0.29911 -0.54493,1.656 -0.54493,3.01563 0,1.3595 -0.32313,3.07302 -0.71679,3.80859 -0.39367,0.73556 -0.92863,3.74155 -1.18946,6.67969 -0.26084,2.93801 -0.74996,5.69509 -1.08789,6.12695 -0.33793,0.43186 -0.83394,3.63371 -1.10156,7.11523 -0.26762,3.48164 -0.76552,6.5028 -1.10547,6.7129 -0.33995,0.2101 -0.61719,1.9506 -0.61719,3.86718 0,1.9167 -0.32391,4.43406 -0.71875,5.59375 -0.39484,1.15969 -1.05759,6.03607 -1.47265,10.83594 -0.41506,4.8 -1.29903,14.94505 -1.96485,22.54492 -2.14519,24.48761 -1.50799,109.20601 0.93555,124.36328 0.25793,1.6 0.93461,7.00013 1.50391,12 0.56931,5 1.22278,10.72657 1.45117,12.72657 0.2284,1.99987 0.67075,3.96523 0.98242,4.36523 0.31167,0.4 0.80365,3.97903 1.09375,7.95313 0.29009,3.97397 0.78634,7.73738 1.10352,8.36328 0.53486,1.05547 1.80807,8.59289 2.67968,15.86523 0.20378,1.7 0.61934,3.08984 0.92383,3.08985 0.30448,0 0.7775,2.18234 1.05078,4.8496 0.27329,2.66739 0.72781,5.20412 1.00977,5.63672 0.28195,0.43261 0.93019,3.07696 1.44141,5.87696 1.5267,8.36253 1.77358,9.42332 2.36718,10.18359 0.31231,0.4 0.8004,2.28466 1.08399,4.18945 0.28359,1.90492 0.80435,3.64264 1.1582,3.86133 0.35384,0.21869 0.64453,1.25649 0.64453,2.30664 0,1.94519 1.82428,9.55149 2.92383,12.1875 0.3337,0.8 0.81612,2.72225 1.07227,4.27149 0.25615,1.54911 0.7484,3.34924 1.09375,4 0.63946,1.20519 1.99849,6.11559 2.6914,9.72851 0.21096,1.1 0.63207,2 0.93555,2 0.30348,0 0.76283,1.32394 1.02148,2.94141 0.25864,1.61747 0.75153,3.49911 1.09571,4.18164 0.34418,0.68253 1.18492,3.04036 1.86718,5.24023 0.68227,2.2 1.50414,4.65508 1.82618,5.45508 0.32203,0.8 1.63285,4.4 2.91406,8 1.2812,3.6 2.58455,7.04703 2.89648,7.66016 0.31194,0.61313 0.81351,2.23758 1.11524,3.61133 0.30172,1.37361 0.79714,3.00015 1.09961,3.61328 0.30247,0.61313 0.89743,1.93359 1.32226,2.93359 0.42483,1 1.44379,3.35436 2.26563,5.23242 0.82184,1.87805 1.49414,3.76404 1.49414,4.19141 0,0.42738 0.28925,1.34449 0.64258,2.03906 0.67172,1.32071 1.19762,2.53295 3.70703,8.53711 0.83587,2 1.83668,4.20387 2.22265,4.89844 0.38597,0.69457 0.70117,1.75785 0.70118,2.36328 -10e-6,0.60543 0.32656,1.10156 0.72656,1.10156 0.4,0 0.72851,0.52188 0.72851,1.16016 0,0.63828 0.4656,2.0302 1.03516,3.09179 0.56957,1.06172 2.39988,4.87474 4.06836,8.47461 5.0339,10.86156 5.41988,11.62716 5.98633,11.87891 0.3,0.13334 0.54687,0.60406 0.54687,1.04686 0,1.0799 4.58092,10.283 5.27149,10.5899 0.3,0.1334 0.54492,0.6289 0.54492,1.1015 0,0.4726 0.69354,2.1637 1.53906,3.7578 3.65834,6.8971 7.08842,13.262 8.42188,15.625 0.7899,1.4 2.3398,4.1817 3.44336,6.1817 3.54621,6.427 16.6088,27.587 17.98828,29.1386 0.73419,0.8257 1.33593,1.8398 1.33593,2.254 0,0.4142 0.98177,2.109 2.18164,3.7656 1.2,1.6565 2.18164,3.3134 2.18165,3.6836 0,0.3701 0.24492,0.7826 0.54492,0.916 0.3,0.1333 2.97027,3.8422 5.93359,8.2422 2.96333,4.4 5.66333,8.1089 6,8.2422 0.33668,0.1333 0.61328,0.5772 0.61328,0.9863 0,0.4091 1.05901,2.1003 2.35547,3.7578 3.34173,4.2725 3.06469,3.8993 7.64063,10.2871 2.29223,3.2 4.8264,6.6124 5.63085,7.584 3.70512,4.4743 6.60087,7.7099 7.09961,7.9316 0.3,0.1333 0.54493,0.5838 0.54493,1.002 0,0.4182 1.06328,1.9788 2.36328,3.4687 1.3,1.4899 3.34687,3.9537 4.54687,5.4747 3.53601,4.4807 5.76785,7.2403 6.17383,7.6289 0.20892,0.2 2.17749,2.4918 4.375,5.0918 5.00839,5.9244 4.19299,5.0128 12.35938,13.83 16.31281,17.6131 35.29937,36.0811 55.6914,54.17 0.45094,0.4 2.26033,1.9241 4.01953,3.3867 1.7592,1.4626 4.18086,3.5323 5.38086,4.5996 1.2,1.0672 4.77979,3.9412 7.95508,6.3867 3.17529,2.4454 6.30448,4.9573 6.95508,5.582 2.44734,2.35 7.21392,5.8633 7.95508,5.8633 0.42346,0 0.76953,0.2565 0.76953,0.5703 0,0.3137 1.06523,1.1966 2.36523,1.961 1.3,0.7644 3.34505,2.3115 4.54492,3.4394 1.2,1.1278 3.48985,2.945 5.08985,4.0391 1.6,1.094 3.54489,2.5649 4.32031,3.2636 0.77543,0.7 1.65126,1.2715 1.94727,1.2715 0.296,0 0.97143,0.4142 1.5,0.92 0.52858,0.5058 3.41601,2.5507 6.41601,4.5449 3,1.9942 5.61641,3.8138 5.81641,4.0429 0.2,0.2292 0.85508,0.636 1.45508,0.9043 1.35927,0.6078 3.87831,2.1799 4.36328,2.7227 0.2,0.2238 2.98164,2.011 6.18164,3.9727 3.19987,1.9617 5.98359,3.7661 6.18359,4.0097 0.2,0.2437 0.85313,0.6634 1.45313,0.9317 1.44729,0.6471 3.90848,2.2039 4.36328,2.7597 0.63693,0.7783 16.92166,10.3912 21.43359,12.6524 2.38828,1.1969 4.78588,2.584 5.32617,3.084 0.5403,0.5 1.44811,0.9101 2.01954,0.9101 0.5713,0 1.03906,0.2541 1.03906,0.5645 0,0.3103 1.47137,1.2103 3.26758,2 1.79608,0.7896 3.26748,1.6457 3.27148,1.9023 0.004,0.2566 0.90401,0.6917 2,0.9668 1.09599,0.275 2.15927,0.7296 2.36328,1.0117 0.204,0.2821 2.66289,1.647 5.46289,3.0332 2.8,1.3861 5.1987,2.7664 5.33203,3.0664 0.13333,0.3 0.5507,0.545 0.92578,0.545 0.73055,0 6.97358,2.8587 16.12891,7.3847 3.11263,1.5388 6.13916,2.7988 6.72656,2.7988 0.5874,0 1.06836,0.2724 1.06836,0.6075 0,0.335 1.8,1.2209 4,1.9687 2.2,0.7478 4,1.5935 4,1.8789 0,0.2854 0.97482,0.7326 2.16602,0.9942 1.1911,0.2617 3.72609,1.2698 5.63476,2.2383 1.9089,0.9672 4.04427,1.7636 4.74414,1.7636 0.7,0 1.27344,0.3305 1.27344,0.7305 0,0.4 0.51112,0.7266 1.13672,0.7266 0.6257,0 2.90857,0.8091 5.07227,1.7988 2.16357,0.9897 4.84242,2.0177 5.95312,2.2832 1.1106,0.2654 2.3461,0.7163 2.7461,1.0019 0.39987,0.2856 2.52656,1.1254 4.72656,1.8672 2.2,0.7418 4.32851,1.5705 4.72851,1.8418 0.4,0.2712 1.86115,0.7361 3.24805,1.0332 1.3869,0.297 3.02352,0.7935 3.63672,1.1016 0.6131,0.3081 2.58672,1.1167 4.38672,1.7988 1.8,0.6821 3.77557,1.4928 4.38867,1.8008 0.6131,0.3081 2.24982,0.7844 3.63672,1.0586 1.3868,0.2741 3.17461,0.7704 3.97461,1.1035 2.69647,1.1229 9.24754,2.9473 10.58594,2.9473 0.73037,0 1.50786,0.2888 1.72656,0.6426 0.2186,0.3526 1.95633,0.8765 3.86133,1.1601 1.90477,0.2836 3.7914,0.7428 4.1914,1.0215 0.4,0.2787 2.52669,1.0579 4.72656,1.7324 2.2,0.6745 5.5666,1.7246 7.48047,2.334 1.9139,0.6095 4.12657,1.1094 4.91797,1.1094 0.7915,0 2.00853,0.307 2.70313,0.6816 0.6945,0.3746 3.88008,1.2103 7.08008,1.8574 3.19987,0.6471 6.8,1.4735 8,1.836 1.19987,0.3625 3.65507,0.88 5.45507,1.1504 1.8,0.2703 3.6,0.7322 4,1.0273 0.4,0.2952 1.87149,0.7585 3.27149,1.0293 7.77517,1.5042 14.72658,2.7587 18.91015,3.4121 2.6,0.4061 5.38177,1.0241 6.18164,1.375 0.8,0.3509 2.76329,0.7995 4.36329,0.9961 9.43677,1.1595 19.10508,2.5554 20.36328,2.9395 0.8,0.2442 5.05508,0.774 9.45508,1.1777 10.94274,1.0041 18.62458,1.9385 20.36328,2.4766 2.59617,0.8035 41.62008,2.0607 63.63672,2.0507 25.91791,-0.012 62.27502,-1.3412 64.58012,-2.3613 0.9188,-0.4066 3.353,-0.7402 5.4101,-0.7402 2.0571,0 5.5611,-0.3255 7.7852,-0.7246 2.2241,-0.3991 6.8246,-1.0418 10.2246,-1.4278 11.4007,-1.2946 23.6206,-3.1777 35.6367,-5.4882 3.4,-0.6541 8.6367,-1.6405 11.6367,-2.1915 9.5443,-1.7529 10.5292,-1.9758 11.2715,-2.541 0.4,-0.3045 2.2,-0.7711 4,-1.039 1.8,-0.2679 3.9285,-0.7542 4.7285,-1.0801 0.8,-0.326 5.8715,-1.6513 11.2715,-2.9434 5.4,-1.2921 10.1469,-2.6054 10.5469,-2.9199 0.4,-0.3145 2.4434,-0.8036 4.5429,-1.0859 2.0996,-0.2822 4.0006,-0.8094 4.2247,-1.1719 0.2227,-0.3625 1.1878,-0.6582 2.1406,-0.6582 0.9528,0 1.9083,-0.2855 2.123,-0.6328 0.2146,-0.3473 2.0617,-0.852 4.1055,-1.1231 2.0439,-0.2712 4.2607,-0.7843 4.9258,-1.1386 1.2259,-0.6531 6.103,-2.0049 9.7539,-2.7051 1.1,-0.2109 2,-0.6747 2,-1.0293 0,-0.3546 0.6083,-0.6445 1.3496,-0.6445 0.7412,0 3.6046,-0.8495 6.3633,-1.8887 2.7587,-1.0392 5.834,-2.0669 6.834,-2.2813 1,-0.2145 2.1449,-0.6354 2.5449,-0.9355 0.4,-0.3001 1.8612,-0.787 3.248,-1.084 1.3869,-0.2971 3.0236,-0.7996 3.6367,-1.1152 2.8977,-1.4911 6.533,-2.877 7.545,-2.877 0.616,0 1.3231,-0.3266 1.5703,-0.7266 0.2472,-0.3987 1.0033,-0.7341 1.6797,-0.7441 0.6764,-0.01 3.1937,-0.9839 5.5937,-2.166 2.4,-1.182 4.7759,-2.156 5.2813,-2.166 0.5054,-0.01 1.4871,-0.321 2.1816,-0.6953 2.9307,-1.5792 6.2813,-2.9571 7.1934,-2.9571 0.5386,0 0.9785,-0.291 0.9785,-0.6465 0,-0.3542 1.1469,-0.8604 2.5469,-1.123 1.4,-0.2627 2.5449,-0.79 2.5449,-1.1719 0,-0.3819 0.5251,-0.6953 1.1679,-0.6953 1.1162,0 3.3403,-0.9768 16.7598,-7.3613 3.2606,-1.5513 6.2891,-2.8203 6.7285,-2.8203 0.4393,0 0.7989,-0.2918 0.7989,-0.6485 0,-0.3566 0.8486,-0.8605 1.8867,-1.1211 2.1443,-0.5381 1.7951,-0.8561 11.1972,10.1661 3.3966,3.982 7.0783,8.166 8.1817,9.2968 1.1033,1.1307 2.0137,2.2758 2.0137,2.545 0,0.2693 1.0703,1.6351 2.371,3.0351 1.3006,1.4 5.1432,5.8145 8.5391,9.8106 3.3959,3.996 6.835,7.9245 7.6426,8.7285 0.8076,0.8039 2.3203,2.6058 3.3633,4.0058 1.0431,1.4 3.0022,3.7277 4.3515,5.1719 1.3494,1.4442 3.1063,3.4192 3.9063,4.3887 6.2708,7.5993 10.6419,12.6861 15.2734,17.7793 1.2,1.3196 3,3.4641 4,4.7656 1,1.3014 2.6367,3.2177 3.6367,4.2578 1,1.04 2.6817,3.0203 3.7364,4.4004 1.9663,2.573 3.381,4.2372 7.4101,8.7051 2.1643,2.4 8.5115,9.7254 11.957,13.8047 0.845,1 2.1274,2.5101 2.8516,3.3574 0.7242,0.8473 2.6266,3.125 4.2266,5.0605 8.495,10.2761 28.0044,27.9454 30.8554,27.9454 0.4298,0 0.7813,0.2495 0.7813,0.5546 0,0.6202 0.086,0.6698 9.5644,5.3438 8.9304,4.4036 11.9361,5.7383 12.918,5.7383 0.4449,0 1.3777,0.3157 2.0723,0.7031 2.1058,1.1746 8.1093,2.9336 10.0156,2.9336 0.986,0 1.793,0.2982 1.793,0.6641 0,0.3658 2.5367,0.8728 5.6367,1.125 3.0982,0.2521 6.1202,0.751 6.7227,1.1093 1.4018,0.8338 33.4511,0.9444 33.4511,0.1153 0,-0.342 2.2981,-0.8153 5.1074,-1.0508 2.8094,-0.2356 6.1645,-0.7625 7.4551,-1.1719 1.2905,-0.4094 4.311,-1.2969 6.711,-1.9727 2.4,-0.6745 4.6746,-1.5044 5.0546,-1.8417 0.38,-0.3373 1.1339,-0.6133 1.6758,-0.6133 2.7002,0 17.0846,-7.3427 26.459,-13.5059 9.8248,-6.4592 21.5164,-17.9586 29.3906,-28.9062 1.7794,-2.474 3.5624,-4.8919 3.9629,-5.375 0.4006,-0.4831 0.7285,-1.1926 0.7285,-1.5762 0,-0.3835 0.2469,-0.8061 0.5469,-0.9395 0.3,-0.1333 1.3633,-1.8789 2.3633,-3.8789 1,-2 1.9809,-3.8 2.1816,-4 0.4788,-0.4773 1.7449,-3.1476 3.6211,-7.6367 0.8359,-2 1.8367,-4.2039 2.2227,-4.8984 0.386,-0.6946 0.7012,-1.9038 0.7012,-2.6856 0,-0.7818 0.3186,-1.6174 0.707,-1.8574 0.3884,-0.2401 0.9204,-2.0595 1.1836,-4.043 0.2631,-1.9836 0.7648,-3.6074 1.1133,-3.6074 0.3484,0 0.6328,-0.8007 0.6328,-1.7812 0,-0.9805 0.4918,-3.6691 1.0918,-5.9727 0.6,-2.3036 1.0898,-6.0631 1.0898,-8.3555 0,-2.2923 0.3266,-4.3699 0.7266,-4.6171 0.4303,-0.2659 0.7285,-4.7197 0.7285,-10.9083 0,-6.1873 -0.2982,-10.6441 -0.7285,-10.9101 -0.4,-0.2472 -0.7408,-2.1482 -0.7578,-4.2246 -0.017,-2.0764 -0.3512,-5.2488 -0.7422,-7.0488 -0.3909,-1.8 -0.9126,-4.5817 -1.1582,-6.1817 -0.2457,-1.6 -0.6867,-3.2348 -0.9805,-3.6348 -0.2938,-0.3987 -0.7706,-2.0367 -1.0586,-3.6367 -0.2879,-1.6 -0.7525,-3.2367 -1.0332,-3.6367 -0.2808,-0.4 -0.9459,-2.0367 -1.4785,-3.6367 -0.5327,-1.6 -1.5365,-4.2184 -2.2305,-5.8184 -0.694,-1.6 -1.7151,-3.9715 -2.2695,-5.2715 -0.5545,-1.2987 -1.2294,-2.3652 -1.5,-2.3652 -0.2706,0 -0.7092,-0.9816 -0.9727,-2.1816 -0.2635,-1.2 -0.7583,-2.1817 -1.0996,-2.1817 -0.3412,0 -0.8499,-0.7367 -1.1308,-1.6367 -0.2809,-0.9 -0.7285,-1.8 -0.9942,-2 -0.2657,-0.2 -1.9955,-2.6531 -3.8457,-5.4531 -1.8503,-2.8 -3.9613,-5.7466 -4.6914,-6.5469 -0.7302,-0.8003 -2.1885,-2.6003 -3.2402,-4 -1.0518,-1.3997 -2.8518,-3.561 -4,-4.8027 -1.1483,-1.2416 -3.6089,-4.0233 -5.4668,-6.1817 -1.858,-2.1584 -4.1478,-4.7631 -5.0899,-5.789 -0.9408,-1.0259 -2.8597,-3.2922 -4.2597,-5.0352 -1.4,-1.7431 -3.5266,-4.2394 -4.7266,-5.5488 -1.2,-1.3095 -3,-3.4466 -4,-4.7481 -1,-1.3015 -2.6803,-3.2561 -3.7344,-4.3417 -1.0541,-1.0869 -2.3652,-2.6169 -2.914,-3.4004 -1.144,-1.6333 -7.3803,-8.8869 -10.0781,-11.7207 -1,-1.0505 -2.6781,-3.0499 -3.7286,-4.4434 -1.0507,-1.3935 -3.0138,-3.714 -4.3632,-5.1582 -1.3493,-1.4441 -3.1082,-3.4193 -3.9082,-4.3887 -3.7522,-4.5472 -8.9102,-10.648 -10.6719,-12.623 -2.8758,-3.2239 -4.7949,-5.4482 -7.7617,-8.9981 -1.462,-1.7493 -3.4164,-4.0411 -4.3438,-5.0918 -0.9275,-1.0507 -2.8907,-3.3805 -4.3633,-5.1757 -1.4725,-1.7965 -3.7128,-4.4149 -4.9785,-5.8184 -4.775,-5.2947 -6.7678,-7.6537 -6.7578,-8.0059 0.01,-0.2 1.7185,-2.1977 3.8066,-4.4375 2.0882,-2.2399 5.1071,-5.6196 6.7071,-7.5117 1.6,-1.892 3.8898,-4.5189 5.0898,-5.8379 4.7054,-5.1719 9.0859,-10.4271 12.4551,-14.9433 1.9382,-2.598 3.756,-4.8274 4.0391,-4.9532 0.2831,-0.1258 2.4157,-2.7396 4.7382,-5.8086 2.3226,-3.0691 4.8052,-6.2295 5.5176,-7.0234 0.7124,-0.7939 2.5124,-3.2468 4,-5.4512 1.4876,-2.2045 3.2989,-4.6697 4.0254,-5.4765 0.7265,-0.8068 2.0188,-2.6117 2.8711,-4.0117 0.8524,-1.4 1.7641,-2.7083 2.0254,-2.9083 0.2614,-0.1987 1.3134,-1.7036 2.3379,-3.3398 1.0245,-1.6361 2.3136,-3.4361 2.8652,-4 0.9507,-0.9716 7.3873,-10.2436 8.9434,-12.8828 0.4,-0.6785 0.9069,-1.3957 1.1269,-1.5957 0.5923,-0.5384 5.0547,-7.9596 5.0547,-8.4063 0,-0.2109 0.3462,-0.7786 0.7696,-1.2617 1.3764,-1.5709 7.1241,-10.6522 9.2031,-14.541 1.115,-2.0858 2.2142,-3.9562 2.4433,-4.1562 0.2292,-0.2 0.6418,-0.8532 0.9161,-1.4532 0.2743,-0.6 1.0974,-2.0734 1.8281,-3.2734 1.4845,-2.4378 5.0747,-8.8476 7.1289,-12.7266 0.7412,-1.3997 1.5109,-2.7079 1.7109,-2.9082 0.2,-0.2003 2.3266,-4.2918 4.7266,-9.0918 2.4,-4.8 4.5281,-8.8918 4.7285,-9.0918 0.3904,-0.3897 1.6383,-2.9392 6.7617,-13.81832 5.7896,-12.29346 7.7832,-16.65941 7.7832,-17.04102 0,-0.20574 0.7915,-2.10001 1.7598,-4.21094 4.8628,-10.60103 6.2402,-13.83386 6.2402,-14.65234 0,-0.49209 0.2597,-1.20594 0.5781,-1.58594 0.3183,-0.38 1.0173,-1.99961 1.5528,-3.59961 0.5355,-1.6 1.5567,-4.21836 2.2695,-5.81836 0.7129,-1.6 2.1899,-5.52864 3.2813,-8.72851 1.0915,-3.2 2.2268,-6.14493 2.5234,-6.54493 0.2967,-0.4 0.7688,-2.11655 1.0488,-3.81445 0.2801,-1.6979 0.8087,-3.27038 1.1739,-3.49609 0.3652,-0.2257 0.664,-1.05021 0.664,-1.83203 0,-0.78182 0.3016,-1.99098 0.6719,-2.68555 0.6852,-1.28523 1.3299,-3.19734 5.1953,-15.44336 3.4979,-11.08163 4.3145,-13.92291 4.3145,-15.00391 0,-0.55949 0.2993,-1.58472 0.666,-2.27929 0.3668,-0.69457 1.2216,-3.22696 1.8984,-5.62696 0.6768,-2.39987 1.6858,-5.76649 2.2422,-7.48047 0.5564,-1.71385 1.0117,-3.73954 1.0117,-4.50195 0,-0.76241 0.2927,-1.56796 0.6504,-1.78906 0.3578,-0.2211 0.8061,-1.6303 0.9981,-3.13281 0.4912,-3.84411 2.0596,-11.18416 2.7597,-12.91407 0.3238,-0.79987 0.9515,-3.41848 1.3946,-5.81835 0.4432,-2.4 1.0927,-5.67149 1.4414,-7.27149 0.3487,-1.6 1.0119,-5.2 1.4746,-8 0.4627,-2.8 1.1052,-5.59493 1.4257,-6.21094 0.3218,-0.616 0.8258,-3.88957 1.1192,-7.27343 0.2934,-3.384 0.791,-6.48086 1.1055,-6.88086 0.3146,-0.4 0.742,-2.36341 0.9511,-4.36328 0.2091,-2 0.9165,-7.40013 1.5723,-12 1.5594,-10.93813 4.1134,-35.65522 5.2598,-50.90821 0.7457,-9.87338 0.7468,-75.56834 0.01,-83.63672 -0.3121,-3.39987 -0.86,-9.94492 -1.2187,-14.54492 -0.3587,-4.59987 -0.8275,-9.13074 -1.041,-10.06836 -0.2134,-0.93761 -0.5901,-5.02953 -0.8379,-9.09179 -0.2478,-4.06238 -0.6502,-7.87657 -0.8926,-8.47657 -0.2424,-0.6 -0.887,-4.52656 -1.4336,-8.72656 -0.5465,-4.2 -1.2902,-9.43672 -1.6523,-11.63672 -0.3621,-2.2 -1.1356,-7.11028 -1.7188,-10.91015 -0.5831,-3.8 -1.6135,-9.52657 -2.2891,-12.72657 -0.6757,-3.19987 -1.3916,-7.04827 -1.5918,-8.55078 -0.2002,-1.50251 -0.6579,-2.91171 -1.0156,-3.13281 -0.3577,-0.2211 -0.6504,-1.40132 -0.6504,-2.62305 0,-1.22172 -0.661,-5.04936 -1.4687,-8.5039 -4.3318,-18.52826 -5.2778,-22.4073 -5.7891,-23.73438 -1.0929,-2.83669 -2.9238,-9.60186 -2.9238,-10.80273 0,-0.67027 -0.3105,-1.7859 -0.6895,-2.48047 -0.3789,-0.69458 -1.3913,-3.7168 -2.25,-6.7168 -2.2219,-7.76222 -3.0024,-10.34311 -3.6328,-12 -0.3044,-0.8 -1.6313,-4.8918 -2.9472,-9.0918 -1.316,-4.19986 -2.6562,-7.94617 -2.9805,-8.32617 -0.3242,-0.38 -0.5899,-1.14943 -0.5899,-1.70898 0,-0.55955 -0.4625,-2.04815 -1.0273,-3.3086 -0.5648,-1.26032 -1.5872,-4.09309 -2.2715,-6.29296 -0.6844,-2.2 -1.5319,-4.30946 -1.8828,-4.68946 -0.3508,-0.38 -0.6367,-1.14943 -0.6367,-1.70898 0,-0.55954 -0.4918,-2.12978 -1.0918,-3.49024 -0.6,-1.36045 -1.5828,-3.58681 -2.1816,-4.94726 -0.6,-1.36045 -1.0899,-2.99717 -1.0899,-3.63672 0,-0.63954 -0.3285,-1.16406 -0.7285,-1.16406 -0.4,0 -0.7266,-0.51109 -0.7266,-1.13672 0,-0.62563 -0.8183,-2.92719 -1.8183,-5.11328 -1,-2.18623 -1.8184,-4.16099 -1.8184,-4.38868 0,-0.43042 -0.9687,-2.63517 -4.4726,-10.1914 -1.1398,-2.45718 -2.0723,-4.70499 -2.0723,-4.99414 0,-0.68867 -18.8881,-38.60499 -22.2774,-44.72071 -1.441,-2.59987 -3.6103,-6.52656 -4.8203,-8.72656 -1.2101,-2.2 -2.7257,-4.82054 -3.3691,-5.82226 -2.6967,-4.19892 -3.045,-4.81402 -3.7969,-6.72266 -0.4334,-1.1 -1.0824,-2 -1.4433,-2 -0.3608,0 -0.6563,-0.4918 -0.6563,-1.0918 0,-0.6 -0.2918,-1.09179 -0.6484,-1.09179 -0.3567,0 -0.8545,-0.81641 -1.1055,-1.81641 -0.251,-1 -0.7776,-1.81836 -1.1699,-1.81836 -0.3924,0 -0.7129,-0.38072 -0.7129,-0.8457 0,-0.75146 -4.0805,-7.68229 -5.0684,-8.60938 -0.2131,-0.2 -0.7863,-1.01836 -1.2754,-1.81836 -5.7867,-9.46463 -8.6763,-13.88375 -11.8554,-18.13476 -2.0748,-2.77442 -4.6053,-6.37442 -5.6231,-8 -1.0179,-1.62558 -2.0489,-3.12044 -2.2929,-3.32031 -0.2439,-0.2 -1.3102,-1.67149 -2.3692,-3.27149 -1.059,-1.6 -2.5906,-3.72864 -3.4023,-4.72851 -0.8118,-1 -4.6443,-6.07149 -8.5176,-11.27149 -3.8732,-5.19987 -7.2488,-9.61836 -7.502,-9.81836 -0.2533,-0.2 -1.9334,-2.30182 -3.7324,-4.66992 -1.7989,-2.36809 -4.0898,-5.16217 -5.0898,-6.20899 -1,-1.04668 -2.6109,-2.87349 -3.5801,-4.05859 -3.0524,-3.73237 -9.7985,-11.5201 -11.6914,-13.49609 -1,-1.0439 -4.2526,-4.64692 -7.2266,-8.00586 -12.3514,-13.95053 -44.4209,-44.79861 -59.2734,-57.01563 -1.9451,-1.6 -4.8639,-4.13672 -6.4863,-5.63672 -1.6224,-1.49987 -3.1641,-2.72656 -3.4258,-2.72656 -0.2617,0 -1.6287,-1.06328 -3.0371,-2.36328 -3.9986,-3.69092 -17.3206,-13.83597 -32.9141,-25.06055 -4.8,-3.45508 -8.8918,-6.48911 -9.0918,-6.74414 -0.7235,-0.92263 -11.4154,-7.28711 -12.2422,-7.28711 -0.4664,0 -0.8476,-0.27626 -0.8476,-0.61328 0,-0.33701 -1.2297,-1.23701 -2.7285,-2 -1.5,-0.76298 -2.8899,-1.55268 -3.0899,-1.75586 -1.0404,-1.057 -22.2235,-14.53906 -22.8437,-14.53906 -0.1727,0 -3.4317,-1.8 -7.2422,-4 -3.8104,-2.2 -7.2741,-4 -7.6953,-4 -0.4212,0 -0.7657,-0.27569 -0.7657,-0.61133 0,-0.33565 -1.305,-1.23565 -2.9004,-2 -1.5954,-0.76436 -2.9082,-1.59883 -2.9082,-1.85547 0,-0.25663 -0.9059,-0.69171 -2.0019,-0.96679 -1.096,-0.27508 -2.1593,-0.73982 -2.3633,-1.03125 -0.4753,-0.67909 -9.8668,-5.171878 -10.8105,-5.171878 -0.3919,0 -0.8218,-0.262602 -0.9551,-0.582031 -0.2275,-0.544882 -21.0353,-11.054688 -21.8867,-11.054688 -0.3879,0 -9.8475,-4.329083 -16.8614,-7.716797 -1.9785,-0.95563 -4.352,-1.738281 -5.2734,-1.738281 -0.9215,0 -1.6738,-0.326563 -1.6738,-0.726563 0,-0.399987 -0.3497,-0.726562 -0.7754,-0.726562 -0.4256,0 -2.5435,-0.811088 -4.7071,-1.800781 -2.1637,-0.989693 -4.8203,-2.020904 -5.9043,-2.292969 -1.084,-0.272064 -2.7793,-0.914118 -3.7656,-1.425781 -0.9862,-0.511675 -3.2166,-1.351354 -4.957,-1.865235 -1.7404,-0.513867 -3.1641,-1.189279 -3.1641,-1.501953 0,-0.31266 -0.6425,-0.568359 -1.4277,-0.568359 -1.3004,0 -6.9649,-1.94458 -10.5723,-3.628906 -0.8,-0.37353 -3.2562,-1.212026 -5.455,-1.863282 -2.2,-0.651243 -4.6551,-1.44697 -5.4551,-1.767578 -2.8814,-1.154727 -9.2856,-2.921875 -10.586,-2.921875 -0.7304,0 -1.5236,-0.318627 -1.7636,-0.707031 -0.2401,-0.388403 -2.0595,-0.920465 -4.043,-1.183594 -1.9836,-0.263115 -3.6074,-0.764813 -3.6074,-1.113281 0,-0.348468 -0.7519,-0.632813 -1.6719,-0.632813 -0.92,0 -1.9833,-0.292536 -2.3633,-0.65039 -0.38,-0.357855 -2.1648,-0.992399 -3.9648,-1.410156 -1.8,-0.41777 -6.5461,-1.632131 -10.5449,-2.697266 -4,-1.065136 -8.9083,-2.312693 -10.9083,-2.773438 -2,-0.460732 -3.9832,-1.063402 -4.4062,-1.33789 -0.423,-0.274489 -2.4679,-0.724474 -4.5449,-1 -2.0771,-0.275527 -3.7774,-0.749983 -3.7774,-1.054688 0,-0.304692 -1.0644,-0.736653 -2.3632,-0.960937 -3.3329,-0.575022 -12.957,-2.404255 -19.8184,-3.765625 -12.0228,-2.385478 -19.9933,-3.756654 -34.1816,-5.882813 -10.6825,-1.600655 -15.6198,-2.180323 -26.545,-3.113281 -5.4,-0.461127 -12.6,-1.150345 -16,-1.533203 -8.872,-0.999025 -33.14375,-1.82021 -53.81442,-1.820313 h -0.002 z m -8.34375,244.218748 h 0.002 c 12.82614,-0.14983 26.61631,-0.0307 33.07227,0.45508 13.74086,1.03391 30.11126,2.68366 35.99996,3.62695 2.4,0.38445 7.3102,1.12877 10.9102,1.6543 3.6,0.52553 6.8715,1.16373 7.2715,1.41797 0.4,0.25423 2.8551,0.69821 5.4551,0.98828 2.6,0.29007 5.055,0.77474 5.455,1.07617 0.4,0.30142 2.0368,0.76143 3.6368,1.02149 4.6961,0.76348 12.2731,2.34018 13.4531,2.80078 1.5287,0.59672 7.2125,2.06263 9.8183,2.53125 1.2,0.21582 2.5102,0.6398 2.9102,0.94336 0.4,0.30356 1.8715,0.77348 3.2715,1.04297 1.4,0.26948 3.2,0.74344 4,1.05468 0.8,0.31125 4.8918,1.66957 9.0918,3.01758 4.2,1.34801 7.9633,2.64144 8.3633,2.875 0.4,0.23356 2.6918,1.04231 5.0918,1.79688 2.4,0.75457 4.6746,1.64139 5.0546,1.9707 0.38,0.32931 1.1475,0.59766 1.7071,0.59766 0.5595,0 2.0501,0.45331 3.3105,1.00586 1.2605,0.55255 3.5992,1.55609 5.1992,2.23046 1.6,0.67451 3.5653,1.51315 4.3653,1.86329 4.9243,2.15514 9.9018,4.36462 12.8691,5.71289 1.878,0.85336 3.7598,1.55273 4.1817,1.55273 0.422,0 0.7656,0.32656 0.7656,0.72656 0,0.4 0.3356,0.72657 0.7441,0.72657 0.7987,0 10.2895,4.44351 10.8926,5.0996 0.2,0.21758 1.8367,1.03263 3.6367,1.81055 1.8,0.77792 3.4364,1.58584 3.6367,1.79688 0.2003,0.21104 1.5105,0.98893 2.9102,1.72656 4.7002,2.47698 6.9055,3.74601 7.2715,4.18555 0.2,0.24016 2.3186,1.51686 4.707,2.83789 7.004,3.87387 19.6352,11.78707 19.8984,12.46484 0.1334,0.34334 0.6396,0.625 1.125,0.625 0.4853,0 1.5214,0.48962 2.3028,1.08789 0.7813,0.59827 4.6851,3.43386 8.6738,6.30274 3.9888,2.86875 7.5888,5.49244 8,5.83007 0.4113,0.33763 2.0563,1.58885 3.6563,2.7793 1.6,1.19045 3.2367,2.41629 3.6367,2.72461 5.2287,4.0302 7.6293,5.9404 9.4551,7.52344 14.1803,12.29584 21.9662,19.45994 32.3359,29.75976 4.9367,4.90349 16.4112,17.1901 19.0488,20.39649 1.462,1.77729 3.3136,3.98302 4.1153,4.90234 2.7335,3.13474 11.0526,13.61995 15.4082,19.41992 1.8,2.39695 3.5222,4.68632 3.8261,5.08789 3.945,5.21169 10.7188,15.05335 10.7188,15.57227 0,0.3702 0.2698,0.7828 0.5976,0.91601 0.6931,0.282 13.6664,21.39912 15.7871,25.69727 0.7894,1.6 1.5989,3.07314 1.7989,3.27344 0.9085,0.90986 12.442,23.73747 15.248,30.17969 2.4282,5.57464 3.7264,8.46279 5.211,11.59179 0.7474,1.57513 1.3574,3.15146 1.3574,3.50196 0,0.3505 0.8111,2.40659 1.8008,4.57031 0.9897,2.16372 2.0071,4.76487 2.2617,5.7793 0.2546,1.0143 0.7537,2.02432 1.1094,2.24414 0.3556,0.21983 0.6464,0.90359 0.6464,1.51953 0,0.61594 0.4488,2.1497 0.9961,3.41015 0.5473,1.26045 1.5744,4.25638 2.2832,6.65625 0.7087,2.4 1.5638,5.01836 1.9004,5.81836 1.6781,3.98834 5.002,14.97372 5.002,16.53125 0,0.97433 0.2332,2.00147 0.5136,2.28321 0.5824,0.58237 3.5664,11.72905 4.8926,18.27539 0.4862,2.39987 1.0751,4.85507 1.3086,5.45507 0.6812,1.75076 2.7409,13.27828 2.7403,15.33399 -3e-4,1.03333 0.2449,2.12341 0.5449,2.42187 0.8425,0.83823 3.6097,21.78403 5.4355,41.1543 1.053,11.1716 1.0513,57.43081 0,69.45313 -1.0909,12.45095 -4.5997,39.0769 -5.416,41.09179 -0.243,0.6 -0.6125,2.4 -0.8183,4 -0.628,4.85568 -2.0497,11.56015 -2.7344,12.89844 -0.3553,0.69457 -0.6465,2.2116 -0.6465,3.37109 0,1.88458 -0.7381,4.91197 -2.9824,12.22266 -0.3901,1.27103 -0.9062,3.97103 -1.1465,6 -0.2403,2.02897 -0.7182,3.68945 -1.0625,3.68945 -0.3442,0 -0.627,0.48603 -0.627,1.08008 0,0.59404 -0.9816,4.03459 -2.1816,7.64649 -1.2,3.61178 -2.1816,7.15118 -2.1817,7.86523 0,0.71405 -0.2607,1.61023 -0.58,1.99023 -0.3193,0.38 -1.1626,2.49141 -1.875,4.69141 -1.2205,3.76897 -2.3939,6.9361 -4.4434,12 -0.4857,1.2 -1.2978,3.32656 -1.8047,4.72656 -1.339,3.69809 -2.4286,6.30507 -6.164,14.74805 -1.0228,2.31186 -1.8594,4.44408 -1.8594,4.73828 0,0.50491 -14.1728,28.86684 -17.1563,34.33203 -0.7642,1.4 -1.6355,2.65378 -1.9355,2.78711 -0.3,0.13334 -0.5449,0.54251 -0.5449,0.9082 0,0.66028 -10.0354,17.4264 -10.8477,18.12305 -0.575,0.49314 -1.8682,2.65678 -3.8008,6.36524 -0.8867,1.70133 -2.1255,3.6729 -2.7539,4.38086 -0.6283,0.70784 -2.271,2.91568 -3.6504,4.90625 -1.3794,1.99044 -2.7055,3.78437 -2.9472,3.98437 -0.2417,0.2 -1.1862,1.58997 -2.0977,3.08984 -0.9115,1.5 -1.9569,2.72852 -2.3242,2.72852 -0.3674,0 -0.6697,0.4082 -0.6797,0.9082 -0.01,0.5 -0.9064,1.95224 -2,3.22657 -1.0936,1.27421 -2.8066,3.39529 -3.8066,4.71484 -3.9977,5.27509 -6.5007,7.55774 -7.166,6.53906 -0.3505,-0.53556 -2.0718,-2.6302 -3.8262,-4.65625 -1.7545,-2.02604 -4.6629,-5.38766 -6.4629,-7.46875 -1.8,-2.08108 -5.2367,-5.99771 -7.6367,-8.70312 -2.4,-2.70555 -4.6326,-5.38214 -4.961,-5.94922 -0.3284,-0.56707 -1.4734,-1.94964 -2.5449,-3.07227 -1.0716,-1.12264 -2.7368,-2.99236 -3.7012,-4.15429 -0.9644,-1.16206 -2.8864,-3.42149 -4.2695,-5.02149 -2.7766,-3.21212 -5.8989,-6.88156 -12.3848,-14.54687 -2.3691,-2.79999 -5.0876,-5.91931 -6.041,-6.9336 -0.9534,-1.01429 -2.8793,-3.29437 -4.2793,-5.0664 -1.4,-1.77215 -3.3633,-4.10703 -4.3633,-5.1875 -3.7426,-4.04493 -9.1294,-10.3615 -10.207,-11.97266 -0.6138,-0.91755 -1.7744,-2.25874 -2.5781,-2.98047 -0.8036,-0.72173 -3.8834,-4.2595 -6.8457,-7.85937 -2.9624,-3.6 -6.0587,-7.20427 -6.8789,-8.01172 -0.8203,-0.80744 -3.4468,-3.88164 -5.8379,-6.83008 -7.5021,-9.25054 -22.8159,-24.04197 -25.5371,-24.66602 -0.564,-0.12933 -1.0254,-0.51894 -1.0254,-0.86718 0,-0.34825 -1.8,-1.70964 -4,-3.02539 -2.2,-1.31588 -4,-2.64464 -4,-2.95118 0,-0.30655 -0.3358,-0.55664 -0.7481,-0.55664 -0.4123,0 -3.0646,-1.3116 -5.8925,-2.91406 -2.8279,-1.60245 -5.9522,-3.11646 -6.9434,-3.36523 -0.9912,-0.24877 -3.4102,-1.22897 -5.3769,-2.17774 -1.9667,-0.94878 -4.2138,-1.72461 -4.9922,-1.72461 -0.7783,0 -1.6005,-0.29887 -1.8262,-0.66406 -0.2257,-0.36519 -1.7982,-0.87534 -3.4961,-1.13281 -1.6979,-0.25748 -3.743,-0.73613 -4.543,-1.06446 -4.6209,-1.89632 -19.5623,-3.76875 -30.1816,-3.78125 -6.9343,-0.008 -23.2456,1.48588 -24.6953,2.26172 -0.7646,0.40922 -2.2102,0.74414 -3.2129,0.74414 -1.0027,0 -1.9983,0.28358 -2.2129,0.63086 -0.2146,0.34728 -2.0212,0.84896 -4.0137,1.11328 -1.9926,0.26432 -3.8185,0.79715 -4.0586,1.18555 -0.24,0.38841 -1.1225,0.70703 -1.959,0.70703 -0.8365,0 -3.1886,0.77343 -5.2285,1.71875 -2.0399,0.94532 -5.1824,2.32482 -6.9824,3.06641 -1.8,0.74159 -4.7807,2.25996 -6.625,3.37305 -1.8442,1.11295 -3.7258,2.02343 -4.1816,2.02343 -0.4557,0 -0.8301,0.32657 -0.8301,0.72657 0,0.4 -0.3443,0.72851 -0.7656,0.72851 -0.6199,0 -8.6095,5.59576 -12.9121,9.04297 -6.6773,5.34956 -18.5748,18.58727 -24.4766,27.23438 -4.739,6.94325 -13.09119,24.07108 -13.98829,28.68554 -0.247,1.27056 -0.66057,2.47383 -0.91797,2.67383 -0.8937,0.69442 -3.05456,10.87765 -4.47656,21.08984 -0.8947,6.42501 -0.36979,32.79823 0.7168,36 0.4073,1.2 1.31282,4.96329 2.01172,8.36329 0.699,3.39987 1.48404,6.34687 1.74414,6.54687 0.2601,0.2 0.66925,1.3771 0.91015,2.61719 1.0996,5.65975 11.53041,26.09016 16.30081,31.92776 0.3269,0.4 1.7364,2.1993 3.1328,3.998 1.3965,1.7986 3.0918,3.9252 3.7676,4.7266 2.3837,2.8266 3.8828,4.6745 5.6816,7.0058 1,1.296 2.8,3.4008 4,4.6797 1.2,1.2789 3.491,3.8993 5.0898,5.8223 1.6,1.923 6.019,7.1166 9.8184,11.541 3.7993,4.4244 7.5627,8.8242 8.3633,9.7774 0.8006,0.9532 1.7816,2.1012 2.1816,2.5507 0.4,0.4495 2.3566,2.7785 4.3477,5.1758 1.9911,2.3973 3.7911,4.5227 4,4.7227 0.4032,0.386 7.294,8.3922 10.2539,11.914 0.9692,1.1532 2.0902,2.4669 2.4902,2.918 1.096,1.2359 5.3759,6.2 9.4551,10.9688 2,2.3381 3.9633,4.6106 4.3633,5.0488 0.4,0.4382 2.3602,2.757 4.3574,5.1543 1.9971,2.3972 4.3716,5.1749 5.2754,6.1719 0.9038,0.997 1.5501,2.0938 1.4355,2.4375 -0.1145,0.3437 -2.3257,1.2795 -4.9121,2.08 -2.5864,0.8005 -5.3562,1.7302 -6.1562,2.0664 -0.8,0.3361 -2.9146,0.8353 -4.6992,1.1075 -1.7847,0.2721 -3.7479,0.7538 -4.3633,1.0703 -0.6154,0.3164 -3.411,1.1205 -6.211,1.7871 -2.7988,0.6667 -5.7449,1.478 -6.5449,1.8027 -0.8,0.3248 -3.7449,0.9157 -6.5449,1.3145 -2.8,0.3988 -7.3088,1.236 -10.0195,1.8613 -2.7107,0.6253 -6.9658,1.3597 -9.4551,1.6309 -2.4893,0.2711 -4.8539,0.6958 -5.2539,0.9433 -1.0779,0.6669 -14.8279,2.339 -36.3633,4.4219 -6.35937,0.6151 -57.92756,0.9049 -61.81835,0.3476 -0.8,-0.1146 -5.38177,-0.5798 -10.18164,-1.0351 -8.02868,-0.7615 -21.65532,-2.3933 -26.9082,-3.2227 -7.74789,-1.2234 -18.53003,-3.252 -25.0918,-4.7207 -1.8,-0.4028 -4.50001,-0.7466 -6,-0.7636 -1.5,-0.017 -2.72656,-0.3235 -2.72656,-0.6797 0,-0.3562 -1.0634,-0.8298 -2.36328,-1.0528 -3.85199,-0.6609 -10.30881,-2.2696 -11.0918,-2.7636 -0.4,-0.2523 -2.18806,-0.7005 -3.97266,-0.9961 -1.7847,-0.2956 -3.74788,-0.798 -4.36328,-1.1153 -0.6154,-0.3173 -3.08243,-1.1246 -5.48242,-1.7949 -2.4,-0.6704 -5.3938,-1.6793 -6.6543,-2.2422 -1.2604,-0.5629 -2.91423,-1.0234 -3.67383,-1.0234 -0.75938,0 -1.69226,-0.2627 -2.07226,-0.582 -0.38,-0.3193 -2.48957,-1.1695 -4.68945,-1.8907 -2.2,-0.7213 -5.03257,-1.7686 -6.29297,-2.3281 -1.26049,-0.5595 -2.97886,-1.0176 -3.81836,-1.0176 -0.83959,0 -1.52539,-0.2631 -1.52539,-0.584 0,-0.321 -1.71836,-1.2021 -3.81836,-1.957 -2.09999,-0.7549 -4.63673,-1.7986 -5.63672,-2.3203 -1,-0.5216 -2.38985,-0.9531 -3.08985,-0.9531 -0.69988,0 -1.27343,-0.3324 -1.27343,-0.7324 0,-0.4 -0.46892,-0.7266 -1.04102,-0.7266 -0.9985,0 -6.95127,-2.5567 -14.55664,-6.252 -1.9785,-0.9613 -3.99627,-1.748 -4.48437,-1.748 -0.4882,0 -0.99746,-0.2449 -1.13086,-0.5449 -0.1333,-0.3 -3.67892,-2.2749 -7.87891,-4.3887 -4.2,-2.1139 -9.43477,-4.8476 -11.63477,-6.0742 -2.19988,-1.2265 -4.98359,-2.7701 -6.18359,-3.4297 -1.2,-0.6596 -2.34492,-1.3625 -2.54492,-1.5625 -0.2,-0.2 -1.64976,-1.0184 -3.22266,-1.8184 -1.573,-0.8 -7.44469,-4.4816 -13.04687,-8.1816 -5.60229,-3.7 -10.45059,-6.7266 -10.77539,-6.7266 -0.3247,0 -0.5918,-0.2755 -0.5918,-0.6113 0,-0.3358 -0.73477,-0.9494 -1.63477,-1.3633 -1.63588,-0.7523 -9.08972,-6.126 -13.3496,-9.625 -1.2423,-1.0203 -3.18626,-2.5105 -4.31836,-3.3105 -2.09719,-1.4819 -5.8788,-4.4904 -7.30469,-5.8125 -0.4342,-0.4025 -2.12537,-1.8181 -3.75977,-3.1446 -1.6345,-1.3264 -3.89789,-3.2147 -5.02929,-4.1953 -1.13141,-0.9806 -3.59481,-3.0032 -5.47461,-4.4961 -4.00329,-3.1792 -33.1542,-32.45688 -39.49805,-39.66988 -2.39669,-2.72505 -5.0125,-5.69987 -5.8125,-6.61133 -0.8,-0.91146 -2.43672,-2.92973 -3.63672,-4.48438 -1.2,-1.55464 -3.17326,-3.97787 -4.38672,-5.38672 -1.21347,-1.40872 -3.16586,-3.8707 -4.33789,-5.4707 -1.17203,-1.6 -2.47026,-3.30686 -2.88476,-3.79297 -2.20356,-2.58431 -2.57339,-3.1032 -2.58399,-3.63086 -0.006,-0.31688 -0.98449,-1.72317 -2.17383,-3.12304 -1.18934,-1.39999 -2.49221,-2.94072 -2.89648,-3.42383 -0.40427,-0.48312 -0.73633,-1.13997 -0.73633,-1.46094 0,-0.32097 -0.75323,-1.39862 -1.67383,-2.39453 -0.92059,-0.99592 -1.91389,-2.30247 -2.20898,-2.90234 -1.38889,-2.824 -6.49922,-10.47253 -7.20703,-10.78711 -0.3,-0.13333 -0.54492,-0.54238 -0.54492,-0.90821 0,-0.36582 -2.29181,-4.4065 -5.0918,-8.98047 -2.8,-4.57384 -5.08984,-8.49573 -5.08985,-8.71484 0,-0.21911 -1.0769,-2.12271 -2.39257,-4.23047 -1.31565,-2.10777 -3.03403,-5.22073 -3.81836,-6.91601 -0.78433,-1.69541 -1.67266,-3.08485 -1.97266,-3.08985 -0.3,-0.005 -0.54492,-0.39294 -0.54492,-0.86133 0,-1.00427 -4.39296,-10.25399 -5.12109,-10.7832 -0.27523,-0.2 -0.73031,-1.18164 -1.01172,-2.18164 -0.45125,-1.60356 -5.18577,-12.0353 -7.00977,-15.44531 -0.37151,-0.69457 -0.67578,-1.5717 -0.67578,-1.94922 0,-0.37752 -0.98164,-2.80778 -2.18164,-5.40039 -1.2,-2.5926 -2.18164,-5.21447 -2.18164,-5.82617 0,-0.61169 -0.32656,-1.31529 -0.72656,-1.5625 -0.4,-0.24722 -0.72852,-0.92165 -0.72852,-1.5 0,-0.57836 -0.77643,-2.66328 -1.72656,-4.63282 -0.95014,-1.96941 -1.95519,-4.78996 -2.23242,-6.26757 -0.27723,-1.47775 -0.76699,-3.2184 -1.08985,-3.86915 -0.32286,-0.65063 -1.17797,-3.14687 -1.89844,-5.54687 -0.72034,-2.4 -1.57889,-4.67469 -1.9082,-5.05469 -0.32932,-0.38 -0.59765,-1.26859 -0.59765,-1.97461 0,-0.70602 -0.49131,-2.84969 -1.0918,-4.76367 -0.6005,-1.91398 -1.61648,-5.28047 -2.25586,-7.48047 -0.63937,-2.2 -1.41551,-4.50513 -1.72656,-5.12109 -0.31104,-0.61596 -0.80573,-2.90593 -1.09961,-5.08984 -0.29389,-2.18404 -0.7879,-4.29922 -1.09571,-4.69922 -0.30781,-0.4 -0.72045,-1.87149 -0.91796,-3.27149 -0.60556,-4.29233 -2.09047,-11.19444 -2.73829,-12.72851 -0.3378,-0.8 -0.9732,-4.0715 -1.4121,-7.27149 -1.62384,-11.83615 -2.04514,-14.58663 -2.50977,-16.36328 -0.82108,-3.13966 -1.93066,-14.45243 -2.63867,-26.91016 -0.3751,-6.59987 -1.01601,-15.1082 -1.42383,-18.9082 -0.93938,-8.75396 -0.93882,-21.37761 0.006,-31.24023 0.40334,-4.21843 1.04883,-12.90677 1.43359,-19.30664 0.38476,-6.4 0.9843,-14.08985 1.33203,-17.08985 1.33364,-11.50572 2.49372,-19.32792 3.07422,-20.72656 0.33204,-0.8 0.81132,-3.41836 1.06446,-5.81836 0.25313,-2.4 0.73433,-5.347 1.07031,-6.54687 1.30508,-4.66113 2.94154,-12.4393 2.93554,-13.95704 -0.003,-0.87626 0.29792,-1.7818 0.66993,-2.01171 0.37201,-0.22991 0.87936,-2.29433 1.12695,-4.58789 0.24758,-2.2937 0.76034,-4.73903 1.14062,-5.4336 0.38041,-0.69457 0.69141,-2.06504 0.69141,-3.04687 0,-0.98182 0.29763,-1.96931 0.66016,-2.19336 0.36253,-0.22406 0.88325,-2.04192 1.1582,-4.04102 0.27495,-1.99911 0.79763,-3.81892 1.16016,-4.04297 0.36252,-0.22406 0.6582,-1.07468 0.6582,-1.89062 0,-0.81594 0.46118,-2.51494 1.02344,-3.77539 0.56227,-1.26045 1.57289,-3.92774 2.24609,-5.92774 0.6732,-2 1.51603,-4.19442 1.87305,-4.87695 0.357,-0.68253 0.8605,-2.56417 1.11914,-4.18164 0.25864,-1.61747 0.7566,-2.94141 1.10547,-2.94141 0.34888,0 0.63281,-0.47997 0.63281,-1.0664 0,-0.58643 0.46462,-2.1415 1.03125,-3.45508 0.56663,-1.31357 1.54827,-3.58252 2.18164,-5.04297 0.63337,-1.46045 1.15039,-3.11428 1.15039,-3.67383 0,-0.55955 0.27544,-1.32703 0.61133,-1.70703 0.33589,-0.38 1.04303,-1.83633 1.57031,-3.23633 2.86412,-7.60458 18.35566,-40.33861 19.61914,-41.45508 0.22633,-0.2 0.80004,-1.18164 1.27539,-2.18164 1.56738,-3.29718 6.80762,-12.65554 7.66407,-13.6875 0.4622,-0.55691 1.18009,-1.63092 1.5957,-2.38672 1.77239,-3.22297 10.21999,-16.37031 11.08398,-17.25 0.51914,-0.52857 0.94532,-1.40136 0.94532,-1.93945 0,-0.5381 0.25787,-1.08737 0.57421,-1.2207 0.31635,-0.13333 1.61859,-1.80426 2.89454,-3.71289 1.27582,-1.90863 2.65833,-3.87191 3.07031,-4.36328 0.41197,-0.49137 1.72093,-2.03946 2.91015,-3.43946 1.18934,-1.4 2.16979,-2.9552 2.17579,-3.45507 0.006,-0.5 0.31641,-0.90821 0.68945,-0.90821 0.37305,0 0.87013,-0.57344 1.10547,-1.27344 0.23533,-0.69987 1.64901,-2.64976 3.14062,-4.33398 1.49162,-1.68423 3.85793,-4.58415 5.25781,-6.44336 1.4,-1.8592 3.52658,-4.46343 4.72657,-5.78711 1.2,-1.32368 3.48984,-3.93797 5.08984,-5.81055 12.01087,-14.05703 34.84813,-36.75103 46.18359,-45.89453 1.39998,-1.12927 3.26559,-2.79771 4.14649,-3.70898 0.8809,-0.91126 1.91703,-1.6582 2.30273,-1.6582 0.3858,0 0.80996,-0.25747 0.94336,-0.57227 0.1333,-0.31481 1.71563,-1.70478 3.51563,-3.08984 1.79999,-1.38519 3.43672,-2.69201 3.63672,-2.90235 0.2,-0.21034 1.83672,-1.51565 3.63672,-2.90234 1.79988,-1.38669 3.38037,-2.76929 3.51367,-3.07227 0.1333,-0.30297 0.54687,-0.55078 0.91797,-0.55078 0.3711,0 3.77727,-2.29192 7.56836,-5.09179 3.79108,-2.8 7.1953,-5.08985 7.5664,-5.08985 0.3711,0 0.78467,-0.26425 0.91797,-0.58594 0.1333,-0.3217 4.16887,-3.00446 8.96875,-5.96093 4.79999,-2.95661 8.8373,-5.63729 8.9707,-5.95899 0.1333,-0.32169 0.58832,-0.58594 1.01172,-0.58594 0.4234,0 2.87276,-1.32769 5.44336,-2.95117 6.66539,-4.20943 28.91285,-15.81109 37.66602,-19.64258 2,-0.87531 6.0337,-2.6962 8.96289,-4.04492 2.9292,-1.34873 5.62915,-2.45117 6.00195,-2.45117 0.3727,0 2.37438,-0.81836 4.44727,-1.81836 2.07278,-1 4.11777,-1.83015 4.54297,-1.84375 0.4251,-0.0136 2.08164,-0.65683 3.68164,-1.42969 1.59988,-0.77285 3.46228,-1.41608 4.13867,-1.42968 0.6763,-0.0136 1.43249,-0.35196 1.67969,-0.75196 0.2473,-0.4 1.18172,-0.72656 2.07812,-0.72656 0.8964,0 1.94031,-0.27354 2.32031,-0.60742 0.8323,-0.7313 5.65848,-2.44714 11.60157,-4.125 2.39988,-0.67757 5.01847,-1.49837 5.81835,-1.82422 0.8,-0.32585 2.92658,-0.96761 4.72657,-1.42578 1.8,-0.45817 4.41837,-1.16129 5.81836,-1.5625 1.4,-0.40122 4.01836,-1.05504 5.81836,-1.45313 1.79988,-0.39808 3.92656,-1.01383 4.72656,-1.36718 1.47989,-0.65364 6.0986,-1.77894 12,-2.92383 1.79999,-0.3492 5.72656,-1.14407 8.72656,-1.76758 3,-0.62351 7.74689,-1.46979 10.54688,-1.88086 2.79988,-0.41107 6.07148,-0.91602 7.27148,-1.12109 6.60237,-1.12831 11.80444,-1.78778 19.63672,-2.49024 4.79987,-0.43049 10.2,-1.11771 12,-1.52734 2.5995,-0.59157 14.46139,-1.01025 27.28711,-1.16016 z M 1189.498,625.71484 c 1.1402,1.81 2.1185,4.55953 3.0665,7.33008 h 1.5156 c -1.3336,-2.27457 -2.7658,-4.49601 -4.1074,-6.79883 -0.082,-0.0697 -0.3473,-0.39639 -0.4747,-0.53125 z m -514.64448,31.8711 c -0.0362,-0.0734 0.37503,0.8042 0.72265,1.54883 0.008,0.005 0.0231,0.0108 0.0312,0.0156 -0.34422,-0.71475 -0.71252,-1.48065 -0.7539,-1.56445 z m 20.67382,37.71484 c -0.0297,0.14102 -0.0845,0.3034 -0.11328,0.44336 0.0547,0.0707 0.10757,0.1329 0.16211,0.20313 -0.007,-0.21652 -0.0433,-0.42984 -0.0488,-0.64649 z m -84.96289,13.79102 c 0.0346,0.0512 0.2678,0.18748 0.52539,0.33008 0.0163,-0.0635 0.0359,-0.1251 0.0508,-0.18946 -0.41928,-0.15115 -0.6141,-0.19677 -0.57617,-0.14062 z" /></g><g
     inkscape:groupmode="layer"
     id="layer1"
     inkscape:label="text"
     style="display:inline"><path
       style="display:inline;fill:#000000;stroke-width:1"
       d="m 939.37721,808.84263 c -1.23873,-0.22447 -2.93825,-0.80511 -3.77673,-1.29023 l -1.52448,-0.88229 -0.11911,-100.97426 c -0.10743,-91.03793 -0.0463,-101.05385 0.61919,-101.78265 1.16683,-1.27751 4.41819,-1.84042 10.63028,-1.84042 6.44621,0 9.04108,0.56279 10.38178,2.25161 0.83701,1.05433 0.91212,1.97479 0.91212,11.17718 v 10.02822 l 4.83892,-4.45174 c 17.5388,-16.13552 31.16163,-22.05762 48.74322,-21.1895 14.6915,0.7254 24.511,4.54982 33.6383,13.10115 10.7729,10.09312 16.794,23.53566 20.0431,44.74782 0.3963,2.58781 0.606,8.87575 0.6008,18.00919 -0.011,14.69797 -0.428,19.25127 -2.6498,28.76792 -7.337,31.42826 -26.2116,48.64449 -55.173,50.32534 -15.91867,0.92387 -27.64091,-3.82581 -42.25206,-17.12 l -4.2488,-3.86584 -0.23606,36.03447 c -0.26404,40.30649 0.0291,37.23126 -3.66075,38.41504 -2.22165,0.71265 -13.76047,1.08361 -16.76692,0.53899 z m 71.31179,-77.63182 c 1.6319,-0.57906 3.9605,-1.60302 5.1748,-2.27547 3.1689,-1.75492 8.7482,-7.1802 11.3085,-10.99651 6.348,-9.46108 10.0553,-24.34747 10.0553,-40.37445 0,-27.7466 -7.7371,-46.36784 -21.9522,-52.83336 -4.2986,-1.95521 -7.4424,-2.57823 -13.0434,-2.58482 -12.87895,-0.0145 -24.73448,6.89457 -37.92729,22.10508 l -4.49983,5.18805 v 28.36998 28.36999 l 4.86935,5.36563 c 10.81303,11.91511 18.9139,17.72256 28.41297,20.36908 3.73916,1.04176 13.8191,0.63906 17.6018,-0.7032 z m -363.64358,23.31594 c -13.24715,-1.34237 -27.45708,-5.63155 -36.69938,-11.07749 -7.8079,-4.60072 -9.10413,-7.05552 -9.07352,-17.18329 0.0219,-7.22329 0.56723,-9.34389 2.77122,-10.77478 1.76882,-1.14839 3.71764,-0.61617 8.74918,2.38937 18.40248,10.99251 35.88897,15.63827 51.91389,13.79233 20.41406,-2.35156 32.596,-13.63596 33.86319,-31.3682 0.95516,-13.36627 -6.23244,-23.93237 -22.255,-32.71587 -2.33684,-1.28105 -10.14308,-5.05904 -17.34717,-8.39553 -24.0366,-11.13226 -33.81052,-17.51074 -41.50078,-27.08349 -7.61784,-9.48258 -10.62716,-17.68975 -11.11508,-30.31362 -0.28997,-7.50237 0.19146,-12.45998 1.75757,-18.09901 4.76325,-17.15093 18.20121,-29.6366 37.59803,-34.93363 9.14995,-2.49874 22.44999,-3.5028 31.60059,-2.38562 18.06955,2.20604 35.566,9.59897 37.35896,15.78561 1.47248,5.08071 1.02338,16.50083 -0.74141,18.85372 -1.67228,2.22956 -3.62778,1.8877 -10.37871,-1.81446 -15.9212,-8.73108 -24.35243,-11.10778 -37.85403,-10.67078 -8.32537,0.26946 -10.99756,0.85196 -16.99522,3.70473 -10.41015,4.95153 -16.19168,15.84327 -14.66751,27.63189 0.89348,6.91072 3.43804,12.01663 8.51597,17.08816 5.89588,5.88844 11.62833,9.34336 29.14658,17.56648 22.9166,10.75713 30.32717,14.94595 37.53304,21.21554 6.95998,6.05564 12.74061,14.45557 15.43166,22.42404 3.10877,9.20526 3.15604,24.00571 0.10954,34.30389 -4.42236,14.9493 -14.40247,26.77491 -28.74641,34.06218 -13.25717,6.73513 -31.70548,9.74781 -48.97523,7.99783 z m 157.91402,0.0225 c -9.59304,-1.16121 -17.06278,-4.15046 -24.14158,-9.66101 -8.00908,-6.23472 -14.02814,-17.02544 -16.45054,-29.49176 -1.73257,-8.91633 -1.89269,-14.22835 -1.89433,-62.84888 -10e-4,-46.38795 0.0201,-47.54275 0.91129,-48.34183 1.87075,-1.67751 4.26178,-2.09193 12.06955,-2.09193 7.77176,0 10.20065,0.41608 12.03596,2.0618 0.84414,0.75696 0.88724,2.68221 1.07729,48.10794 0.20534,49.07768 0.23724,49.89133 2.26477,57.74637 2.93167,11.35789 10.66906,19.59711 20.54946,21.88223 4.87514,1.12754 12.59179,0.75017 17.07025,-0.83479 7.95068,-2.81375 17.03721,-9.9352 26.59097,-20.84022 l 4.20725,-4.80231 v -50.20523 c 0,-49.03832 0.0212,-50.22425 0.91292,-51.02386 1.84877,-1.65781 4.28037,-2.09135 11.83349,-2.10986 7.96565,-0.0195 10.3839,0.40005 12.09859,2.09905 l 1.11993,1.10969 v 72.08875 c 0,46.70273 -0.16467,72.39361 -0.4676,72.95446 -1.41361,2.61719 -16.00058,3.5892 -20.87029,1.39073 -2.043,-0.92234 -2.2666,-2.15174 -2.2666,-12.46158 v -9.63186 l -5.54808,5.32699 c -10.99213,10.55407 -19.99278,15.91031 -31.40159,18.68692 -4.53476,1.10363 -14.29455,1.54463 -19.70111,0.89019 z m 350.76276,-0.0177 c -17.9483,-1.77994 -31.9256,-7.9717 -42.1599,-18.67633 -11.2204,-11.73618 -17.0108,-27.67505 -18.2348,-50.19256 -2.8644,-52.70736 23.5879,-85.92881 68.4202,-85.92881 25.5624,0 45.0271,10.8876 54.7231,30.60962 3.8304,7.79129 5.9564,15.36365 7.1,25.28902 0.6428,5.57938 0.6217,18.22916 -0.034,20.58193 -0.6527,2.3413 -3.3896,4.99251 -5.9334,5.74766 -1.4423,0.4282 -13.5738,0.56724 -49.4915,0.56724 h -47.5807 l 0.3058,6.43185 c 0.9746,20.49059 8.0842,33.37969 22.2635,40.36202 7.2199,3.5554 15.8401,4.95359 27.8508,4.51738 11.325,-0.41133 20.0181,-2.21519 31.1567,-6.46533 9.81,-3.74316 11.6697,-4.26692 13.1585,-3.70603 2.0221,0.76179 2.692,3.01106 2.7144,9.11318 0.021,5.85935 -0.5483,8.44856 -2.261,10.27877 -3.5734,3.81838 -19.7038,8.77327 -35.2855,10.83883 -6.6132,0.87666 -20.8469,1.21319 -26.712,0.63156 z m 44.0064,-96.09242 c -0.5211,-20.0184 -10.259,-33.53712 -27.0112,-37.49843 -4.9573,-1.17224 -15.4985,-1.15351 -20.0638,0.0357 -9.8138,2.55626 -18.2769,9.00948 -23.3286,17.7883 -3.5518,6.17247 -6.6491,16.89237 -6.6491,23.01292 v 2.04643 l 38.5933,-0.11964 38.5933,-0.11963 z m 73.1265,94.22543 c -1.9174,-0.23349 -4.1479,-0.8076 -4.9569,-1.27577 l -1.4711,-0.85121 v -73.15374 -73.15372 l 1.6524,-0.96175 c 1.394,-0.81137 2.6371,-0.98739 7.9493,-1.12561 7.7478,-0.20158 10.0502,0.11465 11.8678,1.63001 l 1.4101,1.17563 0.1266,11.07064 0.1266,11.07067 3.5319,-4.67334 c 4.2878,-5.67363 10.9615,-12.63461 15.1156,-15.76622 6.8941,-5.19738 13.921,-7.25154 23.1323,-6.76217 8.0285,0.42653 14.7806,2.50241 16.7287,5.14308 0.9066,1.2289 0.9746,1.96369 0.9746,10.52484 0,13.42688 -0.4096,13.91719 -9.3017,11.13244 -2.9333,-0.91855 -6.7974,-1.91299 -8.587,-2.20988 -12.285,-2.03794 -21.6494,4.73557 -36.0805,26.09779 l -2.9042,4.29917 -0.1249,47.54786 -0.1251,47.54788 -1.1068,0.88803 c -0.6089,0.48842 -1.8835,1.08603 -2.8326,1.32805 -2.6624,0.67886 -11.2464,0.94975 -15.1256,0.47732 z"
       id="path1-3" /></g></svg>
