<svg xmlns="http://www.w3.org/2000/svg" xmlns:xlink="http://www.w3.org/1999/xlink" width="500" zoomAndPan="magnify" viewBox="0 0 375 374.999991" height="500" preserveAspectRatio="xMidYMid meet" version="1.0"><defs><clipPath id="9be4d2ea0f"><path d="M 0 0 L 374.933594 0 L 374.933594 374.933594 L 0 374.933594 Z M 0 0 " clip-rule="nonzero"/></clipPath><clipPath id="5ba6352503"><path d="M 17.25 0 L 357.75 0 C 367.277344 0 375 7.722656 375 17.25 L 375 357.75 C 375 367.277344 367.277344 375 357.75 375 L 17.25 375 C 7.722656 375 0 367.277344 0 357.75 L 0 17.25 C 0 7.722656 7.722656 0 17.25 0 Z M 17.25 0 " clip-rule="nonzero"/></clipPath><clipPath id="540fad6013"><path d="M 36 58 L 338 58 L 338 318.382812 L 36 318.382812 Z M 36 58 " clip-rule="nonzero"/></clipPath></defs><g clip-path="url(#9be4d2ea0f)"><g clip-path="url(#5ba6352503)"><path stroke-linecap="butt" transform="matrix(1.383522, 0, 0, 1.383522, 0.0000045, -0)" fill="none" stroke-linejoin="miter" d="M 12.468179 0 L 258.579263 0 C 265.465563 0 271.047446 5.581883 271.047446 12.468183 L 271.047446 258.579267 C 271.047446 265.465566 265.465563 271.047449 258.579263 271.047449 L 12.468179 271.047449 C 5.58188 271.047449 -0.00000325257 265.465566 -0.00000325257 258.579267 L -0.00000325257 12.468183 C -0.00000325257 5.581883 5.58188 0 12.468179 0 Z M 12.468179 0 " stroke="#000000" stroke-width="11.926087" stroke-opacity="1" stroke-miterlimit="4"/></g></g><g clip-path="url(#540fad6013)"><path fill="#000000" d="M 246.253906 194.988281 C 236 194.988281 227.695312 186.660156 227.695312 176.390625 C 227.695312 166.121094 236 157.796875 246.253906 157.796875 C 256.5 157.796875 264.808594 166.121094 264.808594 176.390625 C 264.808594 186.660156 256.5 194.988281 246.253906 194.988281 Z M 184.394531 194.988281 C 174.144531 194.988281 165.835938 186.660156 165.835938 176.390625 C 165.835938 166.121094 174.144531 157.796875 184.394531 157.796875 C 194.644531 157.796875 202.949219 166.121094 202.949219 176.390625 C 202.949219 186.660156 194.644531 194.988281 184.394531 194.988281 Z M 122.535156 194.988281 C 112.285156 194.988281 103.976562 186.660156 103.976562 176.390625 C 103.976562 166.121094 112.285156 157.796875 122.535156 157.796875 C 132.785156 157.796875 141.09375 166.121094 141.09375 176.390625 C 141.09375 186.660156 132.785156 194.988281 122.535156 194.988281 Z M 189.253906 58.570312 C 106.058594 56.929688 37.574219 108.300781 36.296875 173.316406 C 35.851562 195.921875 43.597656 217.195312 57.375 235.402344 L 57.371094 235.402344 C 81.066406 265.910156 55.203125 318.355469 55.203125 318.355469 L 131.5625 285.398438 C 148.015625 290.609375 165.890625 293.644531 184.625 294.015625 C 267.820312 295.65625 336.304688 244.285156 337.582031 179.269531 C 338.863281 114.25 272.453125 60.214844 189.253906 58.570312 " fill-opacity="1" fill-rule="evenodd"/></g><path stroke-linecap="butt" transform="matrix(1.383522, 0.0000000000000013, -0.0000000000000013, 1.383522, 0.00000450003, 179.198837)" fill="none" stroke-linejoin="miter" d="M -0.00000325259 2.998738 L 60.477459 2.998738 " stroke="#000000" stroke-width="6" stroke-opacity="1" stroke-miterlimit="4"/><path stroke-linecap="butt" transform="matrix(1.383522, 0, 0, 1.383522, 291.328344, 183.34944)" fill="none" stroke-linejoin="miter" d="M -0.000158125 2.999997 L 60.477304 2.999997 " stroke="#000000" stroke-width="6" stroke-opacity="1" stroke-miterlimit="4"/></svg>