<svg xmlns="http://www.w3.org/2000/svg" xmlns:xlink="http://www.w3.org/1999/xlink" width="500" zoomAndPan="magnify" viewBox="0 0 375 374.999991" height="500" preserveAspectRatio="xMidYMid meet" version="1.0"><defs><clipPath id="f29a196ea5"><path d="M 17.25 0 L 357.75 0 C 367.277344 0 375 7.722656 375 17.25 L 375 357.75 C 375 367.277344 367.277344 375 357.75 375 L 17.25 375 C 7.722656 375 0 367.277344 0 357.75 L 0 17.25 C 0 7.722656 7.722656 0 17.25 0 Z M 17.25 0 " clip-rule="nonzero"/></clipPath><clipPath id="5b98f516a4"><path d="M 93 33.1875 L 281.984375 33.1875 L 281.984375 279 L 93 279 Z M 93 33.1875 " clip-rule="nonzero"/></clipPath></defs><g clip-path="url(#f29a196ea5)"><path stroke-linecap="butt" transform="matrix(0.75, 0, 0, 0.75, 0.0000045, 0)" fill="none" stroke-linejoin="miter" d="M 22.999996 0 L 477.000025 0 C 489.703151 0 500.000027 10.296876 500.000027 23.000002 L 500.000027 477.000031 C 500.000027 489.703157 489.703151 500.000033 477.000025 500.000033 L 22.999996 500.000033 C 10.29687 500.000033 -0.000006 489.703157 -0.000006 477.000031 L -0.000006 23.000002 C -0.000006 10.296876 10.29687 0 22.999996 0 Z M 22.999996 0 " stroke="#000000" stroke-width="22" stroke-opacity="1" stroke-miterlimit="4"/></g><g clip-path="url(#5b98f516a4)"><path fill="#000000" d="M 187.542969 43.210938 C 141.023438 43.210938 103.179688 81.058594 103.179688 127.574219 C 103.179688 147.371094 111.324219 165.277344 119.285156 180.1875 C 122.136719 185.515625 125.222656 190.800781 128.464844 195.898438 C 129.613281 197.691406 130.902344 199.507812 132.269531 201.429688 C 138.941406 210.796875 147.242188 222.457031 147.746094 245.011719 L 147.746094 253.683594 C 147.746094 261.792969 154.34375 268.390625 162.457031 268.390625 L 212.636719 268.390625 C 220.746094 268.390625 227.34375 261.792969 227.34375 253.683594 L 227.34375 243.957031 L 227.347656 243.785156 C 228.113281 222.042969 236.238281 210.625 242.773438 201.449219 C 244.144531 199.519531 245.4375 197.699219 246.59375 195.894531 C 254.699219 183.183594 260.351562 172.648438 264.382812 162.742188 C 267.175781 155.867188 269.144531 149.449219 270.398438 143.117188 C 271.402344 138.125 271.910156 132.898438 271.910156 127.574219 C 271.910156 81.058594 234.058594 43.210938 187.542969 43.210938 Z M 212.636719 278.460938 L 162.457031 278.460938 C 148.789062 278.460938 137.675781 267.351562 137.675781 253.683594 L 137.675781 245.125 C 137.242188 225.773438 130.546875 216.367188 124.070312 207.269531 C 122.625 205.242188 121.261719 203.324219 119.972656 201.3125 C 116.589844 195.996094 113.371094 190.488281 110.402344 184.9375 C 101.851562 168.925781 93.109375 149.589844 93.109375 127.574219 C 93.109375 75.5 135.476562 33.140625 187.542969 33.140625 C 239.613281 33.140625 281.976562 75.5 281.976562 127.574219 C 281.976562 133.5625 281.402344 139.453125 280.273438 145.082031 C 278.894531 152.039062 276.75 159.0625 273.710938 166.535156 C 269.445312 177.023438 263.523438 188.074219 255.082031 201.308594 C 253.792969 203.332031 252.425781 205.253906 250.976562 207.289062 C 244.640625 216.1875 238.085938 225.390625 237.414062 244.046875 L 237.414062 253.683594 C 237.414062 267.351562 226.300781 278.460938 212.636719 278.460938 " fill-opacity="1" fill-rule="nonzero"/></g><path fill="#000000" d="M 155.21875 328.976562 L 174.574219 338.3125 C 181.742188 341.769531 193.351562 341.769531 200.515625 338.3125 L 219.871094 328.976562 L 155.21875 328.976562 " fill-opacity="1" fill-rule="nonzero"/><path fill="#000000" d="M 223.816406 325.667969 C 223.816406 328.445312 221.566406 330.707031 218.773438 330.707031 L 156.3125 330.707031 C 153.527344 330.707031 151.273438 328.445312 151.273438 325.667969 C 151.273438 322.875 153.527344 320.621094 156.3125 320.621094 L 218.773438 320.621094 C 221.566406 320.621094 223.816406 322.875 223.816406 325.667969 " fill-opacity="1" fill-rule="nonzero"/><path fill="#000000" d="M 228.003906 311.148438 C 228.003906 313.9375 225.742188 316.195312 222.960938 316.195312 L 152.132812 316.195312 C 149.347656 316.195312 147.085938 313.9375 147.085938 311.148438 C 147.085938 308.363281 149.347656 306.105469 152.132812 306.105469 L 222.960938 306.105469 C 225.742188 306.105469 228.003906 308.363281 228.003906 311.148438 " fill-opacity="1" fill-rule="nonzero"/><path fill="#000000" d="M 228.003906 296.640625 C 228.003906 299.425781 225.742188 301.6875 222.960938 301.6875 L 152.132812 301.6875 C 149.347656 301.6875 147.085938 299.425781 147.085938 296.640625 C 147.085938 293.855469 149.347656 291.597656 152.132812 291.597656 L 222.960938 291.597656 C 225.742188 291.597656 228.003906 293.855469 228.003906 296.640625 " fill-opacity="1" fill-rule="nonzero"/><path fill="#000000" d="M 232.394531 282.132812 C 232.394531 284.914062 230.132812 287.171875 227.347656 287.171875 L 147.734375 287.171875 C 144.957031 287.171875 142.695312 284.914062 142.695312 282.132812 C 142.695312 279.351562 144.957031 277.089844 147.734375 277.089844 L 227.347656 277.089844 C 230.132812 277.089844 232.394531 279.351562 232.394531 282.132812 " fill-opacity="1" fill-rule="nonzero"/><path stroke-linecap="butt" transform="matrix(0.000000001309, 0.75, -0.75, 0.000000001309, 191.999025, 336.121735)" fill="none" stroke-linejoin="miter" d="M -0.000854648 5.9987 L 41.285606 5.9987 " stroke="#000000" stroke-width="12" stroke-opacity="1" stroke-miterlimit="4"/><path stroke-linecap="butt" transform="matrix(0.000000001309, 0.75, -0.75, 0.000000001309, 191.999025, 2.225596)" fill="none" stroke-linejoin="miter" d="M 0.00128926 5.9987 L 41.282542 5.9987 " stroke="#000000" stroke-width="12" stroke-opacity="1" stroke-miterlimit="4"/></svg>