<svg xmlns="http://www.w3.org/2000/svg" xmlns:xlink="http://www.w3.org/1999/xlink" width="500" zoomAndPan="magnify" viewBox="0 0 375 374.999991" height="500" preserveAspectRatio="xMidYMid meet" version="1.0"><defs><g/><clipPath id="3d11c6cce5"><path d="M 43.316406 0 L 331.316406 0 L 331.316406 288 L 43.316406 288 Z M 43.316406 0 " clip-rule="nonzero"/></clipPath><clipPath id="62412eed3f"><path d="M 60.566406 0 L 314.429688 0 C 323.957031 0 331.679688 7.722656 331.679688 17.25 L 331.679688 271.113281 C 331.679688 280.640625 323.957031 288.363281 314.429688 288.363281 L 60.566406 288.363281 C 51.039062 288.363281 43.316406 280.640625 43.316406 271.113281 L 43.316406 17.25 C 43.316406 7.722656 51.039062 0 60.566406 0 Z M 60.566406 0 " clip-rule="nonzero"/></clipPath><clipPath id="dc72294f1a"><path d="M 77 45 L 218 45 L 218 185.921875 L 77 185.921875 Z M 77 45 " clip-rule="nonzero"/></clipPath><clipPath id="225cfdc3ec"><path d="M 76.90625 46 L 218 46 L 218 187 L 76.90625 187 Z M 76.90625 46 " clip-rule="nonzero"/></clipPath><clipPath id="3957181dba"><path d="M 155 174 L 262.828125 174 L 262.828125 282 L 155 282 Z M 155 174 " clip-rule="nonzero"/></clipPath></defs><g clip-path="url(#3d11c6cce5)"><g clip-path="url(#62412eed3f)"><path stroke-linecap="butt" transform="matrix(0.75, 0, 0, 0.75, 43.315907, 0)" fill="none" stroke-linejoin="miter" d="M 23.000667 0 L 361.485064 0 C 374.18819 0 384.485066 10.296876 384.485066 23.000002 L 384.485066 361.484399 C 384.485066 374.187525 374.18819 384.4844 361.485064 384.4844 L 23.000667 384.4844 C 10.297541 384.4844 0.000665326 374.187525 0.000665326 361.484399 L 0.000665326 23.000002 C 0.000665326 10.296876 10.297541 0 23.000667 0 Z M 23.000667 0 " stroke="#000000" stroke-width="22" stroke-opacity="1" stroke-miterlimit="4"/></g></g><g fill="#000000" fill-opacity="1"><g transform="translate(49.810549, 345.774587)"><g><path d="M 4.40625 -35 L 26.796875 -35 L 26.796875 -28.703125 L 11 -28.703125 L 11 -20.703125 L 26.5 -20.703125 L 26.5 -14.40625 L 11 -14.40625 L 11 0 L 4.40625 0 Z M 4.40625 -35 "/></g></g></g><g fill="#000000" fill-opacity="1"><g transform="translate(80.405811, 345.774587)"><g><path d="M 27.15625 0 L 20.546875 0 L 20.546875 -10.5 C 20.546875 -11.300781 20.335938 -11.953125 19.921875 -12.453125 C 19.503906 -12.953125 18.8125 -13.203125 17.84375 -13.203125 L 10.25 -13.203125 L 10.25 0 L 3.65625 0 L 3.65625 -35 L 17.046875 -35 C 18.847656 -35 20.429688 -34.75 21.796875 -34.25 C 23.160156 -33.75 24.300781 -33.054688 25.21875 -32.171875 C 26.132812 -31.285156 26.832031 -30.257812 27.3125 -29.09375 C 27.800781 -27.925781 28.046875 -26.675781 28.046875 -25.34375 L 28.046875 -24.15625 C 28.046875 -22.71875 27.660156 -21.375 26.890625 -20.125 C 26.128906 -18.875 24.945312 -17.914062 23.34375 -17.25 L 23.34375 -16.34375 C 24.507812 -16.21875 25.4375 -15.769531 26.125 -15 C 26.8125 -14.226562 27.15625 -13.257812 27.15625 -12.09375 Z M 10.25 -19.5 L 16.546875 -19.5 C 18.148438 -19.5 19.367188 -19.875 20.203125 -20.625 C 21.035156 -21.375 21.453125 -22.429688 21.453125 -23.796875 L 21.453125 -24.40625 C 21.453125 -25.570312 21.035156 -26.578125 20.203125 -27.421875 C 19.367188 -28.273438 18.148438 -28.703125 16.546875 -28.703125 L 10.25 -28.703125 Z M 10.25 -19.5 "/></g></g></g><g fill="#000000" fill-opacity="1"><g transform="translate(111.001074, 345.774587)"><g><path d="M 4.09375 -35 L 26.203125 -35 L 26.203125 -28.703125 L 10.703125 -28.703125 L 10.703125 -20.703125 L 25.59375 -20.703125 L 25.59375 -14.40625 L 10.703125 -14.40625 L 10.703125 -6.296875 L 26.796875 -6.296875 L 26.796875 0 L 4.09375 0 Z M 4.09375 -35 "/></g></g></g><g fill="#000000" fill-opacity="1"><g transform="translate(141.596336, 345.774587)"><g><path d="M 4.09375 -35 L 26.203125 -35 L 26.203125 -28.703125 L 10.703125 -28.703125 L 10.703125 -20.703125 L 25.59375 -20.703125 L 25.59375 -14.40625 L 10.703125 -14.40625 L 10.703125 -6.296875 L 26.796875 -6.296875 L 26.796875 0 L 4.09375 0 Z M 4.09375 -35 "/></g></g></g><g fill="#000000" fill-opacity="1"><g transform="translate(172.191599, 345.774587)"><g><path d="M 4.09375 -35 L 10.703125 -35 L 10.703125 -6.296875 L 26.59375 -6.296875 L 26.59375 0 L 4.09375 0 Z M 4.09375 -35 "/></g></g></g><g fill="#000000" fill-opacity="1"><g transform="translate(202.786861, 345.774587)"><g><path d="M 21.25 -7.5 L 9.34375 -7.5 L 7.65625 0 L 0.75 0 L 9.09375 -35 L 21.5 -35 L 29.84375 0 L 22.953125 0 Z M 10.75 -13.796875 L 19.796875 -13.796875 L 15.75 -31.703125 L 14.84375 -31.703125 Z M 10.75 -13.796875 "/></g></g></g><g fill="#000000" fill-opacity="1"><g transform="translate(233.382124, 345.774587)"><g><path d="M 20.046875 -3.296875 L 20.953125 -3.296875 L 20.953125 -35 L 27.546875 -35 L 27.546875 0 L 14.65625 0 L 10.546875 -31.703125 L 9.65625 -31.703125 L 9.65625 0 L 3.046875 0 L 3.046875 -35 L 15.953125 -35 Z M 20.046875 -3.296875 "/></g></g></g><g fill="#000000" fill-opacity="1"><g transform="translate(263.977375, 345.774587)"><g><path d="M 15.40625 -5.296875 C 16.664062 -5.296875 17.703125 -5.488281 18.515625 -5.875 C 19.335938 -6.257812 19.972656 -6.773438 20.421875 -7.421875 C 20.867188 -8.078125 21.175781 -8.828125 21.34375 -9.671875 C 21.507812 -10.523438 21.59375 -11.398438 21.59375 -12.296875 L 21.59375 -13.203125 L 28.203125 -13.203125 L 28.203125 -12.296875 C 28.203125 -8.128906 27.109375 -4.921875 24.921875 -2.671875 C 22.742188 -0.421875 19.570312 0.703125 15.40625 0.703125 C 11.40625 0.703125 8.238281 -0.507812 5.90625 -2.9375 C 3.570312 -5.375 2.40625 -8.925781 2.40625 -13.59375 L 2.40625 -21.40625 C 2.40625 -23.632812 2.703125 -25.640625 3.296875 -27.421875 C 3.898438 -29.203125 4.765625 -30.703125 5.890625 -31.921875 C 7.023438 -33.140625 8.394531 -34.070312 10 -34.71875 C 11.601562 -35.375 13.40625 -35.703125 15.40625 -35.703125 C 17.46875 -35.703125 19.296875 -35.398438 20.890625 -34.796875 C 22.492188 -34.203125 23.835938 -33.335938 24.921875 -32.203125 C 26.003906 -31.066406 26.820312 -29.695312 27.375 -28.09375 C 27.925781 -26.5 28.203125 -24.703125 28.203125 -22.703125 L 28.203125 -21.796875 L 21.59375 -21.796875 L 21.59375 -22.703125 C 21.59375 -23.535156 21.492188 -24.367188 21.296875 -25.203125 C 21.097656 -26.035156 20.765625 -26.785156 20.296875 -27.453125 C 19.828125 -28.117188 19.191406 -28.660156 18.390625 -29.078125 C 17.597656 -29.492188 16.601562 -29.703125 15.40625 -29.703125 C 14.300781 -29.703125 13.347656 -29.492188 12.546875 -29.078125 C 11.742188 -28.660156 11.078125 -28.09375 10.546875 -27.375 C 10.015625 -26.65625 9.625 -25.820312 9.375 -24.875 C 9.125 -23.925781 9 -22.9375 9 -21.90625 L 9 -13.09375 C 9 -11.96875 9.113281 -10.925781 9.34375 -9.96875 C 9.582031 -9.019531 9.953125 -8.195312 10.453125 -7.5 C 10.953125 -6.800781 11.609375 -6.257812 12.421875 -5.875 C 13.242188 -5.488281 14.238281 -5.296875 15.40625 -5.296875 Z M 15.40625 -5.296875 "/></g></g></g><g fill="#000000" fill-opacity="1"><g transform="translate(294.572649, 345.774587)"><g><path d="M 4.09375 -35 L 26.203125 -35 L 26.203125 -28.703125 L 10.703125 -28.703125 L 10.703125 -20.703125 L 25.59375 -20.703125 L 25.59375 -14.40625 L 10.703125 -14.40625 L 10.703125 -6.296875 L 26.796875 -6.296875 L 26.796875 0 L 4.09375 0 Z M 4.09375 -35 "/></g></g></g><g clip-path="url(#dc72294f1a)"><path fill="#000000" d="M 213.539062 99.308594 L 202.382812 99.308594 C 201.160156 94.792969 199.371094 90.414062 197.015625 86.367188 L 204.925781 78.363281 C 206.523438 76.765625 206.523438 74.128906 204.925781 72.527344 L 190.664062 58.269531 C 189.0625 56.667969 186.425781 56.667969 184.828125 58.269531 L 176.871094 66.222656 C 172.824219 63.867188 168.449219 62.082031 163.929688 60.855469 L 163.929688 49.703125 C 163.929688 47.394531 162.09375 45.558594 159.789062 45.558594 L 134.984375 45.558594 C 132.675781 45.558594 130.84375 47.394531 130.84375 49.703125 L 130.84375 60.855469 C 126.324219 62.082031 121.945312 63.867188 117.898438 66.222656 L 109.898438 58.503906 C 109.144531 57.75 108.109375 57.328125 106.980469 57.328125 C 105.898438 57.328125 104.8125 57.75 104.0625 58.503906 L 89.800781 72.765625 C 88.199219 74.363281 88.199219 77 89.800781 78.601562 L 97.707031 86.320312 C 95.355469 90.367188 93.566406 94.746094 92.34375 99.261719 L 81.140625 99.261719 C 78.832031 99.261719 77 101.097656 77 103.40625 L 77 128.207031 C 77 130.515625 78.832031 132.351562 81.140625 132.351562 L 92.292969 132.351562 C 93.519531 136.867188 95.308594 141.246094 97.660156 145.292969 L 89.753906 153.246094 C 88.152344 154.847656 88.152344 157.484375 89.753906 159.082031 L 104.25 173.34375 C 105.851562 174.945312 108.484375 174.945312 110.085938 173.34375 L 117.804688 165.4375 C 121.851562 167.789062 126.230469 169.578125 130.746094 170.804688 L 130.746094 181.957031 C 130.746094 184.265625 132.582031 186.101562 134.890625 186.101562 L 159.695312 186.101562 C 162 186.101562 163.835938 184.265625 163.835938 181.957031 L 163.835938 170.804688 C 168.355469 169.578125 172.730469 167.789062 176.777344 165.4375 L 184.78125 173.34375 C 185.53125 174.097656 186.570312 174.519531 187.699219 174.519531 C 188.78125 174.519531 189.863281 174.097656 190.617188 173.34375 L 204.878906 159.082031 C 206.476562 157.484375 206.476562 154.847656 204.878906 153.246094 L 196.921875 145.292969 C 199.277344 141.246094 201.066406 136.867188 202.289062 132.351562 L 213.441406 132.351562 C 215.75 132.351562 217.585938 130.515625 217.585938 128.207031 L 217.585938 103.40625 C 217.632812 101.144531 215.796875 99.308594 213.539062 99.308594 Z M 209.394531 124.160156 L 199.039062 124.160156 C 197.0625 124.113281 195.324219 125.527344 194.898438 127.457031 C 193.722656 133.246094 191.464844 138.796875 188.167969 143.691406 C 187.085938 145.339844 187.320312 147.503906 188.6875 148.917969 L 195.980469 156.261719 L 187.699219 164.542969 L 180.402344 157.199219 C 178.992188 155.789062 176.777344 155.554688 175.132812 156.683594 C 170.1875 159.976562 164.683594 162.285156 158.894531 163.460938 C 156.917969 163.835938 155.550781 165.578125 155.597656 167.601562 L 155.597656 177.910156 L 139.03125 177.910156 L 138.984375 167.601562 C 139.03125 165.625 137.621094 163.882812 135.691406 163.460938 C 129.902344 162.238281 124.347656 159.976562 119.453125 156.683594 C 117.804688 155.601562 115.640625 155.835938 114.226562 157.199219 L 106.839844 164.449219 L 98.554688 156.164062 L 105.945312 148.917969 C 107.355469 147.503906 107.589844 145.292969 106.460938 143.644531 C 103.167969 138.703125 100.90625 133.199219 99.730469 127.40625 C 99.355469 125.429688 97.613281 124.066406 95.589844 124.113281 L 85.234375 124.113281 L 85.234375 107.546875 L 95.496094 107.546875 C 97.472656 107.59375 99.214844 106.179688 99.636719 104.25 C 100.8125 98.414062 103.167969 92.910156 106.460938 87.964844 C 107.542969 86.320312 107.308594 84.15625 105.945312 82.742188 L 98.695312 75.445312 L 106.980469 67.164062 L 114.273438 74.503906 C 115.6875 75.917969 117.898438 76.152344 119.546875 75.023438 C 124.488281 71.730469 129.996094 69.421875 135.785156 68.246094 C 137.761719 67.871094 139.125 66.128906 139.078125 64.105469 L 139.078125 53.796875 L 155.644531 53.796875 L 155.644531 64.105469 C 155.597656 66.082031 157.011719 67.824219 158.941406 68.246094 C 164.730469 69.46875 170.285156 71.730469 175.179688 75.023438 C 176.824219 76.105469 178.992188 75.871094 180.402344 74.503906 L 187.746094 67.210938 L 196.027344 75.496094 L 188.6875 82.789062 C 187.273438 84.203125 187.039062 86.414062 188.167969 88.0625 C 191.464844 93.003906 193.722656 98.507812 194.898438 104.296875 C 195.277344 106.277344 197.015625 107.640625 199.039062 107.59375 L 209.394531 107.59375 Z M 209.394531 124.160156 " fill-opacity="1" fill-rule="nonzero"/></g><path fill="#000000" d="M 147.316406 80.34375 C 127.734375 80.34375 111.828125 96.25 111.828125 115.828125 C 111.828125 135.410156 127.734375 151.316406 147.316406 151.316406 C 166.894531 151.316406 182.804688 135.410156 182.804688 115.828125 C 182.804688 96.25 166.941406 80.34375 147.316406 80.34375 Z M 147.316406 143.082031 C 132.300781 143.082031 120.109375 130.890625 120.109375 115.878906 C 120.109375 100.863281 132.300781 88.671875 147.316406 88.671875 C 162.328125 88.671875 174.519531 100.863281 174.519531 115.878906 C 174.566406 130.890625 162.375 143.082031 147.316406 143.082031 Z M 147.316406 143.082031 " fill-opacity="1" fill-rule="nonzero"/><path fill="#000000" d="M 259.003906 26.167969 C 243.753906 26.167969 231.375 38.546875 231.375 53.796875 C 231.375 69.046875 243.753906 81.425781 259.003906 81.425781 C 274.253906 81.425781 286.632812 69.046875 286.632812 53.796875 C 286.632812 38.546875 274.300781 26.167969 259.003906 26.167969 Z M 259.003906 73.140625 C 248.320312 73.140625 239.660156 64.480469 239.660156 53.796875 C 239.660156 43.113281 248.320312 34.453125 259.003906 34.453125 C 269.6875 34.453125 278.347656 43.113281 278.347656 53.796875 C 278.394531 64.480469 269.734375 73.140625 259.003906 73.140625 Z M 259.003906 73.140625 " fill-opacity="1" fill-rule="nonzero"/><path fill="#000000" d="M 308.65625 41.371094 L 300.75 41.371094 C 299.855469 38.3125 298.632812 35.347656 297.125 32.523438 L 302.679688 26.921875 C 304.28125 25.320312 304.28125 22.6875 302.679688 21.085938 L 291.714844 10.121094 C 290.113281 8.519531 287.476562 8.519531 285.878906 10.121094 L 280.277344 15.671875 C 277.453125 14.121094 274.488281 12.894531 271.429688 12 L 271.429688 4.140625 C 271.429688 1.835938 269.59375 0 267.285156 0 L 250.71875 0 C 248.414062 0 246.578125 1.835938 246.578125 4.140625 L 246.578125 12 C 243.519531 12.894531 240.554688 14.167969 237.730469 15.671875 L 232.128906 10.121094 C 230.527344 8.519531 227.890625 8.519531 226.292969 10.121094 L 215.371094 21.132812 C 213.773438 22.734375 213.773438 25.367188 215.371094 26.96875 L 220.925781 32.570312 C 219.375 35.394531 218.148438 38.359375 217.300781 41.417969 L 209.394531 41.417969 C 207.089844 41.417969 205.253906 43.253906 205.253906 45.558594 L 205.253906 62.128906 C 205.253906 64.433594 207.089844 66.269531 209.394531 66.269531 L 217.300781 66.269531 C 218.195312 69.328125 219.421875 72.292969 220.925781 75.117188 L 215.371094 80.625 C 213.773438 82.226562 213.773438 84.859375 215.371094 86.460938 L 226.339844 97.425781 C 227.941406 99.027344 230.574219 99.027344 232.175781 97.425781 L 237.777344 91.875 C 240.601562 93.425781 243.566406 94.648438 246.625 95.542969 L 246.625 103.40625 C 246.625 105.710938 248.460938 107.546875 250.765625 107.546875 L 267.335938 107.546875 C 269.640625 107.546875 271.476562 105.710938 271.476562 103.40625 L 271.476562 95.542969 C 274.535156 94.648438 277.5 93.378906 280.324219 91.875 L 285.925781 97.425781 C 287.527344 99.027344 290.160156 99.027344 291.761719 97.425781 L 302.726562 86.460938 C 304.328125 84.859375 304.328125 82.226562 302.726562 80.625 L 297.175781 75.023438 C 298.726562 72.199219 299.949219 69.234375 300.796875 66.175781 L 308.707031 66.175781 C 311.011719 66.175781 312.847656 64.339844 312.847656 62.035156 L 312.847656 45.464844 C 312.800781 43.253906 310.964844 41.371094 308.65625 41.371094 Z M 304.515625 57.9375 L 297.597656 57.9375 C 295.621094 57.890625 293.878906 59.304688 293.457031 61.234375 C 292.609375 65.5625 290.867188 69.703125 288.417969 73.375 C 287.335938 75.023438 287.574219 77.1875 288.9375 78.601562 L 293.878906 83.496094 L 288.796875 88.578125 L 283.855469 83.636719 C 282.488281 82.226562 280.277344 82.035156 278.628906 83.117188 C 274.957031 85.566406 270.816406 87.308594 266.488281 88.15625 C 264.511719 88.53125 263.144531 90.273438 263.191406 92.296875 L 263.191406 99.308594 L 254.910156 99.308594 L 254.910156 92.390625 C 254.957031 90.414062 253.542969 88.671875 251.613281 88.25 C 247.285156 87.402344 243.140625 85.660156 239.472656 83.214844 C 237.824219 82.128906 235.660156 82.367188 234.246094 83.730469 L 229.304688 88.671875 L 224.222656 83.589844 L 229.164062 78.648438 C 230.574219 77.28125 230.859375 75.117188 229.773438 73.421875 C 227.328125 69.753906 225.585938 65.609375 224.738281 61.28125 C 224.363281 59.304688 222.621094 57.9375 220.597656 57.984375 L 213.585938 57.984375 L 213.585938 49.703125 L 220.503906 49.703125 C 222.480469 49.75 224.222656 48.335938 224.644531 46.40625 C 225.492188 42.078125 227.234375 37.933594 229.679688 34.265625 C 230.761719 32.617188 230.527344 30.453125 229.164062 29.039062 L 224.222656 24.097656 L 229.304688 19.015625 L 234.246094 23.957031 C 235.613281 25.367188 237.777344 25.652344 239.472656 24.570312 C 243.140625 22.121094 247.285156 20.378906 251.613281 19.53125 C 253.589844 19.15625 254.957031 17.414062 254.910156 15.390625 L 254.910156 8.285156 L 263.191406 8.285156 L 263.191406 15.203125 C 263.144531 17.179688 264.558594 18.921875 266.488281 19.34375 C 270.816406 20.191406 274.957031 21.933594 278.628906 24.378906 C 280.277344 25.460938 282.441406 25.226562 283.855469 23.863281 L 288.796875 18.921875 L 293.878906 24.003906 L 288.9375 28.945312 C 287.527344 30.3125 287.242188 32.476562 288.324219 34.171875 C 290.773438 37.839844 292.515625 41.984375 293.363281 46.3125 C 293.738281 48.289062 295.480469 49.65625 297.503906 49.609375 L 304.515625 49.609375 Z M 304.515625 57.9375 " fill-opacity="1" fill-rule="nonzero"/><g clip-path="url(#225cfdc3ec)"><path fill="#000000" d="M 163.519531 182.554688 L 163.519531 171.398438 C 168.039062 170.175781 172.414062 168.386719 176.460938 166.035156 L 184.464844 173.941406 C 186.0625 175.542969 188.699219 175.542969 190.300781 173.941406 L 204.5625 159.679688 C 206.160156 158.082031 206.160156 155.445312 204.5625 153.84375 L 196.605469 145.890625 C 198.960938 141.84375 200.75 137.464844 201.972656 132.945312 L 213.128906 132.945312 C 215.433594 132.945312 217.269531 131.113281 217.269531 128.804688 L 217.269531 104 C 217.269531 101.695312 215.433594 99.859375 213.128906 99.859375 L 201.972656 99.859375 C 200.75 95.339844 198.960938 90.964844 196.605469 86.917969 L 204.324219 78.914062 C 205.078125 78.160156 205.503906 77.125 205.503906 75.996094 C 205.503906 74.914062 205.078125 73.832031 204.324219 73.078125 L 190.066406 58.816406 C 188.464844 57.21875 185.828125 57.21875 184.226562 58.816406 L 176.507812 66.726562 C 172.460938 64.371094 168.085938 62.582031 163.566406 61.359375 L 163.566406 50.15625 C 163.566406 47.851562 161.730469 46.015625 159.425781 46.015625 L 134.621094 46.015625 C 132.3125 46.015625 130.480469 47.851562 130.480469 50.15625 L 130.480469 61.3125 C 125.960938 62.535156 121.582031 64.324219 117.535156 66.675781 L 109.582031 58.769531 C 107.980469 57.171875 105.34375 57.171875 103.746094 58.769531 L 89.484375 73.265625 C 87.882812 74.867188 87.882812 77.503906 89.484375 79.101562 L 97.390625 86.820312 C 95.039062 90.871094 93.25 95.246094 92.027344 99.765625 L 80.871094 99.765625 C 78.566406 99.765625 76.730469 101.601562 76.730469 103.90625 L 76.730469 128.710938 C 76.730469 131.015625 78.566406 132.851562 80.871094 132.851562 L 92.027344 132.851562 C 93.25 137.371094 95.039062 141.75 97.390625 145.796875 L 89.484375 153.796875 C 88.730469 154.550781 88.308594 155.585938 88.308594 156.714844 C 88.308594 157.796875 88.730469 158.878906 89.484375 159.632812 L 103.746094 173.894531 C 105.34375 175.496094 107.980469 175.496094 109.582031 173.894531 L 117.535156 165.941406 C 121.582031 168.292969 125.960938 170.082031 130.480469 171.304688 L 130.480469 182.460938 C 130.480469 184.765625 132.3125 186.601562 134.621094 186.601562 L 159.425781 186.601562 C 161.683594 186.648438 163.519531 184.8125 163.519531 182.554688 Z M 138.667969 178.414062 L 138.667969 168.058594 C 138.714844 166.082031 137.304688 164.339844 135.375 163.917969 C 129.585938 162.738281 124.03125 160.480469 119.136719 157.1875 C 117.488281 156.101562 115.324219 156.339844 113.910156 157.703125 L 106.570312 165 L 98.285156 156.714844 L 105.628906 149.421875 C 107.039062 148.007812 107.273438 145.796875 106.144531 144.148438 C 102.851562 139.207031 100.542969 133.699219 99.367188 127.910156 C 98.992188 125.933594 97.25 124.570312 95.226562 124.617188 L 84.917969 124.617188 L 84.917969 108.050781 L 95.226562 108 C 97.203125 108.050781 98.945312 106.636719 99.367188 104.707031 C 100.59375 98.917969 102.851562 93.363281 106.144531 88.46875 C 107.226562 86.820312 106.992188 84.65625 105.628906 83.246094 L 98.378906 75.855469 L 106.664062 67.570312 L 113.910156 74.960938 C 115.324219 76.375 117.535156 76.609375 119.183594 75.480469 C 124.125 72.183594 129.632812 69.925781 135.421875 68.75 C 137.398438 68.371094 138.761719 66.628906 138.714844 64.605469 L 138.714844 54.253906 L 155.28125 54.253906 L 155.28125 64.511719 C 155.234375 66.488281 156.648438 68.230469 158.578125 68.65625 C 164.414062 69.832031 169.921875 72.183594 174.863281 75.480469 C 176.507812 76.5625 178.675781 76.328125 180.085938 74.960938 L 187.382812 67.714844 L 195.664062 75.996094 L 188.324219 83.292969 C 186.910156 84.703125 186.675781 86.917969 187.804688 88.5625 C 191.101562 93.503906 193.40625 99.011719 194.582031 104.800781 C 194.960938 106.777344 196.699219 108.144531 198.726562 108.097656 L 209.03125 108.097656 L 209.03125 124.664062 L 198.726562 124.664062 C 196.75 124.617188 195.007812 126.027344 194.582031 127.957031 C 193.359375 133.746094 191.101562 139.300781 187.804688 144.195312 C 186.722656 145.84375 186.957031 148.007812 188.324219 149.421875 L 195.617188 156.761719 L 187.335938 165.046875 L 180.039062 157.703125 C 178.628906 156.292969 176.414062 156.054688 174.769531 157.1875 C 169.828125 160.480469 164.320312 162.738281 158.53125 163.917969 C 156.554688 164.292969 155.1875 166.035156 155.234375 168.058594 L 155.234375 178.414062 Z M 138.667969 178.414062 " fill-opacity="1" fill-rule="nonzero"/></g><path fill="#000000" d="M 182.488281 116.332031 C 182.488281 96.753906 166.578125 80.84375 147 80.84375 C 127.417969 80.84375 111.511719 96.753906 111.511719 116.332031 C 111.511719 135.910156 127.417969 151.820312 147 151.820312 C 166.578125 151.820312 182.488281 135.960938 182.488281 116.332031 Z M 119.746094 116.332031 C 119.746094 101.320312 131.9375 89.128906 146.953125 89.128906 C 161.964844 89.128906 174.15625 101.320312 174.15625 116.332031 C 174.15625 131.347656 161.964844 143.535156 146.953125 143.535156 C 131.9375 143.582031 119.746094 131.394531 119.746094 116.332031 Z M 119.746094 116.332031 " fill-opacity="1" fill-rule="nonzero"/><path fill="#000000" d="M 236.660156 228.019531 C 236.660156 212.769531 224.28125 200.394531 209.03125 200.394531 C 193.78125 200.394531 181.40625 212.769531 181.40625 228.019531 C 181.40625 243.269531 193.78125 255.648438 209.03125 255.648438 C 224.28125 255.648438 236.660156 243.316406 236.660156 228.019531 Z M 189.6875 228.019531 C 189.6875 217.335938 198.347656 208.675781 209.03125 208.675781 C 219.714844 208.675781 228.375 217.335938 228.375 228.019531 C 228.375 238.703125 219.714844 247.363281 209.03125 247.363281 C 198.347656 247.410156 189.6875 238.75 189.6875 228.019531 Z M 189.6875 228.019531 " fill-opacity="1" fill-rule="nonzero"/><g clip-path="url(#3957181dba)"><path fill="#000000" d="M 221.457031 277.675781 L 221.457031 269.769531 C 224.515625 268.875 227.480469 267.652344 230.304688 266.144531 L 235.90625 271.699219 C 237.507812 273.296875 240.144531 273.296875 241.742188 271.699219 L 252.710938 260.730469 C 254.308594 259.132812 254.308594 256.496094 252.710938 254.894531 L 247.15625 249.292969 C 248.710938 246.46875 249.933594 243.503906 250.828125 240.445312 L 258.6875 240.445312 C 260.992188 240.445312 262.828125 238.609375 262.828125 236.304688 L 262.828125 219.738281 C 262.828125 217.429688 260.992188 215.59375 258.6875 215.59375 L 250.828125 215.59375 C 249.933594 212.535156 248.660156 209.570312 247.15625 206.746094 L 252.710938 201.144531 C 254.308594 199.546875 254.308594 196.910156 252.710938 195.308594 L 241.695312 184.390625 C 240.097656 182.789062 237.460938 182.789062 235.859375 184.390625 L 230.257812 189.945312 C 227.433594 188.390625 224.46875 187.167969 221.410156 186.320312 L 221.410156 178.414062 C 221.410156 176.105469 219.574219 174.269531 217.269531 174.269531 L 200.703125 174.269531 C 198.394531 174.269531 196.558594 176.105469 196.558594 178.414062 L 196.558594 186.320312 C 193.5 187.214844 190.535156 188.4375 187.710938 189.945312 L 182.203125 184.390625 C 180.605469 182.789062 177.96875 182.789062 176.367188 184.390625 L 165.402344 195.355469 C 163.800781 196.957031 163.800781 199.59375 165.402344 201.191406 L 170.957031 206.792969 C 169.402344 209.617188 168.179688 212.582031 167.285156 215.640625 L 159.425781 215.640625 C 157.117188 215.640625 155.28125 217.476562 155.28125 219.785156 L 155.28125 236.351562 C 155.28125 238.65625 157.117188 240.492188 159.425781 240.492188 L 167.285156 240.492188 C 168.179688 243.550781 169.449219 246.519531 170.957031 249.339844 L 165.402344 254.941406 C 163.800781 256.542969 163.800781 259.179688 165.402344 260.777344 L 176.367188 271.746094 C 177.96875 273.34375 180.605469 273.34375 182.203125 271.746094 L 187.804688 266.191406 C 190.628906 267.746094 193.59375 268.96875 196.652344 269.816406 L 196.652344 277.722656 C 196.652344 280.027344 198.488281 281.863281 200.796875 281.863281 L 217.363281 281.863281 C 219.574219 281.816406 221.457031 279.980469 221.457031 277.675781 Z M 204.890625 273.535156 L 204.890625 266.613281 C 204.9375 264.636719 203.527344 262.898438 201.597656 262.472656 C 197.265625 261.625 193.125 259.882812 189.453125 257.4375 C 187.804688 256.355469 185.640625 256.589844 184.226562 257.953125 L 179.332031 262.898438 L 174.25 257.8125 L 179.191406 252.871094 C 180.605469 251.507812 180.792969 249.292969 179.710938 247.648438 C 177.261719 243.976562 175.519531 239.835938 174.675781 235.503906 C 174.296875 233.527344 172.554688 232.164062 170.53125 232.210938 L 163.519531 232.210938 L 163.519531 223.925781 L 170.4375 223.925781 C 172.414062 223.972656 174.15625 222.5625 174.578125 220.632812 C 175.425781 216.300781 177.167969 212.160156 179.617188 208.488281 C 180.699219 206.839844 180.464844 204.675781 179.097656 203.265625 L 174.15625 198.320312 L 179.238281 193.238281 L 184.179688 198.179688 C 185.546875 199.59375 187.710938 199.875 189.40625 198.792969 C 193.078125 196.34375 197.21875 194.605469 201.546875 193.757812 C 203.527344 193.378906 204.890625 191.636719 204.84375 189.613281 L 204.84375 182.601562 L 213.128906 182.601562 L 213.128906 189.519531 C 213.078125 191.496094 214.492188 193.238281 216.421875 193.664062 C 220.75 194.507812 224.894531 196.25 228.566406 198.699219 C 230.210938 199.78125 232.378906 199.546875 233.789062 198.179688 L 238.730469 193.238281 L 243.8125 198.320312 L 238.871094 203.265625 C 237.460938 204.628906 237.179688 206.792969 238.261719 208.488281 C 240.707031 212.160156 242.449219 216.300781 243.296875 220.632812 C 243.671875 222.609375 245.414062 223.972656 247.4375 223.925781 L 254.546875 223.925781 L 254.546875 232.210938 L 247.625 232.210938 C 245.648438 232.164062 243.910156 233.574219 243.484375 235.503906 C 242.636719 239.835938 240.894531 243.976562 238.449219 247.648438 C 237.367188 249.292969 237.601562 251.460938 238.964844 252.871094 L 243.910156 257.8125 L 238.824219 262.898438 L 233.882812 257.953125 C 232.519531 256.542969 230.351562 256.261719 228.660156 257.34375 C 224.988281 259.789062 220.847656 261.53125 216.515625 262.378906 C 214.539062 262.753906 213.175781 264.496094 213.222656 266.519531 L 213.222656 273.535156 Z M 204.890625 273.535156 " fill-opacity="1" fill-rule="nonzero"/></g></svg>