<svg xmlns="http://www.w3.org/2000/svg" xmlns:xlink="http://www.w3.org/1999/xlink" width="500" zoomAndPan="magnify" viewBox="0 0 375 374.999991" height="500" preserveAspectRatio="xMidYMid meet" version="1.0"><defs><clipPath id="700fa73f63"><path d="M 0 0 L 372.683594 0 L 372.683594 372.683594 L 0 372.683594 Z M 0 0 " clip-rule="nonzero"/></clipPath><clipPath id="265a266352"><path d="M 17.25 0 L 355.5 0 C 365.027344 0 372.75 7.722656 372.75 17.25 L 372.75 355.5 C 372.75 365.027344 365.027344 372.75 355.5 372.75 L 17.25 372.75 C 7.722656 372.75 0 365.027344 0 355.5 L 0 17.25 C 0 7.722656 7.722656 0 17.25 0 Z M 17.25 0 " clip-rule="nonzero"/></clipPath><clipPath id="2a14aa0dbc"><path d="M 48.851562 54.105469 L 323.898438 54.105469 L 323.898438 326 L 48.851562 326 Z M 48.851562 54.105469 " clip-rule="nonzero"/></clipPath></defs><g clip-path="url(#700fa73f63)"><g clip-path="url(#265a266352)"><path stroke-linecap="butt" transform="matrix(1.375221, 0, 0, 1.375221, 0.00000450682, 0)" fill="none" stroke-linejoin="miter" d="M 12.54344 0 L 258.503996 0 C 265.431863 0 271.047439 5.615577 271.047439 12.543443 L 271.047439 258.504 C 271.047439 265.431866 265.431863 271.047443 258.503996 271.047443 L 12.54344 271.047443 C 5.615573 271.047443 -0.00000327716 265.431866 -0.00000327716 258.504 L -0.00000327716 12.543443 C -0.00000327716 5.615577 5.615573 0 12.54344 0 Z M 12.54344 0 " stroke="#000000" stroke-width="11.998075" stroke-opacity="1" stroke-miterlimit="4"/></g></g><g clip-path="url(#2a14aa0dbc)"><path fill="#000000" d="M 269.148438 275.511719 C 268.589844 274.148438 268.273438 272.652344 268.273438 271.089844 C 268.273438 269.523438 268.589844 268.027344 269.148438 266.664062 C 269.730469 265.300781 270.558594 264.050781 271.585938 263.023438 L 271.65625 262.933594 C 272.238281 262.351562 272.910156 261.792969 273.625 261.371094 C 274.003906 261.125 274.40625 260.898438 274.855469 260.699219 L 274.855469 242.332031 L 255.808594 242.332031 C 255.226562 246.355469 253.300781 249.972656 250.523438 252.765625 C 247.054688 256.230469 242.242188 258.375 236.9375 258.375 L 225.457031 258.375 L 225.457031 308.46875 L 259.144531 308.46875 C 259.320312 308.175781 259.5 307.886719 259.703125 307.597656 C 260.105469 307.015625 260.554688 306.480469 261.046875 305.988281 C 262.097656 304.9375 263.371094 304.066406 264.804688 303.484375 C 266.171875 302.925781 267.671875 302.613281 269.238281 302.613281 C 270.78125 302.613281 272.304688 302.925781 273.667969 303.484375 C 275.101562 304.066406 276.355469 304.9375 277.429688 305.988281 C 278.480469 307.039062 279.355469 308.3125 279.9375 309.742188 C 280.496094 311.105469 280.808594 312.601562 280.808594 314.164062 C 280.808594 315.707031 280.496094 317.179688 279.9375 318.589844 C 279.355469 320.019531 278.480469 321.292969 277.429688 322.34375 C 276.378906 323.390625 275.101562 324.261719 273.667969 324.84375 C 272.304688 325.402344 270.804688 325.714844 269.238281 325.714844 C 267.714844 325.714844 266.261719 325.425781 264.894531 324.867188 L 264.804688 324.84375 C 263.371094 324.261719 262.121094 323.390625 261.046875 322.34375 C 260.394531 321.695312 259.8125 320.933594 259.320312 320.152344 C 259.054688 319.707031 258.808594 319.214844 258.605469 318.746094 L 220.308594 318.746094 C 218.875 318.746094 217.597656 318.164062 216.660156 317.226562 C 215.695312 316.265625 215.113281 314.992188 215.113281 313.5625 L 215.113281 258.375 L 190.046875 258.375 L 190.046875 303.820312 C 190.425781 304.019531 190.808594 304.222656 191.1875 304.46875 C 191.882812 304.890625 192.53125 305.429688 193.089844 305.988281 C 194.164062 307.058594 195.015625 308.3125 195.597656 309.742188 C 196.15625 311.105469 196.46875 312.601562 196.46875 314.164062 C 196.46875 315.683594 196.179688 317.136719 195.621094 318.5 L 195.597656 318.589844 C 195.015625 320.019531 194.140625 321.269531 193.089844 322.34375 C 192.039062 323.390625 190.761719 324.261719 189.328125 324.84375 C 187.964844 325.402344 186.464844 325.714844 184.898438 325.714844 C 183.351562 325.714844 181.855469 325.402344 180.464844 324.84375 C 179.035156 324.261719 177.757812 323.390625 176.707031 322.34375 C 175.652344 321.292969 174.78125 320.019531 174.199219 318.589844 C 173.640625 317.226562 173.324219 315.730469 173.324219 314.164062 C 173.324219 312.644531 173.617188 311.191406 174.175781 309.832031 L 174.199219 309.742188 C 174.78125 308.3125 175.652344 307.058594 176.707031 305.988281 C 177.265625 305.429688 177.871094 304.9375 178.539062 304.511719 L 178.628906 304.445312 C 178.988281 304.246094 179.367188 304.042969 179.75 303.84375 L 179.75 258.375 L 146.308594 258.375 L 146.308594 281.925781 C 146.308594 283.355469 145.726562 284.628906 144.789062 285.566406 C 143.847656 286.503906 142.570312 287.085938 141.136719 287.085938 L 117.414062 287.085938 C 117.234375 287.441406 117.03125 287.777344 116.808594 288.136719 C 116.40625 288.738281 115.933594 289.320312 115.398438 289.855469 L 115.308594 289.945312 C 114.257812 290.996094 112.980469 291.867188 111.546875 292.449219 C 110.183594 293.007812 108.683594 293.320312 107.117188 293.320312 C 105.59375 293.320312 104.140625 293.027344 102.773438 292.46875 L 102.683594 292.449219 C 101.25 291.867188 100 290.996094 98.925781 289.945312 C 97.871094 288.894531 97 287.621094 96.417969 286.191406 C 95.859375 284.828125 95.542969 283.332031 95.542969 281.769531 C 95.542969 280.226562 95.859375 278.730469 96.417969 277.34375 C 97 275.914062 97.871094 274.640625 98.925781 273.589844 C 100.019531 272.5625 101.320312 271.691406 102.75 271.109375 C 104.117188 270.550781 105.617188 270.238281 107.183594 270.238281 C 108.75 270.238281 110.25 270.550781 111.617188 271.109375 C 112.980469 271.691406 114.234375 272.519531 115.265625 273.566406 L 115.351562 273.636719 C 115.933594 274.214844 116.496094 274.886719 116.921875 275.601562 C 117.144531 275.980469 117.390625 276.382812 117.589844 276.832031 L 135.992188 276.832031 L 135.992188 257.949219 C 132.34375 257.144531 129.074219 255.3125 126.542969 252.789062 C 123.164062 249.414062 121.082031 244.8125 121.082031 239.765625 L 121.082031 227.496094 L 66.15625 227.496094 L 66.15625 261.125 C 66.445312 261.300781 66.738281 261.480469 67.027344 261.683594 C 67.609375 262.085938 68.125 262.53125 68.640625 263.023438 C 69.691406 264.074219 70.566406 265.347656 71.148438 266.777344 C 71.707031 268.140625 72.019531 269.636719 72.019531 271.199219 C 72.019531 272.742188 71.707031 274.261719 71.148438 275.625 C 70.566406 277.054688 69.691406 278.304688 68.640625 279.378906 C 67.585938 280.425781 66.3125 281.296875 64.878906 281.878906 C 63.515625 282.4375 62.015625 282.75 60.449219 282.75 C 58.902344 282.75 57.425781 282.4375 56.015625 281.878906 C 54.582031 281.296875 53.308594 280.425781 52.253906 279.378906 C 51.203125 278.328125 50.332031 277.054688 49.75 275.625 C 49.167969 274.214844 48.851562 272.71875 48.851562 271.15625 C 48.851562 269.636719 49.144531 268.183594 49.703125 266.820312 L 49.726562 266.730469 C 50.308594 265.300781 51.179688 264.050781 52.234375 262.976562 C 52.882812 262.328125 53.644531 261.75 54.425781 261.257812 C 54.851562 260.988281 55.367188 260.742188 55.835938 260.542969 L 55.835938 222.335938 C 55.835938 220.90625 56.417969 219.632812 57.359375 218.695312 C 58.320312 217.734375 59.597656 217.152344 61.03125 217.152344 L 121.082031 217.152344 L 121.082031 192.128906 L 70.8125 192.128906 C 70.609375 192.507812 70.40625 192.890625 70.160156 193.269531 C 69.738281 193.960938 69.199219 194.609375 68.640625 195.167969 C 67.566406 196.242188 66.3125 197.089844 64.878906 197.671875 C 63.515625 198.230469 62.015625 198.542969 60.449219 198.542969 C 58.925781 198.542969 57.46875 198.25 56.105469 197.691406 L 56.015625 197.671875 C 54.582031 197.089844 53.328125 196.21875 52.253906 195.167969 C 51.203125 194.117188 50.332031 192.84375 49.75 191.414062 C 49.1875 190.050781 48.875 188.554688 48.875 186.992188 C 48.875 185.449219 49.1875 183.953125 49.75 182.566406 C 50.332031 181.136719 51.203125 179.863281 52.253906 178.8125 C 53.308594 177.761719 54.582031 176.890625 56.015625 176.3125 C 57.402344 175.730469 58.878906 175.417969 60.46875 175.417969 C 61.992188 175.417969 63.445312 175.707031 64.8125 176.265625 L 64.902344 176.289062 C 66.335938 176.871094 67.585938 177.742188 68.660156 178.789062 C 69.222656 179.347656 69.714844 179.953125 70.160156 180.621094 L 70.230469 180.710938 C 70.429688 181.070312 70.632812 181.449219 70.832031 181.828125 L 121.082031 181.828125 L 121.082031 150.75 C 121.082031 149.992188 121.128906 149.230469 121.21875 148.472656 L 92.746094 148.472656 C 91.3125 148.472656 90.039062 147.890625 89.097656 146.953125 C 88.15625 146.015625 87.574219 144.742188 87.574219 143.3125 L 87.574219 119.628906 C 87.21875 119.449219 86.882812 119.246094 86.523438 119.023438 C 85.917969 118.621094 85.335938 118.152344 84.800781 117.617188 L 84.710938 117.527344 C 83.660156 116.476562 82.785156 115.203125 82.203125 113.773438 C 81.644531 112.410156 81.332031 110.914062 81.332031 109.351562 C 81.332031 107.832031 81.621094 106.378906 82.179688 105.015625 L 82.203125 104.925781 C 82.785156 103.496094 83.660156 102.246094 84.710938 101.171875 C 85.761719 100.121094 87.039062 99.25 88.472656 98.671875 C 89.835938 98.113281 91.335938 97.800781 92.902344 97.800781 C 94.449219 97.800781 95.945312 98.113281 97.335938 98.671875 C 98.765625 99.25 100.042969 100.121094 101.09375 101.171875 C 102.125 102.265625 102.996094 103.5625 103.578125 104.992188 C 104.140625 106.355469 104.453125 107.851562 104.453125 109.417969 C 104.453125 110.980469 104.140625 112.476562 103.578125 113.839844 C 102.996094 115.203125 102.167969 116.453125 101.140625 117.484375 L 101.074219 117.570312 C 100.492188 118.152344 99.820312 118.710938 99.082031 119.136719 C 98.699219 119.359375 98.296875 119.605469 97.851562 119.804688 L 97.851562 138.171875 L 125.941406 138.171875 L 125.941406 138.304688 C 126.121094 138.105469 126.320312 137.902344 126.5 137.726562 C 129.96875 134.261719 134.78125 132.117188 140.085938 132.117188 L 150.851562 132.117188 L 150.851562 72.039062 L 117.210938 72.039062 C 117.03125 72.328125 116.851562 72.617188 116.652344 72.910156 C 116.25 73.492188 115.800781 74.003906 115.308594 74.519531 C 114.257812 75.566406 112.980469 76.441406 111.546875 77.019531 C 110.183594 77.578125 108.683594 77.890625 107.117188 77.890625 C 105.570312 77.890625 104.050781 77.578125 102.683594 77.019531 C 101.25 76.441406 100 75.566406 98.925781 74.519531 C 97.871094 73.46875 97 72.195312 96.417969 70.765625 C 95.859375 69.378906 95.542969 67.90625 95.542969 66.316406 C 95.542969 64.777344 95.859375 63.300781 96.417969 61.894531 C 97 60.464844 97.871094 59.191406 98.925781 58.140625 C 99.976562 57.089844 101.25 56.21875 102.683594 55.636719 C 104.050781 55.078125 105.550781 54.765625 107.117188 54.765625 C 108.636719 54.765625 110.09375 55.058594 111.457031 55.617188 L 111.546875 55.636719 C 112.980469 56.21875 114.234375 57.089844 115.308594 58.140625 C 115.957031 58.789062 116.539062 59.546875 117.03125 60.332031 C 117.300781 60.753906 117.546875 61.269531 117.769531 61.738281 L 156.023438 61.738281 C 157.457031 61.738281 158.730469 62.320312 159.671875 63.257812 C 160.632812 64.21875 161.214844 65.492188 161.214844 66.921875 L 161.214844 132.117188 L 186.285156 132.117188 L 186.285156 76.683594 C 185.90625 76.484375 185.523438 76.28125 185.144531 76.039062 C 184.449219 75.613281 183.800781 75.078125 183.242188 74.519531 C 182.167969 73.445312 181.316406 72.195312 180.734375 70.765625 C 180.175781 69.402344 179.863281 67.90625 179.863281 66.339844 C 179.863281 64.820312 180.152344 63.367188 180.710938 62.007812 L 180.734375 61.917969 C 181.316406 60.488281 182.1875 59.234375 183.242188 58.164062 C 184.292969 57.113281 185.570312 56.242188 187 55.660156 C 188.367188 55.101562 189.867188 54.789062 191.433594 54.789062 C 192.976562 54.789062 194.476562 55.101562 195.867188 55.660156 C 197.296875 56.242188 198.574219 57.113281 199.625 58.164062 C 200.679688 59.214844 201.550781 60.488281 202.132812 61.917969 C 202.691406 63.28125 203.003906 64.777344 203.003906 66.339844 C 203.003906 67.859375 202.714844 69.3125 202.15625 70.675781 L 202.132812 70.765625 C 201.550781 72.195312 200.679688 73.445312 199.625 74.519531 C 199.066406 75.078125 198.460938 75.566406 197.789062 76.015625 L 197.699219 76.082031 C 197.34375 76.28125 196.960938 76.484375 196.582031 76.683594 L 196.582031 132.09375 L 230 132.09375 L 230 98.582031 C 230 97.152344 230.582031 95.878906 231.523438 94.9375 C 232.460938 94 233.738281 93.417969 235.171875 93.417969 L 258.917969 93.417969 C 259.097656 93.0625 259.300781 92.726562 259.523438 92.371094 C 259.925781 91.765625 260.394531 91.1875 260.933594 90.648438 L 261.023438 90.558594 C 262.074219 89.511719 263.351562 88.636719 264.78125 88.058594 C 266.148438 87.5 267.648438 87.1875 269.214844 87.1875 C 270.738281 87.1875 272.191406 87.476562 273.558594 88.035156 L 273.648438 88.058594 C 275.078125 88.636719 276.332031 89.511719 277.40625 90.558594 C 278.460938 91.609375 279.332031 92.882812 279.914062 94.3125 C 280.472656 95.675781 280.789062 97.171875 280.789062 98.738281 C 280.789062 100.277344 280.472656 101.777344 279.914062 103.160156 C 279.332031 104.589844 278.460938 105.863281 277.40625 106.914062 C 276.289062 107.941406 275.011719 108.8125 273.578125 109.394531 C 272.214844 109.953125 270.714844 110.265625 269.148438 110.265625 C 267.582031 110.265625 266.082031 109.953125 264.714844 109.394531 C 263.351562 108.8125 262.097656 107.988281 261.066406 106.960938 L 260.976562 106.890625 C 260.394531 106.3125 259.835938 105.640625 259.410156 104.925781 C 259.164062 104.546875 258.941406 104.144531 258.738281 103.699219 L 240.339844 103.699219 L 240.339844 132.386719 C 244.300781 133.078125 247.839844 135 250.546875 137.703125 C 253.925781 141.078125 256.007812 145.679688 256.007812 150.730469 L 256.007812 153.03125 L 306.59375 153.03125 L 306.59375 119.402344 C 306.304688 119.226562 306.011719 119.046875 305.722656 118.847656 C 305.140625 118.445312 304.625 117.996094 304.132812 117.503906 C 303.082031 116.453125 302.207031 115.179688 301.625 113.75 C 301.066406 112.390625 300.753906 110.890625 300.753906 109.328125 C 300.753906 107.785156 301.066406 106.265625 301.625 104.902344 C 302.207031 103.472656 303.082031 102.222656 304.132812 101.152344 C 305.183594 100.101562 306.460938 99.230469 307.894531 98.648438 C 309.257812 98.089844 310.757812 97.777344 312.324219 97.777344 C 313.871094 97.777344 315.367188 98.089844 316.757812 98.648438 C 318.1875 99.230469 319.464844 100.101562 320.515625 101.152344 C 321.570312 102.199219 322.441406 103.472656 323.023438 104.902344 C 323.582031 106.265625 323.898438 107.765625 323.898438 109.328125 C 323.898438 110.847656 323.605469 112.300781 323.046875 113.664062 L 323.023438 113.75 C 322.441406 115.179688 321.570312 116.433594 320.515625 117.503906 C 319.867188 118.152344 319.105469 118.734375 318.324219 119.226562 C 317.875 119.492188 317.382812 119.738281 316.914062 119.960938 L 316.914062 158.144531 C 316.914062 159.578125 316.332031 160.851562 315.390625 161.789062 C 314.429688 162.75 313.152344 163.328125 311.71875 163.328125 L 256.007812 163.328125 L 256.007812 188.355469 L 301.9375 188.355469 C 302.140625 187.972656 302.34375 187.59375 302.589844 187.214844 C 303.035156 186.519531 303.550781 185.875 304.109375 185.316406 C 305.183594 184.242188 306.4375 183.394531 307.871094 182.8125 C 309.234375 182.253906 310.734375 181.941406 312.300781 181.941406 C 313.824219 181.941406 315.28125 182.230469 316.644531 182.789062 L 316.734375 182.8125 C 318.167969 183.394531 319.421875 184.265625 320.496094 185.316406 C 321.546875 186.363281 322.417969 187.636719 323 189.070312 C 323.5625 190.429688 323.875 191.929688 323.875 193.492188 C 323.875 195.035156 323.5625 196.53125 323 197.917969 C 322.417969 199.347656 321.546875 200.621094 320.496094 201.667969 C 319.441406 202.71875 318.167969 203.589844 316.734375 204.171875 C 315.367188 204.730469 313.871094 205.042969 312.300781 205.042969 C 310.78125 205.042969 309.324219 204.753906 307.960938 204.195312 L 307.871094 204.171875 C 306.4375 203.589844 305.183594 202.71875 304.109375 201.667969 C 303.550781 201.109375 303.058594 200.507812 302.609375 199.835938 L 302.542969 199.75 C 302.34375 199.390625 302.140625 199.011719 301.9375 198.632812 L 256.007812 198.632812 L 256.007812 231.988281 L 280.003906 231.988281 C 281.4375 231.988281 282.710938 232.570312 283.652344 233.507812 C 284.59375 234.445312 285.175781 235.71875 285.175781 237.148438 L 285.175781 260.855469 C 285.53125 261.035156 285.867188 261.234375 286.226562 261.480469 C 286.832031 261.882812 287.414062 262.351562 287.949219 262.886719 L 288.039062 262.976562 C 289.089844 264.027344 289.964844 265.300781 290.546875 266.730469 C 291.105469 268.09375 291.417969 269.589844 291.417969 271.15625 C 291.417969 272.675781 291.128906 274.125 290.570312 275.488281 L 290.546875 275.578125 C 289.964844 277.007812 289.089844 278.261719 288.039062 279.332031 C 286.988281 280.382812 285.710938 281.253906 284.277344 281.835938 C 282.914062 282.394531 281.414062 282.707031 279.847656 282.707031 C 278.300781 282.707031 276.804688 282.394531 275.414062 281.835938 C 273.984375 281.253906 272.707031 280.382812 271.65625 279.332031 C 270.625 278.238281 269.730469 276.941406 269.148438 275.511719 Z M 168.582031 171.261719 L 208.511719 171.261719 C 211.625 171.261719 214.152344 173.785156 214.152344 176.890625 L 214.152344 213.601562 C 214.152344 216.707031 211.625 219.230469 208.511719 219.230469 L 168.582031 219.230469 C 165.46875 219.230469 162.941406 216.707031 162.941406 213.601562 L 162.941406 176.890625 C 162.941406 173.785156 165.46875 171.261719 168.582031 171.261719 Z M 236.960938 142.082031 L 140.109375 142.082031 C 137.894531 142.082031 135.855469 143 134.378906 144.496094 C 132.789062 146.082031 131.804688 148.292969 131.804688 150.75 L 131.804688 239.742188 C 131.804688 242.199219 132.789062 244.410156 134.378906 245.996094 C 135.878906 247.496094 137.894531 248.410156 140.109375 248.410156 L 236.960938 248.410156 C 239.175781 248.410156 241.214844 247.496094 242.691406 245.996094 C 244.28125 244.410156 245.265625 242.199219 245.265625 239.742188 L 245.265625 150.75 C 245.265625 148.292969 244.28125 146.082031 242.691406 144.496094 C 241.214844 143 239.175781 142.082031 236.960938 142.082031 Z M 236.960938 142.082031 " fill-opacity="1" fill-rule="nonzero"/></g><path stroke-linecap="butt" transform="matrix(1.375221, 0.000000000000001293, -0.000000000000001293, 1.375221, 0.0000045, 182.249328)" fill="none" stroke-linejoin="miter" d="M -0.0000032722 3.000008 L 60.476094 3.000008 " stroke="#000000" stroke-width="6" stroke-opacity="1" stroke-miterlimit="4"/><path stroke-linecap="butt" transform="matrix(1.375221, 0.000000000000001293, -0.000000000000001293, 1.375221, 289.580405, 190.500647)" fill="none" stroke-linejoin="miter" d="M 0.00118277 2.999048 L 60.47728 2.999048 " stroke="#000000" stroke-width="6" stroke-opacity="1" stroke-miterlimit="4"/></svg>