<svg xmlns="http://www.w3.org/2000/svg" xmlns:xlink="http://www.w3.org/1999/xlink" width="500" zoomAndPan="magnify" viewBox="0 0 375 374.999991" height="500" preserveAspectRatio="xMidYMid meet" version="1.0"><defs><clipPath id="ddff8ef556"><path d="M 85.855469 85.855469 L 289.105469 85.855469 L 289.105469 289.105469 L 85.855469 289.105469 Z M 85.855469 85.855469 " clip-rule="nonzero"/></clipPath><clipPath id="2cc1519a19"><path d="M 103.105469 85.855469 L 271.890625 85.855469 C 276.46875 85.855469 280.855469 87.675781 284.089844 90.910156 C 287.324219 94.144531 289.140625 98.53125 289.140625 103.105469 L 289.140625 271.890625 C 289.140625 276.46875 287.324219 280.855469 284.089844 284.089844 C 280.855469 287.324219 276.46875 289.140625 271.890625 289.140625 L 103.105469 289.140625 C 98.53125 289.140625 94.144531 287.324219 90.910156 284.089844 C 87.675781 280.855469 85.855469 276.46875 85.855469 271.890625 L 85.855469 103.105469 C 85.855469 98.53125 87.675781 94.144531 90.910156 90.910156 C 94.144531 87.675781 98.53125 85.855469 103.105469 85.855469 Z M 103.105469 85.855469 " clip-rule="nonzero"/></clipPath><clipPath id="d619a4a7ef"><path d="M 105.296875 117 L 269 117 L 269 258.453125 L 105.296875 258.453125 Z M 105.296875 117 " clip-rule="nonzero"/></clipPath></defs><g clip-path="url(#ddff8ef556)"><g clip-path="url(#2cc1519a19)"><path stroke-linecap="butt" transform="matrix(0.75, 0, 0, 0.75, 85.857215, 85.857242)" fill="none" stroke-linejoin="miter" d="M 22.997673 -0.00236375 L 248.044563 -0.00236375 C 254.14873 -0.00236375 259.997689 2.42472 264.310189 6.73722 C 268.622689 11.04972 271.044565 16.898679 271.044565 22.997638 L 271.044565 248.044528 C 271.044565 254.148695 268.622689 259.997653 264.310189 264.310154 C 259.997689 268.622654 254.14873 271.044529 248.044563 271.044529 L 22.997673 271.044529 C 16.898715 271.044529 11.049756 268.622654 6.737256 264.310154 C 2.424755 259.997653 -0.00232815 254.148695 -0.00232815 248.044528 L -0.00232815 22.997638 C -0.00232815 16.898679 2.424755 11.04972 6.737256 6.73722 C 11.049756 2.42472 16.898715 -0.00236375 22.997673 -0.00236375 Z M 22.997673 -0.00236375 " stroke="#000000" stroke-width="22" stroke-opacity="1" stroke-miterlimit="4"/></g></g><g clip-path="url(#d619a4a7ef)"><path fill="#000000" d="M 219.347656 191.558594 C 213.792969 191.558594 209.289062 187.046875 209.289062 181.480469 C 209.289062 175.910156 213.792969 171.398438 219.347656 171.398438 C 224.90625 171.398438 229.410156 175.910156 229.410156 181.480469 C 229.410156 187.046875 224.90625 191.558594 219.347656 191.558594 Z M 185.816406 191.558594 C 180.261719 191.558594 175.753906 187.046875 175.753906 181.480469 C 175.753906 175.910156 180.261719 171.398438 185.816406 171.398438 C 191.371094 171.398438 195.875 175.910156 195.875 181.480469 C 195.875 187.046875 191.371094 191.558594 185.816406 191.558594 Z M 152.28125 191.558594 C 146.726562 191.558594 142.222656 187.046875 142.222656 181.480469 C 142.222656 175.910156 146.726562 171.398438 152.28125 171.398438 C 157.839844 171.398438 162.34375 175.910156 162.34375 181.480469 C 162.34375 187.046875 157.839844 191.558594 152.28125 191.558594 Z M 188.453125 117.609375 C 143.351562 116.71875 106.226562 144.566406 105.535156 179.8125 C 105.292969 192.066406 109.492188 203.597656 116.960938 213.46875 L 116.957031 213.46875 C 129.804688 230.003906 115.78125 258.433594 115.78125 258.433594 L 157.175781 240.570312 C 166.09375 243.394531 175.785156 245.039062 185.941406 245.242188 C 231.042969 246.128906 268.164062 218.28125 268.859375 183.039062 C 269.550781 147.792969 233.550781 118.5 188.453125 117.609375 " fill-opacity="1" fill-rule="evenodd"/></g><path stroke-linecap="butt" transform="matrix(0.75, 0.000000000000000705, -0.000000000000000705, 0.75, 85.857215, 182.999988)" fill="none" stroke-linejoin="miter" d="M -0.00232815 3.000016 L 60.476842 3.000016 " stroke="#000000" stroke-width="6" stroke-opacity="1" stroke-miterlimit="4"/><path stroke-linecap="butt" transform="matrix(0.75, 0, 0, 0.75, 243.784822, 185.249988)" fill="none" stroke-linejoin="miter" d="M 0.000445545 3.000016 L 60.479616 3.000016 " stroke="#000000" stroke-width="6" stroke-opacity="1" stroke-miterlimit="4"/></svg>