<svg xmlns="http://www.w3.org/2000/svg" xmlns:xlink="http://www.w3.org/1999/xlink" width="500" zoomAndPan="magnify" viewBox="0 0 375 374.999991" height="500" preserveAspectRatio="xMidYMid meet" version="1.0"><defs><clipPath id="99c111681d"><path d="M 85.855469 85.855469 L 289.105469 85.855469 L 289.105469 289.105469 L 85.855469 289.105469 Z M 85.855469 85.855469 " clip-rule="nonzero"/></clipPath><clipPath id="79b975a46c"><path d="M 103.105469 85.855469 L 271.890625 85.855469 C 276.46875 85.855469 280.855469 87.675781 284.089844 90.910156 C 287.324219 94.144531 289.140625 98.53125 289.140625 103.105469 L 289.140625 271.890625 C 289.140625 276.46875 287.324219 280.855469 284.089844 284.089844 C 280.855469 287.324219 276.46875 289.140625 271.890625 289.140625 L 103.105469 289.140625 C 98.53125 289.140625 94.144531 287.324219 90.910156 284.089844 C 87.675781 280.855469 85.855469 276.46875 85.855469 271.890625 L 85.855469 103.105469 C 85.855469 98.53125 87.675781 94.144531 90.910156 90.910156 C 94.144531 87.675781 98.53125 85.855469 103.105469 85.855469 Z M 103.105469 85.855469 " clip-rule="nonzero"/></clipPath><clipPath id="48f68c0231"><path d="M 136.261719 103.847656 L 239 103.847656 L 239 237 L 136.261719 237 Z M 136.261719 103.847656 " clip-rule="nonzero"/></clipPath></defs><g clip-path="url(#99c111681d)"><g clip-path="url(#79b975a46c)"><path stroke-linecap="butt" transform="matrix(0.75, 0, 0, 0.75, 85.857215, 85.857242)" fill="none" stroke-linejoin="miter" d="M 22.997673 -0.00236375 L 248.044563 -0.00236375 C 254.14873 -0.00236375 259.997689 2.42472 264.310189 6.73722 C 268.622689 11.04972 271.044565 16.898679 271.044565 22.997638 L 271.044565 248.044528 C 271.044565 254.148695 268.622689 259.997653 264.310189 264.310154 C 259.997689 268.622654 254.14873 271.044529 248.044563 271.044529 L 22.997673 271.044529 C 16.898715 271.044529 11.049756 268.622654 6.737256 264.310154 C 2.424755 259.997653 -0.00232815 254.148695 -0.00232815 248.044528 L -0.00232815 22.997638 C -0.00232815 16.898679 2.424755 11.04972 6.737256 6.73722 C 11.049756 2.42472 16.898715 -0.00236375 22.997673 -0.00236375 Z M 22.997673 -0.00236375 " stroke="#000000" stroke-width="22" stroke-opacity="1" stroke-miterlimit="4"/></g></g><g clip-path="url(#48f68c0231)"><path fill="#000000" d="M 187.523438 109.28125 C 162.304688 109.28125 141.789062 129.796875 141.789062 155.011719 C 141.789062 165.746094 146.207031 175.453125 150.519531 183.535156 C 152.066406 186.421875 153.742188 189.289062 155.5 192.050781 C 156.121094 193.023438 156.820312 194.007812 157.558594 195.050781 C 161.175781 200.128906 165.675781 206.449219 165.949219 218.675781 L 165.949219 223.378906 C 165.949219 227.773438 169.527344 231.351562 173.921875 231.351562 L 201.125 231.351562 C 205.523438 231.351562 209.097656 227.773438 209.097656 223.378906 L 209.097656 218.105469 L 209.101562 218.011719 C 209.515625 206.226562 213.921875 200.035156 217.464844 195.0625 C 218.207031 194.015625 218.90625 193.027344 219.535156 192.050781 C 223.929688 185.160156 226.992188 179.449219 229.179688 174.078125 C 230.691406 170.351562 231.757812 166.871094 232.4375 163.4375 C 232.980469 160.734375 233.257812 157.898438 233.257812 155.011719 C 233.257812 129.796875 212.738281 109.28125 187.523438 109.28125 Z M 201.125 236.808594 L 173.921875 236.808594 C 166.515625 236.808594 160.492188 230.785156 160.492188 223.378906 L 160.492188 218.738281 C 160.257812 208.246094 156.625 203.148438 153.117188 198.214844 C 152.332031 197.117188 151.59375 196.078125 150.894531 194.988281 C 149.0625 192.105469 147.316406 189.117188 145.707031 186.109375 C 141.070312 177.429688 136.332031 166.949219 136.332031 155.011719 C 136.332031 126.785156 159.296875 103.824219 187.523438 103.824219 C 215.75 103.824219 238.714844 126.785156 238.714844 155.011719 C 238.714844 158.261719 238.402344 161.453125 237.792969 164.503906 C 237.042969 168.277344 235.882812 172.085938 234.234375 176.132812 C 231.921875 181.820312 228.710938 187.808594 224.136719 194.984375 C 223.4375 196.082031 222.695312 197.125 221.910156 198.226562 C 218.476562 203.050781 214.921875 208.039062 214.558594 218.152344 L 214.558594 223.378906 C 214.558594 230.785156 208.535156 236.808594 201.125 236.808594 " fill-opacity="1" fill-rule="nonzero"/></g><path fill="#000000" d="M 170 264.191406 L 180.492188 269.253906 C 184.378906 271.128906 190.671875 271.128906 194.554688 269.253906 L 205.050781 264.191406 L 170 264.191406 " fill-opacity="1" fill-rule="nonzero"/><path fill="#000000" d="M 207.1875 262.398438 C 207.1875 263.90625 205.96875 265.128906 204.453125 265.128906 L 170.59375 265.128906 C 169.085938 265.128906 167.859375 263.90625 167.859375 262.398438 C 167.859375 260.886719 169.085938 259.664062 170.59375 259.664062 L 204.453125 259.664062 C 205.96875 259.664062 207.1875 260.886719 207.1875 262.398438 " fill-opacity="1" fill-rule="nonzero"/><path fill="#000000" d="M 209.457031 254.527344 C 209.457031 256.042969 208.230469 257.265625 206.722656 257.265625 L 168.328125 257.265625 C 166.816406 257.265625 165.589844 256.042969 165.589844 254.527344 C 165.589844 253.019531 166.816406 251.796875 168.328125 251.796875 L 206.722656 251.796875 C 208.230469 251.796875 209.457031 253.019531 209.457031 254.527344 " fill-opacity="1" fill-rule="nonzero"/><path fill="#000000" d="M 209.457031 246.664062 C 209.457031 248.171875 208.230469 249.402344 206.722656 249.402344 L 168.328125 249.402344 C 166.816406 249.402344 165.589844 248.171875 165.589844 246.664062 C 165.589844 245.15625 166.816406 243.929688 168.328125 243.929688 L 206.722656 243.929688 C 208.230469 243.929688 209.457031 245.15625 209.457031 246.664062 " fill-opacity="1" fill-rule="nonzero"/><path fill="#000000" d="M 211.835938 238.800781 C 211.835938 240.308594 210.613281 241.53125 209.101562 241.53125 L 165.945312 241.53125 C 164.4375 241.53125 163.210938 240.308594 163.210938 238.800781 C 163.210938 237.289062 164.4375 236.066406 165.945312 236.066406 L 209.101562 236.066406 C 210.613281 236.066406 211.835938 237.289062 211.835938 238.800781 " fill-opacity="1" fill-rule="nonzero"/><path stroke-linecap="butt" transform="matrix(0.000000001309, 0.75, -0.75, 0.000000001309, 189.748204, 268.068323)" fill="none" stroke-linejoin="miter" d="M -0.00255593 2.997606 L 22.377654 2.997606 " stroke="#000000" stroke-width="6" stroke-opacity="1" stroke-miterlimit="4"/><path stroke-linecap="butt" transform="matrix(0.000000001309, 0.75, -0.75, 0.000000001309, 189.748204, 87.064945)" fill="none" stroke-linejoin="miter" d="M 0.00194768 2.997606 L 22.382157 2.997606 " stroke="#000000" stroke-width="6" stroke-opacity="1" stroke-miterlimit="4"/></svg>