<svg xmlns="http://www.w3.org/2000/svg" xmlns:xlink="http://www.w3.org/1999/xlink" width="500" zoomAndPan="magnify" viewBox="0 0 375 374.999991" height="500" preserveAspectRatio="xMidYMid meet" version="1.0"><defs><clipPath id="476d2c5348"><path d="M 85.855469 83.605469 L 289.105469 83.605469 L 289.105469 286.855469 L 85.855469 286.855469 Z M 85.855469 83.605469 " clip-rule="nonzero"/></clipPath><clipPath id="a7e4f988b2"><path d="M 103.105469 83.605469 L 271.890625 83.605469 C 276.46875 83.605469 280.855469 85.425781 284.089844 88.660156 C 287.324219 91.894531 289.140625 96.28125 289.140625 100.855469 L 289.140625 269.640625 C 289.140625 274.21875 287.324219 278.605469 284.089844 281.839844 C 280.855469 285.074219 276.46875 286.890625 271.890625 286.890625 L 103.105469 286.890625 C 98.53125 286.890625 94.144531 285.074219 90.910156 281.839844 C 87.675781 278.605469 85.855469 274.21875 85.855469 269.640625 L 85.855469 100.855469 C 85.855469 96.28125 87.675781 91.894531 90.910156 88.660156 C 94.144531 85.425781 98.53125 83.605469 103.105469 83.605469 Z M 103.105469 83.605469 " clip-rule="nonzero"/></clipPath><clipPath id="a5af3019cf"><path d="M 112.5 113.113281 L 262.5 113.113281 L 262.5 261.613281 L 112.5 261.613281 Z M 112.5 113.113281 " clip-rule="nonzero"/></clipPath></defs><g clip-path="url(#476d2c5348)"><g clip-path="url(#a7e4f988b2)"><path stroke-linecap="butt" transform="matrix(0.75, 0, 0, 0.75, 85.857215, 83.607211)" fill="none" stroke-linejoin="miter" d="M 22.997673 -0.00232235 L 248.044563 -0.00232235 C 254.14873 -0.00232235 259.997689 2.424761 264.310189 6.737261 C 268.622689 11.049762 271.044565 16.89872 271.044565 22.997679 L 271.044565 248.044569 C 271.044565 254.148736 268.622689 259.997695 264.310189 264.310195 C 259.997689 268.622695 254.14873 271.04457 248.044563 271.04457 L 22.997673 271.04457 C 16.898715 271.04457 11.049756 268.622695 6.737256 264.310195 C 2.424755 259.997695 -0.00232815 254.148736 -0.00232815 248.044569 L -0.00232815 22.997679 C -0.00232815 16.89872 2.424755 11.049762 6.737256 6.737261 C 11.049756 2.424761 16.898715 -0.00232235 22.997673 -0.00232235 Z M 22.997673 -0.00232235 " stroke="#000000" stroke-width="22" stroke-opacity="1" stroke-miterlimit="4"/></g></g><g clip-path="url(#a5af3019cf)"><path fill="#000000" d="M 232.640625 233.863281 C 232.335938 233.117188 232.164062 232.300781 232.164062 231.449219 C 232.164062 230.597656 232.335938 229.78125 232.640625 229.039062 C 232.957031 228.292969 233.410156 227.613281 233.972656 227.050781 L 234.007812 227.003906 C 234.324219 226.683594 234.691406 226.378906 235.082031 226.148438 C 235.289062 226.015625 235.511719 225.894531 235.753906 225.785156 L 235.753906 215.769531 L 225.367188 215.769531 C 225.046875 217.960938 224 219.933594 222.484375 221.457031 C 220.59375 223.347656 217.96875 224.515625 215.074219 224.515625 L 208.8125 224.515625 L 208.8125 251.835938 L 227.183594 251.835938 C 227.28125 251.675781 227.378906 251.519531 227.488281 251.359375 C 227.710938 251.042969 227.953125 250.75 228.222656 250.484375 C 228.796875 249.910156 229.492188 249.433594 230.273438 249.117188 C 231.019531 248.8125 231.835938 248.644531 232.691406 248.644531 C 233.53125 248.644531 234.363281 248.8125 235.109375 249.117188 C 235.890625 249.433594 236.574219 249.910156 237.160156 250.484375 C 237.730469 251.054688 238.207031 251.75 238.527344 252.53125 C 238.832031 253.273438 239 254.089844 239 254.941406 C 239 255.78125 238.832031 256.585938 238.527344 257.355469 C 238.207031 258.132812 237.730469 258.828125 237.160156 259.402344 C 236.585938 259.976562 235.890625 260.449219 235.109375 260.765625 C 234.363281 261.070312 233.546875 261.242188 232.691406 261.242188 C 231.859375 261.242188 231.066406 261.082031 230.320312 260.777344 L 230.273438 260.765625 C 229.492188 260.449219 228.808594 259.976562 228.222656 259.402344 C 227.867188 259.046875 227.550781 258.632812 227.28125 258.207031 C 227.136719 257.964844 227 257.695312 226.890625 257.441406 L 206.003906 257.441406 C 205.222656 257.441406 204.527344 257.125 204.015625 256.613281 C 203.492188 256.085938 203.171875 255.394531 203.171875 254.613281 L 203.171875 224.515625 L 189.5 224.515625 L 189.5 249.300781 C 189.710938 249.410156 189.917969 249.519531 190.125 249.652344 C 190.503906 249.886719 190.855469 250.179688 191.160156 250.484375 C 191.75 251.066406 192.210938 251.75 192.53125 252.53125 C 192.835938 253.273438 193.003906 254.089844 193.003906 254.941406 C 193.003906 255.769531 192.847656 256.5625 192.542969 257.304688 L 192.53125 257.355469 C 192.210938 258.132812 191.734375 258.816406 191.160156 259.402344 C 190.589844 259.976562 189.890625 260.449219 189.109375 260.765625 C 188.367188 261.070312 187.546875 261.242188 186.695312 261.242188 C 185.851562 261.242188 185.035156 261.070312 184.277344 260.765625 C 183.496094 260.449219 182.800781 259.976562 182.226562 259.402344 C 181.652344 258.828125 181.175781 258.132812 180.859375 257.355469 C 180.554688 256.613281 180.382812 255.796875 180.382812 254.941406 C 180.382812 254.113281 180.542969 253.320312 180.847656 252.578125 L 180.859375 252.53125 C 181.175781 251.75 181.652344 251.066406 182.226562 250.484375 C 182.53125 250.179688 182.859375 249.910156 183.226562 249.679688 L 183.277344 249.640625 C 183.472656 249.53125 183.679688 249.421875 183.886719 249.3125 L 183.886719 224.515625 L 165.648438 224.515625 L 165.648438 237.359375 C 165.648438 238.140625 165.332031 238.832031 164.820312 239.34375 C 164.304688 239.855469 163.609375 240.175781 162.828125 240.175781 L 149.890625 240.175781 C 149.792969 240.367188 149.683594 240.550781 149.558594 240.746094 C 149.339844 241.074219 149.085938 241.394531 148.792969 241.683594 L 148.742188 241.734375 C 148.167969 242.304688 147.472656 242.78125 146.691406 243.097656 C 145.945312 243.402344 145.128906 243.574219 144.273438 243.574219 C 143.445312 243.574219 142.652344 243.414062 141.90625 243.109375 L 141.859375 243.097656 C 141.078125 242.78125 140.394531 242.304688 139.808594 241.734375 C 139.234375 241.160156 138.757812 240.464844 138.441406 239.6875 C 138.132812 238.945312 137.964844 238.128906 137.964844 237.273438 C 137.964844 236.433594 138.132812 235.617188 138.441406 234.863281 C 138.757812 234.082031 139.234375 233.386719 139.808594 232.8125 C 140.40625 232.253906 141.113281 231.777344 141.894531 231.460938 C 142.640625 231.15625 143.457031 230.988281 144.3125 230.988281 C 145.164062 230.988281 145.984375 231.15625 146.726562 231.460938 C 147.472656 231.777344 148.15625 232.230469 148.71875 232.800781 L 148.765625 232.839844 C 149.085938 233.15625 149.390625 233.519531 149.621094 233.910156 C 149.742188 234.117188 149.878906 234.335938 149.988281 234.582031 L 160.023438 234.582031 L 160.023438 224.285156 C 158.03125 223.847656 156.25 222.847656 154.871094 221.46875 C 153.027344 219.628906 151.890625 217.121094 151.890625 214.367188 L 151.890625 207.675781 L 121.9375 207.675781 L 121.9375 226.015625 C 122.09375 226.113281 122.253906 226.210938 122.410156 226.320312 C 122.730469 226.539062 123.011719 226.78125 123.289062 227.050781 C 123.863281 227.625 124.339844 228.316406 124.65625 229.097656 C 124.964844 229.839844 125.132812 230.65625 125.132812 231.511719 C 125.132812 232.351562 124.964844 233.179688 124.65625 233.921875 C 124.339844 234.703125 123.863281 235.386719 123.289062 235.96875 C 122.71875 236.542969 122.019531 237.019531 121.238281 237.335938 C 120.496094 237.640625 119.675781 237.808594 118.824219 237.808594 C 117.980469 237.808594 117.175781 237.640625 116.40625 237.335938 C 115.625 237.019531 114.929688 236.542969 114.355469 235.96875 C 113.78125 235.398438 113.304688 234.703125 112.988281 233.921875 C 112.671875 233.15625 112.5 232.339844 112.5 231.484375 C 112.5 230.65625 112.660156 229.867188 112.964844 229.121094 L 112.976562 229.074219 C 113.292969 228.292969 113.769531 227.613281 114.34375 227.027344 C 114.695312 226.671875 115.113281 226.355469 115.539062 226.089844 C 115.769531 225.941406 116.050781 225.808594 116.308594 225.699219 L 116.308594 204.863281 C 116.308594 204.082031 116.625 203.386719 117.136719 202.875 C 117.664062 202.351562 118.359375 202.035156 119.140625 202.035156 L 151.890625 202.035156 L 151.890625 188.386719 L 124.476562 188.386719 C 124.363281 188.59375 124.253906 188.800781 124.121094 189.007812 C 123.890625 189.386719 123.597656 189.742188 123.289062 190.046875 C 122.703125 190.628906 122.019531 191.09375 121.238281 191.410156 C 120.496094 191.714844 119.675781 191.886719 118.824219 191.886719 C 117.992188 191.886719 117.199219 191.726562 116.453125 191.421875 L 116.40625 191.410156 C 115.625 191.09375 114.941406 190.617188 114.355469 190.046875 C 113.78125 189.472656 113.304688 188.777344 112.988281 188 C 112.683594 187.253906 112.511719 186.4375 112.511719 185.585938 C 112.511719 184.746094 112.683594 183.929688 112.988281 183.171875 C 113.304688 182.394531 113.78125 181.699219 114.355469 181.125 C 114.929688 180.554688 115.625 180.078125 116.40625 179.761719 C 117.164062 179.445312 117.96875 179.273438 118.835938 179.273438 C 119.664062 179.273438 120.457031 179.433594 121.203125 179.738281 L 121.253906 179.75 C 122.035156 180.066406 122.71875 180.542969 123.304688 181.113281 C 123.609375 181.417969 123.875 181.746094 124.121094 182.113281 L 124.15625 182.160156 C 124.265625 182.355469 124.378906 182.5625 124.488281 182.769531 L 151.890625 182.769531 L 151.890625 165.820312 C 151.890625 165.40625 151.917969 164.992188 151.964844 164.578125 L 136.4375 164.578125 C 135.65625 164.578125 134.960938 164.261719 134.449219 163.75 C 133.933594 163.238281 133.617188 162.542969 133.617188 161.765625 L 133.617188 148.847656 C 133.421875 148.75 133.238281 148.640625 133.042969 148.519531 C 132.714844 148.300781 132.398438 148.042969 132.105469 147.75 L 132.054688 147.703125 C 131.480469 147.128906 131.003906 146.4375 130.6875 145.65625 C 130.382812 144.914062 130.210938 144.097656 130.210938 143.242188 C 130.210938 142.414062 130.371094 141.621094 130.675781 140.878906 L 130.6875 140.832031 C 131.003906 140.050781 131.480469 139.367188 132.054688 138.785156 C 132.628906 138.210938 133.324219 137.734375 134.105469 137.417969 C 134.851562 137.113281 135.667969 136.945312 136.523438 136.945312 C 137.367188 136.945312 138.183594 137.113281 138.941406 137.417969 C 139.722656 137.734375 140.417969 138.210938 140.992188 138.785156 C 141.550781 139.378906 142.027344 140.085938 142.347656 140.867188 C 142.652344 141.609375 142.820312 142.425781 142.820312 143.28125 C 142.820312 144.132812 142.652344 144.949219 142.347656 145.691406 C 142.027344 146.4375 141.578125 147.117188 141.015625 147.679688 L 140.980469 147.726562 C 140.660156 148.042969 140.296875 148.347656 139.890625 148.582031 C 139.683594 148.703125 139.464844 148.835938 139.222656 148.945312 L 139.222656 158.960938 L 154.539062 158.960938 L 154.539062 159.035156 C 154.640625 158.925781 154.75 158.816406 154.847656 158.71875 C 156.738281 156.828125 159.363281 155.660156 162.253906 155.660156 L 168.128906 155.660156 L 168.128906 122.894531 L 149.78125 122.894531 C 149.683594 123.054688 149.585938 123.210938 149.476562 123.371094 C 149.253906 123.6875 149.011719 123.964844 148.742188 124.246094 C 148.167969 124.820312 147.472656 125.292969 146.691406 125.613281 C 145.945312 125.917969 145.128906 126.085938 144.273438 126.085938 C 143.433594 126.085938 142.601562 125.917969 141.859375 125.613281 C 141.078125 125.292969 140.394531 124.820312 139.808594 124.246094 C 139.234375 123.675781 138.757812 122.980469 138.441406 122.199219 C 138.132812 121.445312 137.964844 120.640625 137.964844 119.773438 C 137.964844 118.933594 138.132812 118.128906 138.441406 117.363281 C 138.757812 116.582031 139.234375 115.886719 139.808594 115.316406 C 140.378906 114.742188 141.078125 114.265625 141.859375 113.949219 C 142.601562 113.644531 143.421875 113.476562 144.273438 113.476562 C 145.105469 113.476562 145.898438 113.632812 146.644531 113.9375 L 146.691406 113.949219 C 147.472656 114.265625 148.15625 114.742188 148.742188 115.316406 C 149.097656 115.667969 149.414062 116.082031 149.683594 116.507812 C 149.828125 116.742188 149.964844 117.019531 150.085938 117.277344 L 170.949219 117.277344 C 171.730469 117.277344 172.425781 117.59375 172.9375 118.105469 C 173.460938 118.628906 173.78125 119.324219 173.78125 120.105469 L 173.78125 155.660156 L 187.453125 155.660156 L 187.453125 125.429688 C 187.242188 125.320312 187.035156 125.210938 186.828125 125.074219 C 186.449219 124.84375 186.097656 124.550781 185.792969 124.246094 C 185.207031 123.660156 184.742188 122.980469 184.425781 122.199219 C 184.117188 121.457031 183.949219 120.640625 183.949219 119.789062 C 183.949219 118.957031 184.105469 118.167969 184.410156 117.421875 L 184.425781 117.375 C 184.742188 116.59375 185.21875 115.914062 185.792969 115.328125 C 186.363281 114.753906 187.0625 114.28125 187.84375 113.960938 C 188.585938 113.65625 189.40625 113.488281 190.257812 113.488281 C 191.101562 113.488281 191.917969 113.65625 192.675781 113.960938 C 193.457031 114.28125 194.152344 114.753906 194.726562 115.328125 C 195.300781 115.898438 195.777344 116.59375 196.09375 117.375 C 196.398438 118.117188 196.570312 118.933594 196.570312 119.789062 C 196.570312 120.617188 196.410156 121.40625 196.105469 122.152344 L 196.09375 122.199219 C 195.777344 122.980469 195.300781 123.660156 194.726562 124.246094 C 194.421875 124.550781 194.09375 124.820312 193.726562 125.0625 L 193.675781 125.101562 C 193.480469 125.210938 193.273438 125.320312 193.066406 125.429688 L 193.066406 155.648438 L 211.292969 155.648438 L 211.292969 137.371094 C 211.292969 136.589844 211.609375 135.894531 212.121094 135.382812 C 212.632812 134.871094 213.332031 134.554688 214.113281 134.554688 L 227.0625 134.554688 C 227.160156 134.359375 227.269531 134.175781 227.390625 133.984375 C 227.613281 133.652344 227.867188 133.335938 228.160156 133.042969 L 228.210938 132.996094 C 228.785156 132.421875 229.480469 131.949219 230.261719 131.632812 C 231.003906 131.328125 231.824219 131.15625 232.679688 131.15625 C 233.507812 131.15625 234.300781 131.3125 235.046875 131.617188 L 235.09375 131.632812 C 235.875 131.949219 236.558594 132.421875 237.144531 132.996094 C 237.71875 133.566406 238.195312 134.261719 238.511719 135.042969 C 238.820312 135.785156 238.988281 136.601562 238.988281 137.457031 C 238.988281 138.296875 238.820312 139.113281 238.511719 139.867188 C 238.195312 140.648438 237.71875 141.34375 237.144531 141.914062 C 236.535156 142.476562 235.839844 142.949219 235.058594 143.265625 C 234.3125 143.570312 233.496094 143.742188 232.640625 143.742188 C 231.785156 143.742188 230.96875 143.570312 230.222656 143.265625 C 229.480469 142.949219 228.796875 142.5 228.234375 141.9375 L 228.1875 141.902344 C 227.867188 141.585938 227.5625 141.21875 227.332031 140.832031 C 227.199219 140.625 227.074219 140.402344 226.964844 140.160156 L 216.929688 140.160156 L 216.929688 155.804688 C 219.089844 156.183594 221.019531 157.230469 222.496094 158.707031 C 224.339844 160.546875 225.476562 163.054688 225.476562 165.808594 L 225.476562 167.066406 L 253.0625 167.066406 L 253.0625 148.726562 C 252.90625 148.628906 252.746094 148.53125 252.585938 148.421875 C 252.269531 148.203125 251.988281 147.957031 251.722656 147.691406 C 251.148438 147.117188 250.671875 146.421875 250.355469 145.644531 C 250.046875 144.898438 249.878906 144.082031 249.878906 143.230469 C 249.878906 142.390625 250.046875 141.5625 250.355469 140.820312 C 250.671875 140.039062 251.148438 139.355469 251.722656 138.769531 C 252.292969 138.199219 252.992188 137.722656 253.773438 137.40625 C 254.515625 137.101562 255.335938 136.929688 256.1875 136.929688 C 257.03125 136.929688 257.847656 137.101562 258.605469 137.40625 C 259.386719 137.722656 260.082031 138.199219 260.65625 138.769531 C 261.230469 139.34375 261.707031 140.039062 262.023438 140.820312 C 262.328125 141.5625 262.5 142.378906 262.5 143.230469 C 262.5 144.058594 262.339844 144.851562 262.035156 145.59375 L 262.023438 145.644531 C 261.707031 146.421875 261.230469 147.105469 260.65625 147.691406 C 260.304688 148.042969 259.886719 148.359375 259.460938 148.628906 C 259.214844 148.773438 258.949219 148.910156 258.691406 149.03125 L 258.691406 169.855469 C 258.691406 170.636719 258.375 171.328125 257.863281 171.839844 C 257.335938 172.363281 256.640625 172.683594 255.859375 172.683594 L 225.476562 172.683594 L 225.476562 186.328125 L 250.523438 186.328125 C 250.632812 186.121094 250.746094 185.914062 250.878906 185.707031 C 251.121094 185.328125 251.402344 184.976562 251.710938 184.671875 C 252.296875 184.085938 252.980469 183.625 253.761719 183.308594 C 254.503906 183.003906 255.324219 182.832031 256.175781 182.832031 C 257.007812 182.832031 257.800781 182.992188 258.546875 183.296875 L 258.59375 183.308594 C 259.375 183.625 260.058594 184.097656 260.644531 184.671875 C 261.21875 185.246094 261.695312 185.9375 262.011719 186.71875 C 262.316406 187.460938 262.488281 188.277344 262.488281 189.132812 C 262.488281 189.972656 262.316406 190.789062 262.011719 191.542969 C 261.695312 192.324219 261.21875 193.019531 260.644531 193.589844 C 260.070312 194.164062 259.375 194.640625 258.59375 194.957031 C 257.847656 195.261719 257.03125 195.429688 256.175781 195.429688 C 255.347656 195.429688 254.554688 195.273438 253.808594 194.96875 L 253.761719 194.957031 C 252.980469 194.640625 252.296875 194.164062 251.710938 193.589844 C 251.402344 193.285156 251.136719 192.957031 250.890625 192.59375 L 250.855469 192.542969 C 250.746094 192.347656 250.636719 192.140625 250.523438 191.933594 L 225.476562 191.933594 L 225.476562 210.125 L 238.5625 210.125 C 239.34375 210.125 240.039062 210.441406 240.550781 210.953125 C 241.0625 211.464844 241.382812 212.160156 241.382812 212.941406 L 241.382812 225.867188 C 241.578125 225.964844 241.761719 226.078125 241.957031 226.210938 C 242.285156 226.429688 242.601562 226.683594 242.894531 226.976562 L 242.945312 227.027344 C 243.519531 227.597656 243.992188 228.292969 244.3125 229.074219 C 244.617188 229.816406 244.789062 230.632812 244.789062 231.484375 C 244.789062 232.316406 244.628906 233.105469 244.324219 233.851562 L 244.3125 233.898438 C 243.992188 234.679688 243.519531 235.359375 242.945312 235.945312 C 242.371094 236.519531 241.675781 236.992188 240.894531 237.3125 C 240.148438 237.617188 239.332031 237.785156 238.476562 237.785156 C 237.632812 237.785156 236.816406 237.617188 236.058594 237.3125 C 235.277344 236.992188 234.582031 236.519531 234.007812 235.945312 C 233.445312 235.347656 232.957031 234.640625 232.640625 233.863281 Z M 177.796875 177.007812 L 199.574219 177.007812 C 201.269531 177.007812 202.648438 178.382812 202.648438 180.078125 L 202.648438 200.097656 C 202.648438 201.792969 201.269531 203.167969 199.574219 203.167969 L 177.796875 203.167969 C 176.097656 203.167969 174.71875 201.792969 174.71875 200.097656 L 174.71875 180.078125 C 174.71875 178.382812 176.097656 177.007812 177.796875 177.007812 Z M 215.085938 161.09375 L 162.269531 161.09375 C 161.058594 161.09375 159.949219 161.59375 159.144531 162.410156 C 158.277344 163.273438 157.738281 164.480469 157.738281 165.820312 L 157.738281 214.355469 C 157.738281 215.695312 158.277344 216.902344 159.144531 217.765625 C 159.960938 218.582031 161.058594 219.082031 162.269531 219.082031 L 215.085938 219.082031 C 216.296875 219.082031 217.40625 218.582031 218.210938 217.765625 C 219.078125 216.902344 219.617188 215.695312 219.617188 214.355469 L 219.617188 165.820312 C 219.617188 164.480469 219.078125 163.273438 218.210938 162.410156 C 217.40625 161.59375 216.296875 161.09375 215.085938 161.09375 Z M 215.085938 161.09375 " fill-opacity="1" fill-rule="nonzero"/></g><path stroke-linecap="butt" transform="matrix(0.75, 0.000000000000000705, -0.000000000000000705, 0.75, 85.857215, 182.999988)" fill="none" stroke-linejoin="miter" d="M -0.00232815 3.000016 L 60.476842 3.000016 " stroke="#000000" stroke-width="6" stroke-opacity="1" stroke-miterlimit="4"/><path stroke-linecap="butt" transform="matrix(0.75, 0.000000000000000705, -0.000000000000000705, 0.75, 243.784822, 187.499988)" fill="none" stroke-linejoin="miter" d="M 0.000445545 3.000017 L 60.479616 3.000017 " stroke="#000000" stroke-width="6" stroke-opacity="1" stroke-miterlimit="4"/></svg>