<svg width="1200" height="800" viewBox="0 0 1200 800" xmlns="http://www.w3.org/2000/svg">
  <defs>
    <linearGradient id="gridGradient" x1="0%" y1="0%" x2="100%" y2="100%">
      <stop offset="0%" stop-color="#111827" />
      <stop offset="100%" stop-color="#1f2937" />
    </linearGradient>
    <radialGradient id="pulse" cx="50%" cy="45%" r="60%">
      <stop offset="0%" stop-color="#22d3ee" stop-opacity="0.8" />
      <stop offset="70%" stop-color="#0f172a" stop-opacity="0.2" />
      <stop offset="100%" stop-color="#0f172a" stop-opacity="0" />
    </radialGradient>
  </defs>
  <rect width="1200" height="800" fill="url(#gridGradient)" />
  <rect x="120" y="120" width="960" height="560" fill="url(#pulse)" opacity="0.85" />
  <g stroke="#0ea5e9" stroke-width="1" opacity="0.35">
    <path d="M0 680 L1200 680" />
    <path d="M0 600 L1200 600" />
    <path d="M0 520 L1200 520" />
    <path d="M0 440 L1200 440" />
    <path d="M0 360 L1200 360" />
    <path d="M0 280 L1200 280" />
    <path d="M0 200 L1200 200" />
    <path d="M0 120 L1200 120" />
    <path d="M120 0 L120 800" />
    <path d="M240 0 L240 800" />
    <path d="M360 0 L360 800" />
    <path d="M480 0 L480 800" />
    <path d="M600 0 L600 800" />
    <path d="M720 0 L720 800" />
    <path d="M840 0 L840 800" />
    <path d="M960 0 L960 800" />
    <path d="M1080 0 L1080 800" />
  </g>
</svg>
