<svg xmlns="http://www.w3.org/2000/svg" xmlns:xlink="http://www.w3.org/1999/xlink" width="1920" zoomAndPan="magnify" viewBox="0 0 1440 809.999993" height="1080" preserveAspectRatio="xMidYMid meet" version="1.0"><defs><clipPath id="d28a3d368b"><path d="M 0 418 L 253 418 L 253 732 L 0 732 Z M 0 418 " clip-rule="nonzero"/></clipPath><clipPath id="874a3692a5"><path d="M -287.132812 532.804688 L 148.097656 303.042969 L 253.132812 502.003906 L -182.097656 731.765625 Z M -287.132812 532.804688 " clip-rule="nonzero"/></clipPath><clipPath id="e704035350"><path d="M -69.683594 418.011719 L 252.800781 502.179688 L -182.097656 731.765625 Z M -69.683594 418.011719 " clip-rule="nonzero"/></clipPath><clipPath id="d16b1da6e0"><path d="M 0 0 L 252.960938 0 L 252.960938 314 L 0 314 Z M 0 0 " clip-rule="nonzero"/></clipPath><clipPath id="278df21aac"><path d="M -287.132812 114.804688 L 148.097656 -114.957031 L 253.132812 84.003906 L -182.097656 313.765625 Z M -287.132812 114.804688 " clip-rule="nonzero"/></clipPath><clipPath id="2a91e03f9d"><path d="M -69.683594 0.0117188 L 252.800781 84.179688 L -182.097656 313.765625 Z M -69.683594 0.0117188 " clip-rule="nonzero"/></clipPath><clipPath id="8fb9d4b45b"><rect x="0" width="253" y="0" height="314"/></clipPath><clipPath id="74bbe1d291"><path d="M 45 499 L 619 499 L 619 810 L 45 810 Z M 45 499 " clip-rule="nonzero"/></clipPath><clipPath id="db737b8844"><path d="M -37.902344 582.21875 L 536.367188 417.445312 L 619.730469 707.984375 L 45.460938 872.757812 Z M -37.902344 582.21875 " clip-rule="nonzero"/></clipPath><clipPath id="225afd1a77"><path d="M 248.863281 499.9375 L 618.992188 708.195312 L 45.460938 872.757812 Z M 248.863281 499.9375 " clip-rule="nonzero"/></clipPath><clipPath id="29b1998d9a"><path d="M 0.359375 0.921875 L 574 0.921875 L 574 311 L 0.359375 311 Z M 0.359375 0.921875 " clip-rule="nonzero"/></clipPath><clipPath id="a2804a389b"><path d="M -82.902344 83.21875 L 491.367188 -81.554688 L 574.730469 208.984375 L 0.460938 373.757812 Z M -82.902344 83.21875 " clip-rule="nonzero"/></clipPath><clipPath id="6c32f73649"><path d="M 203.863281 0.9375 L 573.992188 209.195312 L 0.460938 373.757812 Z M 203.863281 0.9375 " clip-rule="nonzero"/></clipPath><clipPath id="08b8672fb6"><rect x="0" width="574" y="0" height="311"/></clipPath><clipPath id="7a7a62d57b"><path d="M 493 698 L 969 698 L 969 810 L 493 810 Z M 493 698 " clip-rule="nonzero"/></clipPath><clipPath id="faf2a76f9c"><path d="M 310.742188 878.738281 L 786.246094 517.027344 L 969.246094 757.597656 L 493.742188 1119.308594 Z M 310.742188 878.738281 " clip-rule="nonzero"/></clipPath><clipPath id="9454104ca4"><path d="M 548.1875 698.113281 L 968.632812 758.0625 L 493.742188 1119.308594 Z M 548.1875 698.113281 " clip-rule="nonzero"/></clipPath><clipPath id="0dffb174f8"><path d="M 0.679688 0 L 475.640625 0 L 475.640625 112 L 0.679688 112 Z M 0.679688 0 " clip-rule="nonzero"/></clipPath><clipPath id="04c921ed69"><path d="M -182.257812 180.738281 L 293.246094 -180.972656 L 476.246094 59.597656 L 0.742188 421.308594 Z M -182.257812 180.738281 " clip-rule="nonzero"/></clipPath><clipPath id="f5aebae3f2"><path d="M 55.1875 0.113281 L 475.632812 60.0625 L 0.742188 421.308594 Z M 55.1875 0.113281 " clip-rule="nonzero"/></clipPath><clipPath id="96278d4810"><rect x="0" width="476" y="0" height="112"/></clipPath><clipPath id="b279cbe498"><path d="M 919 635 L 1440 635 L 1440 810 L 919 810 Z M 919 635 " clip-rule="nonzero"/></clipPath><clipPath id="f4aab24bcf"><path d="M 1055.542969 501.378906 L 1588.710938 770.953125 L 1452.328125 1040.699219 L 919.160156 771.125 Z M 1055.542969 501.378906 " clip-rule="nonzero"/></clipPath><clipPath id="a112f8c151"><path d="M 1321.785156 635.992188 L 1451.640625 1040.351562 L 919.160156 771.125 Z M 1321.785156 635.992188 " clip-rule="nonzero"/></clipPath><clipPath id="d94bd265e1"><path d="M 0 0.761719 L 521 0.761719 L 521 175 L 0 175 Z M 0 0.761719 " clip-rule="nonzero"/></clipPath><clipPath id="c8aea6659e"><path d="M 136.542969 -133.621094 L 669.710938 135.953125 L 533.328125 405.699219 L 0.160156 136.125 Z M 136.542969 -133.621094 " clip-rule="nonzero"/></clipPath><clipPath id="67da57e578"><path d="M 402.785156 0.992188 L 532.640625 405.351562 L 0.160156 136.125 Z M 402.785156 0.992188 " clip-rule="nonzero"/></clipPath><clipPath id="16f050b267"><rect x="0" width="521" y="0" height="175"/></clipPath><clipPath id="9f2a8f350b"><path d="M 1106 495 L 1440 495 L 1440 810 L 1106 810 Z M 1106 495 " clip-rule="nonzero"/></clipPath><clipPath id="40202fbcde"><path d="M 1153.898438 449.378906 L 1744.027344 542.59375 L 1696.867188 841.15625 L 1106.738281 747.941406 Z M 1153.898438 449.378906 " clip-rule="nonzero"/></clipPath><clipPath id="a67b4cc326"><path d="M 1448.582031 495.925781 L 1696.109375 841.035156 L 1106.738281 747.941406 Z M 1448.582031 495.925781 " clip-rule="nonzero"/></clipPath><clipPath id="cc3dfb1c24"><path d="M 0.640625 0.839844 L 334 0.839844 L 334 315 L 0.640625 315 Z M 0.640625 0.839844 " clip-rule="nonzero"/></clipPath><clipPath id="4371d69dc2"><path d="M 47.898438 -45.621094 L 638.027344 47.59375 L 590.867188 346.15625 L 0.738281 252.941406 Z M 47.898438 -45.621094 " clip-rule="nonzero"/></clipPath><clipPath id="0e49b520da"><path d="M 342.582031 0.925781 L 590.109375 346.035156 L 0.738281 252.941406 Z M 342.582031 0.925781 " clip-rule="nonzero"/></clipPath><clipPath id="902b5c851d"><rect x="0" width="334" y="0" height="315"/></clipPath><clipPath id="d4f1b2f93a"><path d="M 1106 691 L 1440 691 L 1440 810 L 1106 810 Z M 1106 691 " clip-rule="nonzero"/></clipPath><clipPath id="7ade81bbed"><path d="M 1153.898438 645.207031 L 1744.027344 738.421875 L 1696.867188 1036.984375 L 1106.738281 943.769531 Z M 1153.898438 645.207031 " clip-rule="nonzero"/></clipPath><clipPath id="022322f25b"><path d="M 1448.582031 691.753906 L 1696.109375 1036.863281 L 1106.738281 943.769531 Z M 1448.582031 691.753906 " clip-rule="nonzero"/></clipPath><clipPath id="b1983e4a66"><path d="M 0.640625 0.679688 L 334 0.679688 L 334 119 L 0.640625 119 Z M 0.640625 0.679688 " clip-rule="nonzero"/></clipPath><clipPath id="b74e1a9ee4"><path d="M 47.898438 -45.792969 L 638.027344 47.421875 L 590.867188 345.984375 L 0.738281 252.769531 Z M 47.898438 -45.792969 " clip-rule="nonzero"/></clipPath><clipPath id="1b726523ee"><path d="M 342.582031 0.753906 L 590.109375 345.863281 L 0.738281 252.769531 Z M 342.582031 0.753906 " clip-rule="nonzero"/></clipPath><clipPath id="c22d528f1e"><rect x="0" width="334" y="0" height="119"/></clipPath><clipPath id="3b03df1e95"><path d="M 652 736 L 1076 736 L 1076 810 L 652 810 Z M 652 736 " clip-rule="nonzero"/></clipPath><clipPath id="d8ca19e1c0"><path d="M 887.292969 545.875 L 1263.785156 1009.765625 L 1029.089844 1200.242188 L 652.597656 736.351562 Z M 887.292969 545.875 " clip-rule="nonzero"/></clipPath><clipPath id="371c626c11"><path d="M 1075.296875 777.523438 L 1028.605469 1199.644531 L 652.597656 736.351562 Z M 1075.296875 777.523438 " clip-rule="nonzero"/></clipPath><clipPath id="4e8326bd72"><path d="M 0.558594 0.320312 L 423.441406 0.320312 L 423.441406 74 L 0.558594 74 Z M 0.558594 0.320312 " clip-rule="nonzero"/></clipPath><clipPath id="e8ecd62de7"><path d="M 235.292969 -190.125 L 611.785156 273.765625 L 377.089844 464.242188 L 0.597656 0.351562 Z M 235.292969 -190.125 " clip-rule="nonzero"/></clipPath><clipPath id="2012be9ec7"><path d="M 423.296875 41.523438 L 376.605469 463.644531 L 0.597656 0.351562 Z M 423.296875 41.523438 " clip-rule="nonzero"/></clipPath><clipPath id="b68c9e180b"><rect x="0" width="424" y="0" height="74"/></clipPath><clipPath id="0f39b43b56"><path d="M 24 713 L 593 713 L 593 810 L 24 810 Z M 24 713 " clip-rule="nonzero"/></clipPath><clipPath id="3b1f3aa8d5"><path d="M 378.097656 449.378906 L 807.433594 978.378906 L 453.84375 1265.351562 L 24.507812 736.351562 Z M 378.097656 449.378906 " clip-rule="nonzero"/></clipPath><clipPath id="862548ac54"><path d="M 592.28125 713.285156 L 452.878906 1264.164062 L 24.507812 736.351562 Z M 592.28125 713.285156 " clip-rule="nonzero"/></clipPath><clipPath id="df5f2fa5c3"><path d="M 0.480469 0.28125 L 568.320312 0.28125 L 568.320312 97 L 0.480469 97 Z M 0.480469 0.28125 " clip-rule="nonzero"/></clipPath><clipPath id="2dcbed4d9a"><path d="M 354.097656 -263.621094 L 783.433594 265.378906 L 429.84375 552.351562 L 0.507812 23.351562 Z M 354.097656 -263.621094 " clip-rule="nonzero"/></clipPath><clipPath id="a9aad870aa"><path d="M 568.28125 0.285156 L 428.878906 551.164062 L 0.507812 23.351562 Z M 568.28125 0.285156 " clip-rule="nonzero"/></clipPath><clipPath id="7b7081abbb"><rect x="0" width="569" y="0" height="97"/></clipPath><clipPath id="74e22e6860"><path d="M 0 501 L 258 501 L 258 810 L 0 810 Z M 0 501 " clip-rule="nonzero"/></clipPath><clipPath id="f26ed49909"><path d="M 43.605469 237.8125 L 472.941406 766.816406 L 119.351562 1053.789062 L -309.984375 524.785156 Z M 43.605469 237.8125 " clip-rule="nonzero"/></clipPath><clipPath id="c7f2660be8"><path d="M 257.789062 501.71875 L 118.386719 1052.597656 L -309.984375 524.785156 Z M 257.789062 501.71875 " clip-rule="nonzero"/></clipPath><clipPath id="e951c19ec5"><path d="M 0 0.601562 L 258 0.601562 L 258 309 L 0 309 Z M 0 0.601562 " clip-rule="nonzero"/></clipPath><clipPath id="0726705f68"><path d="M 43.605469 -263.1875 L 472.941406 265.816406 L 119.351562 552.789062 L -309.984375 23.785156 Z M 43.605469 -263.1875 " clip-rule="nonzero"/></clipPath><clipPath id="6447c4fa2a"><path d="M 257.789062 0.71875 L 118.386719 551.597656 L -309.984375 23.785156 Z M 257.789062 0.71875 " clip-rule="nonzero"/></clipPath><clipPath id="9e9e4ee43d"><rect x="0" width="258" y="0" height="309"/></clipPath></defs><g clip-path="url(#d28a3d368b)"><g clip-path="url(#874a3692a5)"><g clip-path="url(#e704035350)"><g transform="matrix(1, 0, 0, 1, 0, 418)"><g clip-path="url(#8fb9d4b45b)"><g clip-path="url(#d16b1da6e0)"><g clip-path="url(#278df21aac)"><g clip-path="url(#2a91e03f9d)"><path fill="#000000" d="M -287.132812 114.804688 L 148.097656 -114.957031 L 253.132812 84.003906 L -182.097656 313.765625 Z M -287.132812 114.804688 " fill-opacity="1" fill-rule="nonzero"/></g></g></g></g></g></g></g></g><g clip-path="url(#74bbe1d291)"><g clip-path="url(#db737b8844)"><g clip-path="url(#225afd1a77)"><g transform="matrix(1, 0, 0, 1, 45, 499)"><g clip-path="url(#08b8672fb6)"><g clip-path="url(#29b1998d9a)"><g clip-path="url(#a2804a389b)"><g clip-path="url(#6c32f73649)"><path fill="#000000" d="M -82.902344 83.21875 L 490.234375 -81.230469 L 573.597656 209.308594 L 0.460938 373.757812 Z M -82.902344 83.21875 " fill-opacity="1" fill-rule="nonzero"/></g></g></g></g></g></g></g></g><g clip-path="url(#7a7a62d57b)"><g clip-path="url(#faf2a76f9c)"><g clip-path="url(#9454104ca4)"><g transform="matrix(1, 0, 0, 1, 493, 698)"><g clip-path="url(#96278d4810)"><g clip-path="url(#0dffb174f8)"><g clip-path="url(#04c921ed69)"><g clip-path="url(#f5aebae3f2)"><path fill="#000000" d="M -182.257812 180.738281 L 292.304688 -180.257812 L 475.304688 60.3125 L 0.742188 421.308594 Z M -182.257812 180.738281 " fill-opacity="1" fill-rule="nonzero"/></g></g></g></g></g></g></g></g><g clip-path="url(#b279cbe498)"><g clip-path="url(#f4aab24bcf)"><g clip-path="url(#a112f8c151)"><g transform="matrix(1, 0, 0, 1, 919, 635)"><g clip-path="url(#16f050b267)"><g clip-path="url(#d94bd265e1)"><g clip-path="url(#c8aea6659e)"><g clip-path="url(#67da57e578)"><path fill="#000000" d="M 136.542969 -133.621094 L 668.660156 135.421875 L 532.273438 405.167969 L 0.160156 136.125 Z M 136.542969 -133.621094 " fill-opacity="1" fill-rule="nonzero"/></g></g></g></g></g></g></g></g><g clip-path="url(#9f2a8f350b)"><g clip-path="url(#40202fbcde)"><g clip-path="url(#a67b4cc326)"><g transform="matrix(1, 0, 0, 1, 1106, 495)"><g clip-path="url(#902b5c851d)"><g clip-path="url(#cc3dfb1c24)"><g clip-path="url(#4371d69dc2)"><g clip-path="url(#0e49b520da)"><path fill="#000000" d="M 47.898438 -45.621094 L 636.859375 47.410156 L 589.699219 345.972656 L 0.738281 252.941406 Z M 47.898438 -45.621094 " fill-opacity="1" fill-rule="nonzero"/></g></g></g></g></g></g></g></g><g clip-path="url(#d4f1b2f93a)"><g clip-path="url(#7ade81bbed)"><g clip-path="url(#022322f25b)"><g transform="matrix(1, 0, 0, 1, 1106, 691)"><g clip-path="url(#c22d528f1e)"><g clip-path="url(#b1983e4a66)"><g clip-path="url(#b74e1a9ee4)"><g clip-path="url(#1b726523ee)"><path fill="#000000" d="M 47.898438 -45.792969 L 636.859375 47.238281 L 589.699219 345.796875 L 0.738281 252.769531 Z M 47.898438 -45.792969 " fill-opacity="1" fill-rule="nonzero"/></g></g></g></g></g></g></g></g><g clip-path="url(#3b03df1e95)"><g clip-path="url(#d8ca19e1c0)"><g clip-path="url(#371c626c11)"><g transform="matrix(1, 0, 0, 1, 652, 736)"><g clip-path="url(#b68c9e180b)"><g clip-path="url(#4e8326bd72)"><g clip-path="url(#e8ecd62de7)"><g clip-path="url(#2012be9ec7)"><path fill="#000000" d="M 235.292969 -190.125 L 611.039062 272.847656 L 376.347656 463.324219 L 0.597656 0.351562 Z M 235.292969 -190.125 " fill-opacity="1" fill-rule="nonzero"/></g></g></g></g></g></g></g></g><g clip-path="url(#0f39b43b56)"><g clip-path="url(#3b1f3aa8d5)"><g clip-path="url(#862548ac54)"><g transform="matrix(1, 0, 0, 1, 24, 713)"><g clip-path="url(#7b7081abbb)"><g clip-path="url(#df5f2fa5c3)"><g clip-path="url(#2dcbed4d9a)"><g clip-path="url(#a9aad870aa)"><path fill="#000000" d="M 354.097656 -263.621094 L 782.3125 264 L 428.722656 550.972656 L 0.507812 23.351562 Z M 354.097656 -263.621094 " fill-opacity="1" fill-rule="nonzero"/></g></g></g></g></g></g></g></g><g clip-path="url(#74e22e6860)"><g clip-path="url(#f26ed49909)"><g clip-path="url(#c7f2660be8)"><g transform="matrix(1, 0, 0, 1, 0, 501)"><g clip-path="url(#9e9e4ee43d)"><g clip-path="url(#e951c19ec5)"><g clip-path="url(#0726705f68)"><g clip-path="url(#6447c4fa2a)"><path fill="#000000" d="M 43.605469 -263.1875 L 471.820312 264.433594 L 118.230469 551.40625 L -309.984375 23.785156 Z M 43.605469 -263.1875 " fill-opacity="1" fill-rule="nonzero"/></g></g></g></g></g></g></g></g></svg>