<svg xmlns="http://www.w3.org/2000/svg" xmlns:xlink="http://www.w3.org/1999/xlink" width="1920" zoomAndPan="magnify" viewBox="0 0 1440 809.999993" height="1080" preserveAspectRatio="xMidYMid meet" version="1.0"><defs><clipPath id="d4bd5e0581"><path d="M 0 402 L 192 402 L 192 632 L 0 632 Z M 0 402 " clip-rule="nonzero"/></clipPath><clipPath id="c45e8b89a0"><path d="M -126.867188 496.746094 L 27.121094 308.304688 L 191.765625 442.847656 L 37.777344 631.289062 Z M -126.867188 496.746094 " clip-rule="nonzero"/></clipPath><clipPath id="290ba5a71d"><path d="M -49.984375 402.664062 L 191.539062 443.121094 L 37.777344 631.289062 Z M -49.984375 402.664062 " clip-rule="nonzero"/></clipPath><clipPath id="2c57139017"><path d="M 0 0.480469 L 191.761719 0.480469 L 191.761719 229.441406 L 0 229.441406 Z M 0 0.480469 " clip-rule="nonzero"/></clipPath><clipPath id="e29f2be08d"><path d="M -126.867188 94.746094 L 27.121094 -93.695312 L 191.765625 40.847656 L 37.777344 229.289062 Z M -126.867188 94.746094 " clip-rule="nonzero"/></clipPath><clipPath id="5f190f3405"><path d="M -49.984375 0.664062 L 191.539062 41.121094 L 37.777344 229.289062 Z M -49.984375 0.664062 " clip-rule="nonzero"/></clipPath><clipPath id="3628258848"><rect x="0" width="192" y="0" height="230"/></clipPath><clipPath id="e2cfcb524e"><path d="M 0 430 L 231 430 L 231 642 L 0 642 Z M 0 430 " clip-rule="nonzero"/></clipPath><clipPath id="2c86889e5f"><path d="M -48.554688 559.324219 L 45.621094 347.753906 L 230.46875 430.039062 L 136.296875 641.605469 Z M -48.554688 559.324219 " clip-rule="nonzero"/></clipPath><clipPath id="341af9c34c"><path d="M -1.535156 453.695312 L 230.332031 430.347656 L 136.296875 641.605469 Z M -1.535156 453.695312 " clip-rule="nonzero"/></clipPath><clipPath id="e09c959254"><path d="M 0 0.320312 L 230.398438 0.320312 L 230.398438 211.761719 L 0 211.761719 Z M 0 0.320312 " clip-rule="nonzero"/></clipPath><clipPath id="86d6d264b4"><path d="M -48.554688 129.324219 L 45.621094 -82.246094 L 230.46875 0.0390625 L 136.296875 211.605469 Z M -48.554688 129.324219 " clip-rule="nonzero"/></clipPath><clipPath id="2ae5ce1328"><path d="M -1.535156 23.695312 L 230.332031 0.347656 L 136.296875 211.605469 Z M -1.535156 23.695312 " clip-rule="nonzero"/></clipPath><clipPath id="706c91cea2"><rect x="0" width="231" y="0" height="212"/></clipPath><clipPath id="f24c06a6b4"><path d="M 223 429 L 460 429 L 460 666 L 223 666 Z M 223 429 " clip-rule="nonzero"/></clipPath><clipPath id="d9bd2cf71a"><path d="M 137.722656 515.25 L 309.800781 343.171875 L 460.148438 493.519531 L 288.070312 665.597656 Z M 137.722656 515.25 " clip-rule="nonzero"/></clipPath><clipPath id="4d7df220c1"><path d="M 223.636719 429.335938 L 459.898438 493.773438 L 288.070312 665.597656 Z M 223.636719 429.335938 " clip-rule="nonzero"/></clipPath><clipPath id="3a1b07c169"><path d="M 0.441406 0.121094 L 237 0.121094 L 237 236.761719 L 0.441406 236.761719 Z M 0.441406 0.121094 " clip-rule="nonzero"/></clipPath><clipPath id="3dca1f8e46"><path d="M -85.277344 86.25 L 86.800781 -85.828125 L 237.148438 64.519531 L 65.070312 236.597656 Z M -85.277344 86.25 " clip-rule="nonzero"/></clipPath><clipPath id="4c4d641146"><path d="M 0.636719 0.335938 L 236.898438 64.773438 L 65.070312 236.597656 Z M 0.636719 0.335938 " clip-rule="nonzero"/></clipPath><clipPath id="4bc64afca7"><rect x="0" width="237" y="0" height="237"/></clipPath><clipPath id="fdfff740e5"><path d="M 151 426 L 396 426 L 396 651 L 151 651 Z M 151 426 " clip-rule="nonzero"/></clipPath><clipPath id="2583386bb2"><path d="M 104.394531 567.019531 L 199.679688 343.09375 L 395.328125 426.347656 L 300.042969 650.273438 Z M 104.394531 567.019531 " clip-rule="nonzero"/></clipPath><clipPath id="0ef7606400"><path d="M 151.96875 455.222656 L 395.191406 426.675781 L 300.042969 650.273438 Z M 151.96875 455.222656 " clip-rule="nonzero"/></clipPath><clipPath id="72faa23c83"><path d="M 0.921875 0.480469 L 244.28125 0.480469 L 244.28125 224.398438 L 0.921875 224.398438 Z M 0.921875 0.480469 " clip-rule="nonzero"/></clipPath><clipPath id="cb01754b7c"><path d="M -46.605469 141.019531 L 48.679688 -82.90625 L 244.328125 0.347656 L 149.042969 224.273438 Z M -46.605469 141.019531 " clip-rule="nonzero"/></clipPath><clipPath id="f0ce5d5f62"><path d="M 0.96875 29.222656 L 244.191406 0.675781 L 149.042969 224.273438 Z M 0.96875 29.222656 " clip-rule="nonzero"/></clipPath><clipPath id="44b22b8b13"><rect x="0" width="245" y="0" height="225"/></clipPath><clipPath id="9db4235a0e"><path d="M 389 429 L 622 429 L 622 669 L 389 669 Z M 389 429 " clip-rule="nonzero"/></clipPath><clipPath id="c403fd267e"><path d="M 298.808594 510.589844 L 479.730469 347.832031 L 621.933594 505.902344 L 441.015625 668.660156 Z M 298.808594 510.589844 " clip-rule="nonzero"/></clipPath><clipPath id="79a6a73365"><path d="M 389.136719 429.328125 L 621.671875 506.140625 L 441.015625 668.660156 Z M 389.136719 429.328125 " clip-rule="nonzero"/></clipPath><clipPath id="fe7eeacff2"><path d="M 0.0390625 0.121094 L 232.839844 0.121094 L 232.839844 239.878906 L 0.0390625 239.878906 Z M 0.0390625 0.121094 " clip-rule="nonzero"/></clipPath><clipPath id="3293936c4f"><path d="M -90.191406 81.589844 L 90.730469 -81.167969 L 232.933594 76.902344 L 52.015625 239.660156 Z M -90.191406 81.589844 " clip-rule="nonzero"/></clipPath><clipPath id="20784163a4"><path d="M 0.136719 0.328125 L 232.671875 77.140625 L 52.015625 239.660156 Z M 0.136719 0.328125 " clip-rule="nonzero"/></clipPath><clipPath id="943cc83fbf"><rect x="0" width="233" y="0" height="240"/></clipPath><clipPath id="4c28e26a20"><path d="M 612 508 L 858 508 L 858 729 L 612 729 Z M 612 508 " clip-rule="nonzero"/></clipPath><clipPath id="004996a636"><path d="M 544.394531 608.960938 L 681.78125 408.097656 L 857.28125 528.132812 L 719.894531 729 Z M 544.394531 608.960938 " clip-rule="nonzero"/></clipPath><clipPath id="8d0751b61c"><path d="M 612.988281 508.675781 L 857.082031 528.429688 L 719.894531 729 Z M 612.988281 508.675781 " clip-rule="nonzero"/></clipPath><clipPath id="fde7ece3cd"><path d="M 0.960938 0.558594 L 245.28125 0.558594 L 245.28125 221 L 0.960938 221 Z M 0.960938 0.558594 " clip-rule="nonzero"/></clipPath><clipPath id="03a5f3d8db"><path d="M -67.605469 100.960938 L 69.78125 -99.902344 L 245.28125 20.132812 L 107.894531 221 Z M -67.605469 100.960938 " clip-rule="nonzero"/></clipPath><clipPath id="b32537a160"><path d="M 0.988281 0.675781 L 245.082031 20.429688 L 107.894531 221 Z M 0.988281 0.675781 " clip-rule="nonzero"/></clipPath><clipPath id="2438cfd18a"><rect x="0" width="246" y="0" height="221"/></clipPath><clipPath id="c71f5baa71"><path d="M 1003 290 L 1440 290 L 1440 810 L 1003 810 Z M 1003 290 " clip-rule="nonzero"/></clipPath><clipPath id="c0903d959f"><path d="M 1462.503906 27.589844 L 1931.503906 554.480469 L 1472.714844 962.859375 L 1003.714844 435.96875 Z M 1462.503906 27.589844 " clip-rule="nonzero"/></clipPath><clipPath id="8f097644c9"><path d="M 1696.664062 290.652344 L 1472.03125 962.09375 L 1003.714844 435.96875 Z M 1696.664062 290.652344 " clip-rule="nonzero"/></clipPath><clipPath id="0d4ec5cf52"><path d="M 0.679688 0.640625 L 437 0.640625 L 437 520 L 0.679688 520 Z M 0.679688 0.640625 " clip-rule="nonzero"/></clipPath><clipPath id="50f479e216"><path d="M 459.503906 -262.410156 L 928.503906 264.480469 L 469.714844 672.859375 L 0.714844 145.96875 Z M 459.503906 -262.410156 " clip-rule="nonzero"/></clipPath><clipPath id="1d5d545d01"><path d="M 693.664062 0.652344 L 469.03125 672.09375 L 0.714844 145.96875 Z M 693.664062 0.652344 " clip-rule="nonzero"/></clipPath><clipPath id="71ca5ab89c"><rect x="0" width="437" y="0" height="520"/></clipPath><clipPath id="1cc5798a90"><path d="M 984 397 L 1213 397 L 1213 642 L 984 642 Z M 984 397 " clip-rule="nonzero"/></clipPath><clipPath id="04a3aaba8c"><path d="M 906.265625 442.402344 L 1134.488281 352.4375 L 1212.824219 551.160156 L 984.605469 641.125 Z M 906.265625 442.402344 " clip-rule="nonzero"/></clipPath><clipPath id="f33f9c15cc"><path d="M 1020.210938 397.484375 L 1212.492188 551.289062 L 984.605469 641.125 Z M 1020.210938 397.484375 " clip-rule="nonzero"/></clipPath><clipPath id="b41d0b8113"><path d="M 0.480469 0.441406 L 228.71875 0.441406 L 228.71875 244.28125 L 0.480469 244.28125 Z M 0.480469 0.441406 " clip-rule="nonzero"/></clipPath><clipPath id="aca9e68995"><path d="M -77.734375 45.402344 L 150.488281 -44.5625 L 228.824219 154.160156 L 0.605469 244.125 Z M -77.734375 45.402344 " clip-rule="nonzero"/></clipPath><clipPath id="8941a01033"><path d="M 36.210938 0.484375 L 228.492188 154.289062 L 0.605469 244.125 Z M 36.210938 0.484375 " clip-rule="nonzero"/></clipPath><clipPath id="1fc98d9e9d"><rect x="0" width="229" y="0" height="245"/></clipPath><clipPath id="2f1b6c9a8c"><path d="M 691 463 L 919 463 L 919 705 L 691 705 Z M 691 463 " clip-rule="nonzero"/></clipPath><clipPath id="6e39571bb3"><path d="M 673.496094 673.578125 L 708.621094 432.769531 L 919.019531 463.457031 L 883.894531 704.265625 Z M 673.496094 673.578125 " clip-rule="nonzero"/></clipPath><clipPath id="246039cede"><path d="M 691.03125 553.351562 L 918.96875 463.8125 L 883.894531 704.265625 Z M 691.03125 553.351562 " clip-rule="nonzero"/></clipPath><clipPath id="303a9be669"><path d="M 0 0.679688 L 228 0.679688 L 228 241.398438 L 0 241.398438 Z M 0 0.679688 " clip-rule="nonzero"/></clipPath><clipPath id="6c8646dd86"><path d="M -17.503906 210.578125 L 17.621094 -30.230469 L 228.019531 0.457031 L 192.894531 241.265625 Z M -17.503906 210.578125 " clip-rule="nonzero"/></clipPath><clipPath id="b827ac7d15"><path d="M 0.03125 90.351562 L 227.96875 0.8125 L 192.894531 241.265625 Z M 0.03125 90.351562 " clip-rule="nonzero"/></clipPath><clipPath id="fe7cadbf81"><rect x="0" width="228" y="0" height="242"/></clipPath><clipPath id="7bb18403bc"><path d="M 819 394 L 1044 394 L 1044 635 L 819 635 Z M 819 394 " clip-rule="nonzero"/></clipPath><clipPath id="bd59431c7b"><path d="M 832.234375 657.542969 L 806.039062 417.273438 L 1017.414062 394.230469 L 1043.605469 634.5 Z M 832.234375 657.542969 " clip-rule="nonzero"/></clipPath><clipPath id="c05d6e77a3"><path d="M 819.171875 537.726562 L 1017.484375 394.871094 L 1043.605469 634.5 Z M 819.171875 537.726562 " clip-rule="nonzero"/></clipPath><clipPath id="0cbffa5640"><path d="M 0.121094 1 L 224.761719 1 L 224.761719 240.558594 L 0.121094 240.558594 Z M 0.121094 1 " clip-rule="nonzero"/></clipPath><clipPath id="643616a398"><path d="M 13.234375 263.542969 L -12.960938 23.273438 L 198.414062 0.230469 L 224.605469 240.5 Z M 13.234375 263.542969 " clip-rule="nonzero"/></clipPath><clipPath id="0d4d1c134d"><path d="M 0.171875 143.726562 L 198.484375 0.871094 L 224.605469 240.5 Z M 0.171875 143.726562 " clip-rule="nonzero"/></clipPath><clipPath id="a1d996a42d"><rect x="0" width="225" y="0" height="241"/></clipPath><clipPath id="3d29243979"><path d="M 1013 357 L 1251 357 L 1251 584 L 1013 584 Z M 1013 357 " clip-rule="nonzero"/></clipPath><clipPath id="7052811939"><path d="M 973.96875 513.503906 L 1053.566406 287.714844 L 1250.84375 357.257812 L 1171.25 583.050781 Z M 973.96875 513.503906 " clip-rule="nonzero"/></clipPath><clipPath id="67c5d23696"><path d="M 1013.710938 400.773438 L 1250.730469 357.589844 L 1171.25 583.050781 Z M 1013.710938 400.773438 " clip-rule="nonzero"/></clipPath><clipPath id="8d49bcb195"><path d="M 0.519531 0.359375 L 237.878906 0.359375 L 237.878906 226.199219 L 0.519531 226.199219 Z M 0.519531 0.359375 " clip-rule="nonzero"/></clipPath><clipPath id="f4ae0a93ca"><path d="M -39.03125 156.503906 L 40.566406 -69.285156 L 237.84375 0.257812 L 158.25 226.050781 Z M -39.03125 156.503906 " clip-rule="nonzero"/></clipPath><clipPath id="1b04b899f0"><path d="M 0.710938 43.773438 L 237.730469 0.589844 L 158.25 226.050781 Z M 0.710938 43.773438 " clip-rule="nonzero"/></clipPath><clipPath id="c601c72d4e"><rect x="0" width="238" y="0" height="227"/></clipPath><clipPath id="d20e274030"><path d="M 1241 309 L 1440 309 L 1440 584 L 1241 584 Z M 1241 309 " clip-rule="nonzero"/></clipPath><clipPath id="07d4cb09bf"><path d="M 1192.863281 498.757812 L 1289.34375 225.070312 L 1528.46875 309.371094 L 1431.988281 583.054688 Z M 1192.863281 498.757812 " clip-rule="nonzero"/></clipPath><clipPath id="ffa4b3d40f"><path d="M 1241.03125 362.117188 L 1528.328125 309.769531 L 1431.988281 583.054688 Z M 1241.03125 362.117188 " clip-rule="nonzero"/></clipPath><clipPath id="ab3d21b87a"><path d="M 0 0.601562 L 199 0.601562 L 199 274.199219 L 0 274.199219 Z M 0 0.601562 " clip-rule="nonzero"/></clipPath><clipPath id="9bc0dfd39d"><path d="M -48.136719 189.757812 L 48.34375 -83.929688 L 287.46875 0.371094 L 190.988281 274.054688 Z M -48.136719 189.757812 " clip-rule="nonzero"/></clipPath><clipPath id="7ea2b7ef11"><path d="M 0.03125 53.117188 L 287.328125 0.769531 L 190.988281 274.054688 Z M 0.03125 53.117188 " clip-rule="nonzero"/></clipPath><clipPath id="594029c8ce"><rect x="0" width="199" y="0" height="275"/></clipPath><clipPath id="f527438772"><path d="M 906 362 L 1440 362 L 1440 810 L 906 810 Z M 906 362 " clip-rule="nonzero"/></clipPath><clipPath id="c94aaae00a"><path d="M 1784.367188 659.113281 L 1443.507812 1276.679688 L 905.761719 979.875 L 1246.625 362.308594 Z M 1784.367188 659.113281 " clip-rule="nonzero"/></clipPath><clipPath id="e4fd5de913"><path d="M 1614.1875 967.445312 L 906.257812 978.976562 L 1246.625 362.308594 Z M 1614.1875 967.445312 " clip-rule="nonzero"/></clipPath><clipPath id="c7cd3e0f71"><path d="M 0.238281 0.160156 L 534 0.160156 L 534 448 L 0.238281 448 Z M 0.238281 0.160156 " clip-rule="nonzero"/></clipPath><clipPath id="1c3e1aed25"><path d="M 878.367188 297.113281 L 537.507812 914.679688 L -0.238281 617.875 L 340.625 0.308594 Z M 878.367188 297.113281 " clip-rule="nonzero"/></clipPath><clipPath id="c4eebc5ebc"><path d="M 708.1875 605.445312 L 0.257812 616.976562 L 340.625 0.308594 Z M 708.1875 605.445312 " clip-rule="nonzero"/></clipPath><clipPath id="6db85fdc83"><rect x="0" width="534" y="0" height="448"/></clipPath><clipPath id="4d63208934"><path d="M 0 433 L 375 433 L 375 810 L 0 810 Z M 0 433 " clip-rule="nonzero"/></clipPath><clipPath id="c6f4235be7"><path d="M 544.386719 729.929688 L 203.527344 1347.496094 L -334.21875 1050.691406 L 6.640625 433.125 Z M 544.386719 729.929688 " clip-rule="nonzero"/></clipPath><clipPath id="9ede9d8169"><path d="M 374.207031 1038.261719 L -333.722656 1049.792969 L 6.640625 433.125 Z M 374.207031 1038.261719 " clip-rule="nonzero"/></clipPath><clipPath id="90d6a9e592"><path d="M 0 0 L 374.398438 0 L 374.398438 377 L 0 377 Z M 0 0 " clip-rule="nonzero"/></clipPath><clipPath id="f1c0d89c30"><path d="M 544.386719 296.929688 L 203.527344 914.496094 L -334.21875 617.691406 L 6.640625 0.125 Z M 544.386719 296.929688 " clip-rule="nonzero"/></clipPath><clipPath id="72b9549527"><path d="M 374.207031 605.261719 L -333.722656 616.792969 L 6.640625 0.125 Z M 374.207031 605.261719 " clip-rule="nonzero"/></clipPath><clipPath id="c7e88b3921"><rect x="0" width="375" y="0" height="377"/></clipPath><clipPath id="8065dea704"><path d="M 0 469 L 568 469 L 568 810 L 0 810 Z M 0 469 " clip-rule="nonzero"/></clipPath><clipPath id="494f2e6745"><path d="M 737.859375 766.738281 L 396.996094 1384.308594 L -140.75 1087.503906 L 200.113281 469.9375 Z M 737.859375 766.738281 " clip-rule="nonzero"/></clipPath><clipPath id="69a5ef75c3"><path d="M 567.675781 1075.074219 L -140.25 1086.601562 L 200.113281 469.9375 Z M 567.675781 1075.074219 " clip-rule="nonzero"/></clipPath><clipPath id="a6ab8a4001"><path d="M 0 0.921875 L 567.839844 0.921875 L 567.839844 341 L 0 341 Z M 0 0.921875 " clip-rule="nonzero"/></clipPath><clipPath id="3c929e2860"><path d="M 737.859375 297.738281 L 396.996094 915.308594 L -140.75 618.503906 L 200.113281 0.9375 Z M 737.859375 297.738281 " clip-rule="nonzero"/></clipPath><clipPath id="611ca47632"><path d="M 567.675781 606.074219 L -140.25 617.601562 L 200.113281 0.9375 Z M 567.675781 606.074219 " clip-rule="nonzero"/></clipPath><clipPath id="08299cd5f0"><rect x="0" width="568" y="0" height="341"/></clipPath><clipPath id="ccca2c00a3"><path d="M 178 450 L 853 450 L 853 810 L 178 810 Z M 178 450 " clip-rule="nonzero"/></clipPath><clipPath id="a58a092230"><path d="M 673.820312 1243 L -0.988281 1037.558594 L 177.898438 449.96875 L 852.710938 655.410156 Z M 673.820312 1243 " clip-rule="nonzero"/></clipPath><clipPath id="77adbff850"><path d="M 336.90625 1140.429688 L 178.882812 450.265625 L 852.710938 655.410156 Z M 336.90625 1140.429688 " clip-rule="nonzero"/></clipPath><clipPath id="b8bbb24beb"><path d="M 0.800781 0.238281 L 674.71875 0.238281 L 674.71875 360 L 0.800781 360 Z M 0.800781 0.238281 " clip-rule="nonzero"/></clipPath><clipPath id="e174440613"><path d="M 495.820312 793 L -178.988281 587.558594 L -0.101562 -0.03125 L 674.710938 205.410156 Z M 495.820312 793 " clip-rule="nonzero"/></clipPath><clipPath id="4c805684e1"><path d="M 158.90625 690.429688 L 0.882812 0.265625 L 674.710938 205.410156 Z M 158.90625 690.429688 " clip-rule="nonzero"/></clipPath><clipPath id="60f282f16b"><rect x="0" width="675" y="0" height="360"/></clipPath><clipPath id="f72cba5b94"><path d="M 490 469 L 1165 469 L 1165 810 L 490 810 Z M 490 469 " clip-rule="nonzero"/></clipPath><clipPath id="0211241b5b"><path d="M 985.328125 1262.664062 L 310.515625 1057.222656 L 489.40625 469.632812 L 1164.214844 675.074219 Z M 985.328125 1262.664062 " clip-rule="nonzero"/></clipPath><clipPath id="21e7d2dfc2"><path d="M 648.414062 1160.09375 L 490.390625 469.929688 L 1164.214844 675.074219 Z M 648.414062 1160.09375 " clip-rule="nonzero"/></clipPath><clipPath id="7db6556468"><path d="M 0.320312 0.921875 L 674.238281 0.921875 L 674.238281 341 L 0.320312 341 Z M 0.320312 0.921875 " clip-rule="nonzero"/></clipPath><clipPath id="ee06ac6835"><path d="M 495.328125 793.664062 L -179.484375 588.222656 L -0.59375 0.632812 L 674.214844 206.074219 Z M 495.328125 793.664062 " clip-rule="nonzero"/></clipPath><clipPath id="5735f0c8b2"><path d="M 158.414062 691.09375 L 0.390625 0.929688 L 674.214844 206.074219 Z M 158.414062 691.09375 " clip-rule="nonzero"/></clipPath><clipPath id="a90db9f21b"><rect x="0" width="675" y="0" height="341"/></clipPath><clipPath id="ea86a13504"><path d="M 597 416 L 1243 416 L 1243 810 L 597 810 Z M 597 416 " clip-rule="nonzero"/></clipPath><clipPath id="46c274586b"><path d="M 1489.597656 979.21875 L 843.84375 1263.082031 L 596.667969 700.792969 L 1242.421875 416.929688 Z M 1489.597656 979.21875 " clip-rule="nonzero"/></clipPath><clipPath id="c484f671c2"><path d="M 1167.191406 1120.941406 L 597.609375 700.378906 L 1242.421875 416.929688 Z M 1167.191406 1120.941406 " clip-rule="nonzero"/></clipPath><clipPath id="6f8a485ac4"><path d="M 0.601562 0.878906 L 645.480469 0.878906 L 645.480469 394 L 0.601562 394 Z M 0.601562 0.878906 " clip-rule="nonzero"/></clipPath><clipPath id="59c2d9d844"><path d="M 892.597656 563.21875 L 246.84375 847.082031 L -0.332031 284.792969 L 645.421875 0.929688 Z M 892.597656 563.21875 " clip-rule="nonzero"/></clipPath><clipPath id="9153f4781c"><path d="M 570.191406 704.941406 L 0.609375 284.378906 L 645.421875 0.929688 Z M 570.191406 704.941406 " clip-rule="nonzero"/></clipPath><clipPath id="82f21918f7"><rect x="0" width="646" y="0" height="394"/></clipPath><clipPath id="37c8dfba48"><path d="M 918 378 L 1144 378 L 1144 624 L 918 624 Z M 918 378 " clip-rule="nonzero"/></clipPath><clipPath id="100b4f68c8"><path d="M 1229.160156 573.722656 L 1004.589844 672.441406 L 918.628906 476.894531 L 1143.203125 378.175781 Z M 1229.160156 573.722656 " clip-rule="nonzero"/></clipPath><clipPath id="d635864cc4"><path d="M 1117.039062 623.007812 L 918.957031 476.75 L 1143.203125 378.175781 Z M 1117.039062 623.007812 " clip-rule="nonzero"/></clipPath><clipPath id="2ef28db1b1"><path d="M 0.71875 0 L 225.359375 0 L 225.359375 245.039062 L 0.71875 245.039062 Z M 0.71875 0 " clip-rule="nonzero"/></clipPath><clipPath id="661732a8fa"><path d="M 311.160156 195.722656 L 86.589844 294.441406 L 0.628906 98.894531 L 225.203125 0.175781 Z M 311.160156 195.722656 " clip-rule="nonzero"/></clipPath><clipPath id="8624534d36"><path d="M 199.039062 245.007812 L 0.957031 98.75 L 225.203125 0.175781 Z M 199.039062 245.007812 " clip-rule="nonzero"/></clipPath><clipPath id="ed02124626"><rect x="0" width="226" y="0" height="246"/></clipPath><clipPath id="a36ce0da30"><path d="M 291 426 L 535 426 L 535 653 L 291 653 Z M 291 426 " clip-rule="nonzero"/></clipPath><clipPath id="8175db1779"><path d="M 267.617188 439.992188 L 511.390625 412.566406 L 535.273438 624.832031 L 291.5 652.261719 Z M 267.617188 439.992188 " clip-rule="nonzero"/></clipPath><clipPath id="3ca6419611"><path d="M 389.328125 426.300781 L 534.917969 624.875 L 291.5 652.261719 Z M 389.328125 426.300781 " clip-rule="nonzero"/></clipPath><clipPath id="cf81d7132d"><path d="M 0.359375 0.238281 L 243.960938 0.238281 L 243.960938 226.320312 L 0.359375 226.320312 Z M 0.359375 0.238281 " clip-rule="nonzero"/></clipPath><clipPath id="8c2c59f987"><path d="M -23.382812 13.992188 L 220.390625 -13.433594 L 244.273438 198.832031 L 0.5 226.261719 Z M -23.382812 13.992188 " clip-rule="nonzero"/></clipPath><clipPath id="89269bc1c3"><path d="M 98.328125 0.300781 L 243.917969 198.875 L 0.5 226.261719 Z M 98.328125 0.300781 " clip-rule="nonzero"/></clipPath><clipPath id="222f8ff001"><rect x="0" width="244" y="0" height="227"/></clipPath><clipPath id="0fedabe499"><path d="M 129 431 L 373 431 L 373 658 L 129 658 Z M 129 431 " clip-rule="nonzero"/></clipPath><clipPath id="fd0e30d3a6"><path d="M 105.339844 445.28125 L 349.113281 417.851562 L 372.996094 630.121094 L 129.222656 657.546875 Z M 105.339844 445.28125 " clip-rule="nonzero"/></clipPath><clipPath id="da4be40653"><path d="M 227.050781 431.585938 L 372.640625 630.160156 L 129.222656 657.546875 Z M 227.050781 431.585938 " clip-rule="nonzero"/></clipPath><clipPath id="4b56ac5b47"><path d="M 0.121094 0.519531 L 243.71875 0.519531 L 243.71875 226.601562 L 0.121094 226.601562 Z M 0.121094 0.519531 " clip-rule="nonzero"/></clipPath><clipPath id="5da31c5c39"><path d="M -23.660156 14.28125 L 220.113281 -13.148438 L 243.996094 199.121094 L 0.222656 226.546875 Z M -23.660156 14.28125 " clip-rule="nonzero"/></clipPath><clipPath id="0ea38eca88"><path d="M 98.050781 0.585938 L 243.640625 199.160156 L 0.222656 226.546875 Z M 98.050781 0.585938 " clip-rule="nonzero"/></clipPath><clipPath id="b24ed78946"><rect x="0" width="244" y="0" height="227"/></clipPath></defs><g clip-path="url(#d4bd5e0581)"><g clip-path="url(#c45e8b89a0)"><g clip-path="url(#290ba5a71d)"><g transform="matrix(1, 0, 0, 1, 0, 402)"><g clip-path="url(#3628258848)"><g clip-path="url(#2c57139017)"><g clip-path="url(#e29f2be08d)"><g clip-path="url(#5f190f3405)"><path fill="#27282c" d="M -126.867188 94.746094 L 27.121094 -93.695312 L 191.765625 40.847656 L 37.777344 229.289062 Z M -126.867188 94.746094 " fill-opacity="1" fill-rule="nonzero"/></g></g></g></g></g></g></g></g><g clip-path="url(#e2cfcb524e)"><g clip-path="url(#2c86889e5f)"><g clip-path="url(#341af9c34c)"><g transform="matrix(1, 0, 0, 1, 0, 430)"><g clip-path="url(#706c91cea2)"><g clip-path="url(#e09c959254)"><g clip-path="url(#86d6d264b4)"><g clip-path="url(#2ae5ce1328)"><path fill="#27282c" d="M -48.554688 129.324219 L 45.621094 -82.246094 L 230.46875 0.0390625 L 136.296875 211.605469 Z M -48.554688 129.324219 " fill-opacity="1" fill-rule="nonzero"/></g></g></g></g></g></g></g></g><g clip-path="url(#f24c06a6b4)"><g clip-path="url(#d9bd2cf71a)"><g clip-path="url(#4d7df220c1)"><g transform="matrix(1, 0, 0, 1, 223, 429)"><g clip-path="url(#4bc64afca7)"><g clip-path="url(#3a1b07c169)"><g clip-path="url(#3dca1f8e46)"><g clip-path="url(#4c4d641146)"><path fill="#27282c" d="M -85.277344 86.25 L 86.800781 -85.828125 L 237.148438 64.519531 L 65.070312 236.597656 Z M -85.277344 86.25 " fill-opacity="1" fill-rule="nonzero"/></g></g></g></g></g></g></g></g><g clip-path="url(#fdfff740e5)"><g clip-path="url(#2583386bb2)"><g clip-path="url(#0ef7606400)"><g transform="matrix(1, 0, 0, 1, 151, 426)"><g clip-path="url(#44b22b8b13)"><g clip-path="url(#72faa23c83)"><g clip-path="url(#cb01754b7c)"><g clip-path="url(#f0ce5d5f62)"><path fill="#27282c" d="M -46.605469 141.019531 L 48.679688 -82.90625 L 244.328125 0.347656 L 149.042969 224.273438 Z M -46.605469 141.019531 " fill-opacity="1" fill-rule="nonzero"/></g></g></g></g></g></g></g></g><g clip-path="url(#9db4235a0e)"><g clip-path="url(#c403fd267e)"><g clip-path="url(#79a6a73365)"><g transform="matrix(1, 0, 0, 1, 389, 429)"><g clip-path="url(#943cc83fbf)"><g clip-path="url(#fe7eeacff2)"><g clip-path="url(#3293936c4f)"><g clip-path="url(#20784163a4)"><path fill="#27282c" d="M -90.191406 81.589844 L 90.730469 -81.167969 L 232.933594 76.902344 L 52.015625 239.660156 Z M -90.191406 81.589844 " fill-opacity="1" fill-rule="nonzero"/></g></g></g></g></g></g></g></g><g clip-path="url(#4c28e26a20)"><g clip-path="url(#004996a636)"><g clip-path="url(#8d0751b61c)"><g transform="matrix(1, 0, 0, 1, 612, 508)"><g clip-path="url(#2438cfd18a)"><g clip-path="url(#fde7ece3cd)"><g clip-path="url(#03a5f3d8db)"><g clip-path="url(#b32537a160)"><path fill="#27282c" d="M -67.605469 100.960938 L 69.78125 -99.902344 L 245.28125 20.132812 L 107.894531 221 Z M -67.605469 100.960938 " fill-opacity="1" fill-rule="nonzero"/></g></g></g></g></g></g></g></g><g clip-path="url(#c71f5baa71)"><g clip-path="url(#c0903d959f)"><g clip-path="url(#8f097644c9)"><g transform="matrix(1, 0, 0, 1, 1003, 290)"><g clip-path="url(#71ca5ab89c)"><g clip-path="url(#0d4ec5cf52)"><g clip-path="url(#50f479e216)"><g clip-path="url(#1d5d545d01)"><path fill="#27282c" d="M 459.503906 -262.410156 L 928.503906 264.480469 L 469.714844 672.859375 L 0.714844 145.96875 Z M 459.503906 -262.410156 " fill-opacity="1" fill-rule="nonzero"/></g></g></g></g></g></g></g></g><g clip-path="url(#1cc5798a90)"><g clip-path="url(#04a3aaba8c)"><g clip-path="url(#f33f9c15cc)"><g transform="matrix(1, 0, 0, 1, 984, 397)"><g clip-path="url(#1fc98d9e9d)"><g clip-path="url(#b41d0b8113)"><g clip-path="url(#aca9e68995)"><g clip-path="url(#8941a01033)"><path fill="#27282c" d="M -77.734375 45.402344 L 150.488281 -44.5625 L 228.824219 154.160156 L 0.605469 244.125 Z M -77.734375 45.402344 " fill-opacity="1" fill-rule="nonzero"/></g></g></g></g></g></g></g></g><g clip-path="url(#2f1b6c9a8c)"><g clip-path="url(#6e39571bb3)"><g clip-path="url(#246039cede)"><g transform="matrix(1, 0, 0, 1, 691, 463)"><g clip-path="url(#fe7cadbf81)"><g clip-path="url(#303a9be669)"><g clip-path="url(#6c8646dd86)"><g clip-path="url(#b827ac7d15)"><path fill="#27282c" d="M -17.503906 210.578125 L 17.621094 -30.230469 L 228.019531 0.457031 L 192.894531 241.265625 Z M -17.503906 210.578125 " fill-opacity="1" fill-rule="nonzero"/></g></g></g></g></g></g></g></g><g clip-path="url(#7bb18403bc)"><g clip-path="url(#bd59431c7b)"><g clip-path="url(#c05d6e77a3)"><g transform="matrix(1, 0, 0, 1, 819, 394)"><g clip-path="url(#a1d996a42d)"><g clip-path="url(#0cbffa5640)"><g clip-path="url(#643616a398)"><g clip-path="url(#0d4d1c134d)"><path fill="#27282c" d="M 13.234375 263.542969 L -12.867188 24.097656 L 198.503906 1.054688 L 224.605469 240.5 Z M 13.234375 263.542969 " fill-opacity="1" fill-rule="nonzero"/></g></g></g></g></g></g></g></g><g clip-path="url(#3d29243979)"><g clip-path="url(#7052811939)"><g clip-path="url(#67c5d23696)"><g transform="matrix(1, 0, 0, 1, 1013, 357)"><g clip-path="url(#c601c72d4e)"><g clip-path="url(#8d49bcb195)"><g clip-path="url(#f4ae0a93ca)"><g clip-path="url(#1b04b899f0)"><path fill="#27282c" d="M -39.03125 156.503906 L 40.566406 -69.285156 L 237.84375 0.257812 L 158.25 226.050781 Z M -39.03125 156.503906 " fill-opacity="1" fill-rule="nonzero"/></g></g></g></g></g></g></g></g><g clip-path="url(#d20e274030)"><g clip-path="url(#07d4cb09bf)"><g clip-path="url(#ffa4b3d40f)"><g transform="matrix(1, 0, 0, 1, 1241, 309)"><g clip-path="url(#594029c8ce)"><g clip-path="url(#ab3d21b87a)"><g clip-path="url(#9bc0dfd39d)"><g clip-path="url(#7ea2b7ef11)"><path fill="#27282c" d="M -48.136719 189.757812 L 48.34375 -83.929688 L 287.46875 0.371094 L 190.988281 274.054688 Z M -48.136719 189.757812 " fill-opacity="1" fill-rule="nonzero"/></g></g></g></g></g></g></g></g><g clip-path="url(#f527438772)"><g clip-path="url(#c94aaae00a)"><g clip-path="url(#e4fd5de913)"><g transform="matrix(1, 0, 0, 1, 906, 362)"><g clip-path="url(#6db85fdc83)"><g clip-path="url(#c7cd3e0f71)"><g clip-path="url(#1c3e1aed25)"><g clip-path="url(#c4eebc5ebc)"><path fill="#27282c" d="M 878.367188 297.113281 L 537.507812 914.679688 L -0.238281 617.875 L 340.625 0.308594 Z M 878.367188 297.113281 " fill-opacity="1" fill-rule="nonzero"/></g></g></g></g></g></g></g></g><g clip-path="url(#4d63208934)"><g clip-path="url(#c6f4235be7)"><g clip-path="url(#9ede9d8169)"><g transform="matrix(1, 0, 0, 1, 0, 433)"><g clip-path="url(#c7e88b3921)"><g clip-path="url(#90d6a9e592)"><g clip-path="url(#f1c0d89c30)"><g clip-path="url(#72b9549527)"><path fill="#27282c" d="M 544.386719 296.929688 L 203.527344 914.496094 L -334.21875 617.691406 L 6.640625 0.125 Z M 544.386719 296.929688 " fill-opacity="1" fill-rule="nonzero"/></g></g></g></g></g></g></g></g><g clip-path="url(#8065dea704)"><g clip-path="url(#494f2e6745)"><g clip-path="url(#69a5ef75c3)"><g transform="matrix(1, 0, 0, 1, 0, 469)"><g clip-path="url(#08299cd5f0)"><g clip-path="url(#a6ab8a4001)"><g clip-path="url(#3c929e2860)"><g clip-path="url(#611ca47632)"><path fill="#27282c" d="M 737.859375 297.738281 L 396.996094 915.308594 L -140.75 618.503906 L 200.113281 0.9375 Z M 737.859375 297.738281 " fill-opacity="1" fill-rule="nonzero"/></g></g></g></g></g></g></g></g><g clip-path="url(#ccca2c00a3)"><g clip-path="url(#a58a092230)"><g clip-path="url(#77adbff850)"><g transform="matrix(1, 0, 0, 1, 178, 450)"><g clip-path="url(#60f282f16b)"><g clip-path="url(#b8bbb24beb)"><g clip-path="url(#e174440613)"><g clip-path="url(#4c805684e1)"><path fill="#27282c" d="M 495.820312 793 L -178.988281 587.558594 L -0.101562 -0.03125 L 674.710938 205.410156 Z M 495.820312 793 " fill-opacity="1" fill-rule="nonzero"/></g></g></g></g></g></g></g></g><g clip-path="url(#f72cba5b94)"><g clip-path="url(#0211241b5b)"><g clip-path="url(#21e7d2dfc2)"><g transform="matrix(1, 0, 0, 1, 490, 469)"><g clip-path="url(#a90db9f21b)"><g clip-path="url(#7db6556468)"><g clip-path="url(#ee06ac6835)"><g clip-path="url(#5735f0c8b2)"><path fill="#27282c" d="M 495.328125 793.664062 L -179.484375 588.222656 L -0.59375 0.632812 L 674.214844 206.074219 Z M 495.328125 793.664062 " fill-opacity="1" fill-rule="nonzero"/></g></g></g></g></g></g></g></g><g clip-path="url(#ea86a13504)"><g clip-path="url(#46c274586b)"><g clip-path="url(#c484f671c2)"><g transform="matrix(1, 0, 0, 1, 597, 416)"><g clip-path="url(#82f21918f7)"><g clip-path="url(#6f8a485ac4)"><g clip-path="url(#59c2d9d844)"><g clip-path="url(#9153f4781c)"><path fill="#27282c" d="M 892.597656 563.21875 L 246.84375 847.082031 L -0.332031 284.792969 L 645.421875 0.929688 Z M 892.597656 563.21875 " fill-opacity="1" fill-rule="nonzero"/></g></g></g></g></g></g></g></g><g clip-path="url(#37c8dfba48)"><g clip-path="url(#100b4f68c8)"><g clip-path="url(#d635864cc4)"><g transform="matrix(1, 0, 0, 1, 918, 378)"><g clip-path="url(#ed02124626)"><g clip-path="url(#2ef28db1b1)"><g clip-path="url(#661732a8fa)"><g clip-path="url(#8624534d36)"><path fill="#27282c" d="M 311.160156 195.722656 L 86.589844 294.441406 L 0.628906 98.894531 L 225.203125 0.175781 Z M 311.160156 195.722656 " fill-opacity="1" fill-rule="nonzero"/></g></g></g></g></g></g></g></g><g clip-path="url(#a36ce0da30)"><g clip-path="url(#8175db1779)"><g clip-path="url(#3ca6419611)"><g transform="matrix(1, 0, 0, 1, 291, 426)"><g clip-path="url(#222f8ff001)"><g clip-path="url(#cf81d7132d)"><g clip-path="url(#8c2c59f987)"><g clip-path="url(#89269bc1c3)"><path fill="#27282c" d="M -23.382812 13.992188 L 220.390625 -13.433594 L 244.273438 198.832031 L 0.5 226.261719 Z M -23.382812 13.992188 " fill-opacity="1" fill-rule="nonzero"/></g></g></g></g></g></g></g></g><g clip-path="url(#0fedabe499)"><g clip-path="url(#fd0e30d3a6)"><g clip-path="url(#da4be40653)"><g transform="matrix(1, 0, 0, 1, 129, 431)"><g clip-path="url(#b24ed78946)"><g clip-path="url(#4b56ac5b47)"><g clip-path="url(#5da31c5c39)"><g clip-path="url(#0ea38eca88)"><path fill="#27282c" d="M -23.660156 14.28125 L 220.113281 -13.148438 L 243.996094 199.121094 L 0.222656 226.546875 Z M -23.660156 14.28125 " fill-opacity="1" fill-rule="nonzero"/></g></g></g></g></g></g></g></g></svg>