<svg xmlns="http://www.w3.org/2000/svg" viewBox="0 0 1440 810" width="1920" height="1080" preserveAspectRatio="xMidYMid meet">
  <defs>
    <linearGradient id="layer2Base" x1="0" y1="400" x2="0" y2="810" gradientUnits="userSpaceOnUse">
      <stop offset="0%" stop-color="#474a4f" />
      <stop offset="100%" stop-color="#2f3236" />
    </linearGradient>
    <linearGradient id="layer2Highlight" x1="0" y1="400" x2="0" y2="660" gradientUnits="userSpaceOnUse">
      <stop offset="0%" stop-color="#e8ebef" stop-opacity="0.18" />
      <stop offset="70%" stop-color="#e8ebef" stop-opacity="0.02" />
      <stop offset="100%" stop-color="#e8ebef" stop-opacity="0" />
    </linearGradient>
  </defs>
  <path d="M0 590 C 150 560 300 520 460 530 C 620 540 760 510 920 500 C 1080 490 1220 460 1340 470 C 1385 473 1410 480 1440 475 L 1440 810 L 0 810 Z" fill="url(#layer2Base)" />
  <path d="M0 590 C 150 560 300 520 460 530 C 620 540 760 510 920 500 C 1080 490 1220 460 1340 470 C 1385 473 1410 480 1440 475 L 1440 680 L 0 700 Z" fill="url(#layer2Highlight)" />
</svg>
