<svg xmlns="http://www.w3.org/2000/svg" xmlns:xlink="http://www.w3.org/1999/xlink" width="1920" zoomAndPan="magnify" viewBox="0 0 1440 809.999993" height="1080" preserveAspectRatio="xMidYMid meet" version="1.0"><defs><clipPath id="a308a6e55d"><path d="M 0 398 L 210 398 L 210 636 L 0 636 Z M 0 398 " clip-rule="nonzero"/></clipPath><clipPath id="1b40971e28"><path d="M -112.679688 484.742188 L 59.398438 312.664062 L 209.75 463.011719 L 37.671875 635.089844 Z M -112.679688 484.742188 " clip-rule="nonzero"/></clipPath><clipPath id="e62517b62a"><path d="M -26.765625 398.828125 L 209.496094 463.261719 L 37.671875 635.089844 Z M -26.765625 398.828125 " clip-rule="nonzero"/></clipPath><clipPath id="0bbb0ad2b4"><path d="M 0 0.640625 L 209.519531 0.640625 L 209.519531 237.28125 L 0 237.28125 Z M 0 0.640625 " clip-rule="nonzero"/></clipPath><clipPath id="3d77dacb6d"><path d="M -112.679688 86.742188 L 59.398438 -85.335938 L 209.75 65.011719 L 37.671875 237.089844 Z M -112.679688 86.742188 " clip-rule="nonzero"/></clipPath><clipPath id="bdf1880298"><path d="M -26.765625 0.828125 L 209.496094 65.261719 L 37.671875 237.089844 Z M -26.765625 0.828125 " clip-rule="nonzero"/></clipPath><clipPath id="8fb5fe0f6d"><rect x="0" width="210" y="0" height="238"/></clipPath><clipPath id="e644b70e72"><path d="M 162 456 L 402 456 L 402 690 L 162 690 Z M 162 456 " clip-rule="nonzero"/></clipPath><clipPath id="37c3436ad4"><path d="M 81 545.773438 L 245.070312 366.042969 L 402.105469 509.394531 L 238.035156 689.125 Z M 81 545.773438 " clip-rule="nonzero"/></clipPath><clipPath id="374bc8164b"><path d="M 162.914062 456.039062 L 401.863281 509.660156 L 238.035156 689.125 Z M 162.914062 456.039062 " clip-rule="nonzero"/></clipPath><clipPath id="417c9b5684"><path d="M 0.71875 0 L 240 0 L 240 233.28125 L 0.71875 233.28125 Z M 0.71875 0 " clip-rule="nonzero"/></clipPath><clipPath id="016d0bc7f6"><path d="M -81 89.773438 L 83.070312 -89.957031 L 240.105469 53.394531 L 76.035156 233.125 Z M -81 89.773438 " clip-rule="nonzero"/></clipPath><clipPath id="c962dadd73"><path d="M 0.914062 0.0390625 L 239.863281 53.660156 L 76.035156 233.125 Z M 0.914062 0.0390625 " clip-rule="nonzero"/></clipPath><clipPath id="3f28638d2f"><rect x="0" width="240" y="0" height="234"/></clipPath><clipPath id="bae6a7220e"><path d="M 385 506 L 602 506 L 602 752 L 385 752 Z M 385 506 " clip-rule="nonzero"/></clipPath><clipPath id="58a4b2f749"><path d="M 287.367188 563.03125 L 503.109375 450.429688 L 601.488281 638.925781 L 385.75 751.527344 Z M 287.367188 563.03125 " clip-rule="nonzero"/></clipPath><clipPath id="02ee40db4d"><path d="M 395.082031 506.8125 L 601.171875 639.089844 L 385.75 751.527344 Z M 395.082031 506.8125 " clip-rule="nonzero"/></clipPath><clipPath id="b9ae2c2520"><path d="M 0.679688 0.640625 L 216.199219 0.640625 L 216.199219 245.679688 L 0.679688 245.679688 Z M 0.679688 0.640625 " clip-rule="nonzero"/></clipPath><clipPath id="dcc9577412"><path d="M -97.632812 57.03125 L 118.109375 -55.570312 L 216.488281 132.925781 L 0.75 245.527344 Z M -97.632812 57.03125 " clip-rule="nonzero"/></clipPath><clipPath id="f42cee31b1"><path d="M 10.082031 0.8125 L 216.171875 133.089844 L 0.75 245.527344 Z M 10.082031 0.8125 " clip-rule="nonzero"/></clipPath><clipPath id="c528398973"><rect x="0" width="217" y="0" height="246"/></clipPath><clipPath id="ea3bc364ef"><path d="M 560 630 L 786 630 L 786 810 L 560 810 Z M 560 630 " clip-rule="nonzero"/></clipPath><clipPath id="d9bbaa9961"><path d="M 479.550781 676.980469 L 704.5625 584.285156 L 785.550781 780.882812 L 560.539062 873.578125 Z M 479.550781 676.980469 " clip-rule="nonzero"/></clipPath><clipPath id="26f265b6e9"><path d="M 591.890625 630.703125 L 785.222656 781.019531 L 560.539062 873.578125 Z M 591.890625 630.703125 " clip-rule="nonzero"/></clipPath><clipPath id="4e60496f53"><path d="M 0.398438 0.480469 L 225.28125 0.480469 L 225.28125 180 L 0.398438 180 Z M 0.398438 0.480469 " clip-rule="nonzero"/></clipPath><clipPath id="dae1f16b2d"><path d="M -80.449219 46.980469 L 144.5625 -45.714844 L 225.550781 150.882812 L 0.539062 243.578125 Z M -80.449219 46.980469 " clip-rule="nonzero"/></clipPath><clipPath id="6005d7f437"><path d="M 31.890625 0.703125 L 225.222656 151.019531 L 0.539062 243.578125 Z M 31.890625 0.703125 " clip-rule="nonzero"/></clipPath><clipPath id="ac5370ce32"><rect x="0" width="226" y="0" height="180"/></clipPath><clipPath id="303299cd39"><path d="M 679 636 L 899 636 L 899 810 L 679 810 Z M 679 636 " clip-rule="nonzero"/></clipPath><clipPath id="24ba3a82d5"><path d="M 671.582031 866.203125 L 686.664062 623.316406 L 898.882812 636.492188 L 883.800781 879.382812 Z M 671.582031 866.203125 " clip-rule="nonzero"/></clipPath><clipPath id="757c633b4e"><path d="M 679.113281 744.9375 L 898.859375 636.847656 L 883.800781 879.382812 Z M 679.113281 744.9375 " clip-rule="nonzero"/></clipPath><clipPath id="0f57193282"><path d="M 0 0.71875 L 220 0.71875 L 220 174 L 0 174 Z M 0 0.71875 " clip-rule="nonzero"/></clipPath><clipPath id="196f501bae"><path d="M -7.417969 230.203125 L 7.664062 -12.683594 L 219.882812 0.492188 L 204.800781 243.382812 Z M -7.417969 230.203125 " clip-rule="nonzero"/></clipPath><clipPath id="5ae8e39b83"><path d="M 0.113281 108.9375 L 219.859375 0.847656 L 204.800781 243.382812 Z M 0.113281 108.9375 " clip-rule="nonzero"/></clipPath><clipPath id="f5eff4e170"><rect x="0" width="220" y="0" height="174"/></clipPath><clipPath id="dab9714337"><path d="M 898 553 L 1129 553 L 1129 793 L 898 793 Z M 898 553 " clip-rule="nonzero"/></clipPath><clipPath id="c8f71b1be8"><path d="M 877.410156 756.546875 L 918.734375 516.722656 L 1128.269531 552.832031 L 1086.945312 792.652344 Z M 877.410156 756.546875 " clip-rule="nonzero"/></clipPath><clipPath id="38756deef5"><path d="M 898.042969 636.8125 L 1128.210938 553.179688 L 1086.945312 792.652344 Z M 898.042969 636.8125 " clip-rule="nonzero"/></clipPath><clipPath id="45bcf037d4"><path d="M 0 0 L 230.238281 0 L 230.238281 239.71875 L 0 239.71875 Z M 0 0 " clip-rule="nonzero"/></clipPath><clipPath id="6750bb0910"><path d="M -20.589844 203.546875 L 20.734375 -36.277344 L 230.269531 -0.167969 L 188.945312 239.652344 Z M -20.589844 203.546875 " clip-rule="nonzero"/></clipPath><clipPath id="849e537270"><path d="M 0.0429688 83.8125 L 230.210938 0.179688 L 188.945312 239.652344 Z M 0.0429688 83.8125 " clip-rule="nonzero"/></clipPath><clipPath id="88a8974394"><rect x="0" width="231" y="0" height="240"/></clipPath><clipPath id="86de6fda68"><path d="M 1123 484 L 1359 484 L 1359 722 L 1123 722 Z M 1123 484 " clip-rule="nonzero"/></clipPath><clipPath id="2f3cd5a552"><path d="M 1095.308594 671.199219 L 1152.390625 434.632812 L 1359.082031 484.503906 L 1302.003906 721.070312 Z M 1095.308594 671.199219 " clip-rule="nonzero"/></clipPath><clipPath id="675b37c123"><path d="M 1123.808594 553.089844 L 1359 484.851562 L 1302.003906 721.070312 Z M 1123.808594 553.089844 " clip-rule="nonzero"/></clipPath><clipPath id="eef690df87"><path d="M 0.679688 0.800781 L 236 0.800781 L 236 237.199219 L 0.679688 237.199219 Z M 0.679688 0.800781 " clip-rule="nonzero"/></clipPath><clipPath id="a8e447fd26"><path d="M -27.691406 187.199219 L 29.390625 -49.367188 L 236.082031 0.503906 L 179.003906 237.070312 Z M -27.691406 187.199219 " clip-rule="nonzero"/></clipPath><clipPath id="264793dbf2"><path d="M 0.808594 69.089844 L 236 0.851562 L 179.003906 237.070312 Z M 0.808594 69.089844 " clip-rule="nonzero"/></clipPath><clipPath id="f97e655fb8"><rect x="0" width="236" y="0" height="238"/></clipPath><clipPath id="ea63e329cb"><path d="M 1294 366 L 1440 366 L 1440 602 L 1294 602 Z M 1294 366 " clip-rule="nonzero"/></clipPath><clipPath id="d4dcdd69f1"><path d="M 1324.597656 654.558594 L 1264.0625 418.855469 L 1470.003906 365.960938 L 1530.539062 601.667969 Z M 1324.597656 654.558594 " clip-rule="nonzero"/></clipPath><clipPath id="ffedc5ee2d"><path d="M 1294.375 536.878906 L 1470.09375 366.308594 L 1530.539062 601.667969 Z M 1294.375 536.878906 " clip-rule="nonzero"/></clipPath><clipPath id="4724611455"><path d="M 0.320312 0.238281 L 146 0.238281 L 146 235.679688 L 0.320312 235.679688 Z M 0.320312 0.238281 " clip-rule="nonzero"/></clipPath><clipPath id="616c3ecf64"><path d="M 30.597656 288.558594 L -29.9375 52.855469 L 176.003906 -0.0390625 L 236.539062 235.667969 Z M 30.597656 288.558594 " clip-rule="nonzero"/></clipPath><clipPath id="d5b9b66d7f"><path d="M 0.375 170.878906 L 176.09375 0.308594 L 236.539062 235.667969 Z M 0.375 170.878906 " clip-rule="nonzero"/></clipPath><clipPath id="602bf80d91"><rect x="0" width="146" y="0" height="236"/></clipPath><clipPath id="fdc97b47de"><path d="M 287 128 L 1440 128 L 1440 810 L 287 810 Z M 287 128 " clip-rule="nonzero"/></clipPath><clipPath id="d7ece395fb"><path d="M 2444.757812 412.671875 L 398.625 1215.910156 L 287.113281 931.847656 L 2333.246094 128.609375 Z M 2444.757812 412.671875 " clip-rule="nonzero"/></clipPath><clipPath id="def20cb774"><path d="M 1421.8125 814.242188 L 287.359375 931.75 L 2333.246094 128.609375 Z M 1421.8125 814.242188 " clip-rule="nonzero"/></clipPath><clipPath id="656ed84eef"><path d="M 0.28125 0.398438 L 1153 0.398438 L 1153 682 L 0.28125 682 Z M 0.28125 0.398438 " clip-rule="nonzero"/></clipPath><clipPath id="3c926d2b60"><path d="M 2157.757812 284.671875 L 111.625 1087.910156 L 0.113281 803.847656 L 2046.246094 0.609375 Z M 2157.757812 284.671875 " clip-rule="nonzero"/></clipPath><clipPath id="bef0edbf7d"><path d="M 1134.8125 686.242188 L 0.359375 803.75 L 2046.246094 0.609375 Z M 1134.8125 686.242188 " clip-rule="nonzero"/></clipPath><clipPath id="29d4949085"><rect x="0" width="1153" y="0" height="682"/></clipPath><clipPath id="522918710d"><path d="M 0 205 L 1440 205 L 1440 810 L 0 810 Z M 0 205 " clip-rule="nonzero"/></clipPath><clipPath id="5d21aa5aee"><path d="M 1446.648438 1531.3125 L -479.820312 472.746094 L -332.863281 205.296875 L 1593.609375 1263.863281 Z M 1446.648438 1531.3125 " clip-rule="nonzero"/></clipPath><clipPath id="290fcbe14b"><path d="M 483.53125 1002.09375 L -332.632812 205.425781 L 1593.609375 1263.863281 Z M 483.53125 1002.09375 " clip-rule="nonzero"/></clipPath><clipPath id="154226ee77"><path d="M 0 0.199219 L 1440 0.199219 L 1440 605 L 0 605 Z M 0 0.199219 " clip-rule="nonzero"/></clipPath><clipPath id="51e2984b36"><path d="M 1446.648438 1326.3125 L -479.820312 267.746094 L -332.863281 0.296875 L 1593.609375 1058.863281 Z M 1446.648438 1326.3125 " clip-rule="nonzero"/></clipPath><clipPath id="0baaa2bf87"><path d="M 483.53125 797.09375 L -332.632812 0.425781 L 1593.609375 1058.863281 Z M 483.53125 797.09375 " clip-rule="nonzero"/></clipPath><clipPath id="634ed25b9e"><rect x="0" width="1440" y="0" height="605"/></clipPath><clipPath id="9906893bfb"><path d="M 0 88 L 1129 88 L 1129 810 L 0 810 Z M 0 88 " clip-rule="nonzero"/></clipPath><clipPath id="9fcf5f78bf"><path d="M 981.246094 1414.457031 L -945.226562 355.894531 L -798.269531 88.445312 L 1128.203125 1147.007812 Z M 981.246094 1414.457031 " clip-rule="nonzero"/></clipPath><clipPath id="d805d1e76c"><path d="M 18.125 885.238281 L -798.035156 88.570312 L 1128.203125 1147.007812 Z M 18.125 885.238281 " clip-rule="nonzero"/></clipPath><clipPath id="494008b978"><path d="M 0 0.558594 L 1128.238281 0.558594 L 1128.238281 722 L 0 722 Z M 0 0.558594 " clip-rule="nonzero"/></clipPath><clipPath id="6b8fe97987"><path d="M 981.246094 1326.457031 L -945.226562 267.894531 L -798.269531 0.445312 L 1128.203125 1059.007812 Z M 981.246094 1326.457031 " clip-rule="nonzero"/></clipPath><clipPath id="8a3cd18d1a"><path d="M 18.125 797.238281 L -798.035156 0.570312 L 1128.203125 1059.007812 Z M 18.125 797.238281 " clip-rule="nonzero"/></clipPath><clipPath id="2dec197e75"><rect x="0" width="1129" y="0" height="722"/></clipPath><clipPath id="8b924613ea"><path d="M 361 501 L 668 501 L 668 810 L 361 810 Z M 361 501 " clip-rule="nonzero"/></clipPath><clipPath id="9ba9ae820d"><path d="M 508.667969 941.003906 L 213.234375 761.488281 L 371.703125 500.691406 L 667.136719 680.207031 Z M 508.667969 941.003906 " clip-rule="nonzero"/></clipPath><clipPath id="5c0e84ef2a"><path d="M 361.296875 851.457031 L 372.402344 501.117188 L 667.136719 680.207031 Z M 361.296875 851.457031 " clip-rule="nonzero"/></clipPath><clipPath id="65990d0db2"><path d="M 0.199219 0 L 306.199219 0 L 306.199219 309 L 0.199219 309 Z M 0.199219 0 " clip-rule="nonzero"/></clipPath><clipPath id="fbc64d575d"><path d="M 147.667969 440.003906 L -147.765625 260.488281 L 10.703125 -0.308594 L 306.136719 179.207031 Z M 147.667969 440.003906 " clip-rule="nonzero"/></clipPath><clipPath id="e25d73b867"><path d="M 0.296875 350.457031 L 11.402344 0.117188 L 306.136719 179.207031 Z M 0.296875 350.457031 " clip-rule="nonzero"/></clipPath><clipPath id="85c7fa366e"><rect x="0" width="307" y="0" height="309"/></clipPath><clipPath id="56d8db5880"><path d="M 322 509 L 629 509 L 629 810 L 322 810 Z M 322 509 " clip-rule="nonzero"/></clipPath><clipPath id="13e7355d6c"><path d="M 469.992188 948.933594 L 174.558594 769.414062 L 333.027344 508.621094 L 628.460938 688.136719 Z M 469.992188 948.933594 " clip-rule="nonzero"/></clipPath><clipPath id="997f85795c"><path d="M 322.625 859.386719 L 333.726562 509.042969 L 628.460938 688.136719 Z M 322.625 859.386719 " clip-rule="nonzero"/></clipPath><clipPath id="f25ee550e4"><path d="M 0.558594 0.0390625 L 306.558594 0.0390625 L 306.558594 301 L 0.558594 301 Z M 0.558594 0.0390625 " clip-rule="nonzero"/></clipPath><clipPath id="7e2c4de679"><path d="M 147.992188 439.933594 L -147.441406 260.414062 L 11.027344 -0.378906 L 306.460938 179.136719 Z M 147.992188 439.933594 " clip-rule="nonzero"/></clipPath><clipPath id="d0ebc852af"><path d="M 0.625 350.386719 L 11.726562 0.0429688 L 306.460938 179.136719 Z M 0.625 350.386719 " clip-rule="nonzero"/></clipPath><clipPath id="6cd74ba5a1"><rect x="0" width="307" y="0" height="301"/></clipPath><clipPath id="e0335b5f2d"><path d="M 867 635 L 1185 635 L 1185 810 L 867 810 Z M 867 635 " clip-rule="nonzero"/></clipPath><clipPath id="a04636fa06"><path d="M 1014.726562 1093.511719 L 719.019531 913.832031 L 888.757812 634.492188 L 1184.464844 814.175781 Z M 1014.726562 1093.511719 " clip-rule="nonzero"/></clipPath><clipPath id="050402d6f4"><path d="M 867.359375 1003.96875 L 889.730469 635.082031 L 1184.464844 814.175781 Z M 867.359375 1003.96875 " clip-rule="nonzero"/></clipPath><clipPath id="81a5affb40"><path d="M 0.121094 0.0390625 L 317.640625 0.0390625 L 317.640625 175 L 0.121094 175 Z M 0.121094 0.0390625 " clip-rule="nonzero"/></clipPath><clipPath id="bcce1602d4"><path d="M 147.726562 458.511719 L -147.980469 278.832031 L 21.757812 -0.507812 L 317.464844 179.175781 Z M 147.726562 458.511719 " clip-rule="nonzero"/></clipPath><clipPath id="7564c57969"><path d="M 0.359375 368.96875 L 22.730469 0.0820312 L 317.464844 179.175781 Z M 0.359375 368.96875 " clip-rule="nonzero"/></clipPath><clipPath id="f734a02dae"><rect x="0" width="318" y="0" height="175"/></clipPath><clipPath id="dccbb260c5"><path d="M 1099 548 L 1417 548 L 1417 810 L 1099 810 Z M 1099 548 " clip-rule="nonzero"/></clipPath><clipPath id="d7ebac375f"><path d="M 1246.964844 1006.597656 L 951.257812 826.914062 L 1120.996094 547.574219 L 1416.699219 727.257812 Z M 1246.964844 1006.597656 " clip-rule="nonzero"/></clipPath><clipPath id="cdcb7c85cd"><path d="M 1099.597656 917.050781 L 1121.964844 548.164062 L 1416.699219 727.257812 Z M 1099.597656 917.050781 " clip-rule="nonzero"/></clipPath><clipPath id="245aa79901"><path d="M 0.441406 0.160156 L 317.71875 0.160156 L 317.71875 262 L 0.441406 262 Z M 0.441406 0.160156 " clip-rule="nonzero"/></clipPath><clipPath id="d17d7715a8"><path d="M 147.964844 458.597656 L -147.742188 278.914062 L 21.996094 -0.425781 L 317.699219 179.257812 Z M 147.964844 458.597656 " clip-rule="nonzero"/></clipPath><clipPath id="1602d176a8"><path d="M 0.597656 369.050781 L 22.964844 0.164062 L 317.699219 179.257812 Z M 0.597656 369.050781 " clip-rule="nonzero"/></clipPath><clipPath id="53beceb736"><rect x="0" width="318" y="0" height="262"/></clipPath><clipPath id="40e1f4c4fc"><path d="M 608 623 L 924 623 L 924 810 L 608 810 Z M 608 623 " clip-rule="nonzero"/></clipPath><clipPath id="4febf135ce"><path d="M 1057.375 921.644531 L 741.9375 1063.871094 L 607.585938 765.894531 L 923.019531 623.667969 Z M 1057.375 921.644531 " clip-rule="nonzero"/></clipPath><clipPath id="fc1966c529"><path d="M 900.175781 992.523438 L 608.621094 765.425781 L 923.019531 623.667969 Z M 900.175781 992.523438 " clip-rule="nonzero"/></clipPath><clipPath id="68305b5da4"><path d="M 0.398438 0.519531 L 315.039062 0.519531 L 315.039062 187 L 0.398438 187 Z M 0.398438 0.519531 " clip-rule="nonzero"/></clipPath><clipPath id="bf1d6b5663"><path d="M 449.375 298.644531 L 133.9375 440.871094 L -0.414062 142.894531 L 315.019531 0.667969 Z M 449.375 298.644531 " clip-rule="nonzero"/></clipPath><clipPath id="31df0ed59b"><path d="M 292.175781 369.523438 L 0.621094 142.425781 L 315.019531 0.667969 Z M 292.175781 369.523438 " clip-rule="nonzero"/></clipPath><clipPath id="077966116e"><rect x="0" width="316" y="0" height="187"/></clipPath></defs><g clip-path="url(#a308a6e55d)"><g clip-path="url(#1b40971e28)"><g clip-path="url(#e62517b62a)"><g transform="matrix(1, 0, 0, 1, 0, 398)"><g clip-path="url(#8fb5fe0f6d)"><g clip-path="url(#0bbb0ad2b4)"><g clip-path="url(#3d77dacb6d)"><g clip-path="url(#bdf1880298)"><path fill="#2d2e31" d="M -112.679688 86.742188 L 59.398438 -85.335938 L 209.75 65.011719 L 37.671875 237.089844 Z M -112.679688 86.742188 " fill-opacity="1" fill-rule="nonzero"/></g></g></g></g></g></g></g></g><g clip-path="url(#e644b70e72)"><g clip-path="url(#37c3436ad4)"><g clip-path="url(#374bc8164b)"><g transform="matrix(1, 0, 0, 1, 162, 456)"><g clip-path="url(#3f28638d2f)"><g clip-path="url(#417c9b5684)"><g clip-path="url(#016d0bc7f6)"><g clip-path="url(#c962dadd73)"><path fill="#2d2e31" d="M -81 89.773438 L 83.070312 -89.957031 L 240.105469 53.394531 L 76.035156 233.125 Z M -81 89.773438 " fill-opacity="1" fill-rule="nonzero"/></g></g></g></g></g></g></g></g><g clip-path="url(#bae6a7220e)"><g clip-path="url(#58a4b2f749)"><g clip-path="url(#02ee40db4d)"><g transform="matrix(1, 0, 0, 1, 385, 506)"><g clip-path="url(#c528398973)"><g clip-path="url(#b9ae2c2520)"><g clip-path="url(#dcc9577412)"><g clip-path="url(#f42cee31b1)"><path fill="#2d2e31" d="M -97.632812 57.03125 L 118.109375 -55.570312 L 216.488281 132.925781 L 0.75 245.527344 Z M -97.632812 57.03125 " fill-opacity="1" fill-rule="nonzero"/></g></g></g></g></g></g></g></g><g clip-path="url(#ea3bc364ef)"><g clip-path="url(#d9bbaa9961)"><g clip-path="url(#26f265b6e9)"><g transform="matrix(1, 0, 0, 1, 560, 630)"><g clip-path="url(#ac5370ce32)"><g clip-path="url(#4e60496f53)"><g clip-path="url(#dae1f16b2d)"><g clip-path="url(#6005d7f437)"><path fill="#2d2e31" d="M -80.449219 46.980469 L 144.5625 -45.714844 L 225.550781 150.882812 L 0.539062 243.578125 Z M -80.449219 46.980469 " fill-opacity="1" fill-rule="nonzero"/></g></g></g></g></g></g></g></g><g clip-path="url(#303299cd39)"><g clip-path="url(#24ba3a82d5)"><g clip-path="url(#757c633b4e)"><g transform="matrix(1, 0, 0, 1, 679, 636)"><g clip-path="url(#f5eff4e170)"><g clip-path="url(#0f57193282)"><g clip-path="url(#196f501bae)"><g clip-path="url(#5ae8e39b83)"><path fill="#2d2e31" d="M -7.417969 230.203125 L 7.664062 -12.683594 L 219.882812 0.492188 L 204.800781 243.382812 Z M -7.417969 230.203125 " fill-opacity="1" fill-rule="nonzero"/></g></g></g></g></g></g></g></g><g clip-path="url(#dab9714337)"><g clip-path="url(#c8f71b1be8)"><g clip-path="url(#38756deef5)"><g transform="matrix(1, 0, 0, 1, 898, 553)"><g clip-path="url(#88a8974394)"><g clip-path="url(#45bcf037d4)"><g clip-path="url(#6750bb0910)"><g clip-path="url(#849e537270)"><path fill="#2d2e31" d="M -20.589844 203.546875 L 20.734375 -36.277344 L 230.269531 -0.167969 L 188.945312 239.652344 Z M -20.589844 203.546875 " fill-opacity="1" fill-rule="nonzero"/></g></g></g></g></g></g></g></g><g clip-path="url(#86de6fda68)"><g clip-path="url(#2f3cd5a552)"><g clip-path="url(#675b37c123)"><g transform="matrix(1, 0, 0, 1, 1123, 484)"><g clip-path="url(#f97e655fb8)"><g clip-path="url(#eef690df87)"><g clip-path="url(#a8e447fd26)"><g clip-path="url(#264793dbf2)"><path fill="#2d2e31" d="M -27.691406 187.199219 L 29.390625 -49.367188 L 236.082031 0.503906 L 179.003906 237.070312 Z M -27.691406 187.199219 " fill-opacity="1" fill-rule="nonzero"/></g></g></g></g></g></g></g></g><g clip-path="url(#ea63e329cb)"><g clip-path="url(#d4dcdd69f1)"><g clip-path="url(#ffedc5ee2d)"><g transform="matrix(1, 0, 0, 1, 1294, 366)"><g clip-path="url(#602bf80d91)"><g clip-path="url(#4724611455)"><g clip-path="url(#616c3ecf64)"><g clip-path="url(#d5b9b66d7f)"><path fill="#2d2e31" d="M 30.597656 288.558594 L -29.9375 52.855469 L 176.003906 -0.0390625 L 236.539062 235.667969 Z M 30.597656 288.558594 " fill-opacity="1" fill-rule="nonzero"/></g></g></g></g></g></g></g></g><g clip-path="url(#fdc97b47de)"><g clip-path="url(#d7ece395fb)"><g clip-path="url(#def20cb774)"><g transform="matrix(1, 0, 0, 1, 287, 128)"><g clip-path="url(#29d4949085)"><g clip-path="url(#656ed84eef)"><g clip-path="url(#3c926d2b60)"><g clip-path="url(#bef0edbf7d)"><path fill="#2d2e31" d="M 2157.757812 284.671875 L 111.625 1087.910156 L 0.113281 803.847656 L 2046.246094 0.609375 Z M 2157.757812 284.671875 " fill-opacity="1" fill-rule="nonzero"/></g></g></g></g></g></g></g></g><g clip-path="url(#522918710d)"><g clip-path="url(#5d21aa5aee)"><g clip-path="url(#290fcbe14b)"><g transform="matrix(1, 0, 0, 1, 0, 205)"><g clip-path="url(#634ed25b9e)"><g clip-path="url(#154226ee77)"><g clip-path="url(#51e2984b36)"><g clip-path="url(#0baaa2bf87)"><path fill="#2d2e31" d="M 1446.648438 1326.3125 L -479.820312 267.746094 L -332.863281 0.296875 L 1593.609375 1058.863281 Z M 1446.648438 1326.3125 " fill-opacity="1" fill-rule="nonzero"/></g></g></g></g></g></g></g></g><g clip-path="url(#9906893bfb)"><g clip-path="url(#9fcf5f78bf)"><g clip-path="url(#d805d1e76c)"><g transform="matrix(1, 0, 0, 1, 0, 88)"><g clip-path="url(#2dec197e75)"><g clip-path="url(#494008b978)"><g clip-path="url(#6b8fe97987)"><g clip-path="url(#8a3cd18d1a)"><path fill="#2d2e31" d="M 981.246094 1326.457031 L -945.226562 267.894531 L -798.269531 0.441406 L 1128.203125 1059.007812 Z M 981.246094 1326.457031 " fill-opacity="1" fill-rule="nonzero"/></g></g></g></g></g></g></g></g><g clip-path="url(#8b924613ea)"><g clip-path="url(#9ba9ae820d)"><g clip-path="url(#5c0e84ef2a)"><g transform="matrix(1, 0, 0, 1, 361, 501)"><g clip-path="url(#85c7fa366e)"><g clip-path="url(#65990d0db2)"><g clip-path="url(#fbc64d575d)"><g clip-path="url(#e25d73b867)"><path fill="#2d2e31" d="M 147.667969 440.003906 L -146.746094 261.105469 L 11.722656 0.3125 L 306.136719 179.207031 Z M 147.667969 440.003906 " fill-opacity="1" fill-rule="nonzero"/></g></g></g></g></g></g></g></g><g clip-path="url(#56d8db5880)"><g clip-path="url(#13e7355d6c)"><g clip-path="url(#997f85795c)"><g transform="matrix(1, 0, 0, 1, 322, 509)"><g clip-path="url(#6cd74ba5a1)"><g clip-path="url(#f25ee550e4)"><g clip-path="url(#7e2c4de679)"><g clip-path="url(#d0ebc852af)"><path fill="#2d2e31" d="M 147.992188 439.933594 L -146.421875 261.035156 L 12.046875 0.242188 L 306.460938 179.136719 Z M 147.992188 439.933594 " fill-opacity="1" fill-rule="nonzero"/></g></g></g></g></g></g></g></g><g clip-path="url(#e0335b5f2d)"><g clip-path="url(#a04636fa06)"><g clip-path="url(#050402d6f4)"><g transform="matrix(1, 0, 0, 1, 867, 635)"><g clip-path="url(#f734a02dae)"><g clip-path="url(#81a5affb40)"><g clip-path="url(#bcce1602d4)"><g clip-path="url(#7564c57969)"><path fill="#2d2e31" d="M 147.726562 458.511719 L -146.886719 279.492188 L 22.851562 0.15625 L 317.464844 179.175781 Z M 147.726562 458.511719 " fill-opacity="1" fill-rule="nonzero"/></g></g></g></g></g></g></g></g><g clip-path="url(#dccbb260c5)"><g clip-path="url(#d7ebac375f)"><g clip-path="url(#cdcb7c85cd)"><g transform="matrix(1, 0, 0, 1, 1099, 548)"><g clip-path="url(#53beceb736)"><g clip-path="url(#245aa79901)"><g clip-path="url(#d17d7715a8)"><g clip-path="url(#1602d176a8)"><path fill="#2d2e31" d="M 147.964844 458.597656 L -146.652344 279.574219 L 23.085938 0.238281 L 317.699219 179.257812 Z M 147.964844 458.597656 " fill-opacity="1" fill-rule="nonzero"/></g></g></g></g></g></g></g></g><g clip-path="url(#40e1f4c4fc)"><g clip-path="url(#4febf135ce)"><g clip-path="url(#fc1966c529)"><g transform="matrix(1, 0, 0, 1, 608, 623)"><g clip-path="url(#077966116e)"><g clip-path="url(#68305b5da4)"><g clip-path="url(#bf1d6b5663)"><g clip-path="url(#31df0ed59b)"><path fill="#2d2e31" d="M 449.375 298.644531 L 135.101562 440.34375 L 0.746094 142.371094 L 315.019531 0.667969 Z M 449.375 298.644531 " fill-opacity="1" fill-rule="nonzero"/></g></g></g></g></g></g></g></g></svg>