<svg xmlns="http://www.w3.org/2000/svg" viewBox="0 0 1440 810" width="1920" height="1080" preserveAspectRatio="xMidYMid meet">
  <defs>
    <linearGradient id="layer3Base" x1="0" y1="360" x2="0" y2="810" gradientUnits="userSpaceOnUse">
      <stop offset="0%" stop-color="#55585c" />
      <stop offset="100%" stop-color="#3f4246" />
    </linearGradient>
    <linearGradient id="layer3Highlight" x1="0" y1="360" x2="0" y2="610" gradientUnits="userSpaceOnUse">
      <stop offset="0%" stop-color="#f0f2f5" stop-opacity="0.2" />
      <stop offset="65%" stop-color="#f0f2f5" stop-opacity="0.02" />
      <stop offset="100%" stop-color="#f0f2f5" stop-opacity="0" />
    </linearGradient>
  </defs>
  <path d="M0 540 C 160 510 280 470 430 480 C 580 490 700 460 840 450 C 980 440 1140 410 1280 420 C 1390 430 1420 450 1440 440 L 1440 810 L 0 810 Z" fill="url(#layer3Base)" />
  <path d="M0 540 C 160 510 280 470 430 480 C 580 490 700 460 840 450 C 980 440 1140 410 1280 420 C 1390 430 1420 450 1440 440 L 1440 640 L 0 660 Z" fill="url(#layer3Highlight)" />
</svg>
