<svg xmlns="http://www.w3.org/2000/svg" viewBox="0 0 1440 810" width="1920" height="1080" preserveAspectRatio="xMidYMid meet">
  <defs>
    <linearGradient id="layer4Base" x1="0" y1="320" x2="0" y2="810" gradientUnits="userSpaceOnUse">
      <stop offset="0%" stop-color="#63666a" />
      <stop offset="100%" stop-color="#4a4d51" />
    </linearGradient>
    <linearGradient id="layer4Highlight" x1="0" y1="320" x2="0" y2="560" gradientUnits="userSpaceOnUse">
      <stop offset="0%" stop-color="#f4f6f9" stop-opacity="0.25" />
      <stop offset="75%" stop-color="#f4f6f9" stop-opacity="0.02" />
      <stop offset="100%" stop-color="#f4f6f9" stop-opacity="0" />
    </linearGradient>
  </defs>
  <path d="M0 480 C 150 450 260 420 410 430 C 560 440 650 410 790 400 C 930 390 1080 370 1220 380 C 1350 390 1410 410 1440 400 L 1440 810 L 0 810 Z" fill="url(#layer4Base)" />
  <path d="M0 480 C 150 450 260 420 410 430 C 560 440 650 410 790 400 C 930 390 1080 370 1220 380 C 1350 390 1410 410 1440 400 L 1440 600 L 0 630 Z" fill="url(#layer4Highlight)" />
</svg>
