<svg xmlns="http://www.w3.org/2000/svg" viewBox="0 0 1440 810" width="1920" height="1080" preserveAspectRatio="xMidYMid meet">
  <defs>
    <linearGradient id="layer5Base" x1="0" y1="280" x2="0" y2="810" gradientUnits="userSpaceOnUse">
      <stop offset="0%" stop-color="#6d6f72" />
      <stop offset="100%" stop-color="#515356" />
    </linearGradient>
    <linearGradient id="layer5Highlight" x1="0" y1="280" x2="0" y2="520" gradientUnits="userSpaceOnUse">
      <stop offset="0%" stop-color="#f5f7fa" stop-opacity="0.28" />
      <stop offset="100%" stop-color="#f5f7fa" stop-opacity="0" />
    </linearGradient>
  </defs>
  <path d="M0 430 C 130 400 250 360 380 370 C 520 380 630 340 770 330 C 900 320 1050 300 1180 310 C 1310 320 1370 330 1440 320 L 1440 810 L 0 810 Z" fill="url(#layer5Base)" />
  <path d="M0 430 C 130 400 250 360 380 370 C 520 380 630 340 770 330 C 900 320 1050 300 1180 310 C 1310 320 1370 330 1440 320 L 1440 550 L 0 580 Z" fill="url(#layer5Highlight)" />
</svg>
