<svg xmlns="http://www.w3.org/2000/svg" xmlns:xlink="http://www.w3.org/1999/xlink" width="1920" zoomAndPan="magnify" viewBox="0 0 1440 809.999993" height="1080" preserveAspectRatio="xMidYMid meet" version="1.0"><defs><clipPath id="fee75cbeef"><path d="M 0 243 L 80 243 L 80 336 L 0 336 Z M 0 243 " clip-rule="nonzero"/></clipPath><clipPath id="e457cd3b6a"><path d="M -50.195312 283.839844 L 8.835938 202.988281 L 79.480469 254.5625 L 20.449219 335.417969 Z M -50.195312 283.839844 " clip-rule="nonzero"/></clipPath><clipPath id="9ee7a6ec03"><path d="M -20.722656 243.472656 L 79.394531 254.679688 L 20.449219 335.417969 Z M -20.722656 243.472656 " clip-rule="nonzero"/></clipPath><clipPath id="d4c27c7a08"><path d="M 0 0.359375 L 79.441406 0.359375 L 79.441406 92.519531 L 0 92.519531 Z M 0 0.359375 " clip-rule="nonzero"/></clipPath><clipPath id="31cbd159f3"><path d="M -50.195312 40.839844 L 8.835938 -40.011719 L 79.480469 11.5625 L 20.449219 92.417969 Z M -50.195312 40.839844 " clip-rule="nonzero"/></clipPath><clipPath id="b8ae5d4a9e"><path d="M -20.722656 0.472656 L 79.394531 11.679688 L 20.449219 92.417969 Z M -20.722656 0.472656 " clip-rule="nonzero"/></clipPath><clipPath id="2e528273bf"><rect x="0" width="80" y="0" height="93"/></clipPath><clipPath id="111337f981"><path d="M 72 254 L 162 254 L 162 355 L 72 355 Z M 72 254 " clip-rule="nonzero"/></clipPath><clipPath id="3b6c403710"><path d="M 29.960938 281.347656 L 114.1875 227.238281 L 161.464844 300.828125 L 77.238281 354.9375 Z M 29.960938 281.347656 " clip-rule="nonzero"/></clipPath><clipPath id="1a380d4188"><path d="M 72.011719 254.332031 L 161.339844 300.90625 L 77.238281 354.9375 Z M 72.011719 254.332031 " clip-rule="nonzero"/></clipPath><clipPath id="2e4197a802"><path d="M 0 0.160156 L 89.519531 0.160156 L 89.519531 100.960938 L 0 100.960938 Z M 0 0.160156 " clip-rule="nonzero"/></clipPath><clipPath id="6b140ac6c0"><path d="M -42.039062 27.347656 L 42.1875 -26.761719 L 89.464844 46.828125 L 5.238281 100.9375 Z M -42.039062 27.347656 " clip-rule="nonzero"/></clipPath><clipPath id="19b5231ae9"><path d="M 0.0117188 0.332031 L 89.339844 46.90625 L 5.238281 100.9375 Z M 0.0117188 0.332031 " clip-rule="nonzero"/></clipPath><clipPath id="c404d6fcb6"><rect x="0" width="90" y="0" height="101"/></clipPath><clipPath id="a685a1040d"><path d="M 0 249 L 103 249 L 103 660 L 0 660 Z M 0 249 " clip-rule="nonzero"/></clipPath><clipPath id="ce36787d05"><path d="M -256.65625 684.023438 L -284.800781 273.21875 L 74.128906 248.628906 L 102.273438 659.433594 Z M -256.65625 684.023438 " clip-rule="nonzero"/></clipPath><clipPath id="fb200b9bd2"><path d="M -270.707031 478.921875 L 74.167969 249.230469 L 102.273438 659.433594 Z M -270.707031 478.921875 " clip-rule="nonzero"/></clipPath><clipPath id="5152288599"><path d="M 0 0.121094 L 102.480469 0.121094 L 102.480469 410.519531 L 0 410.519531 Z M 0 0.121094 " clip-rule="nonzero"/></clipPath><clipPath id="ac44f4666f"><path d="M -256.65625 435.023438 L -284.800781 24.21875 L 74.128906 -0.371094 L 102.273438 410.433594 Z M -256.65625 435.023438 " clip-rule="nonzero"/></clipPath><clipPath id="e1deacd4e3"><path d="M -270.707031 229.921875 L 74.167969 0.230469 L 102.273438 410.433594 Z M -270.707031 229.921875 " clip-rule="nonzero"/></clipPath><clipPath id="fc05bad9ed"><rect x="0" width="103" y="0" height="411"/></clipPath><clipPath id="a145286fc8"><path d="M 0 249 L 52 249 L 52 660 L 0 660 Z M 0 249 " clip-rule="nonzero"/></clipPath><clipPath id="f5606323f1"><path d="M -307.789062 684.023438 L -335.933594 273.21875 L 22.996094 248.628906 L 51.140625 659.433594 Z M -307.789062 684.023438 " clip-rule="nonzero"/></clipPath><clipPath id="623fd1ccd5"><path d="M -321.839844 478.921875 L 23.035156 249.230469 L 51.140625 659.433594 Z M -321.839844 478.921875 " clip-rule="nonzero"/></clipPath><clipPath id="47bead737f"><path d="M 0 0.121094 L 51.359375 0.121094 L 51.359375 410.519531 L 0 410.519531 Z M 0 0.121094 " clip-rule="nonzero"/></clipPath><clipPath id="0d5fdea4a4"><path d="M -307.789062 435.023438 L -335.933594 24.21875 L 22.996094 -0.371094 L 51.140625 410.433594 Z M -307.789062 435.023438 " clip-rule="nonzero"/></clipPath><clipPath id="f54b198735"><path d="M -321.839844 229.921875 L 23.035156 0.230469 L 51.140625 410.433594 Z M -321.839844 229.921875 " clip-rule="nonzero"/></clipPath><clipPath id="e389e19720"><rect x="0" width="52" y="0" height="411"/></clipPath><clipPath id="5ac6363c6a"><path d="M 1 282 L 397 282 L 397 685 L 1 685 Z M 1 282 " clip-rule="nonzero"/></clipPath><clipPath id="00720a94f6"><path d="M -43.144531 606.742188 L 45.304688 204.585938 L 396.675781 281.867188 L 308.226562 684.023438 Z M -43.144531 606.742188 " clip-rule="nonzero"/></clipPath><clipPath id="1f2dfed958"><path d="M 1.015625 405.957031 L 396.546875 282.457031 L 308.226562 684.023438 Z M 1.015625 405.957031 " clip-rule="nonzero"/></clipPath><clipPath id="754b4af2b1"><path d="M 0 0.238281 L 395.71875 0.238281 L 395.71875 402.238281 L 0 402.238281 Z M 0 0.238281 " clip-rule="nonzero"/></clipPath><clipPath id="5f2a1f8eee"><path d="M -44.144531 324.742188 L 44.304688 -77.414062 L 395.675781 -0.132812 L 307.226562 402.023438 Z M -44.144531 324.742188 " clip-rule="nonzero"/></clipPath><clipPath id="381a6d3c74"><path d="M 0.015625 123.957031 L 395.546875 0.457031 L 307.226562 402.023438 Z M 0.015625 123.957031 " clip-rule="nonzero"/></clipPath><clipPath id="287ecbab05"><rect x="0" width="396" y="0" height="403"/></clipPath></defs><g clip-path="url(#fee75cbeef)"><g clip-path="url(#e457cd3b6a)"><g clip-path="url(#9ee7a6ec03)"><g transform="matrix(1, 0, 0, 1, 0, 243)"><g clip-path="url(#2e528273bf)"><g clip-path="url(#d4c27c7a08)"><g clip-path="url(#31cbd159f3)"><g clip-path="url(#b8ae5d4a9e)"><path fill="#686b6d" d="M -50.195312 40.839844 L 8.835938 -40.011719 L 79.480469 11.5625 L 20.449219 92.417969 Z M -50.195312 40.839844 " fill-opacity="1" fill-rule="nonzero"/></g></g></g></g></g></g></g></g><g clip-path="url(#111337f981)"><g clip-path="url(#3b6c403710)"><g clip-path="url(#1a380d4188)"><g transform="matrix(1, 0, 0, 1, 72, 254)"><g clip-path="url(#c404d6fcb6)"><g clip-path="url(#2e4197a802)"><g clip-path="url(#6b140ac6c0)"><g clip-path="url(#19b5231ae9)"><path fill="#686b6d" d="M -42.039062 27.347656 L 42.1875 -26.761719 L 89.464844 46.828125 L 5.238281 100.9375 Z M -42.039062 27.347656 " fill-opacity="1" fill-rule="nonzero"/></g></g></g></g></g></g></g></g><g clip-path="url(#a685a1040d)"><g clip-path="url(#ce36787d05)"><g clip-path="url(#fb200b9bd2)"><g transform="matrix(1, 0, 0, 1, 0, 249)"><g clip-path="url(#fc05bad9ed)"><g clip-path="url(#5152288599)"><g clip-path="url(#ac44f4666f)"><g clip-path="url(#e1deacd4e3)"><path fill="#686b6d" d="M -256.65625 435.023438 L -284.800781 24.21875 L 74.128906 -0.371094 L 102.273438 410.433594 Z M -256.65625 435.023438 " fill-opacity="1" fill-rule="nonzero"/></g></g></g></g></g></g></g></g><g clip-path="url(#a145286fc8)"><g clip-path="url(#f5606323f1)"><g clip-path="url(#623fd1ccd5)"><g transform="matrix(1, 0, 0, 1, 0, 249)"><g clip-path="url(#e389e19720)"><g clip-path="url(#47bead737f)"><g clip-path="url(#0d5fdea4a4)"><g clip-path="url(#f54b198735)"><path fill="#686b6d" d="M -307.789062 435.023438 L -335.933594 24.21875 L 22.996094 -0.371094 L 51.140625 410.433594 Z M -307.789062 435.023438 " fill-opacity="1" fill-rule="nonzero"/></g></g></g></g></g></g></g></g><g clip-path="url(#5ac6363c6a)"><g clip-path="url(#00720a94f6)"><g clip-path="url(#1f2dfed958)"><g transform="matrix(1, 0, 0, 1, 1, 282)"><g clip-path="url(#287ecbab05)"><g clip-path="url(#754b4af2b1)"><g clip-path="url(#5f2a1f8eee)"><g clip-path="url(#381a6d3c74)"><path fill="#686b6d" d="M -44.144531 324.742188 L 44.304688 -77.414062 L 395.675781 -0.132812 L 307.226562 402.023438 Z M -44.144531 324.742188 " fill-opacity="1" fill-rule="nonzero"/></g></g></g></g></g></g></g></g></svg>