<?xml version="1.0" encoding="utf-8"?>
<!-- Generator: Adobe Illustrator 27.9.0, SVG Export Plug-In . SVG Version: 6.00 Build 0)  -->
<svg version="1.1" id="Слой_1" xmlns="http://www.w3.org/2000/svg" xmlns:xlink="http://www.w3.org/1999/xlink" x="0px" y="0px"
	 viewBox="0 0 2000 665.2" style="enable-background:new 0 0 2000 665.2;" xml:space="preserve">
<g>
	<g>
		<path d="M1126,293.2c-6.1,30.4-8.6,61.1,2.2,91.6c0.4,1.2,0.9,2.3,1.4,3.5c12.4,29.2,36.3,40.6,66.8,31.6
			c21.7-6.4,39.8-19,56.5-33.7c28.8-25.2,53-54.4,75.5-85.1c8.6-11.7,17-23.5,25.2-35.4c4.2-6.1,7.6-12.8,11.8-19
			c5.8-8.5,11.6-16.9,18.1-24.8c1.8-2.2,5.8-3.1,9-3.6c9.3-1.4,18.8-2.2,28.1-3.3c3.9-0.5,5.9-3.1,7.9-6.4
			c8.3-13.6,16.8-27.2,25.8-40.5c2.4-3.6,6.2-6.7,10-9c6.9-4.3,14.1,0.1,13.4,8.2c-0.4,4.4-1.7,8.9-3.5,12.9
			c-7.4,16-19,28.3-33.6,38c-2.2,1.5-4.4,3.7-5.4,6c-5.5,13-10.7,26.1-16,39.2c-0.4,1.1-0.5,2.3-1,4.8c4-3.1,7.3-5.2,10-7.9
			c13.3-13.1,26.6-26.2,39.7-39.5c1.6-1.6,2.6-3.8,3.6-5.9c7.4-16.5,15.7-32.5,27.2-46.6c4-4.9,8.9-9.1,13.8-13.1
			c3.3-2.7,7.6-3.3,11.2-0.1c3.5,3.1,3.4,7.3,1.2,10.7c-6.5,10-13.2,19.9-20.4,29.5c-5,6.7-10.8,12.9-16.3,19.2
			c-11.4,13-13.9,29.4-17.6,45.2c0.4,0.3,0.7,0.6,1.1,0.9c2.5-1.6,5.3-2.9,7.5-4.8c20.4-17.6,40.6-35.4,60.8-53.2
			c0.9-0.8,1.1-3.4,0.6-4.8c-6-18-9.8-36.3-10.4-55.3c-0.5-15.7,1.2-31.1,7-45.8c10.8-27.4,33.8-40.6,63.1-36.6
			c26.4,3.6,50.2,14.1,73.3,26.4c45,23.7,86.6,52.7,127.1,83.4c45.2,34.2,89,70.3,128.5,111.1c7,7.2,13.3,15.3,19.5,23.2
			c2.3,3,4.1,6.7,5.2,10.3c2.5,7.9-1.2,14.8-9.4,16.1c-6.2,1-12.7,0.8-19,0.2c-38.4-3.8-76.8-8.7-115.3-11.8
			c-60-4.9-120.1-5.3-180.3-3.1c-52.8,2-105.4,6.4-157.6,15.5c-36.1,6.3-71.8,14.1-105.5,29c-8.1,3.6-15.5,8.6-23,13.2
			c-2.6,1.6-4.9,3.9-6.9,6.2c-5.6,6.2-6,10.5-1.9,17.7c5.3,9.3,12.5,16.6,22.1,21.5c1.5,0.8,3.3,1.4,4.4,2.6
			c1.1,1.2,2.4,3.6,1.9,4.6c-0.7,1.4-2.9,2.1-4.6,2.9c-0.6,0.3-1.5-0.2-2.3-0.4c-17.9-4.2-30.4-14.6-36.1-32.2
			c-3.6-10.9-0.6-21.1,7.6-28.6c7.4-6.7,15.6-13,24.4-17.8c23-12.6,48.1-19.4,73.5-25.4c58.4-13.8,117.9-20,177.7-23.1
			c63.1-3.3,126.2-3.3,189.2,1.1c41.9,3,83.7,8,125.6,12.2c6.7,0.7,13.5,1.3,20.2,1.9c0.2-0.4,0.5-0.8,0.7-1.2
			c-2.5-3.6-4.8-7.5-7.6-10.9c-16.1-20-34.7-37.5-53.7-54.5c-56.8-51-117-97.3-182.3-137c-24.1-14.6-48.8-28-76-36.3
			c-11.2-3.4-22.7-5.4-34.5-4.6c-14.5,1.1-25.2,8.1-32.3,20.7c-6.1,11-8.6,23-9.3,35.3c-1.6,30.5,5.8,59.2,18.6,86.6
			c0.2,0.4,0.5,0.7,1.1,1.5c5.4-5.1,10.7-10.1,16-15c1.1-1.1,2.2-2.6,3.5-2.9c2.1-0.4,5-0.8,6.3,0.3c1.3,1.1,1.7,4.2,1.2,6.1
			c-0.5,2.1-2.4,3.9-3.7,5.9c-4.4,6.4-8.7,12.8-12.3,20c3.6-3.2,7.1-6.6,10.7-9.7c9.1-8,18.3-16,27.5-23.8c2.1-1.8,4.5-3.7,7.1-4.4
			c2.2-0.6,5.7-0.5,7.1,0.9c1.5,1.4,1.9,4.9,1.4,7.1c-0.9,3.2-2.9,6.1-4.7,9.1c-4.4,7.4-9,14.8-13.5,22.2c0.3,0.3,0.6,0.5,0.8,0.8
			c2.5-1.9,5-3.8,7.4-5.8c17-14.2,33.8-28.5,51-42.5c7.8-6.4,16.2-12.1,26.4-14.3c5.5-1.2,9.3-0.7,10.6,4.8c1.6,7,2.9,14.6,1.6,21.5
			c-6,32.4-22,59.3-48.6,79.2c-23.4,17.5-48.7,16.4-71-2.4c-7.3-6.2-13.6-13.6-20.8-20.9c-3.5,1.5-8.2,6.2-12.4,1.2
			c-2.2-2.6-1.9-7.4-2.7-11.2c-0.2,0.1-1.4,1.1-2.6,2.1c-5.6,4.5-11,9.1-16.8,13.4c-2.3,1.7-5.1,3.1-7.9,4c-7,2.1-12.8-2.7-11.7-9.9
			c0.6-3.6,2.1-7.1,3.3-10.6c0.5-1.4,1.1-2.7,1.1-4.4c-6.6,6.1-13.1,12.4-19.8,18.4c-5,4.4-10.3,8.5-15.6,12.6
			c-2.2,1.7-4.7,3.1-7.3,4.1c-8.9,3.6-16.2-1-16.4-10.7c-0.1-5.2,0.9-10.5,1.4-16.5c-1.3,1.3-2.3,2.3-3.3,3.2
			c-9.9,9.2-19.8,18.5-29.8,27.5c-2.1,1.9-4.9,3.4-7.6,4.5c-7.4,3.1-14.1-1-13.9-8.9c0.2-6,1.4-12,3.2-17.7
			c2.7-8.6,6.2-16.8,9.6-25.6c-5.1,0.3-10,0.7-15.3,1c-3.8,13.9-9.4,27-17.2,39c-3.7,5.7-8,11.2-12.8,15.9
			c-6.4,6.3-11.7,5.5-17.5-1.6c-1,1.4-2,2.7-2.9,4c-23.6,35.8-48.8,70.4-79.5,100.5c-17.8,17.4-37,32.9-60,43
			c-13.4,5.9-27.4,9.7-42.2,8.5c-23.7-2-40.6-14.6-52.1-34.7c-10.7-18.7-15.1-39.3-14.8-60.5c0.3-16.3,2.9-32.5,4.5-48.7
			c0.2-2,0.8-3.9,1.2-6.2c-13.6-5.1-25.3-12.4-32.2-26.5c-1.4,1.5-2.5,2.6-3.6,3.8c-9.1,10-18.2,20.1-27.4,30
			c-2.3,2.5-5.1,4.6-7.9,6.6c-2.9,2.1-6.3,2.8-9.6,0.7c-3.2-2-3.8-5.1-3.5-8.6c0.1-1,0.1-2.1,0.2-3.8c-4.3,3.7-7.9,7-11.8,10
			c-2.7,2.1-5.6,4-8.8,5.2c-6.8,2.7-12.4-1.2-12.2-8.5c0.1-3.4,1.1-6.7,1.9-10.9c-1.4,1.2-2.4,2-3.3,2.8
			c-6.1,5.3-12.1,10.7-18.4,15.9c-2.1,1.7-4.7,3.1-7.4,4c-7.5,2.5-13.1-2.1-12.4-10c0.1-1,0.1-2.1,0.3-3.8
			c-5.6,4.4-10.6,8.5-15.9,12.4c-3.8,2.7-7.7,5.2-11.8,7.5c-3.5,1.9-7.4,2.8-11,0c-3.8-3-3.4-7.2-2.2-11.2c1.3-4.1,3.2-8.1,5.4-13.3
			c-1.9,1.7-3.1,2.6-4.2,3.7c-9.3,9-18.6,18-27.9,26.9c-2.2,2.1-4.6,4.2-7.2,6c-3.1,2.2-6.5,3.4-9.9,1c-3.4-2.4-3.8-6-2.6-9.6
			c1.7-5,3.7-9.9,5.7-14.7c1.9-4.4,4-8.6,5.2-13.6c-3.7,3.4-7.1,7-11,10.1c-10.8,8.5-17.8,19.3-23.1,32
			c-11.5,27.2-24.1,53.9-36.2,80.8c-0.7,1.5-1.3,3.1-2.3,5.4c2.8-0.5,5.1-0.8,7.3-1.3c65.5-12.9,130.9-26.2,196.5-38.7
			c24.3-4.6,48.9-7.5,73.3-11.2c3.2-0.5,6.6-0.3,7.4,3.6c0.8,4-2.1,5.6-5.4,6.3c-15.2,3.1-30.5,6-45.8,9.1
			c-73.8,15.1-147.5,30.3-221.3,45.4c-5.6,1.2-11.3,2.2-16.8,3.9c-2,0.6-4.3,2.4-5.2,4.3c-12,24.4-23.2,49.2-35.7,73.4
			c-7.4,14.3-16.3,27.9-25.4,41.2c-3.4,5-8.5,9.2-13.7,12.4c-9.2,5.7-18.6,2.5-23.3-7.3c-4.5-9.5-4.5-19.6-3.5-29.7
			c2.6-24.9,11.9-47.5,23.4-69.4c0.9-1.7,1.8-3.3,2.6-5c0.1-0.3,0.1-0.6,0.2-1.6C577.8,487.6,437,523,297.7,565.5
			c4.1,0.4,8.3,0.8,12.4,1.2c1.4,0.1,3.1-0.3,4.1,0.4c1.9,1.2,4.3,2.8,4.7,4.6c0.7,3-2.1,4.2-4.7,4.5c-4.2,0.4-8.4,0.6-12.6,0.8
			c-10.9,0.4-21.8,0.9-32.7,1.1c-8.2,0.1-12.7-2.7-13.6-7.9c-0.9-4.9,2.1-9.5,9.6-12c21.1-7,42.2-14,63.6-20.2
			c113.3-32.8,227.7-61.7,342.5-88.8c18.9-4.5,37.9-8.7,56.8-13.3c1.9-0.5,4.2-1.7,5.2-3.2c28.1-42.5,62.9-79.2,99.6-114.1
			c3.9-3.8,7.1-8.5,9.8-13.3c3.8-6.7,6.9-13.8,9.5-21.2c-3.6,3.8-7.1,7.6-10.9,11.3c-15.3,15.1-30.6,30.1-46.1,45
			c-3,2.9-6.7,5.1-10.3,7.2c-3.2,1.9-6.9,2.6-10-0.2c-3.1-2.7-3.2-6.4-1.7-9.9c1.8-4.3,3.5-8.8,6.3-12.4
			c8.3-10.7,17.1-20.9,25.7-31.3c0.9-1.1,2-2.2,3.3-3.5c-16.6-0.6-29.9,4-39.1,18.4c-7.2,11.2-15.5,21.8-23.9,32.2
			c-4.4,5.4-9.8,10-15,14.7c-1.8,1.6-4.1,2.9-6.4,3.7c-6.6,2.5-12.3-1.3-12.1-8.3c0.1-3.9,1.1-8,2.5-11.7
			c6.3-16.9,16.6-31.6,27-46.2c2.5-3.5,4.9-7.1,8-11.7c-4.8-0.5-8.5-1.1-12.3-1.2c-29-0.4-57.4,4.4-85.6,10.4
			c-28.8,6.2-57.1,14.2-84.1,25.9c-3,1.3-5.8,3-8.6,4.6c-4.9,2.9-5.9,2.8-9.3-1.6c-4.5,8.5-9.6,16.6-13.1,25.3
			c-2.2,5.6-1.8,12.2-3,18.3c-7.1,37.1-24.6,68.8-50.1,96.4c-0.5,0.6-1.1,1.1-1.7,1.6c-3.1,2.8-6.6,4.7-10.5,2.3
			c-4.1-2.4-3.4-6.6-2.2-10.1c2.9-8.3,5.9-16.7,9.8-24.7c13-26.7,26-53.4,39.8-79.6c4.3-8.1,4.9-15.6,3.1-24.1
			c-5.8-28.7-22.1-50.7-44.2-68.8c-6.3-5.2-13.3-9.8-20.2-14.2c-2-1.3-5.3-1.8-7.7-1.2c-78,18.8-155.8,38.2-233.9,56.5
			c-37.4,8.8-75.1,16.1-112.8,23.2c-10.7,2-22,1.4-33,1.5c-3.1,0-6.4-1.3-9.3-2.7c-7-3.3-10.5-10.5-7.2-17.5c3-6.3,7-12.5,11.9-17.6
			c14.1-14.8,31.3-25.6,49.2-35.2c65.3-35.1,134.7-54.8,209.1-55.4c46-0.4,90,8.5,131,30.4c1.7,0.9,4.2,1,6.2,0.6
			c47.9-10.7,95.8-21.6,143.7-32.6c2-0.4,4-2.3,5.2-4c7.1-10.2,13.8-20.7,20.8-31c1.3-1.9,2.7-4.1,4.6-5.2c1.7-1,4.2-0.7,6.3-1
			c0.3,2.1,1.4,4.7,0.6,6.2c-2.8,5.4-6.2,10.4-9.4,15.6c-2.9,4.7-5.7,9.5-9.2,15.4c8.6-1.7,16-3.3,23.4-4.6
			c31.4-5.7,62.7-11.4,94.1-16.8c7-1.2,14.3-1.2,21.4-1.4c2.6-0.1,5.4,0.3,7.7,1.4c1.7,0.8,3.6,2.9,3.7,4.7c0.2,1.7-1.3,4.2-2.8,5.2
			c-16,10.8-32.1,21.5-48.1,32.1c-0.8,0.5-1.5,1.4-2.3,1.5c-1.7,0.1-3.8,0.3-4.9-0.6c-0.7-0.5-0.5-3.5,0.4-4.5
			c2.9-3.4,6-6.8,9.6-9.5c6.7-5,13.8-9.6,20.8-14.3c1.3-0.9,2.6-1.6,3.7-2.9c-10.3,1.9-20.7,3.8-31,5.7
			c-33.5,6.2-67,12.3-100.4,18.6c-2,0.4-4.6,1.7-5.5,3.4c-20.1,35.6-40,71.3-59.9,107c-0.3,0.6-0.6,1.3-0.9,2
			c37.5-21.8,78.4-32.5,120.2-40.5c17.5-3.4,35.4-5.2,53.2-6.9c8.4-0.8,17.2-0.2,25.5,1.3c10.8,1.9,14.3,10.1,8.6,19.5
			c-5.5,9-12.3,17.2-18,26.1c-6.4,10-12.2,20.4-18.3,30.7c0.5,0.4,1,0.8,1.5,1.2c1.9-1.6,4.1-2.9,5.7-4.8
			c8.1-9.8,16.2-19.7,24.1-29.7c3.3-4.1,6.3-8.5,9.3-12.9c7.7-11.2,18.4-17.5,31.9-18.9c7.7-0.8,15.5-1.5,23.3-2.1
			c3.8-0.3,7.8-0.4,9.5,4c1.6,4.3-1.4,6.9-4.1,9.6C814,302.4,804,313,794,323.7c-1.9,2-3.2,4.4-4.1,7.3c3.8-3.5,7.8-6.8,11.5-10.5
			c17.7-18,35.3-36.1,53-54c3.8-3.9,7.9-7.5,12.2-10.8c1.6-1.2,4.2-0.8,6.4-1.1c0.2,2,1,4.2,0.4,5.9c-3,8.8-6.5,17.5-9.7,26.2
			c-0.5,1.4-1.1,2.8-0.9,4.8c4.5-3.9,8.8-8.1,13.6-11.6c9.9-7.4,17.3-16.6,23.2-27.5c4.8-9,10.9-17.4,16.8-25.7
			c3.8-5.4,7.6-6.8,10.3-4.5c4.2,3.7,1.4,7.4-0.6,10.8c-2.5,4.3-5.1,8.6-8.1,12.6c-13.5,18.2-22.7,38.9-32.7,59
			c-0.3,0.6-0.4,1.4-1.1,3.3c11.8-11.1,22.6-21.3,33.6-31.5c6-5.6,12.2-11.1,18.4-16.5c1.6-1.4,3.4-3,5.4-3.5c1.7-0.4,4.3,0,5.5,1.1
			c1.2,1.1,1.7,3.7,1.3,5.4c-0.4,2-1.8,3.9-3,5.7c-6,9.6-12.2,19.2-18.2,28.8c-1,1.6-1.7,3.5-2.6,5.2c0.3,0.3,0.6,0.5,0.9,0.8
			c4.4-3.3,9-6.3,13.2-9.9c13.9-11.8,27.5-23.9,41.4-35.6c5-4.2,10.4-7.8,15.9-11.3c3-1.9,6.7-2.6,9,1.3c2.2,3.7-0.6,6.1-3.2,8.1
			c-5.8,4.5-11.7,8.8-17.4,13.4c-6.8,5.5-15.6,18.5-17.7,26.3c2.8-2.2,5.3-3.7,7.3-5.6c12.4-12,24.7-24.1,37.1-36.2
			c1.2-1.2,2.4-2.4,3.7-3.5c2.5-2.1,5.2-3.1,8-0.8c2.8,2.3,2.4,5.3,0.8,8c-4.4,7.7-9,15.3-13.3,23c-2.1,3.8-3.7,7.8-4.7,12.4
			c1.5-1.1,3.2-2,4.5-3.4c12.6-13.3,25.2-26.7,37.7-40.1c1.5-1.6,2.4-4,4.2-4.9c2.1-1,5.5-1.7,7-0.7c1.4,1,1.3,4.5,1.2,6.8
			c-0.1,1.3-1.7,2.5-2.5,3.9c-6.1,10-12.2,20.1-18.2,30.1c0.5,0.4,1.1,0.7,1.6,1.1c7.1-7.9,14.2-15.8,21.4-23.7
			c4.3-4.7,8.6-9.4,13.2-13.9c1.6-1.6,3.7-2.9,5.8-3.6c1.3-0.4,3.7,0,4.6,1c0.9,0.9,1.1,3.4,0.4,4.5c-1.7,2.8-0.7,5,0.8,7.3
			c6,9.2,14.8,14.3,25.6,17.6c0.6-1.8,1.1-3.4,1.6-4.9c20.2-63.7,54.5-118.1,105.8-161.3c17.7-14.9,37.3-27.1,60.3-32.6
			c9.2-2.2,18.5-2.7,27.7,0c16.8,5,27,19.3,27.7,39c0.6,15.6-3.5,30.2-9.7,44.3c-16.8,37.6-43.7,67.1-76.5,91.3
			c-27,19.9-56.5,34.7-90,40C1148.9,292.5,1137.8,292.4,1126,293.2z M1129.9,277.6c2.4,0.2,4,0.6,5.6,0.4
			c10.8-1.3,21.8-1.6,32.3-4.2c35.8-8.7,66.2-27.4,93.2-51.9c21.9-19.8,40.2-42.5,51.9-69.9c5.6-13.2,9.2-26.8,7.3-41.3
			c-1.6-12.7-9.5-20.4-22.2-21c-5.1-0.2-10.3,0.4-15.2,1.6c-18.6,4.5-34.4,14.4-48.9,26.4c-48.2,39.6-80.5,90.2-100.6,148.8
			C1132.2,270,1131.2,273.5,1129.9,277.6z M435.6,230.6c-2.3-1.1-3.5-1.8-4.8-2.3c-27.1-11.4-55.4-17.4-84.7-19.3
			c-47.4-3.1-93.5,3.9-138.8,17.4c-40.6,12.2-79.4,28.5-114.2,53c-8.3,5.9-15.6,13.3-23.1,20.3c-1.8,1.7-2.4,4.8-3.6,7.2
			c2.6,0.7,5.3,2.1,7.9,2.1c8.7-0.2,17.6,0.1,26.1-1.5c33-6.1,66.1-12.1,98.8-19.7c64-14.9,127.8-30.9,191.7-46.4
			C405.4,238,419.9,234.5,435.6,230.6z M471.8,235c15.5,11.1,28.5,22.8,39.1,37c10.7,14.2,18.2,29.9,22.2,47.7
			c21.4-37.7,42.6-74.9,64.1-112.8C555.5,216.2,514.4,225.5,471.8,235z M1577.5,243.9c7.8,7.5,14.7,15.5,22.9,21.7
			c14.9,11.4,31,11.6,47.1,1.9c10-6,18.2-14.1,25.2-23.3c13.4-17.4,23.3-36.4,25.6-58.6c0.2-1.7-0.8-3.6-1.2-5.4
			c-1.8,0.5-4,0.5-5.3,1.6c-8.9,6.7-17.8,13.6-26.5,20.7c-16.6,13.6-33,27.5-49.7,41c-3.2,2.6-7.1,4.7-11,6c-5.6,1.9-10.2-2-9.4-7.8
			c0.4-3.5,1.8-6.9,3.3-10.1c1.9-4.2,4.2-8.1,6.4-12.2c-0.2-0.2-0.5-0.3-0.7-0.5C1595.6,226.8,1587.1,234.9,1577.5,243.9z
			 M778.8,440.6c-15.1,3.5-29,6.6-42.9,9.9c-1.2,0.3-2.4,1.5-3.1,2.6c-13.3,22.5-24.2,45.9-28.3,72c-1.4,8.9-1.9,18,1,26.8
			c2.2,6.7,5.4,7.8,10.4,2.9c4.4-4.3,8.6-9.1,11.9-14.3C747.7,509.1,762,474.9,778.8,440.6z M746.6,431.4c1.7-0.2,2.6-0.2,3.4-0.4
			c10.8-2.4,21.5-4.9,32.3-7c3.4-0.7,5.3-2.3,6.7-5.5c11.5-24.6,23.1-49.2,34.6-73.7c0.6-1.3,1-2.6,1.6-3.9
			C796.5,368.7,769.6,397.9,746.6,431.4z M1546.5,213.6c-8.2,10.6-18.1,28.8-18.3,33.9c4.1-3.3,8-6.3,11.8-9.5
			c3.7-3.1,7.3-6.3,10.8-9.6c0.8-0.7,1.3-2.6,0.9-3.5C1550.3,221.2,1548.4,217.7,1546.5,213.6z M1369,269.7
			c7.5-6.1,21.1-32.8,21.5-42.8C1381.6,240.6,1372.8,253.7,1369,269.7z M514.4,386.1c-7.5,15.2-15,30.4-22.6,45.6
			C502.1,417.9,509.8,402.9,514.4,386.1z"/>
	</g>
</g>
</svg>
